{
  "accessors": [
    {
      "bufferView": 2,
      "componentType": 5126,
      "count": 51,
      "max": [
        42.708641052246094,
        148.0875244140625,
        60.155250549316406
      ],
      "min": [
        -51.27669906616211,
        100.57398986816406,
        -57.548561096191406
      ],
      "type": "VEC3"
    },
    {
      "bufferView": 2,
      "byteOffset": 612,
      "componentType": 5126,
      "count": 51,
      "max": [
        0.3908514082431793,
        0.9964178800582886,
        0.4023285210132599
      ],
      "min": [
        -0.39521104097366333,
        0.8519574403762817,
        -0.42852193117141724
      ],
      "type": "VEC3"
    },
    {
      "bufferView": 3,
      "componentType": 5126,
      "count": 51,
      "max": [
        0.8431689739227295,
        0.17500784993171692,
        0.9999671578407288,
        -1.0
      ],
      "min": [
        -0.9313995242118835,
        -0.1627623587846756,
        -0.6855869293212891,
        -1.0
      ],
      "type": "VEC4"
    },
    {
      "bufferView": 1,
      "componentType": 5126,
      "count": 51,
      "max": [
        1.0500999689102173,
        0.05000000074505806
      ],
      "min": [
        -0.04989999905228615,
        -1.0499999523162842
      ],
      "type": "VEC2"
    },
    {
      "bufferView": 0,
      "componentType": 5125,
      "count": 216,
      "type": "SCALAR"
    },
    {
      "bufferView": 2,
      "byteOffset": 1224,
      "componentType": 5126,
      "count": 128,
      "max": [
        61.48923110961914,
        126.44615173339844,
        54.14134979248047
      ],
      "min": [
        -66.27732849121094,
        2.348259925842285,
        -66.55769348144531
      ],
      "type": "VEC3"
    },
    {
      "bufferView": 2,
      "byteOffset": 2760,
      "componentType": 5126,
      "count": 128,
      "max": [
        0.9682809114456177,
        0.997387707233429,
        0.8555134534835815
      ],
      "min": [
        -0.8294960260391235,
        0.10377006232738495,
        -0.9904406070709229
      ],
      "type": "VEC3"
    },
    {
      "bufferView": 3,
      "byteOffset": 816,
      "componentType": 5126,
      "count": 128,
      "max": [
        0.995849072933197,
        0.4984379708766937,
        0.9957796335220337,
        1.0
      ],
      "min": [
        -0.9957756996154785,
        -0.7669408917427063,
        -0.9853600263595581,
        -1.0
      ],
      "type": "VEC4"
    },
    {
      "bufferView": 1,
      "byteOffset": 408,
      "componentType": 5126,
      "count": 128,
      "max": [
        0.9986100196838379,
        -0.0014900000533089042
      ],
      "min": [
        0.0015899999998509884,
        -0.9985100030899048
      ],
      "type": "VEC2"
    },
    {
      "bufferView": 0,
      "byteOffset": 864,
      "componentType": 5125,
      "count": 384,
      "type": "SCALAR"
    },
    {
      "bufferView": 2,
      "byteOffset": 4296,
      "componentType": 5126,
      "count": 240,
      "max": [
        28.32887077331543,
        129.6253662109375,
        42.18450927734375
      ],
      "min": [
        -34.39630889892578,
        -0.2979300022125244,
        -41.477500915527344
      ],
      "type": "VEC3"
    },
    {
      "bufferView": 2,
      "byteOffset": 7176,
      "componentType": 5126,
      "count": 240,
      "max": [
        0.9942347407341003,
        0.676460862159729,
        0.985523521900177
      ],
      "min": [
        -0.9939401149749756,
        -0.9957133531570435,
        -0.999998927116394
      ],
      "type": "VEC3"
    },
    {
      "bufferView": 3,
      "byteOffset": 2864,
      "componentType": 5126,
      "count": 240,
      "max": [
        0.9898660778999329,
        0.6240172982215881,
        0.9813531637191772,
        1.0
      ],
      "min": [
        -0.9975295066833496,
        -0.5968488454818726,
        -0.9992901086807251,
        -1.0
      ],
      "type": "VEC4"
    },
    {
      "bufferView": 1,
      "byteOffset": 1432,
      "componentType": 5126,
      "count": 240,
      "max": [
        0.9985399842262268,
        0.0
      ],
      "min": [
        0.0004900000058114529,
        -1.0
      ],
      "type": "VEC2"
    },
    {
      "bufferView": 0,
      "byteOffset": 2400,
      "componentType": 5125,
      "count": 1134,
      "type": "SCALAR"
    }
  ],
  "asset": {
    "extras": {
      "author": "evolveduk (https://sketchfab.com/evolveduk)",
      "license": "CC-BY-4.0 (http://creativecommons.org/licenses/by/4.0/)",
      "source": "https://sketchfab.com/3d-models/daisy-bb3f6ca7d00a489b9a356fb88f011565",
      "title": "Daisy"
    },
    "generator": "Sketchfab-13.23.0",
    "version": "2.0"
  },
  "bufferViews": [
    {
      "buffer": 0,
      "byteLength": 6936,
      "name": "floatBufferViews",
      "target": 34963
    },
    {
      "buffer": 0,
      "byteLength": 3352,
      "byteOffset": 6936,
      "byteStride": 8,
      "name": "floatBufferViews",
      "target": 34962
    },
    {
      "buffer": 0,
      "byteLength": 10056,
      "byteOffset": 10288,
      "byteStride": 12,
      "name": "floatBufferViews",
      "target": 34962
    },
    {
      "buffer": 0,
      "byteLength": 6704,
      "byteOffset": 20344,
      "byteStride": 16,
      "name": "floatBufferViews",
      "target": 34962
    }
  ],
  "buffers": [
    {
      "byteLength": 27048,
      "uri": "scene.bin"
    }
  ],
  "images": [
    {
      "uri": "textures/Tree_0Mat_baseColor.png"
    },
    {
      "uri": "textures/Tree_0Mat_metallicRoughness.png"
    },
    {
      "uri": "textures/Tree_0Mat_normal.png"
    },
    {
      "uri": "textures/Tree_1Mat_baseColor.png"
    },
    {
      "uri": "textures/Tree_1Mat_metallicRoughness.png"
    },
    {
      "uri": "textures/Tree_1Mat_normal.png"
    },
    {
      "uri": "textures/Tree_2Mat_baseColor.png"
    },
    {
      "uri": "textures/Tree_2Mat_metallicRoughness.png"
    },
    {
      "uri": "textures/Tree_2Mat_normal.png"
    }
  ],
  "materials": [
    {
      "alphaCutoff": 0.4802083015,
      "alphaMode": "MASK",
      "doubleSided": true,
      "name": "Tree_0Mat",
      "normalTexture": {
        "index": 2
      },
      "pbrMetallicRoughness": {
        "baseColorTexture": {
          "index": 0
        },
        "metallicFactor": 0.0,
        "metallicRoughnessTexture": {
          "index": 1
        }
      }
    },
    {
      "alphaCutoff": 0.2703920199822018,
      "alphaMode": "MASK",
      "doubleSided": true,
      "name": "Tree_1Mat",
      "normalTexture": {
        "index": 5
      },
      "pbrMetallicRoughness": {
        "baseColorTexture": {
          "index": 3
        },
        "metallicFactor": 0.0,
        "metallicRoughnessTexture": {
          "index": 4
        }
      }
    },
    {
      "doubleSided": true,
      "name": "Tree_2Mat",
      "normalTexture": {
        "index": 8
      },
      "pbrMetallicRoughness": {
        "baseColorTexture": {
          "index": 6
        },
        "metallicFactor": 0.0,
        "metallicRoughnessTexture": {
          "index": 7
        }
      }
    }
  ],
  "meshes": [
    {
      "name": "Tree_0_Tree_0Mat_0",
      "primitives": [
        {
          "attributes": {
            "NORMAL": 1,
            "POSITION": 0,
            "TANGENT": 2,
            "TEXCOORD_0": 3
          },
          "indices": 4,
          "material": 0,
          "mode": 4
        }
      ]
    },
    {
      "name": "Tree_1_Tree_1Mat_0",
      "primitives": [
        {
          "attributes": {
            "NORMAL": 6,
            "POSITION": 5,
            "TANGENT": 7,
            "TEXCOORD_0": 8
          },
          "indices": 9,
          "material": 1,
          "mode": 4
        }
      ]
    },
    {
      "name": "Tree_2_Tree_2Mat_0",
      "primitives": [
        {
          "attributes": {
            "NORMAL": 11,
            "POSITION": 10,
            "TANGENT": 12,
            "TEXCOORD_0": 13
          },
          "indices": 14,
          "material": 2,
          "mode": 4
        }
      ]
    }
  ],
  "nodes": [
    {
      "children": [
        1
      ],
      "matrix": [
        1.0,
        0.0,
        0.0,
        0.0,
        0.0,
        2.220446049250313e-16,
        -1.0,
        0.0,
        0.0,
        1.0,
        2.220446049250313e-16,
        0.0,
        0.0,
        0.0,
        0.0,
        1.0
      ],
      "name": "Sketchfab_model"
    },
    {
      "children": [
        2
      ],
      "matrix": [
        0.009999999776482582,
        0.0,
        0.0,
        0.0,
        0.0,
        0.0,
        0.009999999776482582,
        0.0,
        0.0,
        -0.009999999776482582,
        0.0,
        0.0,
        0.0,
        0.0,
        0.0,
        1.0
      ],
      "name": "daisy.fbx"
    },
    {
      "children": [
        3
      ],
      "name": "RootNode"
    },
    {
      "children": [
        4,
        5
      ],
      "name": "Tree_0"
    },
    {
      "mesh": 0,
      "name": "Tree_0_Tree_0Mat_0"
    },
    {
      "children": [
        6,
        7
      ],
      "name": "Tree_1"
    },
    {
      "mesh": 1,
      "name": "Tree_1_Tree_1Mat_0"
    },
    {
      "children": [
        8
      ],
      "name": "Tree_2"
    },
    {
      "mesh": 2,
      "name": "Tree_2_Tree_2Mat_0"
    }
  ],
  "samplers": [
    {
      "magFilter": 9729,
      "minFilter": 9987,
      "wrapS": 10497,
      "wrapT": 10497
    }
  ],
  "scene": 0,
  "scenes": [
    {
      "name": "Sketchfab_Scene",
      "nodes": [
        0
      ]
    }
  ],
  "textures": [
    {
      "sampler": 0,
      "source": 0
    },
    {
      "sampler": 0,
      "source": 1
    },
    {
      "sampler": 0,
      "source": 2
    },
    {
      "sampler": 0,
      "source": 3
    },
    {
      "sampler": 0,
      "source": 4
    },
    {
      "sampler": 0,
      "source": 5
    },
    {
      "sampler": 0,
      "source": 6
    },
    {
      "sampler": 0,
      "source": 7
    },
    {
      "sampler": 0,
      "source": 8
    }
  ]
}
