{
  "accessors": [
    {
      "bufferView": 2,
      "componentType": 5126,
      "count": 8,
      "max": [
        0.5121669769287109,
        8.201175689697266,
        0.27048400044441223
      ],
      "min": [
        -6.441319942474365,
        -2.5054240226745605,
        -0.27048400044441223
      ],
      "type": "VEC3"
    },
    {
      "bufferView": 2,
      "byteOffset": 96,
      "componentType": 5126,
      "count": 8,
      "max": [
        0.0,
        -0.0,
        1.0
      ],
      "min": [
        0.0,
        -0.0,
        -1.0
      ],
      "type": "VEC3"
    },
    {
      "bufferView": 3,
      "componentType": 5126,
      "count": 8,
      "max": [
        0.5324817299842834,
        -0.8464415073394775,
        0.0,
        1.0
      ],
      "min": [
        0.5324816107749939,
        -0.8464416265487671,
        0.0,
        -1.0
      ],
      "type": "VEC4"
    },
    {
      "bufferView": 1,
      "componentType": 5126,
      "count": 8,
      "max": [
        0.7209020256996155,
        0.570169985294342
      ],
      "min": [
        0.11492499709129333,
        0.5597860217094421
      ],
      "type": "VEC2"
    },
    {
      "bufferView": 0,
      "componentType": 5125,
      "count": 12,
      "type": "SCALAR"
    },
    {
      "bufferView": 2,
      "byteOffset": 192,
      "componentType": 5126,
      "count": 8,
      "max": [
        0.5121669769287109,
        8.201176643371582,
        2.360452890396118
      ],
      "min": [
        -6.441319942474365,
        -2.5054240226745605,
        -2.360452890396118
      ],
      "type": "VEC3"
    },
    {
      "bufferView": 2,
      "byteOffset": 288,
      "componentType": 5126,
      "count": 8,
      "max": [
        -0.0,
        0.0,
        1.0
      ],
      "min": [
        -0.0,
        0.0,
        -1.0
      ],
      "type": "VEC3"
    },
    {
      "bufferView": 3,
      "byteOffset": 128,
      "componentType": 5126,
      "count": 8,
      "max": [
        -0.5324816107749939,
        0.8464416265487671,
        0.0,
        1.0
      ],
      "min": [
        -0.5324817299842834,
        0.8464415669441223,
        0.0,
        -1.0
      ],
      "type": "VEC4"
    },
    {
      "bufferView": 1,
      "byteOffset": 64,
      "componentType": 5126,
      "count": 8,
      "max": [
        0.7132520079612732,
        0.5575109720230103
      ],
      "min": [
        0.10727600008249283,
        0.5471439957618713
      ],
      "type": "VEC2"
    },
    {
      "bufferView": 0,
      "byteOffset": 48,
      "componentType": 5125,
      "count": 12,
      "type": "SCALAR"
    },
    {
      "bufferView": 2,
      "byteOffset": 384,
      "componentType": 5126,
      "count": 104,
      "max": [
        0.2590639889240265,
        9.476693153381348,
        1.5987509489059448
      ],
      "min": [
        -0.2590639889240265,
        -3.9935150146484375,
        -6.140839099884033
      ],
      "type": "VEC3"
    },
    {
      "bufferView": 2,
      "byteOffset": 1632,
      "componentType": 5126,
      "count": 104,
      "max": [
        0.0,
        0.9999038577079773,
        0.9989922642707825
      ],
      "min": [
        0.0,
        -0.9947843551635742,
        -0.9862067699432373
      ],
      "type": "VEC3"
    },
    {
      "bufferView": 3,
      "byteOffset": 256,
      "componentType": 5126,
      "count": 104,
      "max": [
        0.0,
        0.9989922046661377,
        0.9999038577079773,
        1.0
      ],
      "min": [
        -1.8025803001364693e-05,
        -0.9983626008033752,
        -0.5327449440956116,
        -1.0
      ],
      "type": "VEC4"
    },
    {
      "bufferView": 1,
      "byteOffset": 128,
      "componentType": 5126,
      "count": 104,
      "max": [
        0.8716909885406494,
        0.7219300270080566
      ],
      "min": [
        0.0009749999735504389,
        0.15697699785232544
      ],
      "type": "VEC2"
    },
    {
      "bufferView": 0,
      "byteOffset": 96,
      "componentType": 5125,
      "count": 270,
      "type": "SCALAR"
    },
    {
      "bufferView": 2,
      "byteOffset": 2880,
      "componentType": 5126,
      "count": 104,
      "max": [
        0.2590639889240265,
        9.476693153381348,
        1.5987509489059448
      ],
      "min": [
        -0.2590639889240265,
        -3.9935150146484375,
        -6.140839099884033
      ],
      "type": "VEC3"
    },
    {
      "bufferView": 2,
      "byteOffset": 4128,
      "componentType": 5126,
      "count": 104,
      "max": [
        0.0,
        0.9999038577079773,
        0.9989922642707825
      ],
      "min": [
        0.0,
        -0.9947843551635742,
        -0.9862067699432373
      ],
      "type": "VEC3"
    },
    {
      "bufferView": 3,
      "byteOffset": 1920,
      "componentType": 5126,
      "count": 104,
      "max": [
        0.0,
        0.9989922046661377,
        0.9999038577079773,
        1.0
      ],
      "min": [
        -1.8025803001364693e-05,
        -0.9983626008033752,
        -0.5327449440956116,
        -1.0
      ],
      "type": "VEC4"
    },
    {
      "bufferView": 1,
      "byteOffset": 960,
      "componentType": 5126,
      "count": 104,
      "max": [
        0.8716909885406494,
        0.7219300270080566
      ],
      "min": [
        0.0009749999735504389,
        0.15697699785232544
      ],
      "type": "VEC2"
    },
    {
      "bufferView": 0,
      "byteOffset": 1176,
      "componentType": 5125,
      "count": 270,
      "type": "SCALAR"
    },
    {
      "bufferView": 2,
      "byteOffset": 5376,
      "componentType": 5126,
      "count": 104,
      "max": [
        0.2590639889240265,
        9.476693153381348,
        1.5987509489059448
      ],
      "min": [
        -0.2590639889240265,
        -3.9935150146484375,
        -6.140839099884033
      ],
      "type": "VEC3"
    },
    {
      "bufferView": 2,
      "byteOffset": 6624,
      "componentType": 5126,
      "count": 104,
      "max": [
        0.0,
        0.9999038577079773,
        0.9989922642707825
      ],
      "min": [
        0.0,
        -0.9947843551635742,
        -0.9862067699432373
      ],
      "type": "VEC3"
    },
    {
      "bufferView": 3,
      "byteOffset": 3584,
      "componentType": 5126,
      "count": 104,
      "max": [
        0.0,
        0.9989922046661377,
        0.9999038577079773,
        1.0
      ],
      "min": [
        -1.8025803001364693e-05,
        -0.9983626008033752,
        -0.5327449440956116,
        -1.0
      ],
      "type": "VEC4"
    },
    {
      "bufferView": 1,
      "byteOffset": 1792,
      "componentType": 5126,
      "count": 104,
      "max": [
        0.8716909885406494,
        0.7219300270080566
      ],
      "min": [
        0.0009749999735504389,
        0.15697699785232544
      ],
      "type": "VEC2"
    },
    {
      "bufferView": 0,
      "byteOffset": 2256,
      "componentType": 5125,
      "count": 270,
      "type": "SCALAR"
    },
    {
      "bufferView": 2,
      "byteOffset": 7872,
      "componentType": 5126,
      "count": 4,
      "max": [
        2.9182629585266113,
        12.932832717895508,
        -0.014709999784827232
      ],
      "min": [
        -2.9182629585266113,
        2.957911968231201,
        -0.014709999784827232
      ],
      "type": "VEC3"
    },
    {
      "bufferView": 2,
      "byteOffset": 7920,
      "componentType": 5126,
      "count": 4,
      "max": [
        0.0,
        0.0,
        -1.0
      ],
      "min": [
        0.0,
        0.0,
        -1.0
      ],
      "type": "VEC3"
    },
    {
      "bufferView": 3,
      "byteOffset": 5248,
      "componentType": 5126,
      "count": 4,
      "max": [
        1.0,
        0.0,
        0.0,
        1.0
      ],
      "min": [
        1.0,
        0.0,
        0.0,
        1.0
      ],
      "type": "VEC4"
    },
    {
      "bufferView": 1,
      "byteOffset": 2624,
      "componentType": 5126,
      "count": 4,
      "max": [
        0.9954659938812256,
        0.9886710047721863
      ],
      "min": [
        0.9137930274009705,
        0.8490880131721497
      ],
      "type": "VEC2"
    },
    {
      "bufferView": 0,
      "byteOffset": 3336,
      "componentType": 5125,
      "count": 6,
      "type": "SCALAR"
    },
    {
      "bufferView": 2,
      "byteOffset": 7968,
      "componentType": 5126,
      "count": 172,
      "max": [
        0.3791080117225647,
        0.35439300537109375,
        0.9512150287628174
      ],
      "min": [
        -0.3791080117225647,
        -0.6997050046920776,
        0.006674999836832285
      ],
      "type": "VEC3"
    },
    {
      "bufferView": 2,
      "byteOffset": 10032,
      "componentType": 5126,
      "count": 172,
      "max": [
        1.0,
        1.0,
        0.888260006904602
      ],
      "min": [
        -1.0,
        -0.9642305970191956,
        -1.0
      ],
      "type": "VEC3"
    },
    {
      "bufferView": 3,
      "byteOffset": 5312,
      "componentType": 5126,
      "count": 172,
      "max": [
        0.8655334115028381,
        1.0,
        0.5024222731590271,
        1.0
      ],
      "min": [
        -1.0,
        -0.9187350273132324,
        -1.0,
        1.0
      ],
      "type": "VEC4"
    },
    {
      "bufferView": 1,
      "byteOffset": 2656,
      "componentType": 5126,
      "count": 172,
      "max": [
        0.9983119964599609,
        0.8735269904136658
      ],
      "min": [
        0.0010450000409036875,
        0.0010400000028312206
      ],
      "type": "VEC2"
    },
    {
      "bufferView": 0,
      "byteOffset": 3360,
      "componentType": 5125,
      "count": 456,
      "type": "SCALAR"
    },
    {
      "bufferView": 2,
      "byteOffset": 12096,
      "componentType": 5126,
      "count": 1162,
      "max": [
        0.32910698652267456,
        9.474998474121094,
        1.5970569849014282
      ],
      "min": [
        -0.32910698652267456,
        -3.9918289184570313,
        -6.139151096343994
      ],
      "type": "VEC3"
    },
    {
      "bufferView": 2,
      "byteOffset": 26040,
      "componentType": 5126,
      "count": 1162,
      "max": [
        1.0,
        0.9999914765357971,
        0.9999979734420776
      ],
      "min": [
        -1.0,
        -1.0,
        -0.9999979734420776
      ],
      "type": "VEC3"
    },
    {
      "bufferView": 3,
      "byteOffset": 8064,
      "componentType": 5126,
      "count": 1162,
      "max": [
        0.07895202934741974,
        1.0,
        0.9999922513961792,
        1.0
      ],
      "min": [
        -0.1092129573225975,
        -1.0,
        -0.9999969005584717,
        -1.0
      ],
      "type": "VEC4"
    },
    {
      "bufferView": 1,
      "byteOffset": 4032,
      "componentType": 5126,
      "count": 1162,
      "max": [
        0.9982569813728333,
        0.6826980113983154
      ],
      "min": [
        0.0009720000089146197,
        0.4189769923686981
      ],
      "type": "VEC2"
    },
    {
      "bufferView": 0,
      "byteOffset": 5184,
      "componentType": 5125,
      "count": 3354,
      "type": "SCALAR"
    },
    {
      "bufferView": 2,
      "byteOffset": 39984,
      "componentType": 5126,
      "count": 40,
      "max": [
        0.3264710009098053,
        0.3122749924659729,
        0.05993599817156792
      ],
      "min": [
        -0.3264710009098053,
        -0.30790001153945923,
        -0.05993599817156792
      ],
      "type": "VEC3"
    },
    {
      "bufferView": 2,
      "byteOffset": 40464,
      "componentType": 5126,
      "count": 40,
      "max": [
        1.0,
        1.0,
        0.9914448857307434
      ],
      "min": [
        -1.0,
        -1.0,
        0.0
      ],
      "type": "VEC3"
    },
    {
      "bufferView": 3,
      "byteOffset": 26656,
      "componentType": 5126,
      "count": 40,
      "max": [
        0.0,
        0.00013794457481708378,
        3.1977469916455448e-06,
        1.0
      ],
      "min": [
        -1.0,
        -6.154795119073242e-05,
        -1.0,
        1.0
      ],
      "type": "VEC4"
    },
    {
      "bufferView": 1,
      "byteOffset": 13328,
      "componentType": 5126,
      "count": 40,
      "max": [
        0.9916059970855713,
        0.7569299936294556
      ],
      "min": [
        0.5762490034103394,
        0.2289469987154007
      ],
      "type": "VEC2"
    },
    {
      "bufferView": 0,
      "byteOffset": 18600,
      "componentType": 5125,
      "count": 102,
      "type": "SCALAR"
    },
    {
      "bufferView": 2,
      "byteOffset": 40944,
      "componentType": 5126,
      "count": 334,
      "max": [
        0.3791080117225647,
        0.3516870141029358,
        1.6692049503326416
      ],
      "min": [
        -0.3791080117225647,
        -0.7913550138473511,
        0.9465280175209045
      ],
      "type": "VEC3"
    },
    {
      "bufferView": 2,
      "byteOffset": 44952,
      "componentType": 5126,
      "count": 334,
      "max": [
        1.0,
        0.9581909775733948,
        1.0
      ],
      "min": [
        -1.0,
        -1.0,
        -1.0
      ],
      "type": "VEC3"
    },
    {
      "bufferView": 3,
      "byteOffset": 27296,
      "componentType": 5126,
      "count": 334,
      "max": [
        1.0,
        1.0,
        0.9999916553497314,
        1.0
      ],
      "min": [
        -1.0,
        -1.0,
        -1.0,
        -1.0
      ],
      "type": "VEC4"
    },
    {
      "bufferView": 1,
      "byteOffset": 13648,
      "componentType": 5126,
      "count": 334,
      "max": [
        0.9986590147018433,
        0.9989510178565979
      ],
      "min": [
        0.001044000033289194,
        0.0010420000180602074
      ],
      "type": "VEC2"
    },
    {
      "bufferView": 0,
      "byteOffset": 19008,
      "componentType": 5125,
      "count": 954,
      "type": "SCALAR"
    },
    {
      "bufferView": 2,
      "byteOffset": 48960,
      "componentType": 5126,
      "count": 36,
      "max": [
        0.15133200585842133,
        0.19032900035381317,
        0.23608200252056122
      ],
      "min": [
        -0.15133200585842133,
        0.10812299698591232,
        0.007899999618530273
      ],
      "type": "VEC3"
    },
    {
      "bufferView": 2,
      "byteOffset": 49392,
      "componentType": 5126,
      "count": 36,
      "max": [
        1.0,
        1.0,
        0.0
      ],
      "min": [
        -1.0,
        -1.0,
        0.0
      ],
      "type": "VEC3"
    },
    {
      "bufferView": 3,
      "byteOffset": 32640,
      "componentType": 5126,
      "count": 36,
      "max": [
        9.182793291984126e-06,
        6.122056220192462e-06,
        1.0,
        1.0
      ],
      "min": [
        -9.183037036564201e-06,
        -9.183049769490026e-06,
        1.0,
        -1.0
      ],
      "type": "VEC4"
    },
    {
      "bufferView": 1,
      "byteOffset": 16320,
      "componentType": 5126,
      "count": 36,
      "max": [
        0.41203799843788147,
        0.07938899844884872
      ],
      "min": [
        0.34100601077079773,
        0.0010460000485181808
      ],
      "type": "VEC2"
    },
    {
      "bufferView": 0,
      "byteOffset": 22824,
      "componentType": 5125,
      "count": 96,
      "type": "SCALAR"
    },
    {
      "bufferView": 2,
      "byteOffset": 49824,
      "componentType": 5126,
      "count": 144,
      "max": [
        5.3443732261657715,
        16.973175048828125,
        0.0
      ],
      "min": [
        -0.8949310183525085,
        -1.0,
        -5.845832824707031
      ],
      "type": "VEC3"
    },
    {
      "bufferView": 2,
      "byteOffset": 51552,
      "componentType": 5126,
      "count": 144,
      "max": [
        -0.0,
        0.0,
        1.0
      ],
      "min": [
        -0.0,
        0.0,
        -1.0
      ],
      "type": "VEC3"
    },
    {
      "bufferView": 3,
      "byteOffset": 33216,
      "componentType": 5126,
      "count": 144,
      "max": [
        1.0,
        6.111720267654164e-07,
        0.0,
        1.0
      ],
      "min": [
        1.0,
        -3.316856975743576e-07,
        0.0,
        -1.0
      ],
      "type": "VEC4"
    },
    {
      "bufferView": 1,
      "byteOffset": 16608,
      "componentType": 5126,
      "count": 144,
      "max": [
        0.9933680295944214,
        0.7193620204925537
      ],
      "min": [
        0.7234339714050293,
        0.5466160178184509
      ],
      "type": "VEC2"
    },
    {
      "bufferView": 0,
      "byteOffset": 23208,
      "componentType": 5125,
      "count": 216,
      "type": "SCALAR"
    },
    {
      "bufferView": 2,
      "byteOffset": 53280,
      "componentType": 5126,
      "count": 8,
      "max": [
        2.9239509105682373,
        12.986858367919922,
        -0.0025470000691711903
      ],
      "min": [
        -2.9239509105682373,
        -0.044665999710559845,
        -0.03157399967312813
      ],
      "type": "VEC3"
    },
    {
      "bufferView": 2,
      "byteOffset": 53376,
      "componentType": 5126,
      "count": 8,
      "max": [
        0.9673931002616882,
        0.0,
        -0.25328004360198975
      ],
      "min": [
        -0.9673931002616882,
        0.0,
        -0.25328004360198975
      ],
      "type": "VEC3"
    },
    {
      "bufferView": 3,
      "byteOffset": 35520,
      "componentType": 5126,
      "count": 8,
      "max": [
        0.0,
        1.0,
        0.0,
        1.0
      ],
      "min": [
        0.0,
        1.0,
        0.0,
        -1.0
      ],
      "type": "VEC4"
    },
    {
      "bufferView": 1,
      "byteOffset": 17760,
      "componentType": 5126,
      "count": 8,
      "max": [
        0.6566389799118042,
        0.20144900679588318
      ],
      "min": [
        0.45128801465034485,
        0.20097599923610687
      ],
      "type": "VEC2"
    },
    {
      "bufferView": 0,
      "byteOffset": 24072,
      "componentType": 5125,
      "count": 12,
      "type": "SCALAR"
    },
    {
      "bufferView": 2,
      "byteOffset": 53472,
      "componentType": 5126,
      "count": 20,
      "max": [
        0.6406430006027222,
        0.2526400089263916,
        0.008617999963462353
      ],
      "min": [
        -0.6406430006027222,
        -0.9814370274543762,
        -0.001969000091776252
      ],
      "type": "VEC3"
    },
    {
      "bufferView": 2,
      "byteOffset": 53712,
      "componentType": 5126,
      "count": 20,
      "max": [
        0.7815058827400208,
        0.8171248435974121,
        1.0
      ],
      "min": [
        -0.7815058827400208,
        -0.8171253204345703,
        0.5764601826667786
      ],
      "type": "VEC3"
    },
    {
      "bufferView": 3,
      "byteOffset": 35648,
      "componentType": 5126,
      "count": 20,
      "max": [
        1.0,
        6.319039130175952e-06,
        0.7814787030220032,
        -1.0
      ],
      "min": [
        0.5941994786262512,
        -0.30485615134239197,
        -0.7814753651618958,
        -1.0
      ],
      "type": "VEC4"
    },
    {
      "bufferView": 1,
      "byteOffset": 17824,
      "componentType": 5126,
      "count": 20,
      "max": [
        0.7735220193862915,
        0.9693009853363037
      ],
      "min": [
        0.5577560067176819,
        0.7607280015945435
      ],
      "type": "VEC2"
    },
    {
      "bufferView": 0,
      "byteOffset": 24120,
      "componentType": 5125,
      "count": 30,
      "type": "SCALAR"
    },
    {
      "bufferView": 2,
      "byteOffset": 53952,
      "componentType": 5126,
      "count": 62,
      "max": [
        0.06348700076341629,
        0.02809000015258789,
        0.09058400243520737
      ],
      "min": [
        -0.06348700076341629,
        -0.028091000393033028,
        -0.0651250034570694
      ],
      "type": "VEC3"
    },
    {
      "bufferView": 2,
      "byteOffset": 54696,
      "componentType": 5126,
      "count": 62,
      "max": [
        0.9968878626823425,
        -0.0,
        0.9968878626823425
      ],
      "min": [
        -0.9968878626823425,
        -1.0,
        -0.9968878626823425
      ],
      "type": "VEC3"
    },
    {
      "bufferView": 3,
      "byteOffset": 35968,
      "componentType": 5126,
      "count": 62,
      "max": [
        1.0,
        7.478715997422114e-05,
        0.9968878626823425,
        1.0
      ],
      "min": [
        -0.9968878626823425,
        -7.238531452458119e-06,
        -0.9968879222869873,
        1.0
      ],
      "type": "VEC4"
    },
    {
      "bufferView": 1,
      "byteOffset": 17984,
      "componentType": 5126,
      "count": 62,
      "max": [
        0.5463539958000183,
        0.9768120050430298
      ],
      "min": [
        0.0063299997709691525,
        0.8537520170211792
      ],
      "type": "VEC2"
    },
    {
      "bufferView": 0,
      "byteOffset": 24240,
      "componentType": 5125,
      "count": 174,
      "type": "SCALAR"
    },
    {
      "bufferView": 2,
      "byteOffset": 55440,
      "componentType": 5126,
      "count": 302,
      "max": [
        2.9149439334869385,
        9.474998474121094,
        1.5970569849014282
      ],
      "min": [
        -2.9149439334869385,
        -3.9918289184570313,
        -6.139151096343994
      ],
      "type": "VEC3"
    },
    {
      "bufferView": 2,
      "byteOffset": 59064,
      "componentType": 5126,
      "count": 302,
      "max": [
        1.0,
        0.9999914765357971,
        0.9999979734420776
      ],
      "min": [
        -1.0,
        -0.9979231357574463,
        -0.9999979734420776
      ],
      "type": "VEC3"
    },
    {
      "bufferView": 3,
      "byteOffset": 36960,
      "componentType": 5126,
      "count": 302,
      "max": [
        5.071256964583881e-06,
        0.9999980330467224,
        0.9979231953620911,
        1.0
      ],
      "min": [
        -3.3808382795541547e-06,
        -0.9999979734420776,
        -0.9999914169311523,
        -1.0
      ],
      "type": "VEC4"
    },
    {
      "bufferView": 1,
      "byteOffset": 18480,
      "componentType": 5126,
      "count": 302,
      "max": [
        0.9972969889640808,
        0.6496700048446655
      ],
      "min": [
        0.055518001317977905,
        0.42498600482940674
      ],
      "type": "VEC2"
    },
    {
      "bufferView": 0,
      "byteOffset": 24936,
      "componentType": 5125,
      "count": 870,
      "type": "SCALAR"
    },
    {
      "bufferView": 2,
      "byteOffset": 62688,
      "componentType": 5126,
      "count": 1166,
      "max": [
        2.4065229892730713,
        9.474998474121094,
        1.5970569849014282
      ],
      "min": [
        -2.4065229892730713,
        -3.9918289184570313,
        -6.139151096343994
      ],
      "type": "VEC3"
    },
    {
      "bufferView": 2,
      "byteOffset": 76680,
      "componentType": 5126,
      "count": 1166,
      "max": [
        1.0,
        0.999904215335846,
        0.9989936351776123
      ],
      "min": [
        -1.0,
        -1.0,
        -0.9989937543869019
      ],
      "type": "VEC3"
    },
    {
      "bufferView": 3,
      "byteOffset": 41792,
      "componentType": 5126,
      "count": 1166,
      "max": [
        1.0,
        0.9992388486862183,
        1.0,
        1.0
      ],
      "min": [
        -1.0,
        -0.9995197057723999,
        -0.9999051094055176,
        -1.0
      ],
      "type": "VEC4"
    },
    {
      "bufferView": 1,
      "byteOffset": 20896,
      "componentType": 5126,
      "count": 1166,
      "max": [
        0.9984750151634216,
        0.7158880233764648
      ],
      "min": [
        0.0009769999887794256,
        0.0009769999887794256
      ],
      "type": "VEC2"
    },
    {
      "bufferView": 0,
      "byteOffset": 28416,
      "componentType": 5125,
      "count": 3354,
      "type": "SCALAR"
    },
    {
      "bufferView": 2,
      "byteOffset": 90672,
      "componentType": 5126,
      "count": 8,
      "max": [
        2.985445976257324,
        3.8234939575195313,
        -0.0
      ],
      "min": [
        -2.985445976257324,
        -0.9999989867210388,
        -0.02800000086426735
      ],
      "type": "VEC3"
    },
    {
      "bufferView": 2,
      "byteOffset": 90768,
      "componentType": 5126,
      "count": 8,
      "max": [
        0.0,
        0.0,
        1.0
      ],
      "min": [
        0.0,
        -1.0,
        0.0
      ],
      "type": "VEC3"
    },
    {
      "bufferView": 3,
      "byteOffset": 60448,
      "componentType": 5126,
      "count": 8,
      "max": [
        0.0,
        0.0,
        0.0,
        1.0
      ],
      "min": [
        -1.0,
        -1.0,
        0.0,
        1.0
      ],
      "type": "VEC4"
    },
    {
      "bufferView": 1,
      "byteOffset": 30224,
      "componentType": 5126,
      "count": 8,
      "max": [
        0.9939849972724915,
        0.8294910192489624
      ],
      "min": [
        0.9140909910202026,
        0.7293710112571716
      ],
      "type": "VEC2"
    },
    {
      "bufferView": 0,
      "byteOffset": 41832,
      "componentType": 5125,
      "count": 12,
      "type": "SCALAR"
    },
    {
      "bufferView": 2,
      "byteOffset": 90864,
      "componentType": 5126,
      "count": 116,
      "max": [
        2.9993491172790527,
        2.9993491172790527,
        0.7315539717674255
      ],
      "min": [
        -2.9993491172790527,
        -5.002978801727295,
        -0.11669699847698212
      ],
      "type": "VEC3"
    },
    {
      "bufferView": 2,
      "byteOffset": 92256,
      "componentType": 5126,
      "count": 116,
      "max": [
        1.0,
        0.9914448857307434,
        1.0
      ],
      "min": [
        -1.0,
        -1.0,
        -1.0
      ],
      "type": "VEC3"
    },
    {
      "bufferView": 3,
      "byteOffset": 60576,
      "componentType": 5126,
      "count": 116,
      "max": [
        0.997630774974823,
        1.0,
        1.0,
        1.0
      ],
      "min": [
        -0.9947870969772339,
        -1.0,
        -1.0,
        1.0
      ],
      "type": "VEC4"
    },
    {
      "bufferView": 1,
      "byteOffset": 30288,
      "componentType": 5126,
      "count": 116,
      "max": [
        0.9938169717788696,
        0.5005840063095093
      ],
      "min": [
        0.0009749999735504389,
        0.2489749938249588
      ],
      "type": "VEC2"
    },
    {
      "bufferView": 0,
      "byteOffset": 41880,
      "componentType": 5125,
      "count": 324,
      "type": "SCALAR"
    },
    {
      "bufferView": 2,
      "byteOffset": 93648,
      "componentType": 5126,
      "count": 28,
      "max": [
        1.955994963645935,
        -4.847989082336426,
        4.535694122314453
      ],
      "min": [
        -1.955994963645935,
        -4.8630218505859375,
        4.237605094909668
      ],
      "type": "VEC3"
    },
    {
      "bufferView": 2,
      "byteOffset": 93984,
      "componentType": 5126,
      "count": 28,
      "max": [
        0.8660323023796082,
        1.0,
        0.0
      ],
      "min": [
        -0.8660323023796082,
        -1.0,
        0.0
      ],
      "type": "VEC3"
    },
    {
      "bufferView": 3,
      "byteOffset": 62432,
      "componentType": 5126,
      "count": 28,
      "max": [
        0.0,
        0.0,
        1.0,
        1.0
      ],
      "min": [
        0.0,
        0.0,
        1.0,
        -1.0
      ],
      "type": "VEC4"
    },
    {
      "bufferView": 1,
      "byteOffset": 31216,
      "componentType": 5126,
      "count": 28,
      "max": [
        0.5894129872322083,
        0.0028989999555051327
      ],
      "min": [
        0.5766739845275879,
        0.0009720000089146197
      ],
      "type": "VEC2"
    },
    {
      "bufferView": 0,
      "byteOffset": 43176,
      "componentType": 5125,
      "count": 72,
      "type": "SCALAR"
    },
    {
      "bufferView": 2,
      "byteOffset": 94320,
      "componentType": 5126,
      "count": 200,
      "max": [
        1.9704530239105225,
        -4.831294059753418,
        4.602105140686035
      ],
      "min": [
        -1.9704530239105225,
        -4.879715919494629,
        4.159160137176514
      ],
      "type": "VEC3"
    },
    {
      "bufferView": 2,
      "byteOffset": 96720,
      "componentType": 5126,
      "count": 200,
      "max": [
        0.8660241961479187,
        1.0,
        1.0
      ],
      "min": [
        -0.8660241961479187,
        -1.0,
        -1.0
      ],
      "type": "VEC3"
    },
    {
      "bufferView": 3,
      "byteOffset": 62880,
      "componentType": 5126,
      "count": 200,
      "max": [
        1.0,
        0.8999844789505005,
        0.6054326891899109,
        1.0
      ],
      "min": [
        -1.0,
        -0.8999737501144409,
        -0.6054047346115112,
        -1.0
      ],
      "type": "VEC4"
    },
    {
      "bufferView": 1,
      "byteOffset": 31440,
      "componentType": 5126,
      "count": 200,
      "max": [
        0.635453999042511,
        0.005477000027894974
      ],
      "min": [
        0.5894119739532471,
        0.0009800000116229057
      ],
      "type": "VEC2"
    },
    {
      "bufferView": 0,
      "byteOffset": 43464,
      "componentType": 5125,
      "count": 528,
      "type": "SCALAR"
    },
    {
      "bufferView": 2,
      "byteOffset": 99120,
      "componentType": 5126,
      "count": 40,
      "max": [
        2.919039011001587,
        0.6026520133018494,
        -2.8530070781707764
      ],
      "min": [
        -2.919039011001587,
        0.14673300087451935,
        -2.8951799869537354
      ],
      "type": "VEC3"
    },
    {
      "bufferView": 2,
      "byteOffset": 99600,
      "componentType": 5126,
      "count": 40,
      "max": [
        1.0,
        1.0,
        1.0
      ],
      "min": [
        -1.0,
        -1.0,
        -1.0
      ],
      "type": "VEC3"
    },
    {
      "bufferView": 3,
      "byteOffset": 66080,
      "componentType": 5126,
      "count": 40,
      "max": [
        1.0,
        1.0,
        9.999999974752427e-07,
        1.0
      ],
      "min": [
        -1.0,
        -1.0,
        -9.999999974752427e-07,
        -1.0
      ],
      "type": "VEC4"
    },
    {
      "bufferView": 1,
      "byteOffset": 33040,
      "componentType": 5126,
      "count": 40,
      "max": [
        0.9141129851341248,
        0.004776000045239925
      ],
      "min": [
        0.562978982925415,
        0.0009740000241436064
      ],
      "type": "VEC2"
    },
    {
      "bufferView": 0,
      "byteOffset": 45576,
      "componentType": 5125,
      "count": 60,
      "type": "SCALAR"
    },
    {
      "bufferView": 2,
      "byteOffset": 100080,
      "componentType": 5126,
      "count": 128,
      "max": [
        2.948863983154297,
        -0.06105500087141991,
        0.16594499349594116
      ],
      "min": [
        -2.948863983154297,
        -0.0765409991145134,
        -0.19843800365924835
      ],
      "type": "VEC3"
    },
    {
      "bufferView": 2,
      "byteOffset": 101616,
      "componentType": 5126,
      "count": 128,
      "max": [
        0.0,
        1.0,
        0.86603182554245
      ],
      "min": [
        0.0,
        -0.5000028610229492,
        -0.86603182554245
      ],
      "type": "VEC3"
    },
    {
      "bufferView": 3,
      "byteOffset": 66720,
      "componentType": 5126,
      "count": 128,
      "max": [
        1.0,
        3.232757762816618e-06,
        0.0,
        1.0
      ],
      "min": [
        -1.0,
        -1.084210566659749e-06,
        -7.511741841881303e-06,
        -1.0
      ],
      "type": "VEC4"
    },
    {
      "bufferView": 1,
      "byteOffset": 33360,
      "componentType": 5126,
      "count": 128,
      "max": [
        0.6272889971733093,
        0.003272000001743436
      ],
      "min": [
        0.6215659976005554,
        0.0009790000040084124
      ],
      "type": "VEC2"
    },
    {
      "bufferView": 0,
      "byteOffset": 45816,
      "componentType": 5125,
      "count": 288,
      "type": "SCALAR"
    },
    {
      "bufferView": 2,
      "byteOffset": 103152,
      "componentType": 5126,
      "count": 156,
      "max": [
        2.9931159019470215,
        2.992577075958252,
        3.76255202293396
      ],
      "min": [
        -2.9931159019470215,
        -4.999350070953369,
        -0.11669699847698212
      ],
      "type": "VEC3"
    },
    {
      "bufferView": 2,
      "byteOffset": 105024,
      "componentType": 5126,
      "count": 156,
      "max": [
        1.0,
        0.991557240486145,
        1.0
      ],
      "min": [
        -1.0,
        -0.9913889765739441,
        -1.0
      ],
      "type": "VEC3"
    },
    {
      "bufferView": 3,
      "byteOffset": 68768,
      "componentType": 5126,
      "count": 156,
      "max": [
        0.9955404996871948,
        1.0,
        0.6601481437683105,
        1.0
      ],
      "min": [
        -0.9915573000907898,
        -1.0,
        -0.6601479053497314,
        -1.0
      ],
      "type": "VEC4"
    },
    {
      "bufferView": 1,
      "byteOffset": 34384,
      "componentType": 5126,
      "count": 156,
      "max": [
        0.9997280240058899,
        0.5439389944076538
      ],
      "min": [
        0.0009740000241436064,
        0.0009749999735504389
      ],
      "type": "VEC2"
    },
    {
      "bufferView": 0,
      "byteOffset": 46968,
      "componentType": 5125,
      "count": 408,
      "type": "SCALAR"
    },
    {
      "bufferView": 2,
      "byteOffset": 106896,
      "componentType": 5126,
      "count": 96,
      "max": [
        3.0196340084075928,
        2.7203528881073,
        1.131140947341919
      ],
      "min": [
        -3.0196340084075928,
        2.166450023651123,
        -0.8484979867935181
      ],
      "type": "VEC3"
    },
    {
      "bufferView": 2,
      "byteOffset": 108048,
      "componentType": 5126,
      "count": 96,
      "max": [
        1.0,
        0.9996306300163269,
        0.7716731429100037
      ],
      "min": [
        -1.0,
        -0.9999992251396179,
        -0.7471350431442261
      ],
      "type": "VEC3"
    },
    {
      "bufferView": 3,
      "byteOffset": 71264,
      "componentType": 5126,
      "count": 96,
      "max": [
        0.9959036111831665,
        0.656043291091919,
        0.9999999403953552,
        1.0
      ],
      "min": [
        -0.996208906173706,
        -0.656043291091919,
        -0.9999999403953552,
        1.0
      ],
      "type": "VEC4"
    },
    {
      "bufferView": 1,
      "byteOffset": 35632,
      "componentType": 5126,
      "count": 96,
      "max": [
        0.9653249979019165,
        0.4465309977531433
      ],
      "min": [
        0.22860899567604065,
        0.001370999962091446
      ],
      "type": "VEC2"
    },
    {
      "bufferView": 0,
      "byteOffset": 48600,
      "componentType": 5125,
      "count": 264,
      "type": "SCALAR"
    },
    {
      "bufferView": 2,
      "byteOffset": 109200,
      "componentType": 5126,
      "count": 224,
      "max": [
        3.0287630558013916,
        -1.336366057395935,
        3.781856060028076
      ],
      "min": [
        -3.0287630558013916,
        -4.999349117279053,
        -0.8649049997329712
      ],
      "type": "VEC3"
    },
    {
      "bufferView": 2,
      "byteOffset": 111888,
      "componentType": 5126,
      "count": 224,
      "max": [
        0.9999993443489075,
        1.0,
        0.9968177676200867
      ],
      "min": [
        -0.9999993443489075,
        -1.0,
        -0.9968174695968628
      ],
      "type": "VEC3"
    },
    {
      "bufferView": 3,
      "byteOffset": 72800,
      "componentType": 5126,
      "count": 224,
      "max": [
        0.9989203810691833,
        1.9403562419029186e-06,
        0.9999993443489075,
        1.0
      ],
      "min": [
        -0.9989210963249207,
        -5.17731723448378e-06,
        -0.9999993443489075,
        1.0
      ],
      "type": "VEC4"
    },
    {
      "bufferView": 1,
      "byteOffset": 36400,
      "componentType": 5126,
      "count": 224,
      "max": [
        0.9868680238723755,
        0.40422800183296204
      ],
      "min": [
        0.28014400601387024,
        0.32897499203681946
      ],
      "type": "VEC2"
    },
    {
      "bufferView": 0,
      "byteOffset": 49656,
      "componentType": 5125,
      "count": 624,
      "type": "SCALAR"
    },
    {
      "bufferView": 2,
      "byteOffset": 114576,
      "componentType": 5126,
      "count": 100,
      "max": [
        -3.621411085128784,
        1.4368749856948853,
        2.934915065765381
      ],
      "min": [
        -3.7118680477142334,
        1.3817180395126343,
        -2.934915065765381
      ],
      "type": "VEC3"
    },
    {
      "bufferView": 2,
      "byteOffset": 115776,
      "componentType": 5126,
      "count": 100,
      "max": [
        0.991445779800415,
        0.9914452433586121,
        1.0
      ],
      "min": [
        -0.991445779800415,
        -0.9914452433586121,
        -1.0
      ],
      "type": "VEC3"
    },
    {
      "bufferView": 3,
      "byteOffset": 76384,
      "componentType": 5126,
      "count": 100,
      "max": [
        0.9912156462669373,
        0.9914458990097046,
        0.04424561560153961,
        1.0
      ],
      "min": [
        -1.0,
        -0.9914458394050598,
        -0.044243887066841125,
        -1.0
      ],
      "type": "VEC4"
    },
    {
      "bufferView": 1,
      "byteOffset": 38192,
      "componentType": 5126,
      "count": 100,
      "max": [
        0.9367420077323914,
        0.0033390000462532043
      ],
      "min": [
        0.9160659909248352,
        0.0009749999735504389
      ],
      "type": "VEC2"
    },
    {
      "bufferView": 0,
      "byteOffset": 52152,
      "componentType": 5125,
      "count": 276,
      "type": "SCALAR"
    },
    {
      "bufferView": 2,
      "byteOffset": 116976,
      "componentType": 5126,
      "count": 1860,
      "max": [
        2.3370471000671387,
        8.414054870605469,
        0.406046986579895
      ],
      "min": [
        -2.3370471000671387,
        -2.517324924468994,
        -6.453910827636719
      ],
      "type": "VEC3"
    },
    {
      "bufferView": 2,
      "byteOffset": 139296,
      "componentType": 5126,
      "count": 1860,
      "max": [
        0.5773609280586243,
        1.0,
        1.0
      ],
      "min": [
        -0.5773609280586243,
        0.0,
        -0.9914453625679016
      ],
      "type": "VEC3"
    },
    {
      "bufferView": 3,
      "byteOffset": 77984,
      "componentType": 5126,
      "count": 1860,
      "max": [
        1.0,
        0.7054673433303833,
        0.7066654562950134,
        1.0
      ],
      "min": [
        -1.0,
        -0.9914453029632568,
        -1.0,
        -1.0
      ],
      "type": "VEC4"
    },
    {
      "bufferView": 1,
      "byteOffset": 38992,
      "componentType": 5126,
      "count": 1860,
      "max": [
        0.9775969982147217,
        0.47277700901031494
      ],
      "min": [
        0.21137599647045135,
        0.0010499999625608325
      ],
      "type": "VEC2"
    },
    {
      "bufferView": 0,
      "byteOffset": 53256,
      "componentType": 5125,
      "count": 4092,
      "type": "SCALAR"
    },
    {
      "bufferView": 2,
      "byteOffset": 161616,
      "componentType": 5126,
      "count": 82,
      "max": [
        2.8771309852600098,
        0.7166450023651123,
        -2.8530080318450928
      ],
      "min": [
        -2.8771309852600098,
        -0.11246299743652344,
        -2.9521079063415527
      ],
      "type": "VEC3"
    },
    {
      "bufferView": 2,
      "byteOffset": 162600,
      "componentType": 5126,
      "count": 82,
      "max": [
        0.9999330043792725,
        0.9999330043792725,
        1.0
      ],
      "min": [
        -0.9999330043792725,
        -0.9999330043792725,
        -1.0
      ],
      "type": "VEC3"
    },
    {
      "bufferView": 3,
      "byteOffset": 107744,
      "componentType": 5126,
      "count": 82,
      "max": [
        1.0,
        0.9999330639839172,
        0.0002552303485572338,
        1.0
      ],
      "min": [
        -0.9999330639839172,
        -0.9999330639839172,
        -0.00025523093063384295,
        1.0
      ],
      "type": "VEC4"
    },
    {
      "bufferView": 1,
      "byteOffset": 53872,
      "componentType": 5126,
      "count": 82,
      "max": [
        0.9087979793548584,
        0.9922279715538025
      ],
      "min": [
        0.007706000003963709,
        0.0009790000040084124
      ],
      "type": "VEC2"
    },
    {
      "bufferView": 0,
      "byteOffset": 69624,
      "componentType": 5125,
      "count": 228,
      "type": "SCALAR"
    },
    {
      "bufferView": 2,
      "byteOffset": 163584,
      "componentType": 5126,
      "count": 82,
      "max": [
        2.8771309852600098,
        0.7166450023651123,
        -2.8530070781707764
      ],
      "min": [
        -2.8771309852600098,
        -0.11246299743652344,
        -2.9521079063415527
      ],
      "type": "VEC3"
    },
    {
      "bufferView": 2,
      "byteOffset": 164568,
      "componentType": 5126,
      "count": 82,
      "max": [
        0.9999328851699829,
        0.9999327659606934,
        1.0
      ],
      "min": [
        -0.9999328851699829,
        -0.9999327659606934,
        -1.0
      ],
      "type": "VEC3"
    },
    {
      "bufferView": 3,
      "byteOffset": 109056,
      "componentType": 5126,
      "count": 82,
      "max": [
        1.0,
        0.9999329447746277,
        0.001214274438098073,
        1.0
      ],
      "min": [
        -0.9999327659606934,
        -0.9999329447746277,
        -6.474944029832841e-07,
        1.0
      ],
      "type": "VEC4"
    },
    {
      "bufferView": 1,
      "byteOffset": 54528,
      "componentType": 5126,
      "count": 82,
      "max": [
        0.9087989926338196,
        0.8544269800186157
      ],
      "min": [
        0.007706000003963709,
        0.000981000019237399
      ],
      "type": "VEC2"
    },
    {
      "bufferView": 0,
      "byteOffset": 70536,
      "componentType": 5125,
      "count": 228,
      "type": "SCALAR"
    },
    {
      "bufferView": 2,
      "byteOffset": 165552,
      "componentType": 5126,
      "count": 28,
      "max": [
        2.9470009803771973,
        1.333117961883545,
        0.4014889895915985
      ],
      "min": [
        -2.9470009803771973,
        -1.1629929542541504,
        -0.10608100146055222
      ],
      "type": "VEC3"
    },
    {
      "bufferView": 2,
      "byteOffset": 165888,
      "componentType": 5126,
      "count": 28,
      "max": [
        0.0,
        1.0,
        1.0
      ],
      "min": [
        -1.6999998479150236e-05,
        -1.0,
        -0.0005479999235831201
      ],
      "type": "VEC3"
    },
    {
      "bufferView": 3,
      "byteOffset": 110368,
      "componentType": 5126,
      "count": 28,
      "max": [
        1.0,
        3.964412826462649e-06,
        1.0000266229326371e-05,
        1.0
      ],
      "min": [
        -1.0,
        -1.7002166714519262e-05,
        -1.0,
        1.0
      ],
      "type": "VEC4"
    },
    {
      "bufferView": 1,
      "byteOffset": 55184,
      "componentType": 5126,
      "count": 28,
      "max": [
        0.9978579878807068,
        0.4417780041694641
      ],
      "min": [
        0.3894439935684204,
        0.0009720000089146197
      ],
      "type": "VEC2"
    },
    {
      "bufferView": 0,
      "byteOffset": 71448,
      "componentType": 5125,
      "count": 42,
      "type": "SCALAR"
    },
    {
      "bufferView": 2,
      "byteOffset": 166224,
      "componentType": 5126,
      "count": 282,
      "max": [
        3.6441709995269775,
        0.1259479969739914,
        1.100000023841858
      ],
      "min": [
        -0.12403400242328644,
        -0.1259479969739914,
        -0.10000000149011612
      ],
      "type": "VEC3"
    },
    {
      "bufferView": 2,
      "byteOffset": 169608,
      "componentType": 5126,
      "count": 282,
      "max": [
        0.9848081469535828,
        1.0,
        1.0
      ],
      "min": [
        -0.9848076701164246,
        -1.0,
        0.0
      ],
      "type": "VEC3"
    },
    {
      "bufferView": 3,
      "byteOffset": 110816,
      "componentType": 5126,
      "count": 282,
      "max": [
        1.0,
        0.9850934743881226,
        0.9830732345581055,
        1.0
      ],
      "min": [
        -1.0,
        -0.9850930571556091,
        -0.03174353018403053,
        1.0
      ],
      "type": "VEC4"
    },
    {
      "bufferView": 1,
      "byteOffset": 55408,
      "componentType": 5126,
      "count": 282,
      "max": [
        0.9747560024261475,
        0.2053309977054596
      ],
      "min": [
        0.5672690272331238,
        0.0009740000241436064
      ],
      "type": "VEC2"
    },
    {
      "bufferView": 0,
      "byteOffset": 71616,
      "componentType": 5125,
      "count": 792,
      "type": "SCALAR"
    },
    {
      "bufferView": 2,
      "byteOffset": 172992,
      "componentType": 5126,
      "count": 4,
      "max": [
        2.9270060062408447,
        2.8485538959503174,
        0.0
      ],
      "min": [
        -2.9270060062408447,
        -3.2864348888397217,
        0.0
      ],
      "type": "VEC3"
    },
    {
      "bufferView": 2,
      "byteOffset": 173040,
      "componentType": 5126,
      "count": 4,
      "max": [
        0.0,
        -0.0,
        1.0
      ],
      "min": [
        0.0,
        -0.0,
        1.0
      ],
      "type": "VEC3"
    },
    {
      "bufferView": 3,
      "byteOffset": 115328,
      "componentType": 5126,
      "count": 4,
      "max": [
        1.0,
        0.0,
        0.0,
        1.0
      ],
      "min": [
        1.0,
        0.0,
        0.0,
        1.0
      ],
      "type": "VEC4"
    },
    {
      "bufferView": 1,
      "byteOffset": 57664,
      "componentType": 5126,
      "count": 4,
      "max": [
        0.581242024898529,
        0.5976790189743042
      ],
      "min": [
        0.4248259961605072,
        0.4337559938430786
      ],
      "type": "VEC2"
    },
    {
      "bufferView": 0,
      "byteOffset": 74784,
      "componentType": 5125,
      "count": 6,
      "type": "SCALAR"
    },
    {
      "bufferView": 2,
      "byteOffset": 173088,
      "componentType": 5126,
      "count": 8,
      "max": [
        14.107611656188965,
        14.107611656188965,
        -0.0
      ],
      "min": [
        -14.107611656188965,
        -14.107611656188965,
        -0.0
      ],
      "type": "VEC3"
    },
    {
      "bufferView": 2,
      "byteOffset": 173184,
      "componentType": 5126,
      "count": 8,
      "max": [
        -0.0,
        -0.0,
        1.0
      ],
      "min": [
        -0.0,
        -0.0,
        1.0
      ],
      "type": "VEC3"
    },
    {
      "bufferView": 3,
      "byteOffset": 115392,
      "componentType": 5126,
      "count": 8,
      "max": [
        -1.0,
        4.2783631215570495e-07,
        0.0,
        1.0
      ],
      "min": [
        -1.0,
        -1.1616498341027182e-06,
        0.0,
        1.0
      ],
      "type": "VEC4"
    },
    {
      "bufferView": 1,
      "byteOffset": 57696,
      "componentType": 5126,
      "count": 8,
      "max": [
        0.9983530044555664,
        0.9983530044555664
      ],
      "min": [
        0.0019330000504851341,
        0.0019330000504851341
      ],
      "type": "VEC2"
    },
    {
      "bufferView": 0,
      "byteOffset": 74808,
      "componentType": 5125,
      "count": 24,
      "type": "SCALAR"
    }
  ],
  "asset": {
    "extras": {
      "author": "Alt (https://sketchfab.com/whisper.alt)",
      "license": "CC-BY-4.0 (http://creativecommons.org/licenses/by/4.0/)",
      "source": "https://sketchfab.com/3d-models/subway-entrance-street-assets-vol-01-35c02eee93ea4a2f80af8acb84351d8c",
      "title": "Subway Entrance  [Street Assets Vol. 01]"
    },
    "generator": "Sketchfab-13.46.0",
    "version": "2.0"
  },
  "bufferViews": [
    {
      "buffer": 0,
      "byteLength": 74904,
      "name": "floatBufferViews",
      "target": 34963
    },
    {
      "buffer": 0,
      "byteLength": 57760,
      "byteOffset": 74904,
      "byteStride": 8,
      "name": "floatBufferViews",
      "target": 34962
    },
    {
      "buffer": 0,
      "byteLength": 173280,
      "byteOffset": 132664,
      "byteStride": 12,
      "name": "floatBufferViews",
      "target": 34962
    },
    {
      "buffer": 0,
      "byteLength": 115520,
      "byteOffset": 305944,
      "byteStride": 16,
      "name": "floatBufferViews",
      "target": 34962
    }
  ],
  "buffers": [
    {
      "byteLength": 421464,
      "uri": "scene.bin"
    }
  ],
  "images": [
    {
      "uri": "textures/Ground_baseColor.png"
    },
    {
      "uri": "textures/Ground_metallicRoughness.png"
    },
    {
      "uri": "textures/Ground_normal.png"
    },
    {
      "uri": "textures/Entrance_baseColor.png"
    },
    {
      "uri": "textures/Entrance_metallicRoughness.png"
    },
    {
      "uri": "textures/Entrance_emissive.png"
    },
    {
      "uri": "textures/Entrance_normal.png"
    },
    {
      "uri": "textures/Terfminal_baseColor.jpeg"
    },
    {
      "uri": "textures/Terfminal_metallicRoughness.png"
    },
    {
      "uri": "textures/Terfminal_emissive.jpeg"
    },
    {
      "uri": "textures/Terfminal_normal.png"
    }
  ],
  "materials": [
    {
      "alphaMode": "BLEND",
      "doubleSided": true,
      "name": "Ground",
      "normalTexture": {
        "index": 2
      },
      "occlusionTexture": {
        "index": 1
      },
      "pbrMetallicRoughness": {
        "baseColorTexture": {
          "index": 0
        },
        "metallicRoughnessTexture": {
          "index": 1
        }
      }
    },
    {
      "alphaMode": "BLEND",
      "doubleSided": true,
      "emissiveFactor": [
        1.0,
        1.0,
        1.0
      ],
      "emissiveTexture": {
        "index": 5
      },
      "name": "Entrance",
      "normalTexture": {
        "index": 6
      },
      "occlusionTexture": {
        "index": 4
      },
      "pbrMetallicRoughness": {
        "baseColorTexture": {
          "index": 3
        },
        "metallicRoughnessTexture": {
          "index": 4
        }
      }
    },
    {
      "doubleSided": true,
      "emissiveFactor": [
        1.0,
        1.0,
        1.0
      ],
      "emissiveTexture": {
        "index": 9
      },
      "name": "Terfminal",
      "normalTexture": {
        "index": 10
      },
      "occlusionTexture": {
        "index": 8
      },
      "pbrMetallicRoughness": {
        "baseColorTexture": {
          "index": 7
        },
        "metallicRoughnessTexture": {
          "index": 8
        }
      }
    }
  ],
  "meshes": [
    {
      "name": "defaultMaterial",
      "primitives": [
        {
          "attributes": {
            "NORMAL": 1,
            "POSITION": 0,
            "TANGENT": 2,
            "TEXCOORD_0": 3
          },
          "indices": 4,
          "material": 1,
          "mode": 4
        }
      ]
    },
    {
      "name": "defaultMaterial",
      "primitives": [
        {
          "attributes": {
            "NORMAL": 6,
            "POSITION": 5,
            "TANGENT": 7,
            "TEXCOORD_0": 8
          },
          "indices": 9,
          "material": 1,
          "mode": 4
        }
      ]
    },
    {
      "name": "defaultMaterial",
      "primitives": [
        {
          "attributes": {
            "NORMAL": 11,
            "POSITION": 10,
            "TANGENT": 12,
            "TEXCOORD_0": 13
          },
          "indices": 14,
          "material": 1,
          "mode": 4
        }
      ]
    },
    {
      "name": "defaultMaterial",
      "primitives": [
        {
          "attributes": {
            "NORMAL": 16,
            "POSITION": 15,
            "TANGENT": 17,
            "TEXCOORD_0": 18
          },
          "indices": 19,
          "material": 1,
          "mode": 4
        }
      ]
    },
    {
      "name": "defaultMaterial",
      "primitives": [
        {
          "attributes": {
            "NORMAL": 21,
            "POSITION": 20,
            "TANGENT": 22,
            "TEXCOORD_0": 23
          },
          "indices": 24,
          "material": 1,
          "mode": 4
        }
      ]
    },
    {
      "name": "defaultMaterial",
      "primitives": [
        {
          "attributes": {
            "NORMAL": 26,
            "POSITION": 25,
            "TANGENT": 27,
            "TEXCOORD_0": 28
          },
          "indices": 29,
          "material": 1,
          "mode": 4
        }
      ]
    },
    {
      "name": "defaultMaterial",
      "primitives": [
        {
          "attributes": {
            "NORMAL": 31,
            "POSITION": 30,
            "TANGENT": 32,
            "TEXCOORD_0": 33
          },
          "indices": 34,
          "material": 2,
          "mode": 4
        }
      ]
    },
    {
      "name": "defaultMaterial",
      "primitives": [
        {
          "attributes": {
            "NORMAL": 36,
            "POSITION": 35,
            "TANGENT": 37,
            "TEXCOORD_0": 38
          },
          "indices": 39,
          "material": 1,
          "mode": 4
        }
      ]
    },
    {
      "name": "defaultMaterial",
      "primitives": [
        {
          "attributes": {
            "NORMAL": 41,
            "POSITION": 40,
            "TANGENT": 42,
            "TEXCOORD_0": 43
          },
          "indices": 44,
          "material": 2,
          "mode": 4
        }
      ]
    },
    {
      "name": "defaultMaterial",
      "primitives": [
        {
          "attributes": {
            "NORMAL": 46,
            "POSITION": 45,
            "TANGENT": 47,
            "TEXCOORD_0": 48
          },
          "indices": 49,
          "material": 2,
          "mode": 4
        }
      ]
    },
    {
      "name": "defaultMaterial",
      "primitives": [
        {
          "attributes": {
            "NORMAL": 51,
            "POSITION": 50,
            "TANGENT": 52,
            "TEXCOORD_0": 53
          },
          "indices": 54,
          "material": 2,
          "mode": 4
        }
      ]
    },
    {
      "name": "defaultMaterial",
      "primitives": [
        {
          "attributes": {
            "NORMAL": 56,
            "POSITION": 55,
            "TANGENT": 57,
            "TEXCOORD_0": 58
          },
          "indices": 59,
          "material": 1,
          "mode": 4
        }
      ]
    },
    {
      "name": "defaultMaterial",
      "primitives": [
        {
          "attributes": {
            "NORMAL": 61,
            "POSITION": 60,
            "TANGENT": 62,
            "TEXCOORD_0": 63
          },
          "indices": 64,
          "material": 1,
          "mode": 4
        }
      ]
    },
    {
      "name": "defaultMaterial",
      "primitives": [
        {
          "attributes": {
            "NORMAL": 66,
            "POSITION": 65,
            "TANGENT": 67,
            "TEXCOORD_0": 68
          },
          "indices": 69,
          "material": 2,
          "mode": 4
        }
      ]
    },
    {
      "name": "defaultMaterial",
      "primitives": [
        {
          "attributes": {
            "NORMAL": 71,
            "POSITION": 70,
            "TANGENT": 72,
            "TEXCOORD_0": 73
          },
          "indices": 74,
          "material": 2,
          "mode": 4
        }
      ]
    },
    {
      "name": "defaultMaterial",
      "primitives": [
        {
          "attributes": {
            "NORMAL": 76,
            "POSITION": 75,
            "TANGENT": 77,
            "TEXCOORD_0": 78
          },
          "indices": 79,
          "material": 1,
          "mode": 4
        }
      ]
    },
    {
      "name": "defaultMaterial",
      "primitives": [
        {
          "attributes": {
            "NORMAL": 81,
            "POSITION": 80,
            "TANGENT": 82,
            "TEXCOORD_0": 83
          },
          "indices": 84,
          "material": 1,
          "mode": 4
        }
      ]
    },
    {
      "name": "defaultMaterial",
      "primitives": [
        {
          "attributes": {
            "NORMAL": 86,
            "POSITION": 85,
            "TANGENT": 87,
            "TEXCOORD_0": 88
          },
          "indices": 89,
          "material": 1,
          "mode": 4
        }
      ]
    },
    {
      "name": "defaultMaterial",
      "primitives": [
        {
          "attributes": {
            "NORMAL": 91,
            "POSITION": 90,
            "TANGENT": 92,
            "TEXCOORD_0": 93
          },
          "indices": 94,
          "material": 1,
          "mode": 4
        }
      ]
    },
    {
      "name": "defaultMaterial",
      "primitives": [
        {
          "attributes": {
            "NORMAL": 96,
            "POSITION": 95,
            "TANGENT": 97,
            "TEXCOORD_0": 98
          },
          "indices": 99,
          "material": 1,
          "mode": 4
        }
      ]
    },
    {
      "name": "defaultMaterial",
      "primitives": [
        {
          "attributes": {
            "NORMAL": 101,
            "POSITION": 100,
            "TANGENT": 102,
            "TEXCOORD_0": 103
          },
          "indices": 104,
          "material": 1,
          "mode": 4
        }
      ]
    },
    {
      "name": "defaultMaterial",
      "primitives": [
        {
          "attributes": {
            "NORMAL": 106,
            "POSITION": 105,
            "TANGENT": 107,
            "TEXCOORD_0": 108
          },
          "indices": 109,
          "material": 1,
          "mode": 4
        }
      ]
    },
    {
      "name": "defaultMaterial",
      "primitives": [
        {
          "attributes": {
            "NORMAL": 111,
            "POSITION": 110,
            "TANGENT": 112,
            "TEXCOORD_0": 113
          },
          "indices": 114,
          "material": 1,
          "mode": 4
        }
      ]
    },
    {
      "name": "defaultMaterial",
      "primitives": [
        {
          "attributes": {
            "NORMAL": 116,
            "POSITION": 115,
            "TANGENT": 117,
            "TEXCOORD_0": 118
          },
          "indices": 119,
          "material": 1,
          "mode": 4
        }
      ]
    },
    {
      "name": "defaultMaterial",
      "primitives": [
        {
          "attributes": {
            "NORMAL": 121,
            "POSITION": 120,
            "TANGENT": 122,
            "TEXCOORD_0": 123
          },
          "indices": 124,
          "material": 1,
          "mode": 4
        }
      ]
    },
    {
      "name": "defaultMaterial",
      "primitives": [
        {
          "attributes": {
            "NORMAL": 126,
            "POSITION": 125,
            "TANGENT": 127,
            "TEXCOORD_0": 128
          },
          "indices": 129,
          "material": 1,
          "mode": 4
        }
      ]
    },
    {
      "name": "defaultMaterial",
      "primitives": [
        {
          "attributes": {
            "NORMAL": 131,
            "POSITION": 130,
            "TANGENT": 132,
            "TEXCOORD_0": 133
          },
          "indices": 134,
          "material": 1,
          "mode": 4
        }
      ]
    },
    {
      "name": "defaultMaterial",
      "primitives": [
        {
          "attributes": {
            "NORMAL": 136,
            "POSITION": 135,
            "TANGENT": 137,
            "TEXCOORD_0": 138
          },
          "indices": 139,
          "material": 1,
          "mode": 4
        }
      ]
    },
    {
      "name": "defaultMaterial",
      "primitives": [
        {
          "attributes": {
            "NORMAL": 141,
            "POSITION": 140,
            "TANGENT": 142,
            "TEXCOORD_0": 143
          },
          "indices": 144,
          "material": 1,
          "mode": 4
        }
      ]
    },
    {
      "name": "defaultMaterial",
      "primitives": [
        {
          "attributes": {
            "NORMAL": 146,
            "POSITION": 145,
            "TANGENT": 147,
            "TEXCOORD_0": 148
          },
          "indices": 149,
          "material": 1,
          "mode": 4
        }
      ]
    },
    {
      "name": "defaultMaterial",
      "primitives": [
        {
          "attributes": {
            "NORMAL": 151,
            "POSITION": 150,
            "TANGENT": 152,
            "TEXCOORD_0": 153
          },
          "indices": 154,
          "material": 1,
          "mode": 4
        }
      ]
    },
    {
      "name": "defaultMaterial",
      "primitives": [
        {
          "attributes": {
            "NORMAL": 156,
            "POSITION": 155,
            "TANGENT": 157,
            "TEXCOORD_0": 158
          },
          "indices": 159,
          "material": 1,
          "mode": 4
        }
      ]
    },
    {
      "name": "defaultMaterial",
      "primitives": [
        {
          "attributes": {
            "NORMAL": 161,
            "POSITION": 160,
            "TANGENT": 162,
            "TEXCOORD_0": 163
          },
          "indices": 164,
          "material": 0,
          "mode": 4
        }
      ]
    },
    {
      "name": "defaultMaterial",
      "primitives": [
        {
          "attributes": {
            "NORMAL": 166,
            "POSITION": 165,
            "TANGENT": 167,
            "TEXCOORD_0": 168
          },
          "indices": 169,
          "material": 0,
          "mode": 4
        }
      ]
    }
  ],
  "nodes": [
    {
      "children": [
        1
      ],
      "matrix": [
        0.007692307699471712,
        0.0,
        0.0,
        0.0,
        0.0,
        1.7080354240909728e-18,
        -0.007692307699471712,
        0.0,
        0.0,
        0.007692307699471712,
        1.7080354240909728e-18,
        0.0,
        0.0,
        0.0,
        0.0,
        1.0
      ],
      "name": "Sketchfab_model"
    },
    {
      "children": [
        2,
        4,
        6,
        8,
        10,
        12,
        14,
        16,
        18,
        20,
        22,
        24,
        26,
        28,
        30,
        32,
        34,
        36,
        38,
        40,
        42,
        44,
        46,
        48,
        50,
        52,
        54,
        56,
        58,
        60,
        62,
        64,
        66,
        68
      ],
      "matrix": [
        1.0,
        0.0,
        0.0,
        0.0,
        0.0,
        -4.371139006309477e-08,
        0.999999999999999,
        0.0,
        0.0,
        -0.999999999999999,
        -4.371139006309477e-08,
        0.0,
        0.0,
        0.0,
        0.0,
        1.0
      ],
      "name": "Collada visual scene group"
    },
    {
      "children": [
        3
      ],
      "matrix": [
        -4e-06,
        100.0,
        -6e-06,
        0.0,
        1.6e-05,
        -6e-06,
        -100.0,
        0.0,
        -100.0,
        -4e-06,
        -1.6e-05,
        0.0,
        0.0,
        0.0,
        0.0,
        1.0
      ],
      "name": "Plane.001"
    },
    {
      "mesh": 0,
      "name": "defaultMaterial"
    },
    {
      "children": [
        5
      ],
      "matrix": [
        -4e-06,
        100.0,
        -6e-06,
        0.0,
        1.6e-05,
        -6e-06,
        -100.0,
        0.0,
        -100.0,
        -4e-06,
        -1.6e-05,
        0.0,
        0.0,
        0.0,
        0.0,
        1.0
      ],
      "name": "Plane"
    },
    {
      "mesh": 1,
      "name": "defaultMaterial"
    },
    {
      "children": [
        7
      ],
      "matrix": [
        100.0,
        0.0,
        0.0,
        0.0,
        0.0,
        -1.6e-05,
        -100.0,
        0.0,
        0.0,
        100.0,
        -1.6e-05,
        0.0,
        -263.541443,
        0.0,
        0.0,
        1.0
      ],
      "name": "rubber.003"
    },
    {
      "mesh": 2,
      "name": "defaultMaterial"
    },
    {
      "children": [
        9
      ],
      "matrix": [
        100.0,
        0.0,
        0.0,
        0.0,
        0.0,
        -1.6e-05,
        -100.0,
        0.0,
        0.0,
        100.0,
        -1.6e-05,
        0.0,
        263.596497,
        0.0,
        0.0,
        1.0
      ],
      "name": "rubber.002"
    },
    {
      "mesh": 3,
      "name": "defaultMaterial"
    },
    {
      "children": [
        11
      ],
      "matrix": [
        100.0,
        0.0,
        0.0,
        0.0,
        0.0,
        -1.6e-05,
        -100.0,
        0.0,
        0.0,
        100.0,
        -1.6e-05,
        0.0,
        0.0,
        0.0,
        0.0,
        1.0
      ],
      "name": "rubber.001"
    },
    {
      "mesh": 4,
      "name": "defaultMaterial"
    },
    {
      "children": [
        13
      ],
      "matrix": [
        100.0,
        0.0,
        0.0,
        0.0,
        0.0,
        -1.6e-05,
        -100.0,
        0.0,
        0.0,
        100.0,
        -1.6e-05,
        0.0,
        0.0,
        0.0,
        0.0,
        1.0
      ],
      "name": "Floor"
    },
    {
      "mesh": 5,
      "name": "defaultMaterial"
    },
    {
      "children": [
        15
      ],
      "matrix": [
        8e-06,
        0.0,
        -100.0,
        0.0,
        -100.0,
        -1.6e-05,
        -8e-06,
        0.0,
        -1.6e-05,
        100.0,
        0.0,
        0.0,
        352.474915,
        0.189989,
        86.752556,
        1.0
      ],
      "name": "Terminal_low.003"
    },
    {
      "mesh": 6,
      "name": "defaultMaterial"
    },
    {
      "children": [
        17
      ],
      "matrix": [
        100.0,
        0.0,
        0.0,
        0.0,
        0.0,
        -1.6e-05,
        -100.0,
        0.0,
        0.0,
        100.0,
        -1.6e-05,
        0.0,
        0.0,
        0.0,
        0.0,
        1.0
      ],
      "name": "Handler_Center_low"
    },
    {
      "mesh": 7,
      "name": "defaultMaterial"
    },
    {
      "children": [
        19
      ],
      "matrix": [
        1.9e-05,
        0.0,
        -100.0,
        0.0,
        1.6e-05,
        99.999992,
        0.0,
        0.0,
        99.999992,
        -1.6e-05,
        1.9e-05,
        0.0,
        416.882904,
        126.037384,
        86.752556,
        1.0
      ],
      "name": "Terminal_low.002"
    },
    {
      "mesh": 8,
      "name": "defaultMaterial"
    },
    {
      "children": [
        21
      ],
      "matrix": [
        8e-06,
        0.0,
        -100.0,
        0.0,
        -100.0,
        -1.6e-05,
        -8e-06,
        0.0,
        -1.6e-05,
        100.0,
        0.0,
        0.0,
        352.474915,
        0.189989,
        86.752556,
        1.0
      ],
      "name": "TerminalG2_low"
    },
    {
      "mesh": 9,
      "name": "defaultMaterial"
    },
    {
      "children": [
        23
      ],
      "matrix": [
        8e-06,
        0.0,
        -100.0,
        0.0,
        -100.0,
        -1.6e-05,
        -8e-06,
        0.0,
        -1.6e-05,
        100.0,
        0.0,
        0.0,
        355.260834,
        0.189989,
        86.752556,
        1.0
      ],
      "name": "Terminal"
    },
    {
      "mesh": 10,
      "name": "defaultMaterial"
    },
    {
      "children": [
        25
      ],
      "matrix": [
        -4e-06,
        -100.0,
        6e-06,
        0.0,
        -1.6e-05,
        -6e-06,
        -100.0,
        0.0,
        100.0,
        -4e-06,
        -1.6e-05,
        0.0,
        292.291534,
        -89.686249,
        399.733856,
        1.0
      ],
      "name": "Wall"
    },
    {
      "mesh": 11,
      "name": "defaultMaterial"
    },
    {
      "children": [
        27
      ],
      "matrix": [
        100.0,
        0.0,
        0.0,
        0.0,
        0.0,
        -1.6e-05,
        -100.0,
        0.0,
        0.0,
        100.0,
        -1.6e-05,
        0.0,
        0.0,
        0.0,
        0.0,
        1.0
      ],
      "name": "Karniz"
    },
    {
      "mesh": 12,
      "name": "defaultMaterial"
    },
    {
      "children": [
        29
      ],
      "matrix": [
        8e-06,
        0.0,
        -100.0,
        0.0,
        -100.0,
        -1.6e-05,
        -8e-06,
        0.0,
        -1.6e-05,
        100.0,
        0.0,
        0.0,
        352.474915,
        0.189989,
        86.752556,
        1.0
      ],
      "name": "Terminal.004"
    },
    {
      "mesh": 13,
      "name": "defaultMaterial"
    },
    {
      "children": [
        31
      ],
      "matrix": [
        8e-06,
        0.0,
        -100.0,
        0.0,
        -100.0,
        -1.6e-05,
        -8e-06,
        0.0,
        -1.6e-05,
        100.0,
        0.0,
        0.0,
        421.693512,
        77.699333,
        102.024933,
        1.0
      ],
      "name": "TerminalBox_low"
    },
    {
      "mesh": 14,
      "name": "defaultMaterial"
    },
    {
      "children": [
        33
      ],
      "matrix": [
        100.0,
        0.0,
        0.0,
        0.0,
        0.0,
        -1.6e-05,
        -100.0,
        0.0,
        0.0,
        100.0,
        -1.6e-05,
        0.0,
        0.0,
        0.0,
        0.0,
        1.0
      ],
      "name": "HandlerLeft_low.002"
    },
    {
      "mesh": 15,
      "name": "defaultMaterial"
    },
    {
      "children": [
        35
      ],
      "matrix": [
        100.0,
        0.0,
        0.0,
        0.0,
        0.0,
        -1.6e-05,
        -100.0,
        0.0,
        0.0,
        100.0,
        -1.6e-05,
        0.0,
        0.0,
        0.0,
        0.0,
        1.0
      ],
      "name": "HandlerLeft_low.001"
    },
    {
      "mesh": 16,
      "name": "defaultMaterial"
    },
    {
      "children": [
        37
      ],
      "matrix": [
        100.0,
        0.0,
        0.0,
        0.0,
        0.0,
        -1.6e-05,
        -100.0,
        0.0,
        0.0,
        100.0,
        -1.6e-05,
        0.0,
        0.0,
        -611.864075,
        -915.266907,
        1.0
      ],
      "name": "Floor_Underground"
    },
    {
      "mesh": 17,
      "name": "defaultMaterial"
    },
    {
      "children": [
        39
      ],
      "matrix": [
        100.0,
        0.0,
        0.0,
        0.0,
        0.0,
        -1.6e-05,
        -100.0,
        0.0,
        0.0,
        100.0,
        -1.6e-05,
        0.0,
        0.0,
        10.6152,
        0.0,
        1.0
      ],
      "name": "Fundament"
    },
    {
      "mesh": 18,
      "name": "defaultMaterial"
    },
    {
      "children": [
        41
      ],
      "matrix": [
        100.0,
        0.0,
        0.0,
        0.0,
        0.0,
        -1.6e-05,
        -100.0,
        0.0,
        0.0,
        100.0,
        -1.6e-05,
        0.0,
        0.0,
        0.0,
        0.0,
        1.0
      ],
      "name": "SCreen_Handlers.002"
    },
    {
      "mesh": 19,
      "name": "defaultMaterial"
    },
    {
      "children": [
        43
      ],
      "matrix": [
        100.0,
        0.0,
        0.0,
        0.0,
        0.0,
        -1.6e-05,
        -100.0,
        0.0,
        0.0,
        100.0,
        -1.6e-05,
        0.0,
        0.0,
        0.0,
        0.0,
        1.0
      ],
      "name": "SCreen_Handlers.001"
    },
    {
      "mesh": 20,
      "name": "defaultMaterial"
    },
    {
      "children": [
        45
      ],
      "matrix": [
        100.0,
        0.0,
        0.0,
        0.0,
        0.0,
        100.0,
        -3.1e-05,
        0.0,
        0.0,
        3.1e-05,
        100.0,
        0.0,
        0.0,
        -3e-06,
        -2.4e-05,
        1.0
      ],
      "name": "SCreen_Handlers.003"
    },
    {
      "mesh": 21,
      "name": "defaultMaterial"
    },
    {
      "children": [
        47
      ],
      "matrix": [
        100.0,
        0.0,
        0.0,
        0.0,
        0.0,
        -1.6e-05,
        -100.0,
        0.0,
        0.0,
        100.0,
        -1.6e-05,
        0.0,
        0.0,
        38.922405,
        -294.912079,
        1.0
      ],
      "name": "SCreen_Handlers"
    },
    {
      "mesh": 22,
      "name": "defaultMaterial"
    },
    {
      "children": [
        49
      ],
      "matrix": [
        100.0,
        0.0,
        0.0,
        0.0,
        0.0,
        -1.6e-05,
        -100.0,
        0.0,
        0.0,
        100.0,
        -1.6e-05,
        0.0,
        0.0,
        83.711357,
        0.0,
        1.0
      ],
      "name": "Glass"
    },
    {
      "mesh": 23,
      "name": "defaultMaterial"
    },
    {
      "children": [
        51
      ],
      "matrix": [
        100.0,
        0.0,
        0.0,
        0.0,
        0.0,
        -1.6e-05,
        -100.0,
        0.0,
        0.0,
        100.0,
        -1.6e-05,
        0.0,
        0.0,
        83.711357,
        0.0,
        1.0
      ],
      "name": "Opora_low.001"
    },
    {
      "mesh": 24,
      "name": "defaultMaterial"
    },
    {
      "children": [
        53
      ],
      "matrix": [
        100.0,
        0.0,
        0.0,
        0.0,
        0.0,
        -1.6e-05,
        -100.0,
        0.0,
        0.0,
        100.0,
        -1.6e-05,
        0.0,
        0.0,
        82.951897,
        1.251724,
        1.0
      ],
      "name": "Opora_low"
    },
    {
      "mesh": 25,
      "name": "defaultMaterial"
    },
    {
      "children": [
        55
      ],
      "matrix": [
        8e-06,
        0.0,
        -100.0,
        0.0,
        4e-06,
        100.0,
        0.0,
        0.0,
        100.0,
        -4e-06,
        8e-06,
        0.0,
        0.0,
        0.0,
        0.0,
        1.0
      ],
      "name": "Box"
    },
    {
      "mesh": 26,
      "name": "defaultMaterial"
    },
    {
      "children": [
        57
      ],
      "matrix": [
        100.0,
        0.0,
        0.0,
        0.0,
        0.0,
        -1.6e-05,
        -100.0,
        0.0,
        0.0,
        100.0,
        -1.6e-05,
        0.0,
        0.0,
        0.0,
        0.0,
        1.0
      ],
      "name": "Auto_Steps_low"
    },
    {
      "mesh": 27,
      "name": "defaultMaterial"
    },
    {
      "children": [
        59
      ],
      "matrix": [
        100.0,
        0.0,
        0.0,
        0.0,
        0.0,
        99.999992,
        -3.1e-05,
        0.0,
        0.0,
        3.1e-05,
        99.999992,
        0.0,
        0.0,
        1.153816,
        0.279208,
        1.0
      ],
      "name": "Screens_low.003"
    },
    {
      "mesh": 28,
      "name": "defaultMaterial"
    },
    {
      "children": [
        61
      ],
      "matrix": [
        100.0,
        0.0,
        0.0,
        0.0,
        0.0,
        99.999992,
        -3.1e-05,
        0.0,
        0.0,
        3.1e-05,
        99.999992,
        0.0,
        0.0,
        345.344482,
        776.046753,
        1.0
      ],
      "name": "Screens_low.001"
    },
    {
      "mesh": 29,
      "name": "defaultMaterial"
    },
    {
      "children": [
        63
      ],
      "matrix": [
        100.0,
        0.0,
        0.0,
        0.0,
        0.0,
        -1.6e-05,
        -100.0,
        0.0,
        0.0,
        100.0,
        -1.6e-05,
        0.0,
        0.0,
        10.6152,
        383.635529,
        1.0
      ],
      "name": "Steps_low"
    },
    {
      "mesh": 30,
      "name": "defaultMaterial"
    },
    {
      "children": [
        65
      ],
      "matrix": [
        100.0,
        0.0,
        0.0,
        0.0,
        0.0,
        -1.6e-05,
        -100.0,
        0.0,
        0.0,
        100.0,
        -1.6e-05,
        0.0,
        -185.614059,
        9.813981,
        600.0,
        1.0
      ],
      "name": "Stolb_low"
    },
    {
      "mesh": 31,
      "name": "defaultMaterial"
    },
    {
      "children": [
        67
      ],
      "matrix": [
        100.0,
        0.0,
        0.0,
        0.0,
        0.0,
        100.0,
        -8e-06,
        0.0,
        0.0,
        8e-06,
        100.0,
        0.0,
        0.0,
        -284.867889,
        -1292.824829,
        1.0
      ],
      "name": "Black"
    },
    {
      "mesh": 32,
      "name": "defaultMaterial"
    },
    {
      "children": [
        69
      ],
      "matrix": [
        100.0,
        0.0,
        0.0,
        0.0,
        0.0,
        -1.6e-05,
        -100.0,
        0.0,
        0.0,
        100.0,
        -1.6e-05,
        0.0,
        0.0,
        0.107262,
        0.0,
        1.0
      ],
      "name": "Ground"
    },
    {
      "mesh": 33,
      "name": "defaultMaterial"
    }
  ],
  "samplers": [
    {
      "magFilter": 9729,
      "minFilter": 9987,
      "wrapS": 10497,
      "wrapT": 10497
    }
  ],
  "scene": 0,
  "scenes": [
    {
      "name": "Sketchfab_Scene",
      "nodes": [
        0
      ]
    }
  ],
  "textures": [
    {
      "sampler": 0,
      "source": 0
    },
    {
      "sampler": 0,
      "source": 1
    },
    {
      "sampler": 0,
      "source": 2
    },
    {
      "sampler": 0,
      "source": 3
    },
    {
      "sampler": 0,
      "source": 4
    },
    {
      "sampler": 0,
      "source": 5
    },
    {
      "sampler": 0,
      "source": 6
    },
    {
      "sampler": 0,
      "source": 7
    },
    {
      "sampler": 0,
      "source": 8
    },
    {
      "sampler": 0,
      "source": 9
    },
    {
      "sampler": 0,
      "source": 10
    }
  ]
}
