{
  "accessors": [
    {
      "bufferView": 2,
      "componentType": 5126,
      "count": 10453,
      "max": [
        2.8515117168426514,
        3.8277955055236816,
        -3.0958609580993652
      ],
      "min": [
        -2.9307665824890137,
        -3.8277955055236816,
        -4.6918396949768066
      ],
      "type": "VEC3"
    },
    {
      "bufferView": 2,
      "byteOffset": 125436,
      "componentType": 5126,
      "count": 10453,
      "max": [
        1,
        1,
        1
      ],
      "min": [
        -1,
        -1,
        -1
      ],
      "type": "VEC3"
    },
    {
      "bufferView": 3,
      "componentType": 5126,
      "count": 10453,
      "max": [
        1,
        1,
        1,
        1
      ],
      "min": [
        -1,
        -1,
        -1,
        1
      ],
      "type": "VEC4"
    },
    {
      "bufferView": 1,
      "componentType": 5126,
      "count": 10453,
      "max": [
        1,
        1
      ],
      "min": [
        0,
        0
      ],
      "type": "VEC2"
    },
    {
      "bufferView": 1,
      "byteOffset": 83624,
      "componentType": 5126,
      "count": 10453,
      "max": [
        1,
        1
      ],
      "min": [
        0,
        0
      ],
      "type": "VEC2"
    },
    {
      "bufferView": 1,
      "byteOffset": 167248,
      "componentType": 5126,
      "count": 10453,
      "max": [
        1,
        1
      ],
      "min": [
        0,
        0
      ],
      "type": "VEC2"
    },
    {
      "bufferView": 0,
      "componentType": 5125,
      "count": 32796,
      "max": [
        10452
      ],
      "min": [
        0
      ],
      "type": "SCALAR"
    },
    {
      "bufferView": 2,
      "byteOffset": 250872,
      "componentType": 5126,
      "count": 580,
      "max": [
        2.3641629219055176,
        3.405299186706543,
        -3.2138996124267578
      ],
      "min": [
        -0.56256014108657837,
        -3.405299186706543,
        -4.6316838264465332
      ],
      "type": "VEC3"
    },
    {
      "bufferView": 2,
      "byteOffset": 257832,
      "componentType": 5126,
      "count": 580,
      "max": [
        1,
        1,
        1
      ],
      "min": [
        -1,
        -1,
        -1
      ],
      "type": "VEC3"
    },
    {
      "bufferView": 3,
      "byteOffset": 167248,
      "componentType": 5126,
      "count": 580,
      "max": [
        0.77906501293182373,
        1,
        0.97729015350341797,
        1
      ],
      "min": [
        -0.77906417846679688,
        -1,
        -0.97729045152664185,
        1
      ],
      "type": "VEC4"
    },
    {
      "bufferView": 1,
      "byteOffset": 250872,
      "componentType": 5126,
      "count": 580,
      "max": [
        0.97101122140884399,
        0.94704359769821167
      ],
      "min": [
        0.28765034675598145,
        0
      ],
      "type": "VEC2"
    },
    {
      "bufferView": 1,
      "byteOffset": 255512,
      "componentType": 5126,
      "count": 580,
      "max": [
        0.97101122140884399,
        0.94704359769821167
      ],
      "min": [
        0.28765034675598145,
        0
      ],
      "type": "VEC2"
    },
    {
      "bufferView": 1,
      "byteOffset": 260152,
      "componentType": 5126,
      "count": 580,
      "max": [
        0.97101122140884399,
        0.94704359769821167
      ],
      "min": [
        0.28765034675598145,
        0
      ],
      "type": "VEC2"
    },
    {
      "bufferView": 0,
      "byteOffset": 131184,
      "componentType": 5125,
      "count": 2304,
      "max": [
        579
      ],
      "min": [
        0
      ],
      "type": "SCALAR"
    },
    {
      "bufferView": 2,
      "byteOffset": 264792,
      "componentType": 5126,
      "count": 120,
      "max": [
        -2.7180991172790527,
        0.44576376676559448,
        -3.487994909286499
      ],
      "min": [
        -2.7629365921020508,
        -0.44576376676559448,
        -3.7199671268463135
      ],
      "type": "VEC3"
    },
    {
      "bufferView": 2,
      "byteOffset": 266232,
      "componentType": 5126,
      "count": 120,
      "max": [
        1,
        0,
        1
      ],
      "min": [
        -1,
        0,
        -1
      ],
      "type": "VEC3"
    },
    {
      "bufferView": 3,
      "byteOffset": 176528,
      "componentType": 5126,
      "count": 120,
      "max": [
        1,
        0.00072959309909492731,
        0.70712828636169434,
        1
      ],
      "min": [
        -1,
        -0.00062489957781508565,
        -1,
        1
      ],
      "type": "VEC4"
    },
    {
      "bufferView": 1,
      "byteOffset": 264792,
      "componentType": 5126,
      "count": 120,
      "max": [
        0.99571776390075684,
        0.931892991065979
      ],
      "min": [
        0.54314148426055908,
        0.0056108077988028526
      ],
      "type": "VEC2"
    },
    {
      "bufferView": 0,
      "byteOffset": 140400,
      "componentType": 5125,
      "count": 384,
      "max": [
        119
      ],
      "min": [
        0
      ],
      "type": "SCALAR"
    },
    {
      "bufferView": 2,
      "byteOffset": 267672,
      "componentType": 5126,
      "count": 44393,
      "max": [
        3.2242450714111328,
        4.0594406127929688,
        13.22509765625
      ],
      "min": [
        -3.3163962364196777,
        -4.0594406127929688,
        -3.1769444942474365
      ],
      "type": "VEC3"
    },
    {
      "bufferView": 2,
      "byteOffset": 800388,
      "componentType": 5126,
      "count": 44393,
      "max": [
        1,
        1,
        1
      ],
      "min": [
        -1,
        -1,
        -1
      ],
      "type": "VEC3"
    },
    {
      "bufferView": 3,
      "byteOffset": 178448,
      "componentType": 5126,
      "count": 44393,
      "max": [
        1,
        1,
        1,
        1
      ],
      "min": [
        -1,
        -1,
        -1,
        1
      ],
      "type": "VEC4"
    },
    {
      "bufferView": 1,
      "byteOffset": 265752,
      "componentType": 5126,
      "count": 44393,
      "max": [
        1,
        1
      ],
      "min": [
        0,
        0
      ],
      "type": "VEC2"
    },
    {
      "bufferView": 1,
      "byteOffset": 620896,
      "componentType": 5126,
      "count": 44393,
      "max": [
        1,
        1
      ],
      "min": [
        0,
        0
      ],
      "type": "VEC2"
    },
    {
      "bufferView": 1,
      "byteOffset": 976040,
      "componentType": 5126,
      "count": 44393,
      "max": [
        1,
        1
      ],
      "min": [
        0,
        0
      ],
      "type": "VEC2"
    },
    {
      "bufferView": 0,
      "byteOffset": 141936,
      "componentType": 5125,
      "count": 109188,
      "max": [
        44392
      ],
      "min": [
        0
      ],
      "type": "SCALAR"
    },
    {
      "bufferView": 2,
      "byteOffset": 1333104,
      "componentType": 5126,
      "count": 3328,
      "max": [
        3.0307345390319824,
        4.0352878570556641,
        12.878244400024414
      ],
      "min": [
        -2.8983500003814697,
        -4.0352878570556641,
        -2.8732807636260986
      ],
      "type": "VEC3"
    },
    {
      "bufferView": 2,
      "byteOffset": 1373040,
      "componentType": 5126,
      "count": 3328,
      "max": [
        1,
        1,
        1
      ],
      "min": [
        -1,
        -1,
        -1
      ],
      "type": "VEC3"
    },
    {
      "bufferView": 3,
      "byteOffset": 888736,
      "componentType": 5126,
      "count": 3328,
      "max": [
        0.99999958276748657,
        1,
        0.99430441856384277,
        1
      ],
      "min": [
        -0.99999958276748657,
        -1,
        -0.9946892261505127,
        1
      ],
      "type": "VEC4"
    },
    {
      "bufferView": 1,
      "byteOffset": 1331184,
      "componentType": 5126,
      "count": 3328,
      "max": [
        0.99903655052185059,
        0.98422253131866455
      ],
      "min": [
        0.026149965822696686,
        0
      ],
      "type": "VEC2"
    },
    {
      "bufferView": 1,
      "byteOffset": 1357808,
      "componentType": 5126,
      "count": 3328,
      "max": [
        0.99903655052185059,
        0.98422253131866455
      ],
      "min": [
        0.026149965822696686,
        0
      ],
      "type": "VEC2"
    },
    {
      "bufferView": 1,
      "byteOffset": 1384432,
      "componentType": 5126,
      "count": 3328,
      "max": [
        0.99903655052185059,
        0.98422253131866455
      ],
      "min": [
        0.026149965822696686,
        0
      ],
      "type": "VEC2"
    },
    {
      "bufferView": 0,
      "byteOffset": 578688,
      "componentType": 5125,
      "count": 10344,
      "max": [
        3327
      ],
      "min": [
        0
      ],
      "type": "SCALAR"
    },
    {
      "bufferView": 2,
      "byteOffset": 1412976,
      "componentType": 5126,
      "count": 2576,
      "max": [
        1.0087343454360962,
        3.8172891139984131,
        12.493125915527344
      ],
      "min": [
        -2.6437685489654541,
        -3.8172891139984131,
        -2.5019252300262451
      ],
      "type": "VEC3"
    },
    {
      "bufferView": 2,
      "byteOffset": 1443888,
      "componentType": 5126,
      "count": 2576,
      "max": [
        1,
        1,
        0.99099743366241455
      ],
      "min": [
        -1,
        -1,
        -0.9909980297088623
      ],
      "type": "VEC3"
    },
    {
      "bufferView": 3,
      "byteOffset": 941984,
      "componentType": 5126,
      "count": 2576,
      "max": [
        0.99999958276748657,
        0.99999910593032837,
        0.99999916553497314,
        1
      ],
      "min": [
        -0.99999958276748657,
        -0.99999880790710449,
        -0.99099838733673096,
        1
      ],
      "type": "VEC4"
    },
    {
      "bufferView": 1,
      "byteOffset": 1411056,
      "componentType": 5126,
      "count": 2576,
      "max": [
        0.99716871976852417,
        0.99282258749008179
      ],
      "min": [
        0.02732488326728344,
        0.0067941946908831596
      ],
      "type": "VEC2"
    },
    {
      "bufferView": 1,
      "byteOffset": 1431664,
      "componentType": 5126,
      "count": 2576,
      "max": [
        0.99716871976852417,
        0.99282258749008179
      ],
      "min": [
        0.02732488326728344,
        0.0067941946908831596
      ],
      "type": "VEC2"
    },
    {
      "bufferView": 0,
      "byteOffset": 620064,
      "componentType": 5125,
      "count": 6168,
      "max": [
        2575
      ],
      "min": [
        0
      ],
      "type": "SCALAR"
    },
    {
      "bufferView": 2,
      "byteOffset": 1474800,
      "componentType": 5126,
      "count": 64,
      "max": [
        -2.7696139812469482,
        0.93486404418945312,
        11.676434516906738
      ],
      "min": [
        -2.8135578632354736,
        -0.93486404418945312,
        -1.740880012512207
      ],
      "type": "VEC3"
    },
    {
      "bufferView": 2,
      "byteOffset": 1475568,
      "componentType": 5126,
      "count": 64,
      "max": [
        0.98621737957000732,
        0.16545851528644562,
        0
      ],
      "min": [
        0.98621678352355957,
        -0.16545851528644562,
        -1.0657721816187404e-07
      ],
      "type": "VEC3"
    },
    {
      "bufferView": 3,
      "byteOffset": 983200,
      "componentType": 5126,
      "count": 64,
      "max": [
        -0.16545480489730835,
        0.98621618747711182,
        0.0015015791868790984,
        1
      ],
      "min": [
        -0.1654583066701889,
        -0.98621469736099243,
        -0.0023262614849954844,
        1
      ],
      "type": "VEC4"
    },
    {
      "bufferView": 1,
      "byteOffset": 1452272,
      "componentType": 5126,
      "count": 64,
      "max": [
        0.22404180467128754,
        0.90765881538391113
      ],
      "min": [
        0.10275877267122269,
        0.70838171243667603
      ],
      "type": "VEC2"
    },
    {
      "bufferView": 0,
      "byteOffset": 644736,
      "componentType": 5125,
      "count": 168,
      "max": [
        63
      ],
      "min": [
        0
      ],
      "type": "SCALAR"
    }
  ],
  "asset": {
    "extras": {
      "author": "billyA (https://sketchfab.com/billyA)",
      "license": "CC-BY-4.0 (http://creativecommons.org/licenses/by/4.0/)",
      "source": "https://sketchfab.com/3d-models/sci-fi-corridor-77ce14453724416986893372ed8bd3eb",
      "title": "Sci-fi corridor"
    },
    "generator": "Sketchfab-6.0.0",
    "version": "2.0"
  },
  "bufferViews": [
    {
      "buffer": 0,
      "byteLength": 645408,
      "byteOffset": 0,
      "name": "floatBufferViews",
      "target": 34963
    },
    {
      "buffer": 0,
      "byteLength": 1452784,
      "byteOffset": 645408,
      "byteStride": 8,
      "name": "floatBufferViews",
      "target": 34962
    },
    {
      "buffer": 0,
      "byteLength": 1476336,
      "byteOffset": 2098192,
      "byteStride": 12,
      "name": "floatBufferViews",
      "target": 34962
    },
    {
      "buffer": 0,
      "byteLength": 984224,
      "byteOffset": 3574528,
      "byteStride": 16,
      "name": "floatBufferViews",
      "target": 34962
    }
  ],
  "buffers": [
    {
      "byteLength": 4558752,
      "uri": "scene.bin"
    }
  ],
  "images": [
    {
      "uri": "textures/whitematdoor_baseColor.png"
    },
    {
      "uri": "textures/whitematdoor_metallicRoughness.png"
    },
    {
      "uri": "textures/redmatdoor_baseColor.png"
    },
    {
      "uri": "textures/redmatdoor_metallicRoughness.png"
    },
    {
      "uri": "textures/Material_baseColor.png"
    },
    {
      "uri": "textures/Material_metallicRoughness.png"
    },
    {
      "uri": "textures/Material_normal.png"
    },
    {
      "uri": "textures/redmat_baseColor.png"
    },
    {
      "uri": "textures/redmat_metallicRoughness.png"
    },
    {
      "uri": "textures/redmat_normal.png"
    },
    {
      "uri": "textures/terminal_baseColor.png"
    },
    {
      "uri": "textures/terminal_metallicRoughness.png"
    }
  ],
  "materials": [
    {
      "doubleSided": true,
      "emissiveFactor": [
        0,
        0,
        0
      ],
      "name": "whitematdoor",
      "pbrMetallicRoughness": {
        "baseColorFactor": [
          1,
          1,
          1,
          1
        ],
        "baseColorTexture": {
          "index": 0,
          "texCoord": 0
        },
        "metallicFactor": 1,
        "metallicRoughnessTexture": {
          "index": 1,
          "texCoord": 0
        },
        "roughnessFactor": 1
      }
    },
    {
      "doubleSided": true,
      "emissiveFactor": [
        0,
        0,
        0
      ],
      "name": "redmatdoor",
      "pbrMetallicRoughness": {
        "baseColorFactor": [
          1,
          1,
          1,
          1
        ],
        "baseColorTexture": {
          "index": 2,
          "texCoord": 0
        },
        "metallicFactor": 1,
        "metallicRoughnessTexture": {
          "index": 3,
          "texCoord": 0
        },
        "roughnessFactor": 1
      }
    },
    {
      "doubleSided": true,
      "emissiveFactor": [
        0,
        0,
        0
      ],
      "name": "emmisionorange",
      "pbrMetallicRoughness": {
        "baseColorFactor": [
          0.80000000000000004,
          0.80000000000000004,
          0.80000000000000004,
          1
        ],
        "metallicFactor": 0,
        "roughnessFactor": 0.82111456180001685
      }
    },
    {
      "doubleSided": true,
      "emissiveFactor": [
        0,
        0,
        0
      ],
      "name": "Material",
      "normalTexture": {
        "index": 6,
        "scale": 1,
        "texCoord": 0
      },
      "pbrMetallicRoughness": {
        "baseColorFactor": [
          1,
          1,
          1,
          1
        ],
        "baseColorTexture": {
          "index": 4,
          "texCoord": 0
        },
        "metallicFactor": 1,
        "metallicRoughnessTexture": {
          "index": 5,
          "texCoord": 0
        },
        "roughnessFactor": 1
      }
    },
    {
      "doubleSided": true,
      "emissiveFactor": [
        0,
        0,
        0
      ],
      "name": "redmat",
      "normalTexture": {
        "index": 9,
        "scale": 1,
        "texCoord": 0
      },
      "pbrMetallicRoughness": {
        "baseColorFactor": [
          1,
          1,
          1,
          1
        ],
        "baseColorTexture": {
          "index": 7,
          "texCoord": 0
        },
        "metallicFactor": 1,
        "metallicRoughnessTexture": {
          "index": 8,
          "texCoord": 0
        },
        "roughnessFactor": 1
      }
    },
    {
      "doubleSided": true,
      "emissiveFactor": [
        0,
        0,
        0
      ],
      "name": "terminal",
      "pbrMetallicRoughness": {
        "baseColorFactor": [
          1,
          1,
          1,
          1
        ],
        "baseColorTexture": {
          "index": 10,
          "texCoord": 0
        },
        "metallicFactor": 1,
        "metallicRoughnessTexture": {
          "index": 11,
          "texCoord": 0
        },
        "roughnessFactor": 1
      }
    },
    {
      "doubleSided": true,
      "emissiveFactor": [
        1,
        1,
        1
      ],
      "name": "emission",
      "pbrMetallicRoughness": {
        "baseColorFactor": [
          0.80000000000000004,
          0.80000000000000004,
          0.80000000000000004,
          1
        ],
        "metallicFactor": 0,
        "roughnessFactor": 0.82111456180001685
      }
    }
  ],
  "meshes": [
    {
      "name": "Cylinder.006_whitematdoor_0",
      "primitives": [
        {
          "attributes": {
            "NORMAL": 1,
            "POSITION": 0,
            "TANGENT": 2,
            "TEXCOORD_0": 3,
            "TEXCOORD_1": 4,
            "TEXCOORD_2": 5
          },
          "indices": 6,
          "material": 0,
          "mode": 4
        }
      ]
    },
    {
      "name": "Cylinder.006_redmatdoor_0",
      "primitives": [
        {
          "attributes": {
            "NORMAL": 8,
            "POSITION": 7,
            "TANGENT": 9,
            "TEXCOORD_0": 10,
            "TEXCOORD_1": 11,
            "TEXCOORD_2": 12
          },
          "indices": 13,
          "material": 1,
          "mode": 4
        }
      ]
    },
    {
      "name": "Cylinder.006_emmisionorange_0",
      "primitives": [
        {
          "attributes": {
            "NORMAL": 15,
            "POSITION": 14,
            "TANGENT": 16,
            "TEXCOORD_0": 17
          },
          "indices": 18,
          "material": 2,
          "mode": 4
        }
      ]
    },
    {
      "name": "Cylinder.005_Material_0",
      "primitives": [
        {
          "attributes": {
            "NORMAL": 20,
            "POSITION": 19,
            "TANGENT": 21,
            "TEXCOORD_0": 22,
            "TEXCOORD_1": 23,
            "TEXCOORD_2": 24
          },
          "indices": 25,
          "material": 3,
          "mode": 4
        }
      ]
    },
    {
      "name": "Cylinder.005_redmat_0",
      "primitives": [
        {
          "attributes": {
            "NORMAL": 27,
            "POSITION": 26,
            "TANGENT": 28,
            "TEXCOORD_0": 29,
            "TEXCOORD_1": 30,
            "TEXCOORD_2": 31
          },
          "indices": 32,
          "material": 4,
          "mode": 4
        }
      ]
    },
    {
      "name": "Cylinder.005_terminal_0",
      "primitives": [
        {
          "attributes": {
            "NORMAL": 34,
            "POSITION": 33,
            "TANGENT": 35,
            "TEXCOORD_0": 36,
            "TEXCOORD_1": 37
          },
          "indices": 38,
          "material": 5,
          "mode": 4
        }
      ]
    },
    {
      "name": "Cylinder.005_emission_0",
      "primitives": [
        {
          "attributes": {
            "NORMAL": 40,
            "POSITION": 39,
            "TANGENT": 41,
            "TEXCOORD_0": 42
          },
          "indices": 43,
          "material": 6,
          "mode": 4
        }
      ]
    }
  ],
  "nodes": [
    {
      "children": [
        1
      ],
      "name": "RootNode (gltf orientation matrix)",
      "rotation": [
        -0.70710678118654746,
        -0,
        -0,
        0.70710678118654757
      ]
    },
    {
      "children": [
        2
      ],
      "name": "RootNode (model correction matrix)"
    },
    {
      "children": [
        3
      ],
      "matrix": [
        1,
        0,
        0,
        0,
        0,
        0,
        1,
        0,
        0,
        -1,
        0,
        0,
        0,
        0,
        0,
        1
      ],
      "name": "2d894d42a5bd4c68ad214ade0d4189e4.fbx"
    },
    {
      "children": [
        4,
        8
      ],
      "name": "RootNode"
    },
    {
      "children": [
        5,
        6,
        7
      ],
      "matrix": [
        7.5497899487686482e-06,
        -99.99999999999973,
        0,
        0,
        7.5497899543197633e-06,
        5.5511151231257827e-13,
        -99.99999999999973,
        0,
        99.999999999999446,
        7.5497899543197633e-06,
        7.5497899487686482e-06,
        0,
        0,
        0,
        -2000,
        1
      ],
      "name": "Cylinder.006"
    },
    {
      "mesh": 0,
      "name": "Cylinder.006_whitematdoor_0"
    },
    {
      "mesh": 1,
      "name": "Cylinder.006_redmatdoor_0"
    },
    {
      "mesh": 2,
      "name": "Cylinder.006_emmisionorange_0"
    },
    {
      "children": [
        9,
        10,
        11,
        12
      ],
      "matrix": [
        7.5497899487686482e-06,
        -99.99999999999973,
        0,
        0,
        7.5497899543197633e-06,
        5.5511151231257827e-13,
        -99.99999999999973,
        0,
        99.999999999999446,
        7.5497899543197633e-06,
        7.5497899487686482e-06,
        0,
        0,
        0,
        -2000,
        1
      ],
      "name": "Cylinder.005"
    },
    {
      "mesh": 3,
      "name": "Cylinder.005_Material_0"
    },
    {
      "mesh": 4,
      "name": "Cylinder.005_redmat_0"
    },
    {
      "mesh": 5,
      "name": "Cylinder.005_terminal_0"
    },
    {
      "mesh": 6,
      "name": "Cylinder.005_emission_0"
    }
  ],
  "samplers": [
    {
      "magFilter": 9729,
      "minFilter": 9987,
      "wrapS": 10497,
      "wrapT": 10497
    }
  ],
  "scene": 0,
  "scenes": [
    {
      "name": "OSG_Scene",
      "nodes": [
        0
      ]
    }
  ],
  "textures": [
    {
      "sampler": 0,
      "source": 0
    },
    {
      "sampler": 0,
      "source": 1
    },
    {
      "sampler": 0,
      "source": 2
    },
    {
      "sampler": 0,
      "source": 3
    },
    {
      "sampler": 0,
      "source": 4
    },
    {
      "sampler": 0,
      "source": 5
    },
    {
      "sampler": 0,
      "source": 6
    },
    {
      "sampler": 0,
      "source": 7
    },
    {
      "sampler": 0,
      "source": 8
    },
    {
      "sampler": 0,
      "source": 9
    },
    {
      "sampler": 0,
      "source": 10
    },
    {
      "sampler": 0,
      "source": 11
    }
  ]
}

