{
  "accessors": [
    {
      "bufferView": 2,
      "componentType": 5126,
      "count": 130,
      "max": [
        0.58825856447219849,
        6.3358759880065918,
        15.330765724182129
      ],
      "min": [
        -3.2202498912811279,
        -7.3094401359558105,
        -0.023862481117248535
      ],
      "type": "VEC3"
    },
    {
      "bufferView": 2,
      "byteOffset": 1560,
      "componentType": 5126,
      "count": 130,
      "max": [
        0.99759787321090698,
        0.99999451637268066,
        1
      ],
      "min": [
        -0.99792724847793579,
        -0.9999968409538269,
        -1
      ],
      "type": "VEC3"
    },
    {
      "bufferView": 1,
      "componentType": 5126,
      "count": 130,
      "max": [
        0.75268208980560303,
        0.75922852754592896
      ],
      "min": [
        0.24731793999671936,
        -0.50409245491027832
      ],
      "type": "VEC2"
    },
    {
      "bufferView": 0,
      "componentType": 5125,
      "count": 420,
      "max": [
        129
      ],
      "min": [
        0
      ],
      "type": "SCALAR"
    },
    {
      "bufferView": 2,
      "byteOffset": 3120,
      "componentType": 5126,
      "count": 18,
      "max": [
        33.814849853515625,
        40.331710815429688,
        40.197280883789062
      ],
      "min": [
        -68.64703369140625,
        -37.47198486328125,
        -4.484527587890625
      ],
      "type": "VEC3"
    },
    {
      "bufferView": 2,
      "byteOffset": 3336,
      "componentType": 5126,
      "count": 18,
      "max": [
        0.86818820238113403,
        0.71003997325897217,
        0.99956536293029785
      ],
      "min": [
        -0.14687554538249969,
        -0.41277715563774109,
        0.46574658155441284
      ],
      "type": "VEC3"
    },
    {
      "bufferView": 3,
      "componentType": 5126,
      "count": 18,
      "max": [
        0.95456355810165405,
        0.64976805448532104,
        0.23820056021213531,
        1
      ],
      "min": [
        0.46449035406112671,
        0.049843873828649521,
        -0.8841744065284729,
        1
      ],
      "type": "VEC4"
    },
    {
      "bufferView": 1,
      "byteOffset": 1040,
      "componentType": 5126,
      "count": 18,
      "max": [
        1,
        1
      ],
      "min": [
        0,
        0
      ],
      "type": "VEC2"
    },
    {
      "bufferView": 0,
      "byteOffset": 1680,
      "componentType": 5125,
      "count": 60,
      "max": [
        17
      ],
      "min": [
        0
      ],
      "type": "SCALAR"
    },
    {
      "bufferView": 2,
      "byteOffset": 3552,
      "componentType": 5126,
      "count": 18,
      "max": [
        37.674728393554688,
        34.956890106201172,
        51.1812744140625
      ],
      "min": [
        -24.904518127441406,
        -32.629081726074219,
        -5.9827156066894531
      ],
      "type": "VEC3"
    },
    {
      "bufferView": 2,
      "byteOffset": 3768,
      "componentType": 5126,
      "count": 18,
      "max": [
        0.83869630098342896,
        0.21867340803146362,
        0.91330409049987793
      ],
      "min": [
        -0.065722331404685974,
        -0.83259326219558716,
        0.35699433088302612
      ],
      "type": "VEC3"
    },
    {
      "bufferView": 3,
      "byteOffset": 288,
      "componentType": 5126,
      "count": 18,
      "max": [
        0.99552059173583984,
        0.32109200954437256,
        0.089972510933876038,
        1
      ],
      "min": [
        0.40041658282279968,
        0.010472655296325684,
        -0.91627341508865356,
        1
      ],
      "type": "VEC4"
    },
    {
      "bufferView": 1,
      "byteOffset": 1184,
      "componentType": 5126,
      "count": 18,
      "max": [
        1,
        1
      ],
      "min": [
        0,
        0
      ],
      "type": "VEC2"
    },
    {
      "bufferView": 0,
      "byteOffset": 1920,
      "componentType": 5125,
      "count": 60,
      "max": [
        17
      ],
      "min": [
        0
      ],
      "type": "SCALAR"
    },
    {
      "bufferView": 2,
      "byteOffset": 3984,
      "componentType": 5126,
      "count": 18,
      "max": [
        37.674728393554688,
        34.956890106201172,
        51.1812744140625
      ],
      "min": [
        -24.904518127441406,
        -32.629081726074219,
        -5.9827156066894531
      ],
      "type": "VEC3"
    },
    {
      "bufferView": 2,
      "byteOffset": 4200,
      "componentType": 5126,
      "count": 18,
      "max": [
        0.83869630098342896,
        0.21867340803146362,
        0.91330409049987793
      ],
      "min": [
        -0.065722331404685974,
        -0.83259326219558716,
        0.35699433088302612
      ],
      "type": "VEC3"
    },
    {
      "bufferView": 3,
      "byteOffset": 576,
      "componentType": 5126,
      "count": 18,
      "max": [
        0.99552059173583984,
        0.32109200954437256,
        0.089972510933876038,
        1
      ],
      "min": [
        0.40041658282279968,
        0.010472655296325684,
        -0.91627341508865356,
        1
      ],
      "type": "VEC4"
    },
    {
      "bufferView": 1,
      "byteOffset": 1328,
      "componentType": 5126,
      "count": 18,
      "max": [
        1,
        1
      ],
      "min": [
        0,
        0
      ],
      "type": "VEC2"
    },
    {
      "bufferView": 0,
      "byteOffset": 2160,
      "componentType": 5125,
      "count": 60,
      "max": [
        17
      ],
      "min": [
        0
      ],
      "type": "SCALAR"
    },
    {
      "bufferView": 2,
      "byteOffset": 4416,
      "componentType": 5126,
      "count": 18,
      "max": [
        33.35791015625,
        41.488906860351562,
        9.907196044921875
      ],
      "min": [
        -33.35791015625,
        -41.488910675048828,
        -20.163249969482422
      ],
      "type": "VEC3"
    },
    {
      "bufferView": 2,
      "byteOffset": 4632,
      "componentType": 5126,
      "count": 18,
      "max": [
        0.43209511041641235,
        0.22079560160636902,
        0.99594086408615112
      ],
      "min": [
        -0.43209508061408997,
        -0.45494207739830017,
        0.80309689044952393
      ],
      "type": "VEC3"
    },
    {
      "bufferView": 3,
      "byteOffset": 864,
      "componentType": 5126,
      "count": 18,
      "max": [
        1,
        0.065106779336929321,
        0.47988036274909973,
        1
      ],
      "min": [
        0.87719708681106567,
        -0.021208109334111214,
        -0.47380936145782471,
        1
      ],
      "type": "VEC4"
    },
    {
      "bufferView": 1,
      "byteOffset": 1472,
      "componentType": 5126,
      "count": 18,
      "max": [
        1,
        1
      ],
      "min": [
        0,
        0
      ],
      "type": "VEC2"
    },
    {
      "bufferView": 0,
      "byteOffset": 2400,
      "componentType": 5125,
      "count": 60,
      "max": [
        17
      ],
      "min": [
        0
      ],
      "type": "SCALAR"
    },
    {
      "bufferView": 2,
      "byteOffset": 4848,
      "componentType": 5126,
      "count": 18,
      "max": [
        33.35791015625,
        41.488918304443359,
        23.456912994384766
      ],
      "min": [
        -33.35791015625,
        -41.488910675048828,
        -10.560948371887207
      ],
      "type": "VEC3"
    },
    {
      "bufferView": 2,
      "byteOffset": 5064,
      "componentType": 5126,
      "count": 18,
      "max": [
        0.72921216487884521,
        0.46041432023048401,
        0.9905741810798645
      ],
      "min": [
        -0.36975201964378357,
        -0.38830175995826721,
        0.67068970203399658
      ],
      "type": "VEC3"
    },
    {
      "bufferView": 3,
      "byteOffset": 1152,
      "componentType": 5126,
      "count": 18,
      "max": [
        0.99983835220336914,
        0.0012558088637888432,
        0.33513778448104858,
        1
      ],
      "min": [
        0.65697222948074341,
        -0.1562119722366333,
        -0.74167758226394653,
        1
      ],
      "type": "VEC4"
    },
    {
      "bufferView": 1,
      "byteOffset": 1616,
      "componentType": 5126,
      "count": 18,
      "max": [
        1,
        1
      ],
      "min": [
        0,
        0
      ],
      "type": "VEC2"
    },
    {
      "bufferView": 0,
      "byteOffset": 2640,
      "componentType": 5125,
      "count": 60,
      "max": [
        17
      ],
      "min": [
        0
      ],
      "type": "SCALAR"
    },
    {
      "bufferView": 2,
      "byteOffset": 5280,
      "componentType": 5126,
      "count": 18,
      "max": [
        33.35791015625,
        41.488918304443359,
        23.456912994384766
      ],
      "min": [
        -33.35791015625,
        -41.488910675048828,
        -10.560948371887207
      ],
      "type": "VEC3"
    },
    {
      "bufferView": 2,
      "byteOffset": 5496,
      "componentType": 5126,
      "count": 18,
      "max": [
        0.72921216487884521,
        0.46041432023048401,
        0.9905741810798645
      ],
      "min": [
        -0.36975201964378357,
        -0.38830175995826721,
        0.67068970203399658
      ],
      "type": "VEC3"
    },
    {
      "bufferView": 3,
      "byteOffset": 1440,
      "componentType": 5126,
      "count": 18,
      "max": [
        0.99983835220336914,
        0.0012558088637888432,
        0.33513778448104858,
        1
      ],
      "min": [
        0.65697222948074341,
        -0.1562119722366333,
        -0.74167758226394653,
        1
      ],
      "type": "VEC4"
    },
    {
      "bufferView": 1,
      "byteOffset": 1760,
      "componentType": 5126,
      "count": 18,
      "max": [
        1,
        1
      ],
      "min": [
        0,
        0
      ],
      "type": "VEC2"
    },
    {
      "bufferView": 0,
      "byteOffset": 2880,
      "componentType": 5125,
      "count": 60,
      "max": [
        17
      ],
      "min": [
        0
      ],
      "type": "SCALAR"
    },
    {
      "bufferView": 2,
      "byteOffset": 5712,
      "componentType": 5126,
      "count": 18,
      "max": [
        33.35791015625,
        41.488906860351562,
        9.907196044921875
      ],
      "min": [
        -33.35791015625,
        -41.488910675048828,
        -20.163249969482422
      ],
      "type": "VEC3"
    },
    {
      "bufferView": 2,
      "byteOffset": 5928,
      "componentType": 5126,
      "count": 18,
      "max": [
        0.43209511041641235,
        0.22079560160636902,
        0.99594086408615112
      ],
      "min": [
        -0.43209508061408997,
        -0.45494207739830017,
        0.80309689044952393
      ],
      "type": "VEC3"
    },
    {
      "bufferView": 3,
      "byteOffset": 1728,
      "componentType": 5126,
      "count": 18,
      "max": [
        1,
        0.065106779336929321,
        0.47988036274909973,
        1
      ],
      "min": [
        0.87719708681106567,
        -0.021208109334111214,
        -0.47380936145782471,
        1
      ],
      "type": "VEC4"
    },
    {
      "bufferView": 1,
      "byteOffset": 1904,
      "componentType": 5126,
      "count": 18,
      "max": [
        1,
        1
      ],
      "min": [
        0,
        0
      ],
      "type": "VEC2"
    },
    {
      "bufferView": 0,
      "byteOffset": 3120,
      "componentType": 5125,
      "count": 60,
      "max": [
        17
      ],
      "min": [
        0
      ],
      "type": "SCALAR"
    },
    {
      "bufferView": 2,
      "byteOffset": 6144,
      "componentType": 5126,
      "count": 18,
      "max": [
        31.334190368652344,
        41.868766784667969,
        29.758403778076172
      ],
      "min": [
        -66.081657409667969,
        -47.215774536132812,
        -16.159679412841797
      ],
      "type": "VEC3"
    },
    {
      "bufferView": 2,
      "byteOffset": 6360,
      "componentType": 5126,
      "count": 18,
      "max": [
        0.68907320499420166,
        0.46037966012954712,
        0.98887020349502563
      ],
      "min": [
        -0.19876654446125031,
        -0.50345009565353394,
        0.60373187065124512
      ],
      "type": "VEC3"
    },
    {
      "bufferView": 3,
      "byteOffset": 2016,
      "componentType": 5126,
      "count": 18,
      "max": [
        0.94128382205963135,
        0.64668983221054077,
        0.367850661277771,
        1
      ],
      "min": [
        0.55833172798156738,
        0.14827838540077209,
        -0.68715888261795044,
        1
      ],
      "type": "VEC4"
    },
    {
      "bufferView": 1,
      "byteOffset": 2048,
      "componentType": 5126,
      "count": 18,
      "max": [
        1,
        1
      ],
      "min": [
        0,
        0
      ],
      "type": "VEC2"
    },
    {
      "bufferView": 0,
      "byteOffset": 3360,
      "componentType": 5125,
      "count": 60,
      "max": [
        17
      ],
      "min": [
        0
      ],
      "type": "SCALAR"
    },
    {
      "bufferView": 2,
      "byteOffset": 6576,
      "componentType": 5126,
      "count": 18,
      "max": [
        35.93511962890625,
        46.926342010498047,
        27.233745574951172
      ],
      "min": [
        -68.605239868164062,
        -45.064163208007812,
        -18.946889877319336
      ],
      "type": "VEC3"
    },
    {
      "bufferView": 2,
      "byteOffset": 6792,
      "componentType": 5126,
      "count": 18,
      "max": [
        0.65865194797515869,
        0.28515556454658508,
        0.9951930046081543
      ],
      "min": [
        -0.27849656343460083,
        -0.55226618051528931,
        0.65953540802001953
      ],
      "type": "VEC3"
    },
    {
      "bufferView": 3,
      "byteOffset": 2304,
      "componentType": 5126,
      "count": 18,
      "max": [
        0.94509685039520264,
        0.65419572591781616,
        0.49645519256591797,
        1
      ],
      "min": [
        0.6682085394859314,
        0.23536927998065948,
        -0.61901640892028809,
        1
      ],
      "type": "VEC4"
    },
    {
      "bufferView": 1,
      "byteOffset": 2192,
      "componentType": 5126,
      "count": 18,
      "max": [
        1,
        1
      ],
      "min": [
        0,
        0
      ],
      "type": "VEC2"
    },
    {
      "bufferView": 0,
      "byteOffset": 3600,
      "componentType": 5125,
      "count": 60,
      "max": [
        17
      ],
      "min": [
        0
      ],
      "type": "SCALAR"
    },
    {
      "bufferView": 2,
      "byteOffset": 7008,
      "componentType": 5126,
      "count": 18,
      "max": [
        31.334190368652344,
        41.868766784667969,
        29.758403778076172
      ],
      "min": [
        -66.081657409667969,
        -47.215774536132812,
        -16.159679412841797
      ],
      "type": "VEC3"
    },
    {
      "bufferView": 2,
      "byteOffset": 7224,
      "componentType": 5126,
      "count": 18,
      "max": [
        0.68907320499420166,
        0.46037966012954712,
        0.98887020349502563
      ],
      "min": [
        -0.19876654446125031,
        -0.50345009565353394,
        0.60373187065124512
      ],
      "type": "VEC3"
    },
    {
      "bufferView": 3,
      "byteOffset": 2592,
      "componentType": 5126,
      "count": 18,
      "max": [
        0.94128382205963135,
        0.64668983221054077,
        0.367850661277771,
        1
      ],
      "min": [
        0.55833172798156738,
        0.14827838540077209,
        -0.68715888261795044,
        1
      ],
      "type": "VEC4"
    },
    {
      "bufferView": 1,
      "byteOffset": 2336,
      "componentType": 5126,
      "count": 18,
      "max": [
        1,
        1
      ],
      "min": [
        0,
        0
      ],
      "type": "VEC2"
    },
    {
      "bufferView": 0,
      "byteOffset": 3840,
      "componentType": 5125,
      "count": 60,
      "max": [
        17
      ],
      "min": [
        0
      ],
      "type": "SCALAR"
    },
    {
      "bufferView": 2,
      "byteOffset": 7440,
      "componentType": 5126,
      "count": 18,
      "max": [
        35.93511962890625,
        46.926342010498047,
        27.233745574951172
      ],
      "min": [
        -68.605239868164062,
        -45.064163208007812,
        -18.946889877319336
      ],
      "type": "VEC3"
    },
    {
      "bufferView": 2,
      "byteOffset": 7656,
      "componentType": 5126,
      "count": 18,
      "max": [
        0.65865194797515869,
        0.28515556454658508,
        0.9951930046081543
      ],
      "min": [
        -0.27849656343460083,
        -0.55226618051528931,
        0.65953540802001953
      ],
      "type": "VEC3"
    },
    {
      "bufferView": 3,
      "byteOffset": 2880,
      "componentType": 5126,
      "count": 18,
      "max": [
        0.94509685039520264,
        0.65419572591781616,
        0.49645519256591797,
        1
      ],
      "min": [
        0.6682085394859314,
        0.23536927998065948,
        -0.61901640892028809,
        1
      ],
      "type": "VEC4"
    },
    {
      "bufferView": 1,
      "byteOffset": 2480,
      "componentType": 5126,
      "count": 18,
      "max": [
        1,
        1
      ],
      "min": [
        0,
        0
      ],
      "type": "VEC2"
    },
    {
      "bufferView": 0,
      "byteOffset": 4080,
      "componentType": 5125,
      "count": 60,
      "max": [
        17
      ],
      "min": [
        0
      ],
      "type": "SCALAR"
    }
  ],
  "asset": {
    "extras": {
      "author": "Iyturie (https://sketchfab.com/iyturie)",
      "license": "SKETCHFAB Standard (https://sketchfab.com/licenses)",
      "source": "https://sketchfab.com/3d-models/tropical-plant-05999d038b5c4ce681985cdac72aa0bf",
      "title": "Tropical plant"
    },
    "generator": "Sketchfab-7.51.0",
    "version": "2.0"
  },
  "bufferViews": [
    {
      "buffer": 0,
      "byteLength": 4320,
      "byteOffset": 0,
      "name": "floatBufferViews",
      "target": 34963
    },
    {
      "buffer": 0,
      "byteLength": 2624,
      "byteOffset": 4320,
      "byteStride": 8,
      "name": "floatBufferViews",
      "target": 34962
    },
    {
      "buffer": 0,
      "byteLength": 7872,
      "byteOffset": 6944,
      "byteStride": 12,
      "name": "floatBufferViews",
      "target": 34962
    },
    {
      "buffer": 0,
      "byteLength": 3168,
      "byteOffset": 14816,
      "byteStride": 16,
      "name": "floatBufferViews",
      "target": 34962
    }
  ],
  "buffers": [
    {
      "byteLength": 17984,
      "uri": "scene.bin"
    }
  ],
  "images": [
    {
      "uri": "textures/Tree1_baseColor.jpeg"
    },
    {
      "uri": "textures/Plant_12_baseColor.png"
    },
    {
      "uri": "textures/Plant_12_normal.png"
    }
  ],
  "materials": [
    {
      "doubleSided": true,
      "name": "Tree1",
      "pbrMetallicRoughness": {
        "baseColorFactor": [
          1,
          1,
          1,
          1
        ],
        "baseColorTexture": {
          "index": 0,
          "texCoord": 0
        },
        "metallicFactor": 0,
        "roughnessFactor": 0.59999999999999998
      }
    },
    {
      "alphaMode": "BLEND",
      "doubleSided": true,
      "name": "Plant_12",
      "normalTexture": {
        "index": 2,
        "scale": 1,
        "texCoord": 0
      },
      "pbrMetallicRoughness": {
        "baseColorFactor": [
          1,
          1,
          1,
          1
        ],
        "baseColorTexture": {
          "index": 1,
          "texCoord": 0
        },
        "metallicFactor": 0,
        "roughnessFactor": 0.45560213414634143
      }
    }
  ],
  "meshes": [
    {
      "name": "Cylinder010_Tree1_0",
      "primitives": [
        {
          "attributes": {
            "NORMAL": 1,
            "POSITION": 0,
            "TEXCOORD_0": 2
          },
          "indices": 3,
          "material": 0,
          "mode": 4
        }
      ]
    },
    {
      "name": "Plane846_Plant 12_0",
      "primitives": [
        {
          "attributes": {
            "NORMAL": 5,
            "POSITION": 4,
            "TANGENT": 6,
            "TEXCOORD_0": 7
          },
          "indices": 8,
          "material": 1,
          "mode": 4
        }
      ]
    },
    {
      "name": "Plane847_Plant 12_0",
      "primitives": [
        {
          "attributes": {
            "NORMAL": 10,
            "POSITION": 9,
            "TANGENT": 11,
            "TEXCOORD_0": 12
          },
          "indices": 13,
          "material": 1,
          "mode": 4
        }
      ]
    },
    {
      "name": "Plane851_Plant 12_0",
      "primitives": [
        {
          "attributes": {
            "NORMAL": 15,
            "POSITION": 14,
            "TANGENT": 16,
            "TEXCOORD_0": 17
          },
          "indices": 18,
          "material": 1,
          "mode": 4
        }
      ]
    },
    {
      "name": "Plane841_Plant 12_0",
      "primitives": [
        {
          "attributes": {
            "NORMAL": 20,
            "POSITION": 19,
            "TANGENT": 21,
            "TEXCOORD_0": 22
          },
          "indices": 23,
          "material": 1,
          "mode": 4
        }
      ]
    },
    {
      "name": "Plane842_Plant 12_0",
      "primitives": [
        {
          "attributes": {
            "NORMAL": 25,
            "POSITION": 24,
            "TANGENT": 26,
            "TEXCOORD_0": 27
          },
          "indices": 28,
          "material": 1,
          "mode": 4
        }
      ]
    },
    {
      "name": "Plane843_Plant 12_0",
      "primitives": [
        {
          "attributes": {
            "NORMAL": 30,
            "POSITION": 29,
            "TANGENT": 31,
            "TEXCOORD_0": 32
          },
          "indices": 33,
          "material": 1,
          "mode": 4
        }
      ]
    },
    {
      "name": "Plane844_Plant 12_0",
      "primitives": [
        {
          "attributes": {
            "NORMAL": 35,
            "POSITION": 34,
            "TANGENT": 36,
            "TEXCOORD_0": 37
          },
          "indices": 38,
          "material": 1,
          "mode": 4
        }
      ]
    },
    {
      "name": "Plane845_Plant 12_0",
      "primitives": [
        {
          "attributes": {
            "NORMAL": 40,
            "POSITION": 39,
            "TANGENT": 41,
            "TEXCOORD_0": 42
          },
          "indices": 43,
          "material": 1,
          "mode": 4
        }
      ]
    },
    {
      "name": "Plane848_Plant 12_0",
      "primitives": [
        {
          "attributes": {
            "NORMAL": 45,
            "POSITION": 44,
            "TANGENT": 46,
            "TEXCOORD_0": 47
          },
          "indices": 48,
          "material": 1,
          "mode": 4
        }
      ]
    },
    {
      "name": "Plane849_Plant 12_0",
      "primitives": [
        {
          "attributes": {
            "NORMAL": 50,
            "POSITION": 49,
            "TANGENT": 51,
            "TEXCOORD_0": 52
          },
          "indices": 53,
          "material": 1,
          "mode": 4
        }
      ]
    },
    {
      "name": "Plane850_Plant 12_0",
      "primitives": [
        {
          "attributes": {
            "NORMAL": 55,
            "POSITION": 54,
            "TANGENT": 56,
            "TEXCOORD_0": 57
          },
          "indices": 58,
          "material": 1,
          "mode": 4
        }
      ]
    }
  ],
  "nodes": [
    {
      "children": [
        1
      ],
      "name": "RootNode (gltf orientation matrix)",
      "rotation": [
        -0.70710678118654746,
        -0,
        -0,
        0.70710678118654757
      ]
    },
    {
      "children": [
        2
      ],
      "name": "RootNode (model correction matrix)"
    },
    {
      "children": [
        3
      ],
      "matrix": [
        1,
        0,
        0,
        0,
        0,
        0,
        1,
        0,
        0,
        -1,
        0,
        0,
        0,
        0,
        0,
        1
      ],
      "name": "af65ad1e795547bf84de58c7c5634885.fbx"
    },
    {
      "children": [
        4
      ],
      "name": "RootNode"
    },
    {
      "children": [
        5,
        7,
        14,
        16,
        18,
        20,
        22,
        24,
        26,
        28
      ],
      "matrix": [
        -1.3242636662488558,
        -2.202755369100213e-16,
        1.4774445009127004,
        0,
        1.4774445009127004,
        0,
        1.3242636662488556,
        0,
        -2.202755369100213e-16,
        1.9840656518936157,
        0,
        0,
        361.53073120117188,
        56.02410888671875,
        68.368011474609375,
        1
      ],
      "name": "Plant034"
    },
    {
      "children": [
        6
      ],
      "matrix": [
        0.50330924987792969,
        -5.5511151231257827e-17,
        -9.2444637330587321e-33,
        0,
        5.5511151231257827e-17,
        0.50330924987792969,
        0,
        0,
        6.0479487312038623e-32,
        -6.670423735271656e-48,
        3.292769193649292,
        0,
        1.7073974609375,
        1.2984771728515625,
        -34.950180053710938,
        1
      ],
      "name": "Cylinder010"
    },
    {
      "mesh": 0,
      "name": "Cylinder010_Tree1_0"
    },
    {
      "children": [
        8,
        10,
        12
      ],
      "matrix": [
        0.99999999999999956,
        2.9802322387695312e-08,
        -4.0783152924990778e-56,
        0,
        -2.9802322387695312e-08,
        0.99999999999999956,
        1.8488927466117464e-32,
        0,
        5.5101297694794727e-40,
        -1.8488927466117453e-32,
        1,
        0,
        -3.9858474731445312,
        2.4239959716796875,
        22.695083618164062,
        1
      ],
      "name": "Group035"
    },
    {
      "children": [
        9
      ],
      "matrix": [
        0.14426755892831214,
        -0.26510903700538763,
        -3.7552076305482236e-08,
        0,
        0.23781085500150315,
        0.12941236147949556,
        0.13339607160763653,
        0,
        -0.11717037264930093,
        -0.063762042964359583,
        0.27074247853099659,
        0,
        12.73828125,
        3.3092041015625,
        -5.2086372375488281,
        1
      ],
      "name": "Plane846"
    },
    {
      "mesh": 1,
      "name": "Plane846_Plant 12_0"
    },
    {
      "children": [
        11
      ],
      "matrix": [
        0.19689654859678207,
        0.18301061872955424,
        0.1372399746207203,
        0,
        -0.20519778567978769,
        0.061273502475167205,
        0.21268609427400934,
        0,
        0.10110176038913538,
        -0.23205305293756989,
        0.16439514201936276,
        0,
        -1.7494430541992188,
        -4.3357696533203125,
        -5.2086372375488281,
        1
      ],
      "name": "Plane847"
    },
    {
      "mesh": 2,
      "name": "Plane847_Plant 12_0"
    },
    {
      "children": [
        13
      ],
      "matrix": [
        0.17232800154122585,
        0.1609649567485667,
        0.18838601496590587,
        0,
        -0.21163850971147014,
        0.21495697084177789,
        0.0099301527967978146,
        0,
        -0.1288726170630895,
        -0.1377669520062878,
        0.23560141675578464,
        0,
        -3.1644821166992188,
        1.9030303955078125,
        -11.684940338134766,
        1
      ],
      "name": "Plane851"
    },
    {
      "mesh": 3,
      "name": "Plane851_Plant 12_0"
    },
    {
      "children": [
        15
      ],
      "matrix": [
        0.30182105302810669,
        -2.5814293097484441e-50,
        -1.5407439555097885e-33,
        0,
        3.5261451984467018e-34,
        0.29381050112930318,
        0.069074738415770748,
        0,
        1.4998514819909526e-33,
        -0.069074738415770748,
        0.29381050112930318,
        0,
        0.68126678466796875,
        11.332183837890625,
        3.1369495391845703,
        1
      ],
      "name": "Plane841"
    },
    {
      "mesh": 4,
      "name": "Plane841_Plant 12_0"
    },
    {
      "children": [
        17
      ],
      "matrix": [
        0.14426765741436565,
        -0.26510905126966883,
        -7.5104168900424507e-09,
        0,
        0.23781068009547612,
        0.12941236279682536,
        0.1333959101279539,
        0,
        -0.11717030784459027,
        -0.063762017115943828,
        0.27074251266430632,
        0,
        8.6580810546875,
        5.81158447265625,
        5.3888397216796875,
        1
      ],
      "name": "Plane842"
    },
    {
      "mesh": 5,
      "name": "Plane842_Plant 12_0"
    },
    {
      "children": [
        19
      ],
      "matrix": [
        0.19689653357506073,
        0.18301060476722456,
        0.13723994924918587,
        0,
        -0.20519777797241193,
        0.061273506874583716,
        0.21268610044257771,
        0,
        0.10110174745789589,
        -0.23205300270911938,
        0.16439511144120653,
        0,
        -7.065673828125,
        -1.46197509765625,
        5.3888397216796875,
        1
      ],
      "name": "Plane843"
    },
    {
      "mesh": 6,
      "name": "Plane843_Plant 12_0"
    },
    {
      "children": [
        21
      ],
      "matrix": [
        -0.25713530886432412,
        -0.15272729236687951,
        -0.040642012037583213,
        0,
        0.14176873493435044,
        -0.25720474268389076,
        0.069593909050721769,
        0,
        -0.069850009361266577,
        0.040200251603477379,
        0.29086227671226683,
        0,
        5.6772994995117188,
        -9.03533935546875,
        2.6000232696533203,
        1
      ],
      "name": "Plane844"
    },
    {
      "mesh": 7,
      "name": "Plane844_Plant 12_0"
    },
    {
      "children": [
        23
      ],
      "matrix": [
        0.22950655513656987,
        -7.4505797561663329e-09,
        0.19601706354381435,
        0,
        -0.086633675534516938,
        0.27074244075524945,
        0.10143503880972153,
        0,
        -0.17583315980548539,
        -0.13339590647082056,
        0.20587422881599207,
        0,
        -3.29443359375,
        13.93426513671875,
        -19.322555541992188,
        1
      ],
      "name": "Plane845"
    },
    {
      "mesh": 8,
      "name": "Plane845_Plant 12_0"
    },
    {
      "children": [
        25
      ],
      "matrix": [
        -0.25713540541558089,
        -0.15804240979091766,
        -2.2531252766297416e-08,
        0,
        0.14176867821878963,
        -0.23065802149450168,
        0.13339590341286528,
        0,
        -0.069850041723112696,
        0.11364615814426371,
        0.27074254270642722,
        0,
        7.2295455932617188,
        -2.81317138671875,
        -23.083723068237305,
        1
      ],
      "name": "Plane848"
    },
    {
      "mesh": 9,
      "name": "Plane848_Plant 12_0"
    },
    {
      "children": [
        27
      ],
      "matrix": [
        0.17551708390324686,
        -0.2455397956723038,
        -6.7593776437439086e-08,
        0,
        0.22025629529831836,
        0.157443861755726,
        0.13339591773426443,
        0,
        -0.10852122124944102,
        -0.077573358500480721,
        0.27074240275683675,
        0,
        10.01287841796875,
        8.6093597412109375,
        -9.5870189666748047,
        1
      ],
      "name": "Plane849"
    },
    {
      "mesh": 10,
      "name": "Plane849_Plant 12_0"
    },
    {
      "children": [
        29
      ],
      "matrix": [
        -0.2781026886536575,
        0.11728096445999343,
        -4.9287110942894242e-09,
        0,
        -0.10520454838663551,
        -0.24946646066700345,
        0.13339592209627149,
        0,
        0.051834696608358176,
        0.12291312484610427,
        0.27074251974700519,
        0,
        -1.6140213012695312,
        -4.60809326171875,
        -9.5870189666748047,
        1
      ],
      "name": "Plane850"
    },
    {
      "mesh": 11,
      "name": "Plane850_Plant 12_0"
    }
  ],
  "samplers": [
    {
      "magFilter": 9729,
      "minFilter": 9987,
      "wrapS": 10497,
      "wrapT": 10497
    }
  ],
  "scene": 0,
  "scenes": [
    {
      "name": "OSG_Scene",
      "nodes": [
        0
      ]
    }
  ],
  "textures": [
    {
      "sampler": 0,
      "source": 0
    },
    {
      "sampler": 0,
      "source": 1
    },
    {
      "sampler": 0,
      "source": 2
    }
  ]
}

