{
  "accessors": [
    {
      "bufferView": 2,
      "componentType": 5126,
      "count": 320,
      "max": [
        66.09378051757813,
        46.88470458984375,
        52.51795196533203
      ],
      "min": [
        -57.47178649902344,
        -59.09408950805664,
        -4.657750129699707
      ],
      "type": "VEC3"
    },
    {
      "bufferView": 2,
      "byteOffset": 3840,
      "componentType": 5126,
      "count": 320,
      "max": [
        0.9652018547058105,
        0.9744347333908081,
        0.9991781115531921
      ],
      "min": [
        -0.9739246964454651,
        -0.959375262260437,
        -0.16905483603477478
      ],
      "type": "VEC3"
    },
    {
      "bufferView": 3,
      "componentType": 5126,
      "count": 320,
      "max": [
        0.9980520606040955,
        0.9975060820579529,
        0.6908413171768188,
        1.0
      ],
      "min": [
        -0.9985196590423584,
        -0.9971714615821838,
        -0.9997180104255676,
        -1.0
      ],
      "type": "VEC4"
    },
    {
      "bufferView": 1,
      "componentType": 5126,
      "count": 320,
      "max": [
        1.0036265850067139,
        0.9738028049468994
      ],
      "min": [
        0.004224315285682678,
        0.021501630544662476
      ],
      "type": "VEC2"
    },
    {
      "bufferView": 1,
      "byteOffset": 2560,
      "componentType": 5126,
      "count": 320,
      "max": [
        1.0036265850067139,
        0.9738028049468994
      ],
      "min": [
        0.004224315285682678,
        0.021501630544662476
      ],
      "type": "VEC2"
    },
    {
      "bufferView": 1,
      "byteOffset": 5120,
      "componentType": 5126,
      "count": 320,
      "max": [
        1.0036265850067139,
        0.9738028049468994
      ],
      "min": [
        0.004224315285682678,
        0.021501630544662476
      ],
      "type": "VEC2"
    },
    {
      "bufferView": 1,
      "byteOffset": 7680,
      "componentType": 5126,
      "count": 320,
      "max": [
        1.0036265850067139,
        0.9738028049468994
      ],
      "min": [
        0.004224315285682678,
        0.021501630544662476
      ],
      "type": "VEC2"
    },
    {
      "bufferView": 1,
      "byteOffset": 10240,
      "componentType": 5126,
      "count": 320,
      "max": [
        1.0036265850067139,
        0.9738028049468994
      ],
      "min": [
        0.004224315285682678,
        0.021501630544662476
      ],
      "type": "VEC2"
    },
    {
      "bufferView": 1,
      "byteOffset": 12800,
      "componentType": 5126,
      "count": 320,
      "max": [
        1.0036265850067139,
        0.9738028049468994
      ],
      "min": [
        0.004224315285682678,
        0.021501630544662476
      ],
      "type": "VEC2"
    },
    {
      "bufferView": 1,
      "byteOffset": 15360,
      "componentType": 5126,
      "count": 320,
      "max": [
        1.0036265850067139,
        0.9738028049468994
      ],
      "min": [
        0.004224315285682678,
        0.021501630544662476
      ],
      "type": "VEC2"
    },
    {
      "bufferView": 1,
      "byteOffset": 17920,
      "componentType": 5126,
      "count": 320,
      "max": [
        1.0036265850067139,
        0.9738028049468994
      ],
      "min": [
        0.004224315285682678,
        0.021501630544662476
      ],
      "type": "VEC2"
    },
    {
      "bufferView": 0,
      "componentType": 5125,
      "count": 1236,
      "type": "SCALAR"
    },
    {
      "bufferView": 2,
      "byteOffset": 7680,
      "componentType": 5126,
      "count": 528,
      "max": [
        91.67652130126953,
        72.57916259765625,
        66.9024887084961
      ],
      "min": [
        -91.13423919677734,
        -72.16123962402344,
        -14.886022567749023
      ],
      "type": "VEC3"
    },
    {
      "bufferView": 2,
      "byteOffset": 14016,
      "componentType": 5126,
      "count": 528,
      "max": [
        0.9596112370491028,
        0.9871914982795715,
        0.9992476105690002
      ],
      "min": [
        -0.9286907911300659,
        -0.9767055511474609,
        -0.14952115714550018
      ],
      "type": "VEC3"
    },
    {
      "bufferView": 3,
      "byteOffset": 5120,
      "componentType": 5126,
      "count": 528,
      "max": [
        0.9969579577445984,
        0.9966176152229309,
        0.9910820126533508,
        1.0
      ],
      "min": [
        -0.991926908493042,
        -0.9991092085838318,
        -0.9994315505027771,
        -1.0
      ],
      "type": "VEC4"
    },
    {
      "bufferView": 1,
      "byteOffset": 20480,
      "componentType": 5126,
      "count": 528,
      "max": [
        1.0036265850067139,
        0.9738028049468994
      ],
      "min": [
        0.004224315285682678,
        0.021501630544662476
      ],
      "type": "VEC2"
    },
    {
      "bufferView": 1,
      "byteOffset": 24704,
      "componentType": 5126,
      "count": 528,
      "max": [
        1.0036265850067139,
        0.9738028049468994
      ],
      "min": [
        0.004224315285682678,
        0.021501630544662476
      ],
      "type": "VEC2"
    },
    {
      "bufferView": 1,
      "byteOffset": 28928,
      "componentType": 5126,
      "count": 528,
      "max": [
        1.0036265850067139,
        0.9738028049468994
      ],
      "min": [
        0.004224315285682678,
        0.021501630544662476
      ],
      "type": "VEC2"
    },
    {
      "bufferView": 1,
      "byteOffset": 33152,
      "componentType": 5126,
      "count": 528,
      "max": [
        1.0036265850067139,
        0.9738028049468994
      ],
      "min": [
        0.004224315285682678,
        0.021501630544662476
      ],
      "type": "VEC2"
    },
    {
      "bufferView": 1,
      "byteOffset": 37376,
      "componentType": 5126,
      "count": 528,
      "max": [
        1.0036265850067139,
        0.9738028049468994
      ],
      "min": [
        0.004224315285682678,
        0.021501630544662476
      ],
      "type": "VEC2"
    },
    {
      "bufferView": 1,
      "byteOffset": 41600,
      "componentType": 5126,
      "count": 528,
      "max": [
        1.0036265850067139,
        0.9738028049468994
      ],
      "min": [
        0.004224315285682678,
        0.021501630544662476
      ],
      "type": "VEC2"
    },
    {
      "bufferView": 1,
      "byteOffset": 45824,
      "componentType": 5126,
      "count": 528,
      "max": [
        1.0036265850067139,
        0.9738028049468994
      ],
      "min": [
        0.004224315285682678,
        0.021501630544662476
      ],
      "type": "VEC2"
    },
    {
      "bufferView": 1,
      "byteOffset": 50048,
      "componentType": 5126,
      "count": 528,
      "max": [
        1.0036265850067139,
        0.9738028049468994
      ],
      "min": [
        0.004224315285682678,
        0.021501630544662476
      ],
      "type": "VEC2"
    },
    {
      "bufferView": 0,
      "byteOffset": 4944,
      "componentType": 5125,
      "count": 2064,
      "type": "SCALAR"
    }
  ],
  "asset": {
    "extras": {
      "author": "alint (https://sketchfab.com/alint)",
      "license": "SKETCHFAB Standard (https://sketchfab.com/licenses)",
      "source": "https://sketchfab.com/3d-models/ferns-8c5ae28381fd46bb80b1bb673291fb06",
      "title": "Ferns"
    },
    "generator": "Sketchfab-12.63.0",
    "version": "2.0"
  },
  "bufferViews": [
    {
      "buffer": 0,
      "byteLength": 13200,
      "name": "floatBufferViews",
      "target": 34963
    },
    {
      "buffer": 0,
      "byteLength": 54272,
      "byteOffset": 13200,
      "byteStride": 8,
      "name": "floatBufferViews",
      "target": 34962
    },
    {
      "buffer": 0,
      "byteLength": 20352,
      "byteOffset": 67472,
      "byteStride": 12,
      "name": "floatBufferViews",
      "target": 34962
    },
    {
      "buffer": 0,
      "byteLength": 13568,
      "byteOffset": 87824,
      "byteStride": 16,
      "name": "floatBufferViews",
      "target": 34962
    }
  ],
  "buffers": [
    {
      "byteLength": 101392,
      "uri": "scene.bin"
    }
  ],
  "extensionsRequired": [
    "KHR_materials_pbrSpecularGlossiness"
  ],
  "extensionsUsed": [
    "KHR_materials_pbrSpecularGlossiness"
  ],
  "images": [
    {
      "uri": "textures/fern1_diffuse.png"
    },
    {
      "uri": "textures/fern1_specularGlossiness.png"
    },
    {
      "uri": "textures/fern1_normal.png"
    }
  ],
  "materials": [
    {
      "alphaMode": "BLEND",
      "doubleSided": true,
      "extensions": {
        "KHR_materials_pbrSpecularGlossiness": {
          "diffuseFactor": [
            1.0,
            1.0,
            1.0,
            1.0
          ],
          "diffuseTexture": {
            "index": 0
          },
          "glossinessFactor": 1.0,
          "specularFactor": [
            0.0,
            0.0,
            0.0
          ],
          "specularGlossinessTexture": {
            "index": 1
          }
        }
      },
      "name": "fern1",
      "normalTexture": {
        "index": 2
      }
    }
  ],
  "meshes": [
    {
      "name": "fern1_small_fern1_0",
      "primitives": [
        {
          "attributes": {
            "NORMAL": 1,
            "POSITION": 0,
            "TANGENT": 2,
            "TEXCOORD_0": 3,
            "TEXCOORD_1": 4,
            "TEXCOORD_2": 5,
            "TEXCOORD_3": 6,
            "TEXCOORD_4": 7,
            "TEXCOORD_5": 8,
            "TEXCOORD_6": 9,
            "TEXCOORD_7": 10
          },
          "indices": 11,
          "material": 0,
          "mode": 4
        }
      ]
    },
    {
      "name": "fern1_fern1_0",
      "primitives": [
        {
          "attributes": {
            "NORMAL": 13,
            "POSITION": 12,
            "TANGENT": 14,
            "TEXCOORD_0": 15,
            "TEXCOORD_1": 16,
            "TEXCOORD_2": 17,
            "TEXCOORD_3": 18,
            "TEXCOORD_4": 19,
            "TEXCOORD_5": 20,
            "TEXCOORD_6": 21,
            "TEXCOORD_7": 22
          },
          "indices": 23,
          "material": 0,
          "mode": 4
        }
      ]
    }
  ],
  "nodes": [
    {
      "children": [
        1
      ],
      "matrix": [
        1.0,
        0.0,
        0.0,
        0.0,
        0.0,
        2.220446049250313e-16,
        -1.0,
        0.0,
        0.0,
        1.0,
        2.220446049250313e-16,
        0.0,
        0.0,
        0.0,
        0.0,
        1.0
      ],
      "name": "Sketchfab_model"
    },
    {
      "children": [
        2
      ],
      "matrix": [
        1.0,
        0.0,
        0.0,
        0.0,
        0.0,
        0.0,
        1.0,
        0.0,
        0.0,
        -1.0,
        0.0,
        0.0,
        0.0,
        0.0,
        0.0,
        1.0
      ],
      "name": "c9034b8e54de434a9701f4f41c647489.fbx"
    },
    {
      "children": [
        3,
        5
      ],
      "name": "RootNode"
    },
    {
      "children": [
        4
      ],
      "matrix": [
        0.30901696787202826,
        -2.7755575615628914e-16,
        0.9510565249064737,
        0.0,
        0.9510565249064737,
        0.0,
        -0.30901696787202837,
        0.0,
        -5.551115123125783e-17,
        1.0,
        2.220446049250313e-16,
        0.0,
        4.334556579589844,
        -6.846287250518799,
        -36.76020050048828,
        1.0
      ],
      "name": "fern1_small"
    },
    {
      "mesh": 0,
      "name": "fern1_small_fern1_0"
    },
    {
      "children": [
        6
      ],
      "matrix": [
        1.0,
        0.0,
        0.0,
        0.0,
        0.0,
        2.220446049250313e-16,
        -1.0,
        0.0,
        0.0,
        1.0,
        2.220446049250313e-16,
        0.0,
        -83.83802032470703,
        0.0,
        -69.67656707763672,
        1.0
      ],
      "name": "fern1"
    },
    {
      "mesh": 1,
      "name": "fern1_fern1_0"
    }
  ],
  "samplers": [
    {
      "magFilter": 9729,
      "minFilter": 9987,
      "wrapS": 10497,
      "wrapT": 10497
    }
  ],
  "scene": 0,
  "scenes": [
    {
      "name": "Sketchfab_Scene",
      "nodes": [
        0
      ]
    }
  ],
  "textures": [
    {
      "sampler": 0,
      "source": 0
    },
    {
      "sampler": 0,
      "source": 1
    },
    {
      "sampler": 0,
      "source": 2
    }
  ]
}
