{
  "accessors": [
    {
      "bufferView": 2,
      "componentType": 5126,
      "count": 8480,
      "max": [
        20.001989364624023,
        20.003509521484375,
        2.5211799144744873
      ],
      "min": [
        -20.001840591430664,
        -20.004589080810547,
        0.02490999922156334
      ],
      "type": "VEC3"
    },
    {
      "bufferView": 2,
      "byteOffset": 101760,
      "componentType": 5126,
      "count": 8480,
      "max": [
        0.9952094554901123,
        0.9293908476829529,
        1.0
      ],
      "min": [
        -0.904289960861206,
        -0.9221826195716858,
        -0.26121264696121216
      ],
      "type": "VEC3"
    },
    {
      "bufferView": 3,
      "componentType": 5126,
      "count": 8480,
      "max": [
        0.9999998807907104,
        0.9013692140579224,
        0.9308739304542542,
        1.0
      ],
      "min": [
        -0.984366238117218,
        -0.9803421497344971,
        -0.9278019666671753,
        -1.0
      ],
      "type": "VEC4"
    },
    {
      "bufferView": 1,
      "componentType": 5126,
      "count": 8480,
      "max": [
        1.0002599954605103,
        1.0
      ],
      "min": [
        -7.999999797903001e-05,
        -0.00014000000373926014
      ],
      "type": "VEC2"
    },
    {
      "bufferView": 1,
      "byteOffset": 67840,
      "componentType": 5126,
      "count": 8480,
      "max": [
        1.0002599954605103,
        1.0
      ],
      "min": [
        -7.999999797903001e-05,
        -0.00014000000373926014
      ],
      "type": "VEC2"
    },
    {
      "bufferView": 1,
      "byteOffset": 135680,
      "componentType": 5126,
      "count": 8480,
      "max": [
        1.0002599954605103,
        1.0
      ],
      "min": [
        -7.999999797903001e-05,
        -0.00014000000373926014
      ],
      "type": "VEC2"
    },
    {
      "bufferView": 0,
      "componentType": 5125,
      "count": 50436,
      "type": "SCALAR"
    }
  ],
  "asset": {
    "extras": {
      "author": "falk lochmann (https://sketchfab.com/falk)",
      "license": "SKETCHFAB Standard (https://sketchfab.com/licenses)",
      "source": "https://sketchfab.com/3d-models/terrain-alpine-4k-a2fbcca51ad043e0b49f305c373186fc",
      "title": "Terrain Alpine 4k"
    },
    "generator": "Sketchfab-12.68.0",
    "version": "2.0"
  },
  "bufferViews": [
    {
      "buffer": 0,
      "byteLength": 201744,
      "name": "floatBufferViews",
      "target": 34963
    },
    {
      "buffer": 0,
      "byteLength": 203520,
      "byteOffset": 201744,
      "byteStride": 8,
      "name": "floatBufferViews",
      "target": 34962
    },
    {
      "buffer": 0,
      "byteLength": 203520,
      "byteOffset": 405264,
      "byteStride": 12,
      "name": "floatBufferViews",
      "target": 34962
    },
    {
      "buffer": 0,
      "byteLength": 135680,
      "byteOffset": 608784,
      "byteStride": 16,
      "name": "floatBufferViews",
      "target": 34962
    }
  ],
  "buffers": [
    {
      "byteLength": 744464,
      "uri": "scene.bin"
    }
  ],
  "images": [
    {
      "uri": "textures/Material.001_baseColor.png"
    },
    {
      "uri": "textures/Material.001_metallicRoughness.png"
    },
    {
      "uri": "textures/Material.001_normal.png"
    }
  ],
  "materials": [
    {
      "name": "Material.001",
      "normalTexture": {
        "index": 2
      },
      "occlusionTexture": {
        "index": 1
      },
      "pbrMetallicRoughness": {
        "baseColorTexture": {
          "index": 0
        },
        "metallicFactor": 0.0,
        "metallicRoughnessTexture": {
          "index": 1
        },
        "roughnessFactor": 0.05
      }
    }
  ],
  "meshes": [
    {
      "name": "Plane_0",
      "primitives": [
        {
          "attributes": {
            "NORMAL": 1,
            "POSITION": 0,
            "TANGENT": 2,
            "TEXCOORD_0": 3,
            "TEXCOORD_1": 4,
            "TEXCOORD_2": 5
          },
          "indices": 6,
          "material": 0,
          "mode": 4
        }
      ]
    }
  ],
  "nodes": [
    {
      "children": [
        1
      ],
      "matrix": [
        1.0,
        0.0,
        0.0,
        0.0,
        0.0,
        2.220446049250313e-16,
        -1.0,
        0.0,
        0.0,
        1.0,
        2.220446049250313e-16,
        0.0,
        0.0,
        0.0,
        0.0,
        1.0
      ],
      "name": "Sketchfab_model"
    },
    {
      "children": [
        2,
        4
      ],
      "name": "Root"
    },
    {
      "children": [
        3
      ],
      "matrix": [
        0.9733499999999999,
        0.21595000000000003,
        0.07713000000000002,
        0.0,
        -0.1318,
        0.25162,
        0.95881,
        0.0,
        0.18764000000000003,
        -0.94343,
        0.27338000000000007,
        0.0,
        2.09172,
        -0.5998300000000001,
        4.192079999999999,
        1.0
      ],
      "name": "Lamp"
    },
    {
      "name": "Lamp"
    },
    {
      "children": [
        5
      ],
      "name": "Plane"
    },
    {
      "mesh": 0,
      "name": "Plane_0"
    }
  ],
  "samplers": [
    {
      "magFilter": 9729,
      "minFilter": 9987,
      "wrapS": 10497,
      "wrapT": 10497
    }
  ],
  "scene": 0,
  "scenes": [
    {
      "name": "Sketchfab_Scene",
      "nodes": [
        0
      ]
    }
  ],
  "textures": [
    {
      "sampler": 0,
      "source": 0
    },
    {
      "sampler": 0,
      "source": 1
    },
    {
      "sampler": 0,
      "source": 2
    }
  ]
}
