{
    "asset" : {
        "generator" : "Khronos glTF Blender I/O v1.7.33",
        "version" : "2.0"
    },
    "scene" : 0,
    "scenes" : [
        {
            "name" : "Scene",
            "nodes" : [
                6
            ]
        }
    ],
    "nodes" : [
        {
            "mesh" : 0,
            "name" : "Bio_Frame_aiStandardSurface2_0"
        },
        {
            "children" : [
                0
            ],
            "name" : "Bio_Frame",
            "rotation" : [
                -0.5,
                0.5,
                0.5,
                0.5
            ]
        },
        {
            "name" : "Bio_Glass",
            "rotation" : [
                -0.5,
                0.5,
                0.5,
                0.5
            ]
        },
        {
            "name" : "pDisc1",
            "scale" : [
                1.210582971572876,
                1.210582971572876,
                1.210582971572876
            ]
        },
        {
            "children" : [
                1,
                2,
                3
            ],
            "name" : "RootNode"
        },
        {
            "children" : [
                4
            ],
            "name" : "7aa9c999253442058966e6040ca312b3.fbx",
            "rotation" : [
                0.7071068286895752,
                0,
                0,
                0.7071068286895752
            ]
        },
        {
            "children" : [
                5
            ],
            "name" : "Sketchfab_model",
            "rotation" : [
                -0.7071068286895752,
                0,
                0,
                0.7071068286895752
            ]
        }
    ],
    "materials" : [
        {
            "doubleSided" : true,
            "name" : "aiStandardSurface2",
            "pbrMetallicRoughness" : {
                "roughnessFactor" : 0
            }
        }
    ],
    "meshes" : [
        {
            "name" : "Bio_Frame_aiStandardSurface2_0",
            "primitives" : [
                {
                    "attributes" : {
                        "POSITION" : 0,
                        "NORMAL" : 1,
                        "TEXCOORD_0" : 2
                    },
                    "indices" : 3,
                    "material" : 0
                }
            ]
        }
    ],
    "accessors" : [
        {
            "bufferView" : 0,
            "componentType" : 5126,
            "count" : 3400,
            "max" : [
                1.026737093925476,
                1.0151344537734985,
                1.0334677696228027
            ],
            "min" : [
                -1.0282245874404907,
                -1.014597773551941,
                -0.014718304388225079
            ],
            "type" : "VEC3"
        },
        {
            "bufferView" : 1,
            "componentType" : 5126,
            "count" : 3400,
            "type" : "VEC3"
        },
        {
            "bufferView" : 2,
            "componentType" : 5126,
            "count" : 3400,
            "type" : "VEC2"
        },
        {
            "bufferView" : 3,
            "componentType" : 5123,
            "count" : 8802,
            "type" : "SCALAR"
        }
    ],
    "bufferViews" : [
        {
            "buffer" : 0,
            "byteLength" : 40800,
            "byteOffset" : 0
        },
        {
            "buffer" : 0,
            "byteLength" : 40800,
            "byteOffset" : 40800
        },
        {
            "buffer" : 0,
            "byteLength" : 27200,
            "byteOffset" : 81600
        },
        {
            "buffer" : 0,
            "byteLength" : 17604,
            "byteOffset" : 108800
        }
    ],
    "buffers" : [
        {
            "byteLength" : 126404,
            "uri" : "scene.bin"
        }
    ]
}
