{
  "accessors": [
    {
      "bufferView": 2,
      "componentType": 5126,
      "count": 9527,
      "max": [
        4.69677734375,
        25.634033203125,
        -10.034744262695313
      ],
      "min": [
        -67.73590087890625,
        -27.7841796875,
        -80.01255798339844
      ],
      "type": "VEC3"
    },
    {
      "bufferView": 2,
      "byteOffset": 114324,
      "componentType": 5126,
      "count": 9527,
      "max": [
        1.0,
        0.9997521042823792,
        0.9484165906906128
      ],
      "min": [
        -1.0,
        -0.9999380111694336,
        -0.9546518325805664
      ],
      "type": "VEC3"
    },
    {
      "bufferView": 3,
      "componentType": 5126,
      "count": 9527,
      "max": [
        0.9986395239830017,
        0.9782742261886597,
        0.9999998211860657,
        1.0
      ],
      "min": [
        -0.9975317120552063,
        -0.9999997615814209,
        -1.0,
        -1.0
      ],
      "type": "VEC4"
    },
    {
      "bufferView": 1,
      "componentType": 5126,
      "count": 9527,
      "max": [
        0.98876953125,
        0.9814910888671875
      ],
      "min": [
        0.00244140625,
        0.00244140625
      ],
      "type": "VEC2"
    },
    {
      "bufferView": 1,
      "byteOffset": 76216,
      "componentType": 5126,
      "count": 9527,
      "max": [
        0.96533203125,
        0.9980316162109375
      ],
      "min": [
        0.0019683837890625,
        0.05859375
      ],
      "type": "VEC2"
    },
    {
      "bufferView": 0,
      "componentType": 5125,
      "count": 53094,
      "type": "SCALAR"
    },
    {
      "bufferView": 2,
      "byteOffset": 228648,
      "componentType": 5126,
      "count": 12431,
      "max": [
        24.84600830078125,
        25.87060546875,
        2.7151336669921875
      ],
      "min": [
        -81.95928955078125,
        -25.87060546875,
        -138.43099975585938
      ],
      "type": "VEC3"
    },
    {
      "bufferView": 2,
      "byteOffset": 377820,
      "componentType": 5126,
      "count": 12431,
      "max": [
        1.0,
        1.0,
        1.0
      ],
      "min": [
        -1.0,
        -1.0,
        -1.0
      ],
      "type": "VEC3"
    },
    {
      "bufferView": 3,
      "byteOffset": 152432,
      "componentType": 5126,
      "count": 12431,
      "max": [
        1.0,
        1.0,
        1.0,
        1.0
      ],
      "min": [
        -1.0,
        -1.0,
        -1.0,
        -1.0
      ],
      "type": "VEC4"
    },
    {
      "bufferView": 1,
      "byteOffset": 152432,
      "componentType": 5126,
      "count": 12431,
      "max": [
        0.99951171875,
        0.9992094039916992
      ],
      "min": [
        0.00244140625,
        0.00244140625
      ],
      "type": "VEC2"
    },
    {
      "bufferView": 1,
      "byteOffset": 251880,
      "componentType": 5126,
      "count": 12431,
      "max": [
        0.998046875,
        0.9980316162109375
      ],
      "min": [
        0.0019683837890625,
        0.0029296875
      ],
      "type": "VEC2"
    },
    {
      "bufferView": 0,
      "byteOffset": 212376,
      "componentType": 5125,
      "count": 48108,
      "type": "SCALAR"
    }
  ],
  "asset": {
    "extras": {
      "author": "Tim H. (https://sketchfab.com/eueruntergang)",
      "license": "SKETCHFAB Standard (https://sketchfab.com/licenses)",
      "source": "https://sketchfab.com/3d-models/cloth-rack-85ef4c7ae355421bb6eec90e7224f708",
      "title": "Cloth Rack"
    },
    "generator": "Sketchfab-14.32.1",
    "version": "2.0"
  },
  "bufferViews": [
    {
      "buffer": 0,
      "byteLength": 404808,
      "name": "floatBufferViews",
      "target": 34963
    },
    {
      "buffer": 0,
      "byteLength": 351328,
      "byteOffset": 404808,
      "byteStride": 8,
      "name": "floatBufferViews",
      "target": 34962
    },
    {
      "buffer": 0,
      "byteLength": 526992,
      "byteOffset": 756136,
      "byteStride": 12,
      "name": "floatBufferViews",
      "target": 34962
    },
    {
      "buffer": 0,
      "byteLength": 351328,
      "byteOffset": 1283128,
      "byteStride": 16,
      "name": "floatBufferViews",
      "target": 34962
    }
  ],
  "buffers": [
    {
      "byteLength": 1634456,
      "uri": "scene.bin"
    }
  ],
  "images": [
    {
      "uri": "textures/Clothes_mat_Inst_baseColor.png"
    },
    {
      "uri": "textures/Clothes_mat_Inst_metallicRoughness.png"
    },
    {
      "uri": "textures/Clothes_mat_Inst_normal.png"
    },
    {
      "uri": "textures/Rack_mat_Inst_baseColor.png"
    },
    {
      "uri": "textures/Rack_mat_Inst_metallicRoughness.png"
    },
    {
      "uri": "textures/Rack_mat_Inst_normal.png"
    }
  ],
  "materials": [
    {
      "doubleSided": true,
      "name": "Clothes_mat_Inst",
      "normalTexture": {
        "index": 2
      },
      "pbrMetallicRoughness": {
        "baseColorTexture": {
          "index": 0
        },
        "metallicRoughnessTexture": {
          "index": 1
        }
      }
    },
    {
      "doubleSided": true,
      "name": "Rack_mat_Inst",
      "normalTexture": {
        "index": 5
      },
      "pbrMetallicRoughness": {
        "baseColorTexture": {
          "index": 3
        },
        "metallicRoughnessTexture": {
          "index": 4
        }
      }
    }
  ],
  "meshes": [
    {
      "name": "Rack_with_cloth_combined_Clothes_mat_Inst_0",
      "primitives": [
        {
          "attributes": {
            "NORMAL": 1,
            "POSITION": 0,
            "TANGENT": 2,
            "TEXCOORD_0": 3,
            "TEXCOORD_1": 4
          },
          "indices": 5,
          "material": 0,
          "mode": 4
        }
      ]
    },
    {
      "name": "Rack_with_cloth_combined_Rack_mat_Inst_0",
      "primitives": [
        {
          "attributes": {
            "NORMAL": 7,
            "POSITION": 6,
            "TANGENT": 8,
            "TEXCOORD_0": 9,
            "TEXCOORD_1": 10
          },
          "indices": 11,
          "material": 1,
          "mode": 4
        }
      ]
    }
  ],
  "nodes": [
    {
      "children": [
        1
      ],
      "matrix": [
        1.0,
        0.0,
        0.0,
        0.0,
        0.0,
        2.220446049250313e-16,
        -1.0,
        0.0,
        0.0,
        1.0,
        2.220446049250313e-16,
        0.0,
        0.0,
        0.0,
        0.0,
        1.0
      ],
      "name": "Sketchfab_model"
    },
    {
      "children": [
        2
      ],
      "matrix": [
        0.009999999776482582,
        0.0,
        0.0,
        0.0,
        0.0,
        0.0,
        0.009999999776482582,
        0.0,
        0.0,
        -0.009999999776482582,
        0.0,
        0.0,
        0.0,
        0.0,
        0.0,
        1.0
      ],
      "name": "5ca2c23f88974e58a4380b3a774b5b60.fbx"
    },
    {
      "children": [
        3
      ],
      "name": "RootNode"
    },
    {
      "children": [
        4,
        5
      ],
      "matrix": [
        1.0,
        0.0,
        0.0,
        0.0,
        0.0,
        2.220446049250313e-16,
        -1.0,
        0.0,
        0.0,
        1.0,
        2.220446049250313e-16,
        0.0,
        31.155803680419922,
        138.7258758544922,
        0.0,
        1.0
      ],
      "name": "Rack_with_cloth_combined"
    },
    {
      "mesh": 0,
      "name": "Rack_with_cloth_combined_Clothes_mat_Inst_0"
    },
    {
      "mesh": 1,
      "name": "Rack_with_cloth_combined_Rack_mat_Inst_0"
    }
  ],
  "samplers": [
    {
      "magFilter": 9729,
      "minFilter": 9987,
      "wrapS": 10497,
      "wrapT": 10497
    }
  ],
  "scene": 0,
  "scenes": [
    {
      "name": "Sketchfab_Scene",
      "nodes": [
        0
      ]
    }
  ],
  "textures": [
    {
      "sampler": 0,
      "source": 0
    },
    {
      "sampler": 0,
      "source": 1
    },
    {
      "sampler": 0,
      "source": 2
    },
    {
      "sampler": 0,
      "source": 3
    },
    {
      "sampler": 0,
      "source": 4
    },
    {
      "sampler": 0,
      "source": 5
    }
  ]
}
