{
    "asset" : {
        "generator" : "Khronos glTF Blender I/O v1.7.33",
        "version" : "2.0"
    },
    "scene" : 0,
    "scenes" : [
        {
            "name" : "Scene",
            "nodes" : [
                11
            ]
        }
    ],
    "nodes" : [
        {
            "mesh" : 0,
            "name" : "Object008_Bottom_0"
        },
        {
            "mesh" : 1,
            "name" : "Object008_DOOR_0"
        },
        {
            "mesh" : 2,
            "name" : "Object008_emissive_0"
        },
        {
            "mesh" : 3,
            "name" : "Object008_lock02_0"
        },
        {
            "mesh" : 4,
            "name" : "Object008_LOCK1_0"
        },
        {
            "mesh" : 5,
            "name" : "Object008_pillar_0"
        },
        {
            "children" : [
                0,
                1,
                2,
                3,
                4,
                5
            ],
            "name" : "Node_5",
            "translation" : [
                0,
                -26.084362030029297,
                82.825927734375
            ]
        },
        {
            "children" : [
                6
            ],
            "name" : "Object008",
            "rotation" : [
                -0.7071068286895752,
                0,
                0,
                0.7071068286895752
            ],
            "scale" : [
                0.9278709888458252,
                0.7787669897079468,
                0.9278709888458252
            ],
            "translation" : [
                0,
                0,
                -20.313631057739258
            ]
        },
        {
            "children" : [
                7
            ],
            "name" : "RootNode"
        },
        {
            "children" : [
                8
            ],
            "name" : "LOW-Symmetry.FBX",
            "rotation" : [
                0.7071068286895752,
                0,
                0,
                0.7071068286895752
            ]
        },
        {
            "children" : [
                9
            ],
            "name" : "RootNode (model correction matrix)"
        },
        {
            "children" : [
                10
            ],
            "name" : "RootNode (gltf orientation matrix)",
            "rotation" : [
                -0.7071068286895752,
                0,
                0,
                0.7071068286895752
            ]
        }
    ],
    "materials" : [
        {
            "doubleSided" : true,
            "name" : "Bottom",
            "normalTexture" : {
                "index" : 0
            },
            "occlusionTexture" : {
                "index" : 1
            },
            "pbrMetallicRoughness" : {
                "baseColorTexture" : {
                    "index" : 2
                },
                "metallicRoughnessTexture" : {
                    "index" : 1
                }
            }
        },
        {
            "doubleSided" : true,
            "emissiveFactor" : [
                1,
                1,
                1
            ],
            "emissiveTexture" : {
                "index" : 3
            },
            "name" : "DOOR",
            "normalTexture" : {
                "index" : 4
            },
            "occlusionTexture" : {
                "index" : 5
            },
            "pbrMetallicRoughness" : {
                "baseColorTexture" : {
                    "index" : 6
                },
                "metallicRoughnessTexture" : {
                    "index" : 5
                }
            }
        },
        {
            "doubleSided" : true,
            "emissiveFactor" : [
                1,
                1,
                1
            ],
            "emissiveTexture" : {
                "index" : 7
            },
            "name" : "emissive",
            "normalTexture" : {
                "index" : 8
            },
            "occlusionTexture" : {
                "index" : 9
            },
            "pbrMetallicRoughness" : {
                "baseColorTexture" : {
                    "index" : 10
                },
                "metallicRoughnessTexture" : {
                    "index" : 9
                }
            }
        },
        {
            "doubleSided" : true,
            "emissiveFactor" : [
                1,
                1,
                1
            ],
            "emissiveTexture" : {
                "index" : 11
            },
            "name" : "lock02",
            "normalTexture" : {
                "index" : 12
            },
            "occlusionTexture" : {
                "index" : 13
            },
            "pbrMetallicRoughness" : {
                "baseColorTexture" : {
                    "index" : 14
                },
                "metallicRoughnessTexture" : {
                    "index" : 13
                }
            }
        },
        {
            "doubleSided" : true,
            "emissiveFactor" : [
                1,
                1,
                1
            ],
            "emissiveTexture" : {
                "index" : 15
            },
            "name" : "LOCK1",
            "normalTexture" : {
                "index" : 16
            },
            "occlusionTexture" : {
                "index" : 17
            },
            "pbrMetallicRoughness" : {
                "baseColorTexture" : {
                    "index" : 18
                },
                "metallicRoughnessTexture" : {
                    "index" : 17
                }
            }
        },
        {
            "alphaMode" : "BLEND",
            "doubleSided" : true,
            "emissiveFactor" : [
                1,
                1,
                1
            ],
            "emissiveTexture" : {
                "index" : 19
            },
            "name" : "pillar",
            "normalTexture" : {
                "index" : 20
            },
            "occlusionTexture" : {
                "index" : 21
            },
            "pbrMetallicRoughness" : {
                "baseColorTexture" : {
                    "index" : 22
                },
                "metallicRoughnessTexture" : {
                    "index" : 21
                }
            }
        }
    ],
    "meshes" : [
        {
            "name" : "Object008_Bottom_0",
            "primitives" : [
                {
                    "attributes" : {
                        "POSITION" : 0,
                        "NORMAL" : 1,
                        "TEXCOORD_0" : 2
                    },
                    "indices" : 3,
                    "material" : 0
                }
            ]
        },
        {
            "name" : "Object008_DOOR_0",
            "primitives" : [
                {
                    "attributes" : {
                        "POSITION" : 4,
                        "NORMAL" : 5,
                        "TEXCOORD_0" : 6
                    },
                    "indices" : 7,
                    "material" : 1
                }
            ]
        },
        {
            "name" : "Object008_emissive_0",
            "primitives" : [
                {
                    "attributes" : {
                        "POSITION" : 8,
                        "NORMAL" : 9,
                        "TEXCOORD_0" : 10
                    },
                    "indices" : 11,
                    "material" : 2
                }
            ]
        },
        {
            "name" : "Object008_lock02_0",
            "primitives" : [
                {
                    "attributes" : {
                        "POSITION" : 12,
                        "NORMAL" : 13,
                        "TEXCOORD_0" : 14
                    },
                    "indices" : 15,
                    "material" : 3
                }
            ]
        },
        {
            "name" : "Object008_LOCK1_0",
            "primitives" : [
                {
                    "attributes" : {
                        "POSITION" : 16,
                        "NORMAL" : 17,
                        "TEXCOORD_0" : 18
                    },
                    "indices" : 19,
                    "material" : 4
                }
            ]
        },
        {
            "name" : "Object008_pillar_0",
            "primitives" : [
                {
                    "attributes" : {
                        "POSITION" : 20,
                        "NORMAL" : 21,
                        "TEXCOORD_0" : 22
                    },
                    "indices" : 23,
                    "material" : 5
                }
            ]
        }
    ],
    "textures" : [
        {
            "sampler" : 0,
            "source" : 0
        },
        {
            "sampler" : 0,
            "source" : 1
        },
        {
            "sampler" : 0,
            "source" : 2
        },
        {
            "sampler" : 0,
            "source" : 3
        },
        {
            "sampler" : 0,
            "source" : 4
        },
        {
            "sampler" : 0,
            "source" : 5
        },
        {
            "sampler" : 0,
            "source" : 6
        },
        {
            "sampler" : 0,
            "source" : 7
        },
        {
            "sampler" : 0,
            "source" : 8
        },
        {
            "sampler" : 0,
            "source" : 9
        },
        {
            "sampler" : 0,
            "source" : 10
        },
        {
            "sampler" : 0,
            "source" : 11
        },
        {
            "sampler" : 0,
            "source" : 12
        },
        {
            "sampler" : 0,
            "source" : 13
        },
        {
            "sampler" : 0,
            "source" : 14
        },
        {
            "sampler" : 0,
            "source" : 15
        },
        {
            "sampler" : 0,
            "source" : 16
        },
        {
            "sampler" : 0,
            "source" : 17
        },
        {
            "sampler" : 0,
            "source" : 18
        },
        {
            "sampler" : 0,
            "source" : 19
        },
        {
            "sampler" : 0,
            "source" : 20
        },
        {
            "sampler" : 0,
            "source" : 21
        },
        {
            "sampler" : 0,
            "source" : 22
        }
    ],
    "images" : [
        {
            "mimeType" : "image/png",
            "name" : "Bottom_normal",
            "uri" : "Bottom_normal.png"
        },
        {
            "mimeType" : "image/png",
            "name" : "Bottom_metallicRoughness",
            "uri" : "Bottom_metallicRoughness.png"
        },
        {
            "mimeType" : "image/jpeg",
            "name" : "Bottom_baseColor",
            "uri" : "Bottom_baseColor.jpg"
        },
        {
            "mimeType" : "image/jpeg",
            "name" : "DOOR_emissive",
            "uri" : "DOOR_emissive.jpg"
        },
        {
            "mimeType" : "image/png",
            "name" : "DOOR_normal",
            "uri" : "DOOR_normal.png"
        },
        {
            "mimeType" : "image/png",
            "name" : "DOOR_metallicRoughness",
            "uri" : "DOOR_metallicRoughness.png"
        },
        {
            "mimeType" : "image/jpeg",
            "name" : "DOOR_baseColor",
            "uri" : "DOOR_baseColor.jpg"
        },
        {
            "mimeType" : "image/jpeg",
            "name" : "emissive_emissive",
            "uri" : "emissive_emissive.jpg"
        },
        {
            "mimeType" : "image/png",
            "name" : "emissive_normal",
            "uri" : "emissive_normal.png"
        },
        {
            "mimeType" : "image/png",
            "name" : "emissive_metallicRoughness",
            "uri" : "emissive_metallicRoughness.png"
        },
        {
            "mimeType" : "image/jpeg",
            "name" : "emissive_baseColor",
            "uri" : "emissive_baseColor.jpg"
        },
        {
            "mimeType" : "image/jpeg",
            "name" : "lock02_emissive",
            "uri" : "lock02_emissive.jpg"
        },
        {
            "mimeType" : "image/png",
            "name" : "lock02_normal",
            "uri" : "lock02_normal.png"
        },
        {
            "mimeType" : "image/png",
            "name" : "lock02_metallicRoughness",
            "uri" : "lock02_metallicRoughness.png"
        },
        {
            "mimeType" : "image/jpeg",
            "name" : "lock02_baseColor",
            "uri" : "lock02_baseColor.jpg"
        },
        {
            "mimeType" : "image/jpeg",
            "name" : "LOCK1_emissive",
            "uri" : "LOCK1_emissive.jpg"
        },
        {
            "mimeType" : "image/png",
            "name" : "LOCK1_normal",
            "uri" : "LOCK1_normal.png"
        },
        {
            "mimeType" : "image/png",
            "name" : "LOCK1_metallicRoughness",
            "uri" : "LOCK1_metallicRoughness.png"
        },
        {
            "mimeType" : "image/jpeg",
            "name" : "LOCK1_baseColor",
            "uri" : "LOCK1_baseColor.jpg"
        },
        {
            "mimeType" : "image/jpeg",
            "name" : "pillar_emissive",
            "uri" : "pillar_emissive.jpg"
        },
        {
            "mimeType" : "image/png",
            "name" : "pillar_normal",
            "uri" : "pillar_normal.png"
        },
        {
            "mimeType" : "image/png",
            "name" : "pillar_metallicRoughness",
            "uri" : "pillar_metallicRoughness.png"
        },
        {
            "mimeType" : "image/png",
            "name" : "pillar_baseColor",
            "uri" : "pillar_baseColor.png"
        }
    ],
    "accessors" : [
        {
            "bufferView" : 0,
            "componentType" : 5126,
            "count" : 225,
            "max" : [
                119.16930389404297,
                26.084362030029297,
                -30.271873474121094
            ],
            "min" : [
                -119.16929626464844,
                -20.301185607910156,
                -82.825927734375
            ],
            "type" : "VEC3"
        },
        {
            "bufferView" : 1,
            "componentType" : 5126,
            "count" : 225,
            "type" : "VEC3"
        },
        {
            "bufferView" : 2,
            "componentType" : 5126,
            "count" : 225,
            "type" : "VEC2"
        },
        {
            "bufferView" : 3,
            "componentType" : 5123,
            "count" : 270,
            "type" : "SCALAR"
        },
        {
            "bufferView" : 4,
            "componentType" : 5126,
            "count" : 284,
            "max" : [
                78.43021392822266,
                26.084362030029297,
                51.01735305786133
            ],
            "min" : [
                -78.43021392822266,
                5.50401496887207,
                -82.82594299316406
            ],
            "type" : "VEC3"
        },
        {
            "bufferView" : 5,
            "componentType" : 5126,
            "count" : 284,
            "type" : "VEC3"
        },
        {
            "bufferView" : 6,
            "componentType" : 5126,
            "count" : 284,
            "type" : "VEC2"
        },
        {
            "bufferView" : 7,
            "componentType" : 5123,
            "count" : 300,
            "type" : "SCALAR"
        },
        {
            "bufferView" : 8,
            "componentType" : 5126,
            "count" : 76,
            "max" : [
                23.505035400390625,
                -15.174190521240234,
                82.82594299316406
            ],
            "min" : [
                -23.505001068115234,
                -26.084369659423828,
                55.915950775146484
            ],
            "type" : "VEC3"
        },
        {
            "bufferView" : 9,
            "componentType" : 5126,
            "count" : 76,
            "type" : "VEC3"
        },
        {
            "bufferView" : 10,
            "componentType" : 5126,
            "count" : 76,
            "type" : "VEC2"
        },
        {
            "bufferView" : 11,
            "componentType" : 5123,
            "count" : 84,
            "type" : "SCALAR"
        },
        {
            "bufferView" : 12,
            "componentType" : 5126,
            "count" : 182,
            "max" : [
                31.111473083496094,
                14.263531684875488,
                46.335113525390625
            ],
            "min" : [
                -31.11144256591797,
                7.104205131530762,
                -74.73800659179688
            ],
            "type" : "VEC3"
        },
        {
            "bufferView" : 13,
            "componentType" : 5126,
            "count" : 182,
            "type" : "VEC3"
        },
        {
            "bufferView" : 14,
            "componentType" : 5126,
            "count" : 182,
            "type" : "VEC2"
        },
        {
            "bufferView" : 15,
            "componentType" : 5123,
            "count" : 192,
            "type" : "SCALAR"
        },
        {
            "bufferView" : 16,
            "componentType" : 5126,
            "count" : 515,
            "max" : [
                85.07366180419922,
                26.084362030029297,
                77.71723175048828
            ],
            "min" : [
                -85.07363891601562,
                -16.71929931640625,
                -75.89205932617188
            ],
            "type" : "VEC3"
        },
        {
            "bufferView" : 17,
            "componentType" : 5126,
            "count" : 515,
            "type" : "VEC3"
        },
        {
            "bufferView" : 18,
            "componentType" : 5126,
            "count" : 515,
            "type" : "VEC2"
        },
        {
            "bufferView" : 19,
            "componentType" : 5123,
            "count" : 630,
            "type" : "SCALAR"
        },
        {
            "bufferView" : 20,
            "componentType" : 5126,
            "count" : 403,
            "max" : [
                106.0162124633789,
                26.084362030029297,
                74.9749984741211
            ],
            "min" : [
                -106.01620483398438,
                -12.313886642456055,
                -79.27226257324219
            ],
            "type" : "VEC3"
        },
        {
            "bufferView" : 21,
            "componentType" : 5126,
            "count" : 403,
            "type" : "VEC3"
        },
        {
            "bufferView" : 22,
            "componentType" : 5126,
            "count" : 403,
            "type" : "VEC2"
        },
        {
            "bufferView" : 23,
            "componentType" : 5123,
            "count" : 462,
            "type" : "SCALAR"
        }
    ],
    "bufferViews" : [
        {
            "buffer" : 0,
            "byteLength" : 2700,
            "byteOffset" : 0
        },
        {
            "buffer" : 0,
            "byteLength" : 2700,
            "byteOffset" : 2700
        },
        {
            "buffer" : 0,
            "byteLength" : 1800,
            "byteOffset" : 5400
        },
        {
            "buffer" : 0,
            "byteLength" : 540,
            "byteOffset" : 7200
        },
        {
            "buffer" : 0,
            "byteLength" : 3408,
            "byteOffset" : 7740
        },
        {
            "buffer" : 0,
            "byteLength" : 3408,
            "byteOffset" : 11148
        },
        {
            "buffer" : 0,
            "byteLength" : 2272,
            "byteOffset" : 14556
        },
        {
            "buffer" : 0,
            "byteLength" : 600,
            "byteOffset" : 16828
        },
        {
            "buffer" : 0,
            "byteLength" : 912,
            "byteOffset" : 17428
        },
        {
            "buffer" : 0,
            "byteLength" : 912,
            "byteOffset" : 18340
        },
        {
            "buffer" : 0,
            "byteLength" : 608,
            "byteOffset" : 19252
        },
        {
            "buffer" : 0,
            "byteLength" : 168,
            "byteOffset" : 19860
        },
        {
            "buffer" : 0,
            "byteLength" : 2184,
            "byteOffset" : 20028
        },
        {
            "buffer" : 0,
            "byteLength" : 2184,
            "byteOffset" : 22212
        },
        {
            "buffer" : 0,
            "byteLength" : 1456,
            "byteOffset" : 24396
        },
        {
            "buffer" : 0,
            "byteLength" : 384,
            "byteOffset" : 25852
        },
        {
            "buffer" : 0,
            "byteLength" : 6180,
            "byteOffset" : 26236
        },
        {
            "buffer" : 0,
            "byteLength" : 6180,
            "byteOffset" : 32416
        },
        {
            "buffer" : 0,
            "byteLength" : 4120,
            "byteOffset" : 38596
        },
        {
            "buffer" : 0,
            "byteLength" : 1260,
            "byteOffset" : 42716
        },
        {
            "buffer" : 0,
            "byteLength" : 4836,
            "byteOffset" : 43976
        },
        {
            "buffer" : 0,
            "byteLength" : 4836,
            "byteOffset" : 48812
        },
        {
            "buffer" : 0,
            "byteLength" : 3224,
            "byteOffset" : 53648
        },
        {
            "buffer" : 0,
            "byteLength" : 924,
            "byteOffset" : 56872
        }
    ],
    "samplers" : [
        {
            "magFilter" : 9729,
            "minFilter" : 9987
        }
    ],
    "buffers" : [
        {
            "byteLength" : 57796,
            "uri" : "scene.bin"
        }
    ]
}
