{
  "accessors": [
    {
      "bufferView": 2,
      "componentType": 5126,
      "count": 1693,
      "max": [
        66.99981689453125,
        494.27716064453125,
        74.0457763671875
      ],
      "min": [
        -64.33940887451172,
        0.0,
        -73.8727035522461
      ],
      "type": "VEC3"
    },
    {
      "bufferView": 2,
      "byteOffset": 20316,
      "componentType": 5126,
      "count": 1693,
      "max": [
        0.9999891519546509,
        0.9986083507537842,
        0.9994001388549805
      ],
      "min": [
        -0.9996581077575684,
        -0.9988202452659607,
        -0.9977633357048035
      ],
      "type": "VEC3"
    },
    {
      "bufferView": 3,
      "componentType": 5126,
      "count": 1693,
      "max": [
        0.9995515942573547,
        0.9997338056564331,
        0.9999129176139832,
        1.0
      ],
      "min": [
        -0.9999654293060303,
        -0.99995356798172,
        -0.9999767541885376,
        -1.0
      ],
      "type": "VEC4"
    },
    {
      "bufferView": 1,
      "componentType": 5126,
      "count": 1693,
      "max": [
        0.9985399842262268,
        8.698369979858398
      ],
      "min": [
        0.0004900000058114529,
        1.0
      ],
      "type": "VEC2"
    },
    {
      "bufferView": 0,
      "componentType": 5125,
      "count": 7419,
      "type": "SCALAR"
    },
    {
      "bufferView": 2,
      "byteOffset": 40632,
      "componentType": 5126,
      "count": 1147,
      "max": [
        106.03965759277344,
        546.2984619140625,
        115.50135803222656
      ],
      "min": [
        -108.0793685913086,
        157.4602813720703,
        -114.74664306640625
      ],
      "type": "VEC3"
    },
    {
      "bufferView": 2,
      "byteOffset": 54396,
      "componentType": 5126,
      "count": 1147,
      "max": [
        0.9984368085861206,
        0.988821804523468,
        0.9990265369415283
      ],
      "min": [
        -0.9998211860656738,
        -0.4502917528152466,
        -0.998699426651001
      ],
      "type": "VEC3"
    },
    {
      "bufferView": 3,
      "byteOffset": 27088,
      "componentType": 5126,
      "count": 1147,
      "max": [
        0.9987297654151917,
        0.9985098242759705,
        0.9983419179916382,
        1.0
      ],
      "min": [
        -0.9998047351837158,
        -0.9753738641738892,
        -0.9985654950141907,
        -1.0
      ],
      "type": "VEC4"
    },
    {
      "bufferView": 1,
      "byteOffset": 13544,
      "componentType": 5126,
      "count": 1147,
      "max": [
        0.9986100196838379,
        0.9985100030899048
      ],
      "min": [
        0.0015899999998509884,
        0.0014900000533089042
      ],
      "type": "VEC2"
    },
    {
      "bufferView": 0,
      "byteOffset": 29676,
      "componentType": 5125,
      "count": 3432,
      "type": "SCALAR"
    }
  ],
  "asset": {
    "extras": {
      "author": "evolveduk (https://sketchfab.com/evolveduk)",
      "license": "CC-BY-4.0 (http://creativecommons.org/licenses/by/4.0/)",
      "source": "https://sketchfab.com/3d-models/pine-tree-d45218a3fab349e5b1de040f29e7b6f9",
      "title": "Pine Tree"
    },
    "generator": "Sketchfab-13.36.0",
    "version": "2.0"
  },
  "bufferViews": [
    {
      "buffer": 0,
      "byteLength": 43404,
      "name": "floatBufferViews",
      "target": 34963
    },
    {
      "buffer": 0,
      "byteLength": 22720,
      "byteOffset": 43404,
      "byteStride": 8,
      "name": "floatBufferViews",
      "target": 34962
    },
    {
      "buffer": 0,
      "byteLength": 68160,
      "byteOffset": 66124,
      "byteStride": 12,
      "name": "floatBufferViews",
      "target": 34962
    },
    {
      "buffer": 0,
      "byteLength": 45440,
      "byteOffset": 134284,
      "byteStride": 16,
      "name": "floatBufferViews",
      "target": 34962
    }
  ],
  "buffers": [
    {
      "byteLength": 179724,
      "uri": "scene.bin"
    }
  ],
  "images": [
    {
      "uri": "textures/Tree_0Mat_baseColor.png"
    },
    {
      "uri": "textures/Tree_0Mat_metallicRoughness.png"
    },
    {
      "uri": "textures/Tree_0Mat_normal.png"
    },
    {
      "uri": "textures/Tree_1Mat_baseColor.png"
    },
    {
      "uri": "textures/Tree_1Mat_metallicRoughness.png"
    },
    {
      "uri": "textures/Tree_1Mat_normal.png"
    }
  ],
  "materials": [
    {
      "name": "Tree_0Mat",
      "normalTexture": {
        "index": 2
      },
      "pbrMetallicRoughness": {
        "baseColorTexture": {
          "index": 0
        },
        "metallicFactor": 0.0,
        "metallicRoughnessTexture": {
          "index": 1
        }
      }
    },
    {
      "alphaCutoff": 0.23968891896899946,
      "alphaMode": "MASK",
      "doubleSided": true,
      "name": "Tree_1Mat",
      "normalTexture": {
        "index": 5
      },
      "pbrMetallicRoughness": {
        "baseColorTexture": {
          "index": 3
        },
        "metallicFactor": 0.0,
        "metallicRoughnessTexture": {
          "index": 4
        }
      }
    }
  ],
  "meshes": [
    {
      "name": "Tree_0_Tree_0Mat_0",
      "primitives": [
        {
          "attributes": {
            "NORMAL": 1,
            "POSITION": 0,
            "TANGENT": 2,
            "TEXCOORD_0": 3
          },
          "indices": 4,
          "material": 0,
          "mode": 4
        }
      ]
    },
    {
      "name": "Tree_1_Tree_1Mat_0",
      "primitives": [
        {
          "attributes": {
            "NORMAL": 6,
            "POSITION": 5,
            "TANGENT": 7,
            "TEXCOORD_0": 8
          },
          "indices": 9,
          "material": 1,
          "mode": 4
        }
      ]
    }
  ],
  "nodes": [
    {
      "children": [
        1
      ],
      "matrix": [
        1.0,
        0.0,
        0.0,
        0.0,
        0.0,
        2.220446049250313e-16,
        -1.0,
        0.0,
        0.0,
        1.0,
        2.220446049250313e-16,
        0.0,
        0.0,
        0.0,
        0.0,
        1.0
      ],
      "name": "Sketchfab_model"
    },
    {
      "children": [
        2
      ],
      "matrix": [
        0.009999999776482582,
        0.0,
        0.0,
        0.0,
        0.0,
        0.0,
        0.009999999776482582,
        0.0,
        0.0,
        -0.009999999776482582,
        0.0,
        0.0,
        0.0,
        0.0,
        0.0,
        1.0
      ],
      "name": "pine.fbx"
    },
    {
      "children": [
        3
      ],
      "name": "RootNode"
    },
    {
      "children": [
        4,
        5
      ],
      "name": "Tree_0"
    },
    {
      "mesh": 0,
      "name": "Tree_0_Tree_0Mat_0"
    },
    {
      "children": [
        6
      ],
      "name": "Tree_1"
    },
    {
      "mesh": 1,
      "name": "Tree_1_Tree_1Mat_0"
    }
  ],
  "samplers": [
    {
      "magFilter": 9729,
      "minFilter": 9987,
      "wrapS": 10497,
      "wrapT": 10497
    }
  ],
  "scene": 0,
  "scenes": [
    {
      "name": "Sketchfab_Scene",
      "nodes": [
        0
      ]
    }
  ],
  "textures": [
    {
      "sampler": 0,
      "source": 0
    },
    {
      "sampler": 0,
      "source": 1
    },
    {
      "sampler": 0,
      "source": 2
    },
    {
      "sampler": 0,
      "source": 3
    },
    {
      "sampler": 0,
      "source": 4
    },
    {
      "sampler": 0,
      "source": 5
    }
  ]
}
