{
  "accessors": [
    {
      "bufferView": 2,
      "componentType": 5126,
      "count": 129,
      "max": [
        156.18971252441406,
        117.97236633300781,
        18.74278450012207
      ],
      "min": [
        132.99284362792969,
        96.577934265136719,
        18.008743286132812
      ],
      "type": "VEC3"
    },
    {
      "bufferView": 2,
      "byteOffset": 1548,
      "componentType": 5126,
      "count": 129,
      "max": [
        0.99972313642501831,
        0.99993264675140381,
        1
      ],
      "min": [
        -0.9997936487197876,
        -1,
        -1
      ],
      "type": "VEC3"
    },
    {
      "bufferView": 3,
      "componentType": 5126,
      "count": 129,
      "max": [
        0.85808956623077393,
        0.042996387928724289,
        0.99710959196090698,
        1
      ],
      "min": [
        -0.6350824236869812,
        -0.89085215330123901,
        -0.99478542804718018,
        1
      ],
      "type": "VEC4"
    },
    {
      "bufferView": 1,
      "componentType": 5126,
      "count": 129,
      "max": [
        0.6447179913520813,
        0.57924199104309082
      ],
      "min": [
        0.55866098403930664,
        0.4874190092086792
      ],
      "type": "VEC2"
    },
    {
      "bufferView": 0,
      "componentType": 5125,
      "count": 468,
      "max": [
        128
      ],
      "min": [
        0
      ],
      "type": "SCALAR"
    },
    {
      "bufferView": 2,
      "byteOffset": 3096,
      "componentType": 5126,
      "count": 308,
      "max": [
        138.32304382324219,
        114.37671661376953,
        23.653076171875
      ],
      "min": [
        136.99031066894531,
        99.02850341796875,
        18.7373046875
      ],
      "type": "VEC3"
    },
    {
      "bufferView": 2,
      "byteOffset": 6792,
      "componentType": 5126,
      "count": 308,
      "max": [
        0.96950066089630127,
        0.99997198581695557,
        0.99998462200164795
      ],
      "min": [
        -0.99996459484100342,
        -0.99997198581695557,
        -0.9999997615814209
      ],
      "type": "VEC3"
    },
    {
      "bufferView": 3,
      "byteOffset": 2064,
      "componentType": 5126,
      "count": 308,
      "max": [
        1,
        0.99257802963256836,
        0.96512067317962646,
        1
      ],
      "min": [
        -0.9999886155128479,
        -0.99452382326126099,
        -0.96354800462722778,
        1
      ],
      "type": "VEC4"
    },
    {
      "bufferView": 1,
      "byteOffset": 1032,
      "componentType": 5126,
      "count": 308,
      "max": [
        0.90522199869155884,
        0.07906699925661087
      ],
      "min": [
        0.89461398124694824,
        0.029875999316573143
      ],
      "type": "VEC2"
    },
    {
      "bufferView": 0,
      "byteOffset": 1872,
      "componentType": 5125,
      "count": 1080,
      "max": [
        307
      ],
      "min": [
        0
      ],
      "type": "SCALAR"
    },
    {
      "bufferView": 2,
      "byteOffset": 10488,
      "componentType": 5126,
      "count": 136,
      "max": [
        197.29669189453125,
        143.69180297851562,
        15.157691955566406
      ],
      "min": [
        172.70326232910156,
        55.238014221191406,
        11.28488826751709
      ],
      "type": "VEC3"
    },
    {
      "bufferView": 2,
      "byteOffset": 12120,
      "componentType": 5126,
      "count": 136,
      "max": [
        1,
        1,
        1
      ],
      "min": [
        -1,
        -1,
        -1
      ],
      "type": "VEC3"
    },
    {
      "bufferView": 3,
      "byteOffset": 6992,
      "componentType": 5126,
      "count": 136,
      "max": [
        0.99999773502349854,
        0.99999767541885376,
        0,
        1
      ],
      "min": [
        -0.99999773502349854,
        -0.99999773502349854,
        -0.0021732170134782791,
        1
      ],
      "type": "VEC4"
    },
    {
      "bufferView": 1,
      "byteOffset": 3496,
      "componentType": 5126,
      "count": 136,
      "max": [
        0.55255597829818726,
        0.59621500968933105
      ],
      "min": [
        0.25786599516868591,
        0.48246601223945618
      ],
      "type": "VEC2"
    },
    {
      "bufferView": 0,
      "byteOffset": 6192,
      "componentType": 5125,
      "count": 384,
      "max": [
        135
      ],
      "min": [
        0
      ],
      "type": "SCALAR"
    },
    {
      "bufferView": 2,
      "byteOffset": 13752,
      "componentType": 5126,
      "count": 464,
      "max": [
        245.78749084472656,
        203.99998474121094,
        18.008735656738281
      ],
      "min": [
        124.21244812011719,
        0,
        -3.744952917098999
      ],
      "type": "VEC3"
    },
    {
      "bufferView": 2,
      "byteOffset": 19320,
      "componentType": 5126,
      "count": 464,
      "max": [
        0.99991649389266968,
        0.99991697072982788,
        0.99994552135467529
      ],
      "min": [
        -0.99991649389266968,
        -0.99991720914840698,
        -0.99994552135467529
      ],
      "type": "VEC3"
    },
    {
      "bufferView": 3,
      "byteOffset": 9168,
      "componentType": 5126,
      "count": 464,
      "max": [
        1,
        0.41253015398979187,
        0.99991726875305176,
        1
      ],
      "min": [
        -1,
        -0.41253027319908142,
        -0.99991697072982788,
        1
      ],
      "type": "VEC4"
    },
    {
      "bufferView": 1,
      "byteOffset": 4584,
      "componentType": 5126,
      "count": 464,
      "max": [
        0.98300498723983765,
        0.60212302207946777
      ],
      "min": [
        0.0019920000340789557,
        0.004623000044375658
      ],
      "type": "VEC2"
    },
    {
      "bufferView": 0,
      "byteOffset": 7728,
      "componentType": 5125,
      "count": 1920,
      "max": [
        463
      ],
      "min": [
        0
      ],
      "type": "SCALAR"
    },
    {
      "bufferView": 2,
      "byteOffset": 24888,
      "componentType": 5126,
      "count": 624,
      "max": [
        231.46397399902344,
        193.23614501953125,
        18.008735656738281
      ],
      "min": [
        138.53596496582031,
        5.693695068359375,
        8.4338464736938477
      ],
      "type": "VEC3"
    },
    {
      "bufferView": 2,
      "byteOffset": 32376,
      "componentType": 5126,
      "count": 624,
      "max": [
        0.99982190132141113,
        0.99982190132141113,
        0.99999934434890747
      ],
      "min": [
        -0.99982190132141113,
        -0.99982202053070068,
        -0.99999934434890747
      ],
      "type": "VEC3"
    },
    {
      "bufferView": 3,
      "byteOffset": 16592,
      "componentType": 5126,
      "count": 624,
      "max": [
        1,
        0.98763102293014526,
        0.99454277753829956,
        1
      ],
      "min": [
        -0.98811435699462891,
        -0.98764234781265259,
        -0.99453639984130859,
        1
      ],
      "type": "VEC4"
    },
    {
      "bufferView": 1,
      "byteOffset": 8296,
      "componentType": 5126,
      "count": 624,
      "max": [
        0.99800801277160645,
        0.91818100214004517
      ],
      "min": [
        0.0019920000340789557,
        0.0018329999875277281
      ],
      "type": "VEC2"
    },
    {
      "bufferView": 0,
      "byteOffset": 15408,
      "componentType": 5125,
      "count": 2868,
      "max": [
        623
      ],
      "min": [
        0
      ],
      "type": "SCALAR"
    },
    {
      "bufferView": 2,
      "byteOffset": 39864,
      "componentType": 5126,
      "count": 102,
      "max": [
        236.55943298339844,
        170.5406494140625,
        19.299137115478516
      ],
      "min": [
        222.84199523925781,
        163.81483459472656,
        18.005851745605469
      ],
      "type": "VEC3"
    },
    {
      "bufferView": 2,
      "byteOffset": 41088,
      "componentType": 5126,
      "count": 102,
      "max": [
        1,
        1,
        1
      ],
      "min": [
        -1,
        -1,
        0
      ],
      "type": "VEC3"
    },
    {
      "bufferView": 3,
      "byteOffset": 26576,
      "componentType": 5126,
      "count": 102,
      "max": [
        0.43907654285430908,
        1,
        1,
        1
      ],
      "min": [
        -0.11457525938749313,
        -0.99470680952072144,
        -0.70448648929595947,
        1
      ],
      "type": "VEC4"
    },
    {
      "bufferView": 1,
      "byteOffset": 13288,
      "componentType": 5126,
      "count": 102,
      "max": [
        0.99334502220153809,
        0.5983160138130188
      ],
      "min": [
        0.2207539975643158,
        0.16562299430370331
      ],
      "type": "VEC2"
    },
    {
      "bufferView": 0,
      "byteOffset": 26880,
      "componentType": 5125,
      "count": 204,
      "max": [
        101
      ],
      "min": [
        0
      ],
      "type": "SCALAR"
    },
    {
      "bufferView": 2,
      "byteOffset": 42312,
      "componentType": 5126,
      "count": 74,
      "max": [
        236.51268005371094,
        169.93899536132812,
        19.626266479492188
      ],
      "min": [
        234.89457702636719,
        164.41650390625,
        18.008148193359375
      ],
      "type": "VEC3"
    },
    {
      "bufferView": 2,
      "byteOffset": 43200,
      "componentType": 5126,
      "count": 74,
      "max": [
        0.96593201160430908,
        1,
        0.96592509746551514
      ],
      "min": [
        -0.96592289209365845,
        -1,
        -0.96592909097671509
      ],
      "type": "VEC3"
    },
    {
      "bufferView": 3,
      "byteOffset": 28208,
      "componentType": 5126,
      "count": 74,
      "max": [
        0.96592456102371216,
        0.0020808698609471321,
        0.96592247486114502,
        1
      ],
      "min": [
        -0.96592861413955688,
        0,
        -0.96593153476715088,
        1
      ],
      "type": "VEC4"
    },
    {
      "bufferView": 1,
      "byteOffset": 14104,
      "componentType": 5126,
      "count": 74,
      "max": [
        0.66411501169204712,
        0.60394799709320068
      ],
      "min": [
        0.65241497755050659,
        0.58383697271347046
      ],
      "type": "VEC2"
    },
    {
      "bufferView": 0,
      "byteOffset": 27696,
      "componentType": 5125,
      "count": 144,
      "max": [
        73
      ],
      "min": [
        0
      ],
      "type": "SCALAR"
    },
    {
      "bufferView": 2,
      "byteOffset": 44088,
      "componentType": 5126,
      "count": 74,
      "max": [
        236.51268005371094,
        155.17343139648438,
        19.626266479492188
      ],
      "min": [
        234.89457702636719,
        149.65097045898438,
        18.008148193359375
      ],
      "type": "VEC3"
    },
    {
      "bufferView": 2,
      "byteOffset": 44976,
      "componentType": 5126,
      "count": 74,
      "max": [
        0.96593201160430908,
        1,
        0.96592485904693604
      ],
      "min": [
        -0.96592289209365845,
        -1,
        -0.96592885255813599
      ],
      "type": "VEC3"
    },
    {
      "bufferView": 3,
      "byteOffset": 29392,
      "componentType": 5126,
      "count": 74,
      "max": [
        0.96592438220977783,
        0.0020809280686080456,
        0.96592247486114502,
        1
      ],
      "min": [
        -0.96592837572097778,
        -1.6243404388660565e-05,
        -0.9659314751625061,
        1
      ],
      "type": "VEC4"
    },
    {
      "bufferView": 1,
      "byteOffset": 14696,
      "componentType": 5126,
      "count": 74,
      "max": [
        0.68169397115707397,
        0.62152701616287231
      ],
      "min": [
        0.66999399662017822,
        0.60141599178314209
      ],
      "type": "VEC2"
    },
    {
      "bufferView": 0,
      "byteOffset": 28272,
      "componentType": 5125,
      "count": 144,
      "max": [
        73
      ],
      "min": [
        0
      ],
      "type": "SCALAR"
    },
    {
      "bufferView": 2,
      "byteOffset": 45864,
      "componentType": 5126,
      "count": 102,
      "max": [
        236.55943298339844,
        155.77510070800781,
        19.299137115478516
      ],
      "min": [
        222.84199523925781,
        149.04928588867188,
        18.005851745605469
      ],
      "type": "VEC3"
    },
    {
      "bufferView": 2,
      "byteOffset": 47088,
      "componentType": 5126,
      "count": 102,
      "max": [
        1,
        1,
        1
      ],
      "min": [
        -1,
        -1,
        0
      ],
      "type": "VEC3"
    },
    {
      "bufferView": 3,
      "byteOffset": 30576,
      "componentType": 5126,
      "count": 102,
      "max": [
        0.44062447547912598,
        1,
        1,
        1
      ],
      "min": [
        -0.11262147128582001,
        -0.99431461095809937,
        -0.70449566841125488,
        1
      ],
      "type": "VEC4"
    },
    {
      "bufferView": 1,
      "byteOffset": 15288,
      "componentType": 5126,
      "count": 102,
      "max": [
        0.99688500165939331,
        0.57683002948760986
      ],
      "min": [
        0.65241497755050659,
        0.085541002452373505
      ],
      "type": "VEC2"
    },
    {
      "bufferView": 0,
      "byteOffset": 28848,
      "componentType": 5125,
      "count": 204,
      "max": [
        101
      ],
      "min": [
        0
      ],
      "type": "SCALAR"
    },
    {
      "bufferView": 2,
      "byteOffset": 48312,
      "componentType": 5126,
      "count": 74,
      "max": [
        236.51268005371094,
        44.611671447753906,
        19.626266479492188
      ],
      "min": [
        234.89457702636719,
        39.089191436767578,
        18.008148193359375
      ],
      "type": "VEC3"
    },
    {
      "bufferView": 2,
      "byteOffset": 49200,
      "componentType": 5126,
      "count": 74,
      "max": [
        0.96593177318572998,
        1,
        0.96592509746551514
      ],
      "min": [
        -0.96592265367507935,
        -1,
        -0.96592909097671509
      ],
      "type": "VEC3"
    },
    {
      "bufferView": 3,
      "byteOffset": 32208,
      "componentType": 5126,
      "count": 74,
      "max": [
        0.96592450141906738,
        0.0020808700937777758,
        0.96592223644256592,
        1
      ],
      "min": [
        -0.96592861413955688,
        -2.1239254692773102e-06,
        -0.965931236743927,
        1
      ],
      "type": "VEC4"
    },
    {
      "bufferView": 1,
      "byteOffset": 16104,
      "componentType": 5126,
      "count": 74,
      "max": [
        0.42972999811172485,
        0.61371499300003052
      ],
      "min": [
        0.41802999377250671,
        0.59360402822494507
      ],
      "type": "VEC2"
    },
    {
      "bufferView": 0,
      "byteOffset": 29664,
      "componentType": 5125,
      "count": 144,
      "max": [
        73
      ],
      "min": [
        0
      ],
      "type": "SCALAR"
    },
    {
      "bufferView": 2,
      "byteOffset": 50088,
      "componentType": 5126,
      "count": 102,
      "max": [
        236.55943298339844,
        45.213344573974609,
        19.299137115478516
      ],
      "min": [
        222.84199523925781,
        38.487522125244141,
        18.005851745605469
      ],
      "type": "VEC3"
    },
    {
      "bufferView": 2,
      "byteOffset": 51312,
      "componentType": 5126,
      "count": 102,
      "max": [
        1,
        1,
        1
      ],
      "min": [
        -1,
        -1,
        0
      ],
      "type": "VEC3"
    },
    {
      "bufferView": 3,
      "byteOffset": 33392,
      "componentType": 5126,
      "count": 102,
      "max": [
        0.43904063105583191,
        1,
        1,
        1
      ],
      "min": [
        -0.1126084178686142,
        -0.99431484937667847,
        -0.7045053243637085,
        1
      ],
      "type": "VEC4"
    },
    {
      "bufferView": 1,
      "byteOffset": 16696,
      "componentType": 5126,
      "count": 102,
      "max": [
        0.99688500165939331,
        0.60026901960372925
      ],
      "min": [
        0.2207539975643158,
        0.0054580001160502434
      ],
      "type": "VEC2"
    },
    {
      "bufferView": 0,
      "byteOffset": 30240,
      "componentType": 5125,
      "count": 204,
      "max": [
        101
      ],
      "min": [
        0
      ],
      "type": "SCALAR"
    },
    {
      "bufferView": 2,
      "byteOffset": 52536,
      "componentType": 5126,
      "count": 102,
      "max": [
        236.55943298339844,
        30.447792053222656,
        19.299137115478516
      ],
      "min": [
        222.84199523925781,
        23.721969604492188,
        18.005851745605469
      ],
      "type": "VEC3"
    },
    {
      "bufferView": 2,
      "byteOffset": 53760,
      "componentType": 5126,
      "count": 102,
      "max": [
        1,
        1,
        1
      ],
      "min": [
        -1,
        -1,
        0
      ],
      "type": "VEC3"
    },
    {
      "bufferView": 3,
      "byteOffset": 35024,
      "componentType": 5126,
      "count": 102,
      "max": [
        0.43897363543510437,
        1,
        1,
        1
      ],
      "min": [
        -0.11277767270803452,
        -0.99431467056274414,
        -0.70448631048202515,
        1
      ],
      "type": "VEC4"
    },
    {
      "bufferView": 1,
      "byteOffset": 17512,
      "componentType": 5126,
      "count": 102,
      "max": [
        0.99297899007797241,
        0.59440898895263672
      ],
      "min": [
        0.22661399841308594,
        0.085541002452373505
      ],
      "type": "VEC2"
    },
    {
      "bufferView": 0,
      "byteOffset": 31056,
      "componentType": 5125,
      "count": 204,
      "max": [
        101
      ],
      "min": [
        0
      ],
      "type": "SCALAR"
    },
    {
      "bufferView": 2,
      "byteOffset": 54984,
      "componentType": 5126,
      "count": 74,
      "max": [
        236.51268005371094,
        29.846122741699219,
        19.626266479492188
      ],
      "min": [
        234.89457702636719,
        24.323638916015625,
        18.008148193359375
      ],
      "type": "VEC3"
    },
    {
      "bufferView": 2,
      "byteOffset": 55872,
      "componentType": 5126,
      "count": 74,
      "max": [
        0.96593177318572998,
        1,
        0.96592509746551514
      ],
      "min": [
        -0.96592265367507935,
        -1,
        -0.96592909097671509
      ],
      "type": "VEC3"
    },
    {
      "bufferView": 3,
      "byteOffset": 36656,
      "componentType": 5126,
      "count": 74,
      "max": [
        0.96592462062835693,
        0.0020809080451726913,
        0.96592217683792114,
        1
      ],
      "min": [
        -0.96592861413955688,
        -4.2478914110688493e-06,
        -0.96593129634857178,
        1
      ],
      "type": "VEC4"
    },
    {
      "bufferView": 1,
      "byteOffset": 18328,
      "componentType": 5126,
      "count": 74,
      "max": [
        0.451214998960495,
        0.60785502195358276
      ],
      "min": [
        0.43951499462127686,
        0.58774399757385254
      ],
      "type": "VEC2"
    },
    {
      "bufferView": 0,
      "byteOffset": 31872,
      "componentType": 5125,
      "count": 144,
      "max": [
        73
      ],
      "min": [
        0
      ],
      "type": "SCALAR"
    }
  ],
  "asset": {
    "extras": {
      "author": "tboiston (https://sketchfab.com/tboiston)",
      "license": "CC-BY-4.0 (http://creativecommons.org/licenses/by/4.0/)",
      "source": "https://sketchfab.com/3d-models/laboratory-door-8a363e96211144a8b02b893123f2f33f",
      "title": "Laboratory door"
    },
    "generator": "Sketchfab-9.90.0",
    "version": "2.0"
  },
  "bufferViews": [
    {
      "buffer": 0,
      "byteLength": 32448,
      "byteOffset": 0,
      "name": "floatBufferViews",
      "target": 34963
    },
    {
      "buffer": 0,
      "byteLength": 18920,
      "byteOffset": 32448,
      "byteStride": 8,
      "name": "floatBufferViews",
      "target": 34962
    },
    {
      "buffer": 0,
      "byteLength": 56760,
      "byteOffset": 51368,
      "byteStride": 12,
      "name": "floatBufferViews",
      "target": 34962
    },
    {
      "buffer": 0,
      "byteLength": 37840,
      "byteOffset": 108128,
      "byteStride": 16,
      "name": "floatBufferViews",
      "target": 34962
    }
  ],
  "buffers": [
    {
      "byteLength": 145968,
      "uri": "scene.bin"
    }
  ],
  "images": [
    {
      "uri": "textures/lambert1_baseColor.png"
    },
    {
      "uri": "textures/lambert1_metallicRoughness.png"
    },
    {
      "uri": "textures/lambert1_normal.png"
    }
  ],
  "materials": [
    {
      "alphaMode": "BLEND",
      "doubleSided": true,
      "name": "lambert1",
      "normalTexture": {
        "index": 2,
        "scale": 1,
        "texCoord": 0
      },
      "occlusionTexture": {
        "index": 1,
        "strength": 1,
        "texCoord": 0
      },
      "pbrMetallicRoughness": {
        "baseColorFactor": [
          1,
          1,
          1,
          1
        ],
        "baseColorTexture": {
          "index": 0,
          "texCoord": 0
        },
        "metallicFactor": 1,
        "metallicRoughnessTexture": {
          "index": 1,
          "texCoord": 0
        },
        "roughnessFactor": 1
      }
    }
  ],
  "meshes": [
    {
      "name": "defaultMaterial",
      "primitives": [
        {
          "attributes": {
            "NORMAL": 1,
            "POSITION": 0,
            "TANGENT": 2,
            "TEXCOORD_0": 3
          },
          "indices": 4,
          "material": 0,
          "mode": 4
        }
      ]
    },
    {
      "name": "defaultMaterial",
      "primitives": [
        {
          "attributes": {
            "NORMAL": 6,
            "POSITION": 5,
            "TANGENT": 7,
            "TEXCOORD_0": 8
          },
          "indices": 9,
          "material": 0,
          "mode": 4
        }
      ]
    },
    {
      "name": "defaultMaterial",
      "primitives": [
        {
          "attributes": {
            "NORMAL": 11,
            "POSITION": 10,
            "TANGENT": 12,
            "TEXCOORD_0": 13
          },
          "indices": 14,
          "material": 0,
          "mode": 4
        }
      ]
    },
    {
      "name": "defaultMaterial",
      "primitives": [
        {
          "attributes": {
            "NORMAL": 16,
            "POSITION": 15,
            "TANGENT": 17,
            "TEXCOORD_0": 18
          },
          "indices": 19,
          "material": 0,
          "mode": 4
        }
      ]
    },
    {
      "name": "defaultMaterial",
      "primitives": [
        {
          "attributes": {
            "NORMAL": 21,
            "POSITION": 20,
            "TANGENT": 22,
            "TEXCOORD_0": 23
          },
          "indices": 24,
          "material": 0,
          "mode": 4
        }
      ]
    },
    {
      "name": "defaultMaterial",
      "primitives": [
        {
          "attributes": {
            "NORMAL": 26,
            "POSITION": 25,
            "TANGENT": 27,
            "TEXCOORD_0": 28
          },
          "indices": 29,
          "material": 0,
          "mode": 4
        }
      ]
    },
    {
      "name": "defaultMaterial",
      "primitives": [
        {
          "attributes": {
            "NORMAL": 31,
            "POSITION": 30,
            "TANGENT": 32,
            "TEXCOORD_0": 33
          },
          "indices": 34,
          "material": 0,
          "mode": 4
        }
      ]
    },
    {
      "name": "defaultMaterial",
      "primitives": [
        {
          "attributes": {
            "NORMAL": 36,
            "POSITION": 35,
            "TANGENT": 37,
            "TEXCOORD_0": 38
          },
          "indices": 39,
          "material": 0,
          "mode": 4
        }
      ]
    },
    {
      "name": "defaultMaterial",
      "primitives": [
        {
          "attributes": {
            "NORMAL": 41,
            "POSITION": 40,
            "TANGENT": 42,
            "TEXCOORD_0": 43
          },
          "indices": 44,
          "material": 0,
          "mode": 4
        }
      ]
    },
    {
      "name": "defaultMaterial",
      "primitives": [
        {
          "attributes": {
            "NORMAL": 46,
            "POSITION": 45,
            "TANGENT": 47,
            "TEXCOORD_0": 48
          },
          "indices": 49,
          "material": 0,
          "mode": 4
        }
      ]
    },
    {
      "name": "defaultMaterial",
      "primitives": [
        {
          "attributes": {
            "NORMAL": 51,
            "POSITION": 50,
            "TANGENT": 52,
            "TEXCOORD_0": 53
          },
          "indices": 54,
          "material": 0,
          "mode": 4
        }
      ]
    },
    {
      "name": "defaultMaterial",
      "primitives": [
        {
          "attributes": {
            "NORMAL": 56,
            "POSITION": 55,
            "TANGENT": 57,
            "TEXCOORD_0": 58
          },
          "indices": 59,
          "material": 0,
          "mode": 4
        }
      ]
    },
    {
      "name": "defaultMaterial",
      "primitives": [
        {
          "attributes": {
            "NORMAL": 61,
            "POSITION": 60,
            "TANGENT": 62,
            "TEXCOORD_0": 63
          },
          "indices": 64,
          "material": 0,
          "mode": 4
        }
      ]
    }
  ],
  "nodes": [
    {
      "children": [
        1
      ],
      "name": "RootNode (gltf orientation matrix)",
      "rotation": [
        -0.70710678118654746,
        -0,
        -0,
        0.70710678118654757
      ]
    },
    {
      "children": [
        2
      ],
      "name": "RootNode (model correction matrix)"
    },
    {
      "children": [
        3
      ],
      "matrix": [
        1,
        0,
        0,
        0,
        0,
        -4.3711390063094768e-08,
        0.999999999999999,
        0,
        0,
        -0.999999999999999,
        -4.3711390063094768e-08,
        0,
        0,
        0,
        0,
        1
      ],
      "name": "Collada visual scene group"
    },
    {
      "children": [
        4,
        6,
        8,
        10,
        12,
        14
      ],
      "name": "Low"
    },
    {
      "children": [
        5
      ],
      "name": "HandleThing_Low"
    },
    {
      "mesh": 0,
      "name": "defaultMaterial"
    },
    {
      "children": [
        7
      ],
      "name": "Handle_Low"
    },
    {
      "mesh": 1,
      "name": "defaultMaterial"
    },
    {
      "children": [
        9
      ],
      "name": "Glass_Low"
    },
    {
      "mesh": 2,
      "name": "defaultMaterial"
    },
    {
      "children": [
        11
      ],
      "name": "Frame_Low"
    },
    {
      "mesh": 3,
      "name": "defaultMaterial"
    },
    {
      "children": [
        13
      ],
      "name": "Door_Low"
    },
    {
      "mesh": 4,
      "name": "defaultMaterial"
    },
    {
      "children": [
        15,
        17,
        19,
        21,
        23,
        25,
        27,
        29
      ],
      "name": "Hinges"
    },
    {
      "children": [
        16
      ],
      "name": "Joint1_Low"
    },
    {
      "mesh": 5,
      "name": "defaultMaterial"
    },
    {
      "children": [
        18
      ],
      "name": "Hinge1_Low"
    },
    {
      "mesh": 6,
      "name": "defaultMaterial"
    },
    {
      "children": [
        20
      ],
      "name": "Hinge2_Low"
    },
    {
      "mesh": 7,
      "name": "defaultMaterial"
    },
    {
      "children": [
        22
      ],
      "name": "Joint2_Low"
    },
    {
      "mesh": 8,
      "name": "defaultMaterial"
    },
    {
      "children": [
        24
      ],
      "name": "Hinge3_Low"
    },
    {
      "mesh": 9,
      "name": "defaultMaterial"
    },
    {
      "children": [
        26
      ],
      "name": "Joint3_Low"
    },
    {
      "mesh": 10,
      "name": "defaultMaterial"
    },
    {
      "children": [
        28
      ],
      "name": "Joint4_Low"
    },
    {
      "mesh": 11,
      "name": "defaultMaterial"
    },
    {
      "children": [
        30
      ],
      "name": "Hinge4_Low"
    },
    {
      "mesh": 12,
      "name": "defaultMaterial"
    }
  ],
  "samplers": [
    {
      "magFilter": 9729,
      "minFilter": 9987,
      "wrapS": 10497,
      "wrapT": 10497
    }
  ],
  "scene": 0,
  "scenes": [
    {
      "name": "OSG_Scene",
      "nodes": [
        0
      ]
    }
  ],
  "textures": [
    {
      "sampler": 0,
      "source": 0
    },
    {
      "sampler": 0,
      "source": 1
    },
    {
      "sampler": 0,
      "source": 2
    }
  ]
}

