{
  "accessors": [
    {
      "bufferView": 2,
      "componentType": 5126,
      "count": 2042,
      "max": [
        0.33510589599609375,
        0.44051671028137207,
        0.33510443568229675
      ],
      "min": [
        -0.33510160446166992,
        -3.2423858642578125,
        -0.33510306477546692
      ],
      "type": "VEC3"
    },
    {
      "bufferView": 2,
      "byteOffset": 24504,
      "componentType": 5126,
      "count": 2042,
      "max": [
        1,
        1,
        1
      ],
      "min": [
        -1,
        -1,
        -1
      ],
      "type": "VEC3"
    },
    {
      "bufferView": 3,
      "componentType": 5126,
      "count": 2042,
      "max": [
        0.99999213218688965,
        0.99998217821121216,
        0.99999940395355225,
        1
      ],
      "min": [
        -0.9999995231628418,
        -0.99510997533798218,
        -0.99999469518661499,
        1
      ],
      "type": "VEC4"
    },
    {
      "bufferView": 1,
      "componentType": 5126,
      "count": 2042,
      "max": [
        0.96974354982376099,
        0.98931926488876343
      ],
      "min": [
        0.012466614134609699,
        0.0078195016831159592
      ],
      "type": "VEC2"
    },
    {
      "bufferView": 1,
      "byteOffset": 16336,
      "componentType": 5126,
      "count": 2042,
      "max": [
        0.96974354982376099,
        0.98931926488876343
      ],
      "min": [
        0.012466614134609699,
        0.0078195016831159592
      ],
      "type": "VEC2"
    },
    {
      "bufferView": 0,
      "componentType": 5125,
      "count": 4302,
      "max": [
        2041
      ],
      "min": [
        0
      ],
      "type": "SCALAR"
    },
    {
      "bufferView": 2,
      "byteOffset": 49008,
      "componentType": 5126,
      "count": 66,
      "max": [
        0.32766574621200562,
        0.37840747833251953,
        0.32766410708427429
      ],
      "min": [
        -0.32766079902648926,
        0.10850190371274948,
        -0.32766243815422058
      ],
      "type": "VEC3"
    },
    {
      "bufferView": 2,
      "byteOffset": 49800,
      "componentType": 5126,
      "count": 66,
      "max": [
        0.86058098077774048,
        -0.50931316614151001,
        0.86058062314987183
      ],
      "min": [
        -0.8605806827545166,
        -0.50931447744369507,
        -0.86058104038238525
      ],
      "type": "VEC3"
    },
    {
      "bufferView": 3,
      "byteOffset": 32672,
      "componentType": 5126,
      "count": 66,
      "max": [
        0.99735212326049805,
        0.023626597598195076,
        0.78159475326538086,
        1
      ],
      "min": [
        -0.97768920660018921,
        -0.86058086156845093,
        -0.18130369484424591,
        1
      ],
      "type": "VEC4"
    },
    {
      "bufferView": 1,
      "byteOffset": 32672,
      "componentType": 5126,
      "count": 66,
      "max": [
        0.14995491504669189,
        0.40228688716888428
      ],
      "min": [
        0.023470699787139893,
        0.15614509582519531
      ],
      "type": "VEC2"
    },
    {
      "bufferView": 0,
      "byteOffset": 17208,
      "componentType": 5125,
      "count": 192,
      "max": [
        65
      ],
      "min": [
        0
      ],
      "type": "SCALAR"
    }
  ],
  "asset": {
    "extras": {
      "author": "RPSebb (https://sketchfab.com/RPSebb)",
      "license": "CC-BY-4.0 (http://creativecommons.org/licenses/by/4.0/)",
      "source": "https://sketchfab.com/3d-models/lampadaire-e8385b92a7a440909f161ba2b40a9433",
      "title": "Lampadaire"
    },
    "generator": "Sketchfab-6.9.0",
    "version": "2.0"
  },
  "bufferViews": [
    {
      "buffer": 0,
      "byteLength": 17976,
      "byteOffset": 0,
      "name": "floatBufferViews",
      "target": 34963
    },
    {
      "buffer": 0,
      "byteLength": 33200,
      "byteOffset": 17976,
      "byteStride": 8,
      "name": "floatBufferViews",
      "target": 34962
    },
    {
      "buffer": 0,
      "byteLength": 50592,
      "byteOffset": 51176,
      "byteStride": 12,
      "name": "floatBufferViews",
      "target": 34962
    },
    {
      "buffer": 0,
      "byteLength": 33728,
      "byteOffset": 101768,
      "byteStride": 16,
      "name": "floatBufferViews",
      "target": 34962
    }
  ],
  "buffers": [
    {
      "byteLength": 135496,
      "uri": "scene.bin"
    }
  ],
  "images": [
    {
      "uri": "textures/Baked_baseColor.png"
    },
    {
      "uri": "textures/Baked_metallicRoughness.png"
    }
  ],
  "materials": [
    {
      "doubleSided": true,
      "name": "Baked",
      "pbrMetallicRoughness": {
        "baseColorFactor": [
          1,
          1,
          1,
          1
        ],
        "baseColorTexture": {
          "index": 0,
          "texCoord": 0
        },
        "metallicFactor": 1,
        "metallicRoughnessTexture": {
          "index": 1,
          "texCoord": 0
        },
        "roughnessFactor": 0.52267530487804881
      }
    },
    {
      "doubleSided": true,
      "name": "Transparent_Plastic_Lamp.001",
      "pbrMetallicRoughness": {
        "baseColorFactor": [
          0.33638951952947194,
          0.33638951952947194,
          0.33638951952947194,
          1
        ],
        "metallicFactor": 0,
        "roughnessFactor": 0.19073932926829268
      }
    }
  ],
  "meshes": [
    {
      "name": "Lamapdaire_Baked_0",
      "primitives": [
        {
          "attributes": {
            "NORMAL": 1,
            "POSITION": 0,
            "TANGENT": 2,
            "TEXCOORD_0": 3,
            "TEXCOORD_1": 4
          },
          "indices": 5,
          "material": 0,
          "mode": 4
        }
      ]
    },
    {
      "name": "Lamapdaire_Transparent Plastic Lamp.001_0",
      "primitives": [
        {
          "attributes": {
            "NORMAL": 7,
            "POSITION": 6,
            "TANGENT": 8,
            "TEXCOORD_0": 9
          },
          "indices": 10,
          "material": 1,
          "mode": 4
        }
      ]
    }
  ],
  "nodes": [
    {
      "children": [
        1
      ],
      "name": "RootNode (gltf orientation matrix)",
      "rotation": [
        -0.70710678118654746,
        -0,
        -0,
        0.70710678118654757
      ]
    },
    {
      "children": [
        2
      ],
      "matrix": [
        1,
        0,
        0,
        0,
        0,
        -2.2204460492503131e-16,
        1,
        0,
        0,
        -1,
        -2.2204460492503131e-16,
        0,
        0,
        -1.4009332656860352,
        1.4009338617324829,
        1
      ],
      "name": "RootNode (model correction matrix)"
    },
    {
      "children": [
        3
      ],
      "matrix": [
        1,
        0,
        0,
        0,
        0,
        0,
        1,
        0,
        0,
        -1,
        0,
        0,
        0,
        0,
        0,
        1
      ],
      "name": "e5f815a8228e4879956c46c1b861126b.fbx"
    },
    {
      "children": [
        4
      ],
      "name": "RootNode"
    },
    {
      "children": [
        5,
        6
      ],
      "matrix": [
        1,
        0,
        0,
        0,
        0,
        -1.6292067939183141e-07,
        -0.99999999999998679,
        0,
        0,
        0.99999999999998679,
        -1.6292067939183141e-07,
        0,
        0,
        0,
        0,
        1
      ],
      "name": "Lamapdaire"
    },
    {
      "mesh": 0,
      "name": "Lamapdaire_Baked_0"
    },
    {
      "mesh": 1,
      "name": "Lamapdaire_Transparent Plastic Lamp.001_0"
    }
  ],
  "samplers": [
    {
      "magFilter": 9729,
      "minFilter": 9987,
      "wrapS": 10497,
      "wrapT": 10497
    }
  ],
  "scene": 0,
  "scenes": [
    {
      "name": "OSG_Scene",
      "nodes": [
        0
      ]
    }
  ],
  "textures": [
    {
      "sampler": 0,
      "source": 0
    },
    {
      "sampler": 0,
      "source": 1
    }
  ]
}

