{
  "accessors": [
    {
      "bufferView": 3,
      "componentType": 5126,
      "count": 700,
      "max": [
        2.972902536392212,
        6.367936611175537,
        1.8218824863433838
      ],
      "min": [
        -2.0652196407318115,
        -0.050486378371715546,
        -2.4848010540008545
      ],
      "type": "VEC3"
    },
    {
      "bufferView": 3,
      "byteOffset": 8400,
      "componentType": 5126,
      "count": 700,
      "max": [
        0.9999764561653137,
        0.9938593506813049,
        0.9999999403953552
      ],
      "min": [
        -0.9999994039535522,
        -1.0,
        -0.9999997615814209
      ],
      "type": "VEC3"
    },
    {
      "bufferView": 4,
      "componentType": 5126,
      "count": 700,
      "max": [
        1.0,
        0.9912770390510559,
        0.9999998807907104,
        1.0
      ],
      "min": [
        -1.0,
        -0.9917944669723511,
        -0.9999990463256836,
        -1.0
      ],
      "type": "VEC4"
    },
    {
      "bufferView": 2,
      "componentType": 5126,
      "count": 700,
      "max": [
        1.0,
        6.393301486968994
      ],
      "min": [
        0.0,
        -0.10000000149011612
      ],
      "type": "VEC2"
    },
    {
      "bufferView": 2,
      "byteOffset": 5600,
      "componentType": 5126,
      "count": 700,
      "max": [
        1.0,
        6.393301486968994
      ],
      "min": [
        0.0,
        -0.10000000149011612
      ],
      "type": "VEC2"
    },
    {
      "bufferView": 1,
      "componentType": 5125,
      "count": 3054,
      "type": "SCALAR"
    },
    {
      "bufferView": 3,
      "byteOffset": 16800,
      "componentType": 5126,
      "count": 1748,
      "max": [
        3.1764438152313232,
        6.4064741134643555,
        1.9815012216567993
      ],
      "min": [
        -2.208282709121704,
        0.7596570253372192,
        -2.926839590072632
      ],
      "type": "VEC3"
    },
    {
      "bufferView": 3,
      "byteOffset": 37776,
      "componentType": 5126,
      "count": 1748,
      "max": [
        0.6876811385154724,
        0.9933995604515076,
        0.9999980926513672
      ],
      "min": [
        -0.6876811385154724,
        -0.9933995604515076,
        -0.9999980926513672
      ],
      "type": "VEC3"
    },
    {
      "bufferView": 4,
      "byteOffset": 11200,
      "componentType": 5126,
      "count": 1748,
      "max": [
        1.0,
        0.8639211654663086,
        0.7291519641876221,
        1.0
      ],
      "min": [
        0.25600722432136536,
        -0.9019207954406738,
        -0.4337058365345001,
        -1.0
      ],
      "type": "VEC4"
    },
    {
      "bufferView": 2,
      "byteOffset": 11200,
      "componentType": 5126,
      "count": 1748,
      "max": [
        1.0,
        1.0
      ],
      "min": [
        0.0,
        0.0
      ],
      "type": "VEC2"
    },
    {
      "bufferView": 1,
      "byteOffset": 12216,
      "componentType": 5125,
      "count": 7488,
      "type": "SCALAR"
    },
    {
      "bufferView": 5,
      "componentType": 5126,
      "count": 14,
      "max": [
        1.0,
        0.0,
        0.0,
        0.0,
        0.0,
        1.0,
        1.0,
        0.0,
        0.0,
        0.0,
        1.0,
        0.0,
        0.054967138916254044,
        0.12198290973901749,
        0.04098675400018692,
        1.0
      ],
      "min": [
        1.0,
        0.0,
        0.0,
        0.0,
        0.0,
        6.123234262925839e-17,
        0.0,
        0.0,
        0.0,
        -1.0,
        6.123234262925839e-17,
        0.0,
        -0.2889283001422882,
        -0.17314159870147705,
        -0.10000000149011612,
        1.0
      ],
      "type": "MAT4"
    },
    {
      "bufferView": 0,
      "componentType": 5123,
      "count": 700,
      "type": "VEC4"
    },
    {
      "bufferView": 4,
      "byteOffset": 39168,
      "componentType": 5126,
      "count": 700,
      "max": [
        1.0,
        0.5,
        0.28812748193740845,
        0.0
      ],
      "min": [
        0.375,
        0.0,
        0.0,
        0.0
      ],
      "type": "VEC4"
    },
    {
      "bufferView": 0,
      "byteOffset": 5600,
      "componentType": 5123,
      "count": 1748,
      "type": "VEC4"
    },
    {
      "bufferView": 4,
      "byteOffset": 50368,
      "componentType": 5126,
      "count": 1748,
      "max": [
        1.0,
        0.5,
        0.28812748193740845,
        0.0
      ],
      "min": [
        0.375,
        0.0,
        0.0,
        0.0
      ],
      "type": "VEC4"
    },
    {
      "bufferView": 6,
      "componentType": 5126,
      "count": 601,
      "max": [
        20.0
      ],
      "min": [
        0.0
      ],
      "type": "SCALAR"
    },
    {
      "bufferView": 8,
      "componentType": 5126,
      "count": 601,
      "max": [
        -0.0661509782075882,
        -0.1347406655550003,
        0.0037510176189243793,
        0.9881951212882996
      ],
      "min": [
        -0.08816197514533997,
        -0.14307273924350739,
        -0.0011710403487086296,
        0.9858765602111816
      ],
      "type": "VEC4"
    },
    {
      "bufferView": 6,
      "byteOffset": 2404,
      "componentType": 5126,
      "count": 601,
      "max": [
        20.0
      ],
      "min": [
        0.0
      ],
      "type": "SCALAR"
    },
    {
      "bufferView": 8,
      "byteOffset": 9616,
      "componentType": 5126,
      "count": 601,
      "max": [
        0.13002517819404602,
        -0.08828186988830566,
        0.0027722506783902645,
        0.9895243048667908
      ],
      "min": [
        0.10983859747648239,
        -0.09618350118398666,
        -0.0018279935466125607,
        0.9874181151390076
      ],
      "type": "VEC4"
    },
    {
      "bufferView": 6,
      "byteOffset": 4808,
      "componentType": 5126,
      "count": 601,
      "max": [
        20.0
      ],
      "min": [
        0.0
      ],
      "type": "SCALAR"
    },
    {
      "bufferView": 8,
      "byteOffset": 19232,
      "componentType": 5126,
      "count": 601,
      "max": [
        0.06582492589950562,
        0.1936286985874176,
        0.0014744752552360296,
        0.9815406799316406
      ],
      "min": [
        0.04151082783937454,
        0.18549539148807526,
        -0.005491807125508785,
        0.9793921709060669
      ],
      "type": "VEC4"
    },
    {
      "bufferView": 6,
      "byteOffset": 7212,
      "componentType": 5126,
      "count": 601,
      "max": [
        20.0
      ],
      "min": [
        0.0
      ],
      "type": "SCALAR"
    },
    {
      "bufferView": 8,
      "byteOffset": 28848,
      "componentType": 5126,
      "count": 601,
      "max": [
        0.13707846403121948,
        0.07487137615680695,
        0.0007036484312266111,
        0.9903309345245361
      ],
      "min": [
        0.11948613822460175,
        0.06700411438941956,
        -0.0030705095268785954,
        0.9879742860794067
      ],
      "type": "VEC4"
    },
    {
      "bufferView": 6,
      "byteOffset": 9616,
      "componentType": 5126,
      "count": 601,
      "max": [
        20.0
      ],
      "min": [
        0.0
      ],
      "type": "SCALAR"
    },
    {
      "bufferView": 7,
      "componentType": 5126,
      "count": 601,
      "max": [
        4.355335742361487e-21,
        6.776263578034403e-21,
        0.10000000149011612
      ],
      "min": [
        -4.919716065986303e-21,
        -1.0164395367051604e-20,
        0.10000000149011612
      ],
      "type": "VEC3"
    },
    {
      "bufferView": 6,
      "byteOffset": 12020,
      "componentType": 5126,
      "count": 601,
      "max": [
        20.0
      ],
      "min": [
        0.0
      ],
      "type": "SCALAR"
    },
    {
      "bufferView": 8,
      "byteOffset": 38464,
      "componentType": 5126,
      "count": 601,
      "max": [
        0.00954402144998312,
        0.01865188032388687,
        0.00018020534480456263,
        0.9999446272850037
      ],
      "min": [
        -0.017267506569623947,
        0.009530019015073776,
        -0.00042284189839847386,
        0.9997293949127197
      ],
      "type": "VEC4"
    },
    {
      "bufferView": 6,
      "byteOffset": 14424,
      "componentType": 5126,
      "count": 601,
      "max": [
        20.0
      ],
      "min": [
        0.0
      ],
      "type": "SCALAR"
    },
    {
      "bufferView": 8,
      "byteOffset": 48080,
      "componentType": 5126,
      "count": 601,
      "max": [
        -0.19840826094150543,
        0.2399749606847763,
        0.002964247949421406,
        0.9565686583518982
      ],
      "min": [
        -0.22138167917728424,
        0.21356433629989624,
        -0.005637717433273792,
        0.9461206793785095
      ],
      "type": "VEC4"
    },
    {
      "bufferView": 6,
      "byteOffset": 16828,
      "componentType": 5126,
      "count": 601,
      "max": [
        20.0
      ],
      "min": [
        0.0
      ],
      "type": "SCALAR"
    },
    {
      "bufferView": 8,
      "byteOffset": 57696,
      "componentType": 5126,
      "count": 601,
      "max": [
        0.00024307258718181401,
        5.5655225878581405e-05,
        1.221323131517238e-08,
        1.0
      ],
      "min": [
        -8.936654194258153e-05,
        -0.00010676303645595908,
        -4.391806918135899e-09,
        1.0
      ],
      "type": "VEC4"
    }
  ],
  "animations": [
    {
      "channels": [
        {
          "sampler": 0,
          "target": {
            "node": 11,
            "path": "rotation"
          }
        },
        {
          "sampler": 1,
          "target": {
            "node": 13,
            "path": "rotation"
          }
        },
        {
          "sampler": 2,
          "target": {
            "node": 15,
            "path": "rotation"
          }
        },
        {
          "sampler": 3,
          "target": {
            "node": 17,
            "path": "rotation"
          }
        },
        {
          "sampler": 4,
          "target": {
            "node": 20,
            "path": "translation"
          }
        },
        {
          "sampler": 5,
          "target": {
            "node": 20,
            "path": "rotation"
          }
        },
        {
          "sampler": 6,
          "target": {
            "node": 21,
            "path": "rotation"
          }
        },
        {
          "sampler": 7,
          "target": {
            "node": 19,
            "path": "rotation"
          }
        }
      ],
      "name": "Animation stack",
      "samplers": [
        {
          "input": 16,
          "interpolation": "LINEAR",
          "output": 17
        },
        {
          "input": 18,
          "interpolation": "LINEAR",
          "output": 19
        },
        {
          "input": 20,
          "interpolation": "LINEAR",
          "output": 21
        },
        {
          "input": 22,
          "interpolation": "LINEAR",
          "output": 23
        },
        {
          "input": 24,
          "interpolation": "LINEAR",
          "output": 25
        },
        {
          "input": 26,
          "interpolation": "LINEAR",
          "output": 27
        },
        {
          "input": 28,
          "interpolation": "LINEAR",
          "output": 29
        },
        {
          "input": 30,
          "interpolation": "LINEAR",
          "output": 31
        }
      ]
    }
  ],
  "asset": {
    "extras": {
      "author": "BIOFILMES (https://sketchfab.com/BIOFILMES)",
      "license": "SKETCHFAB Standard (https://sketchfab.com/licenses)",
      "source": "https://sketchfab.com/3d-models/one-simple-plant-call-amorosa-db117925a552419a8f3b9136eae1e436",
      "title": "One simple plant call - \"Amorosa\""
    },
    "generator": "Sketchfab-12.66.0",
    "version": "2.0"
  },
  "bufferViews": [
    {
      "buffer": 0,
      "byteLength": 19584,
      "byteStride": 8,
      "name": "shortBufferViews",
      "target": 34962
    },
    {
      "buffer": 0,
      "byteLength": 42168,
      "byteOffset": 19584,
      "name": "floatBufferViews",
      "target": 34963
    },
    {
      "buffer": 0,
      "byteLength": 25184,
      "byteOffset": 61752,
      "byteStride": 8,
      "name": "floatBufferViews",
      "target": 34962
    },
    {
      "buffer": 0,
      "byteLength": 58752,
      "byteOffset": 86936,
      "byteStride": 12,
      "name": "floatBufferViews",
      "target": 34962
    },
    {
      "buffer": 0,
      "byteLength": 78336,
      "byteOffset": 145688,
      "byteStride": 16,
      "name": "floatBufferViews",
      "target": 34962
    },
    {
      "buffer": 0,
      "byteLength": 896,
      "byteOffset": 224024,
      "name": "floatBufferViews"
    },
    {
      "buffer": 0,
      "byteLength": 19232,
      "byteOffset": 224920,
      "name": "floatBufferViews"
    },
    {
      "buffer": 0,
      "byteLength": 7212,
      "byteOffset": 244152,
      "byteStride": 12,
      "name": "floatBufferViews"
    },
    {
      "buffer": 0,
      "byteLength": 67312,
      "byteOffset": 251364,
      "byteStride": 16,
      "name": "floatBufferViews"
    }
  ],
  "buffers": [
    {
      "byteLength": 318676,
      "uri": "scene.bin"
    }
  ],
  "images": [
    {
      "uri": "textures/Palo_Verde_Trunk_baseColor.png"
    },
    {
      "uri": "textures/Palo_Verde_Trunk_normal.png"
    },
    {
      "uri": "textures/Beach_Coconut_Palm_baseColor.png"
    },
    {
      "uri": "textures/Beach_Coconut_Palm_normal.png"
    }
  ],
  "materials": [
    {
      "doubleSided": true,
      "name": "Palo_Verde_Trunk",
      "normalTexture": {
        "index": 1,
        "texCoord": 1
      },
      "pbrMetallicRoughness": {
        "baseColorTexture": {
          "index": 0
        },
        "metallicFactor": 0.0,
        "roughnessFactor": 0.90578839106
      }
    },
    {
      "alphaMode": "BLEND",
      "doubleSided": true,
      "name": "Beach_Coconut_Palm",
      "normalTexture": {
        "index": 3
      },
      "pbrMetallicRoughness": {
        "baseColorTexture": {
          "index": 2
        },
        "metallicFactor": 0.0,
        "roughnessFactor": 0.8644172501103411
      }
    }
  ],
  "meshes": [
    {
      "name": "Untitled_Palo Verde_Trunk_0",
      "primitives": [
        {
          "attributes": {
            "JOINTS_0": 12,
            "NORMAL": 1,
            "POSITION": 0,
            "TANGENT": 2,
            "TEXCOORD_0": 3,
            "TEXCOORD_1": 4,
            "WEIGHTS_0": 13
          },
          "indices": 5,
          "material": 0,
          "mode": 4
        }
      ]
    },
    {
      "name": "Untitled_Beach Coconut_Palm_0",
      "primitives": [
        {
          "attributes": {
            "JOINTS_0": 14,
            "NORMAL": 7,
            "POSITION": 6,
            "TANGENT": 8,
            "TEXCOORD_0": 9,
            "TEXCOORD_1": 9,
            "TEXCOORD_2": 9,
            "WEIGHTS_0": 15
          },
          "indices": 10,
          "material": 1,
          "mode": 4
        }
      ]
    }
  ],
  "nodes": [
    {
      "children": [
        1
      ],
      "matrix": [
        0.2883904278278351,
        0.0,
        0.0,
        0.0,
        0.0,
        6.40355386111924e-17,
        -0.2883904278278351,
        0.0,
        0.0,
        0.2883904278278351,
        6.40355386111924e-17,
        0.0,
        0.0,
        0.0,
        0.0,
        1.0
      ],
      "name": "Sketchfab_model"
    },
    {
      "children": [
        2
      ],
      "matrix": [
        1.0,
        0.0,
        0.0,
        0.0,
        0.0,
        0.0,
        1.0,
        0.0,
        0.0,
        -1.0,
        0.0,
        0.0,
        0.0,
        0.0,
        0.0,
        1.0
      ],
      "name": "Amorosa.fbx"
    },
    {
      "children": [
        3
      ],
      "name": "Object_2"
    },
    {
      "children": [
        4
      ],
      "name": "RootNode"
    },
    {
      "children": [
        5,
        7,
        8,
        6,
        22
      ],
      "name": "Object_4"
    },
    {
      "children": [
        9
      ],
      "name": "_rootJoint"
    },
    {
      "matrix": [
        1.0,
        0.0,
        0.0,
        0.0,
        0.0,
        6.123233995736766e-17,
        -1.0,
        0.0,
        0.0,
        1.0,
        6.123233995736766e-17,
        0.0,
        0.0,
        0.0,
        0.0,
        1.0
      ],
      "name": "Object_6"
    },
    {
      "mesh": 0,
      "name": "Object_7",
      "skin": 0
    },
    {
      "mesh": 1,
      "name": "Object_8",
      "skin": 0
    },
    {
      "children": [
        10,
        12,
        14,
        16,
        18
      ],
      "name": "Bone_0_0_00",
      "rotation": [
        -0.7071068286895752,
        -0.0,
        0.0,
        0.7071068286895752
      ]
    },
    {
      "children": [
        11
      ],
      "name": "Bone_0_1_01",
      "translation": [
        -0.013829559087753296,
        0.17314159870147705,
        0.0
      ]
    },
    {
      "name": "Bone_0_2_02"
    },
    {
      "children": [
        13
      ],
      "name": "Bone_0_3_03",
      "translation": [
        -0.054967138916254044,
        -0.12198290973901749,
        0.0
      ]
    },
    {
      "name": "Bone_0_4_04"
    },
    {
      "children": [
        15
      ],
      "name": "Bone_0_5_05",
      "translation": [
        0.2889283001422882,
        -0.04712624102830887,
        -8.881784197001252e-16
      ]
    },
    {
      "name": "Bone_0_6_06"
    },
    {
      "children": [
        17
      ],
      "name": "Bone_0_7_07",
      "translation": [
        0.1003052368760109,
        -0.07793526351451874,
        0.0
      ]
    },
    {
      "name": "Bone_0_8_08"
    },
    {
      "children": [
        19
      ],
      "name": "Bone_0_9_09"
    },
    {
      "children": [
        20,
        21
      ],
      "name": "Bone_0_10_010"
    },
    {
      "name": "Bone_0_11_011",
      "translation": [
        0.0,
        0.0,
        0.10000000149011612
      ]
    },
    {
      "name": "Bone_0_12_012",
      "translation": [
        8.759365300647914e-06,
        4.673313014791347e-06,
        -0.04098675400018692
      ]
    },
    {
      "name": "Untitled",
      "rotation": [
        -0.7071068286895752,
        -0.0,
        0.0,
        0.7071068286895752
      ]
    }
  ],
  "samplers": [
    {
      "magFilter": 9729,
      "minFilter": 9987,
      "wrapS": 10497,
      "wrapT": 10497
    }
  ],
  "scene": 0,
  "scenes": [
    {
      "name": "Sketchfab_Scene",
      "nodes": [
        0
      ]
    }
  ],
  "skins": [
    {
      "inverseBindMatrices": 11,
      "joints": [
        5,
        9,
        10,
        11,
        12,
        13,
        14,
        15,
        16,
        17,
        18,
        19,
        20,
        21
      ],
      "skeleton": 5
    }
  ],
  "textures": [
    {
      "sampler": 0,
      "source": 0
    },
    {
      "sampler": 0,
      "source": 1
    },
    {
      "sampler": 0,
      "source": 2
    },
    {
      "sampler": 0,
      "source": 3
    }
  ]
}
