{
  "accessors": [
    {
      "bufferView": 2,
      "componentType": 5126,
      "count": 7998,
      "max": [
        66.37437438964844,
        119.100830078125,
        1046.365478515625
      ],
      "min": [
        -443.61602783203125,
        -74.81167602539063,
        -29.592498779296875
      ],
      "type": "VEC3"
    },
    {
      "bufferView": 2,
      "byteOffset": 95976,
      "componentType": 5126,
      "count": 7998,
      "max": [
        0.999973475933075,
        0.9999980926513672,
        0.9989526271820068
      ],
      "min": [
        -0.9999176263809204,
        -0.9999079704284668,
        -0.9970666170120239
      ],
      "type": "VEC3"
    },
    {
      "bufferView": 3,
      "componentType": 5126,
      "count": 7998,
      "max": [
        0.9999997615814209,
        0.9945897459983826,
        0.9999991059303284,
        1.0
      ],
      "min": [
        -0.9959285259246826,
        -0.9999902844429016,
        -0.9991469383239746,
        -1.0
      ],
      "type": "VEC4"
    },
    {
      "bufferView": 1,
      "componentType": 5126,
      "count": 7998,
      "max": [
        0.9990389943122864,
        1.0
      ],
      "min": [
        0.0,
        0.0
      ],
      "type": "VEC2"
    },
    {
      "bufferView": 0,
      "componentType": 5125,
      "count": 34836,
      "type": "SCALAR"
    },
    {
      "bufferView": 2,
      "byteOffset": 191952,
      "componentType": 5126,
      "count": 33,
      "max": [
        18.527450561523438,
        54.72727966308594,
        445.22515869140625
      ],
      "min": [
        -370.3588562011719,
        -44.890586853027344,
        -26.428314208984375
      ],
      "type": "VEC3"
    },
    {
      "bufferView": 2,
      "byteOffset": 192348,
      "componentType": 5126,
      "count": 33,
      "max": [
        0.7375152111053467,
        0.97579026222229,
        0.7355793714523315
      ],
      "min": [
        -0.9464150071144104,
        -0.9665047526359558,
        -0.9797405004501343
      ],
      "type": "VEC3"
    },
    {
      "bufferView": 1,
      "byteOffset": 63984,
      "componentType": 5126,
      "count": 33,
      "max": [
        0.38881000876426697,
        1.0
      ],
      "min": [
        0.0,
        0.0
      ],
      "type": "VEC2"
    },
    {
      "bufferView": 0,
      "byteOffset": 139344,
      "componentType": 5125,
      "count": 63,
      "type": "SCALAR"
    },
    {
      "bufferView": 2,
      "byteOffset": 192744,
      "componentType": 5126,
      "count": 5949,
      "max": [
        5.1107940673828125,
        161.58560180664063,
        996.950927734375
      ],
      "min": [
        -382.9551086425781,
        -91.95928192138672,
        -449.9367370605469
      ],
      "type": "VEC3"
    },
    {
      "bufferView": 2,
      "byteOffset": 264132,
      "componentType": 5126,
      "count": 5949,
      "max": [
        0.9995259046554565,
        0.9999974966049194,
        0.9947595000267029
      ],
      "min": [
        -0.999965250492096,
        -0.9999916553497314,
        -0.9998893737792969
      ],
      "type": "VEC3"
    },
    {
      "bufferView": 3,
      "byteOffset": 127968,
      "componentType": 5126,
      "count": 5949,
      "max": [
        0.9998538494110107,
        0.9999781250953674,
        0.9999573230743408,
        1.0
      ],
      "min": [
        -0.9993621706962585,
        -0.9975587725639343,
        -0.9977012872695923,
        -1.0
      ],
      "type": "VEC4"
    },
    {
      "bufferView": 1,
      "byteOffset": 64248,
      "componentType": 5126,
      "count": 5949,
      "max": [
        0.9991629719734192,
        0.9980779886245728
      ],
      "min": [
        0.0,
        0.0
      ],
      "type": "VEC2"
    },
    {
      "bufferView": 0,
      "byteOffset": 139596,
      "componentType": 5125,
      "count": 27966,
      "type": "SCALAR"
    }
  ],
  "asset": {
    "extras": {
      "author": "FantasyDragon (https://sketchfab.com/FantasyDragon)",
      "license": "CC-BY-4.0 (http://creativecommons.org/licenses/by/4.0/)",
      "source": "https://sketchfab.com/3d-models/swamp-tree-1961306004b445adb33f45e633ca1e19",
      "title": "Swamp Tree"
    },
    "generator": "Sketchfab-12.68.0",
    "version": "2.0"
  },
  "bufferViews": [
    {
      "buffer": 0,
      "byteLength": 251460,
      "name": "floatBufferViews",
      "target": 34963
    },
    {
      "buffer": 0,
      "byteLength": 111840,
      "byteOffset": 251460,
      "byteStride": 8,
      "name": "floatBufferViews",
      "target": 34962
    },
    {
      "buffer": 0,
      "byteLength": 335520,
      "byteOffset": 363300,
      "byteStride": 12,
      "name": "floatBufferViews",
      "target": 34962
    },
    {
      "buffer": 0,
      "byteLength": 223152,
      "byteOffset": 698820,
      "byteStride": 16,
      "name": "floatBufferViews",
      "target": 34962
    }
  ],
  "buffers": [
    {
      "byteLength": 921972,
      "uri": "scene.bin"
    }
  ],
  "images": [
    {
      "uri": "textures/naked_tree_lplambert2SG_baseColor.png"
    },
    {
      "uri": "textures/naked_tree_lplambert2SG_metallicRoughness.png"
    },
    {
      "uri": "textures/naked_tree_lplambert2SG_normal.png"
    },
    {
      "uri": "textures/naked_tree_lpphongE1SG_baseColor.png"
    },
    {
      "uri": "textures/naked_tree_lpphongE1SG_metallicRoughness.png"
    },
    {
      "uri": "textures/naked_tree_lpphongE1SG_normal.png"
    }
  ],
  "materials": [
    {
      "doubleSided": true,
      "name": "naked_tree_lplambert1SG",
      "pbrMetallicRoughness": {
        "metallicFactor": 0.0,
        "roughnessFactor": 0.6
      }
    },
    {
      "doubleSided": true,
      "name": "naked_tree_lplambert2SG",
      "normalTexture": {
        "index": 2
      },
      "occlusionTexture": {
        "index": 1,
        "strength": 0.6268132307563571
      },
      "pbrMetallicRoughness": {
        "baseColorTexture": {
          "index": 0
        },
        "metallicRoughnessTexture": {
          "index": 1
        }
      }
    },
    {
      "doubleSided": true,
      "name": "naked_tree_lpphongE1SG",
      "normalTexture": {
        "index": 5
      },
      "occlusionTexture": {
        "index": 4
      },
      "pbrMetallicRoughness": {
        "baseColorTexture": {
          "index": 3
        },
        "metallicRoughnessTexture": {
          "index": 4
        }
      }
    }
  ],
  "meshes": [
    {
      "name": "Object_0",
      "primitives": [
        {
          "attributes": {
            "NORMAL": 1,
            "POSITION": 0,
            "TANGENT": 2,
            "TEXCOORD_0": 3
          },
          "indices": 4,
          "material": 2,
          "mode": 4
        }
      ]
    },
    {
      "name": "Object_1",
      "primitives": [
        {
          "attributes": {
            "NORMAL": 6,
            "POSITION": 5,
            "TEXCOORD_0": 7
          },
          "indices": 8,
          "material": 0,
          "mode": 4
        }
      ]
    },
    {
      "name": "Object_2",
      "primitives": [
        {
          "attributes": {
            "NORMAL": 10,
            "POSITION": 9,
            "TANGENT": 11,
            "TEXCOORD_0": 12
          },
          "indices": 13,
          "material": 1,
          "mode": 4
        }
      ]
    }
  ],
  "nodes": [
    {
      "children": [
        1
      ],
      "matrix": [
        1.0,
        0.0,
        0.0,
        0.0,
        0.0,
        2.220446049250313e-16,
        -1.0,
        0.0,
        0.0,
        1.0,
        2.220446049250313e-16,
        0.0,
        0.0,
        0.0,
        0.0,
        1.0
      ],
      "name": "Sketchfab_model"
    },
    {
      "children": [
        2,
        3,
        4
      ],
      "name": "TR3.obj.cleaner.materialmerger.gles"
    },
    {
      "mesh": 0,
      "name": "Object_2"
    },
    {
      "mesh": 1,
      "name": "Object_3"
    },
    {
      "mesh": 2,
      "name": "Object_4"
    }
  ],
  "samplers": [
    {
      "magFilter": 9729,
      "minFilter": 9987,
      "wrapS": 10497,
      "wrapT": 10497
    }
  ],
  "scene": 0,
  "scenes": [
    {
      "name": "Sketchfab_Scene",
      "nodes": [
        0
      ]
    }
  ],
  "textures": [
    {
      "sampler": 0,
      "source": 0
    },
    {
      "sampler": 0,
      "source": 1
    },
    {
      "sampler": 0,
      "source": 2
    },
    {
      "sampler": 0,
      "source": 3
    },
    {
      "sampler": 0,
      "source": 4
    },
    {
      "sampler": 0,
      "source": 5
    }
  ]
}
