{
    "asset" : {
        "generator" : "Khronos glTF Blender I/O v1.7.33",
        "version" : "2.0"
    },
    "scene" : 0,
    "scenes" : [
        {
            "name" : "Scene",
            "nodes" : [
                3,
                4,
                5,
                6,
                7,
                8,
                9
            ]
        }
    ],
    "nodes" : [
        {
            "name" : "dimetrodon_armature_161",
            "translation" : [
                0,
                -10,
                -17
            ]
        },
        {
            "children" : [
                0
            ],
            "name" : "GLTF_SceneRootNode",
            "rotation" : [
                0.7071068286895752,
                0,
                0,
                0.7071068286895752
            ]
        },
        {
            "children" : [
                1
            ],
            "name" : "root"
        },
        {
            "children" : [
                2
            ],
            "name" : "Sketchfab_model",
            "rotation" : [
                -0.7071068286895752,
                0,
                0,
                0.7071068286895752
            ]
        },
        {
            "name" : "eyes_39",
            "rotation" : [
                0,
                0.7071067094802856,
                0.7071068286895752,
                3.090862676913275e-08
            ],
            "translation" : [
                0,
                -35.0000114440918,
                5.999996185302734
            ]
        },
        {
            "name" : "mid.001_40",
            "rotation" : [
                0,
                0.7071067094802856,
                0.7071068286895752,
                3.090862676913275e-08
            ],
            "translation" : [
                0,
                -35.0000114440918,
                5.999996185302734
            ]
        },
        {
            "name" : "Object_9"
        },
        {
            "name" : "Circle.001_159"
        },
        {
            "name" : "dimetrodon.003_160"
        },
        {
            "mesh" : 0,
            "name" : "mesh_2"
        }
    ],
    "animations" : [
        {
            "channels" : [
                {
                    "sampler" : 0,
                    "target" : {
                        "node" : 9,
                        "path" : "weights"
                    }
                }
            ],
            "name" : "Animation",
            "samplers" : [
                {
                    "input" : 8,
                    "interpolation" : "LINEAR",
                    "output" : 9
                }
            ]
        }
    ],
    "materials" : [
        {
            "doubleSided" : true,
            "name" : "dimetrodon",
            "normalTexture" : {
                "index" : 0
            },
            "occlusionTexture" : {
                "index" : 1
            },
            "pbrMetallicRoughness" : {
                "baseColorTexture" : {
                    "index" : 2
                },
                "metallicFactor" : 0.029999999329447746,
                "metallicRoughnessTexture" : {
                    "index" : 1
                }
            }
        }
    ],
    "meshes" : [
        {
            "extras" : {
                "targetNames" : [
                    "target_0",
                    "target_1"
                ]
            },
            "name" : "mesh_2",
            "primitives" : [
                {
                    "attributes" : {
                        "POSITION" : 0,
                        "NORMAL" : 1,
                        "TEXCOORD_0" : 2
                    },
                    "indices" : 3,
                    "material" : 0,
                    "targets" : [
                        {
                            "POSITION" : 4,
                            "NORMAL" : 5
                        },
                        {
                            "POSITION" : 6,
                            "NORMAL" : 7
                        }
                    ]
                }
            ],
            "weights" : [
                0,
                0
            ]
        }
    ],
    "textures" : [
        {
            "sampler" : 0,
            "source" : 0
        },
        {
            "sampler" : 0,
            "source" : 1
        },
        {
            "sampler" : 0,
            "source" : 2
        }
    ],
    "images" : [
        {
            "mimeType" : "image/png",
            "name" : "dimetrodon_normal",
            "uri" : "dimetrodon_normal.png"
        },
        {
            "mimeType" : "image/png",
            "name" : "dimetrodon_metallicRoughness",
            "uri" : "dimetrodon_metallicRoughness.png"
        },
        {
            "mimeType" : "image/png",
            "name" : "dimetrodon_baseColor",
            "uri" : "dimetrodon_baseColor.png"
        }
    ],
    "accessors" : [
        {
            "bufferView" : 0,
            "componentType" : 5126,
            "count" : 6661,
            "max" : [
                17.70570182800293,
                39.53032684326172,
                53.48970031738281
            ],
            "min" : [
                -17.70570182800293,
                -25.03763198852539,
                -73.95396423339844
            ],
            "type" : "VEC3"
        },
        {
            "bufferView" : 1,
            "componentType" : 5126,
            "count" : 6661,
            "type" : "VEC3"
        },
        {
            "bufferView" : 2,
            "componentType" : 5126,
            "count" : 6661,
            "type" : "VEC2"
        },
        {
            "bufferView" : 3,
            "componentType" : 5123,
            "count" : 36378,
            "type" : "SCALAR"
        },
        {
            "bufferView" : 4,
            "componentType" : 5126,
            "count" : 6661,
            "max" : [
                0.06774735450744629,
                0.35297805070877075,
                0.0767059326171875
            ],
            "min" : [
                -0.06774735450744629,
                -0.283149391412735,
                -0.05169677734375
            ],
            "type" : "VEC3"
        },
        {
            "bufferView" : 5,
            "componentType" : 5126,
            "count" : 6661,
            "type" : "VEC3"
        },
        {
            "bufferView" : 6,
            "componentType" : 5126,
            "count" : 6661,
            "max" : [
                0.7172861099243164,
                0,
                1.9073486328125e-06
            ],
            "min" : [
                -0.7172861099243164,
                -0.9894323348999023,
                -1.9073486328125e-06
            ],
            "type" : "VEC3"
        },
        {
            "bufferView" : 7,
            "componentType" : 5126,
            "count" : 6661,
            "type" : "VEC3"
        },
        {
            "bufferView" : 8,
            "componentType" : 5126,
            "count" : 168,
            "max" : [
                6.958333333333333
            ],
            "min" : [
                0
            ],
            "type" : "SCALAR"
        },
        {
            "bufferView" : 9,
            "componentType" : 5126,
            "count" : 336,
            "type" : "SCALAR"
        }
    ],
    "bufferViews" : [
        {
            "buffer" : 0,
            "byteLength" : 79932,
            "byteOffset" : 0
        },
        {
            "buffer" : 0,
            "byteLength" : 79932,
            "byteOffset" : 79932
        },
        {
            "buffer" : 0,
            "byteLength" : 53288,
            "byteOffset" : 159864
        },
        {
            "buffer" : 0,
            "byteLength" : 72756,
            "byteOffset" : 213152
        },
        {
            "buffer" : 0,
            "byteLength" : 79932,
            "byteOffset" : 285908
        },
        {
            "buffer" : 0,
            "byteLength" : 79932,
            "byteOffset" : 365840
        },
        {
            "buffer" : 0,
            "byteLength" : 79932,
            "byteOffset" : 445772
        },
        {
            "buffer" : 0,
            "byteLength" : 79932,
            "byteOffset" : 525704
        },
        {
            "buffer" : 0,
            "byteLength" : 672,
            "byteOffset" : 605636
        },
        {
            "buffer" : 0,
            "byteLength" : 1344,
            "byteOffset" : 606308
        }
    ],
    "samplers" : [
        {
            "magFilter" : 9729,
            "minFilter" : 9987
        }
    ],
    "buffers" : [
        {
            "byteLength" : 607652,
            "uri" : "scene.bin"
        }
    ]
}
