{
  "accessors": [
    {
      "bufferView": 2,
      "componentType": 5126,
      "count": 516,
      "max": [
        3.1855695247650146,
        1.4832546710968018,
        4.528497695922852
      ],
      "min": [
        -3.1855697631835938,
        -0.8299545645713806,
        -4.537509918212891
      ],
      "type": "VEC3"
    },
    {
      "bufferView": 2,
      "byteOffset": 6192,
      "componentType": 5126,
      "count": 516,
      "max": [
        0.9907582998275757,
        0.9966559410095215,
        1.0
      ],
      "min": [
        -0.9907585382461548,
        -0.9966559410095215,
        -1.0
      ],
      "type": "VEC3"
    },
    {
      "bufferView": 3,
      "componentType": 5126,
      "count": 516,
      "max": [
        1.0,
        0.9995111227035522,
        0.9907585978507996,
        1.0
      ],
      "min": [
        -1.0,
        -0.259746789932251,
        -0.021915394812822342,
        1.0
      ],
      "type": "VEC4"
    },
    {
      "bufferView": 1,
      "componentType": 5126,
      "count": 516,
      "max": [
        0.9152710437774658,
        0.9971187114715576
      ],
      "min": [
        0.00272368174046278,
        0.0037910910323262215
      ],
      "type": "VEC2"
    },
    {
      "bufferView": 1,
      "byteOffset": 4128,
      "componentType": 5126,
      "count": 516,
      "max": [
        0.9152710437774658,
        0.9971187114715576
      ],
      "min": [
        0.00272368174046278,
        0.0037910910323262215
      ],
      "type": "VEC2"
    },
    {
      "bufferView": 1,
      "byteOffset": 8256,
      "componentType": 5126,
      "count": 516,
      "max": [
        0.9152710437774658,
        0.9971187114715576
      ],
      "min": [
        0.00272368174046278,
        0.0037910910323262215
      ],
      "type": "VEC2"
    },
    {
      "bufferView": 0,
      "componentType": 5125,
      "count": 516,
      "type": "SCALAR"
    }
  ],
  "asset": {
    "extras": {
      "author": "plaggy (https://sketchfab.com/plaggy)",
      "license": "SKETCHFAB Standard (https://sketchfab.com/licenses)",
      "source": "https://sketchfab.com/3d-models/arrow-2-277e0ab180624665b259a962495eb257",
      "title": "Arrow 2"
    },
    "generator": "Sketchfab-12.64.0",
    "version": "2.0"
  },
  "bufferViews": [
    {
      "buffer": 0,
      "byteLength": 2064,
      "name": "floatBufferViews",
      "target": 34963
    },
    {
      "buffer": 0,
      "byteLength": 12384,
      "byteOffset": 2064,
      "byteStride": 8,
      "name": "floatBufferViews",
      "target": 34962
    },
    {
      "buffer": 0,
      "byteLength": 12384,
      "byteOffset": 14448,
      "byteStride": 12,
      "name": "floatBufferViews",
      "target": 34962
    },
    {
      "buffer": 0,
      "byteLength": 8256,
      "byteOffset": 26832,
      "byteStride": 16,
      "name": "floatBufferViews",
      "target": 34962
    }
  ],
  "buffers": [
    {
      "byteLength": 35088,
      "uri": "scene.bin"
    }
  ],
  "images": [
    {
      "uri": "textures/Arrow2_baseColor.png"
    },
    {
      "uri": "textures/Arrow2_metallicRoughness.png"
    },
    {
      "uri": "textures/Arrow2_normal.png"
    }
  ],
  "materials": [
    {
      "name": "Arrow2",
      "normalTexture": {
        "index": 2
      },
      "occlusionTexture": {
        "index": 1
      },
      "pbrMetallicRoughness": {
        "baseColorTexture": {
          "index": 0
        },
        "metallicFactor": 0.0,
        "metallicRoughnessTexture": {
          "index": 1
        }
      }
    }
  ],
  "meshes": [
    {
      "name": "Arrow2_Arrow2_0",
      "primitives": [
        {
          "attributes": {
            "NORMAL": 1,
            "POSITION": 0,
            "TANGENT": 2,
            "TEXCOORD_0": 3,
            "TEXCOORD_1": 4,
            "TEXCOORD_2": 5
          },
          "indices": 6,
          "material": 0,
          "mode": 4
        }
      ]
    }
  ],
  "nodes": [
    {
      "children": [
        1
      ],
      "matrix": [
        1.0,
        0.0,
        0.0,
        0.0,
        0.0,
        2.220446049250313e-16,
        -1.0,
        0.0,
        0.0,
        1.0,
        2.220446049250313e-16,
        0.0,
        0.0,
        0.0,
        0.0,
        1.0
      ],
      "name": "Sketchfab_model"
    },
    {
      "children": [
        2
      ],
      "matrix": [
        1.0,
        0.0,
        0.0,
        0.0,
        0.0,
        0.0,
        1.0,
        0.0,
        0.0,
        -1.0,
        0.0,
        0.0,
        0.0,
        0.0,
        0.0,
        1.0
      ],
      "name": "693a3dd3822740639e9f3e065a38768d.fbx"
    },
    {
      "children": [
        3
      ],
      "name": "RootNode"
    },
    {
      "children": [
        4
      ],
      "matrix": [
        0.02539999969303608,
        0.0,
        0.0,
        0.0,
        0.0,
        5.639932896936113e-18,
        -0.02539999969303608,
        0.0,
        0.0,
        0.02539999969303608,
        5.639932896936113e-18,
        0.0,
        0.0,
        0.0,
        0.0,
        1.0
      ],
      "name": "Arrow2"
    },
    {
      "children": [
        5
      ],
      "matrix": [
        1.0,
        0.0,
        -0.0,
        0.0,
        0.0,
        1.0,
        0.0,
        0.0,
        0.0,
        0.0,
        1.0,
        0.0,
        1.1920928955078125e-07,
        -0.32665005326271057,
        0.004506111145019531,
        1.0
      ],
      "name": "Object_4"
    },
    {
      "mesh": 0,
      "name": "Arrow2_Arrow2_0"
    }
  ],
  "samplers": [
    {
      "magFilter": 9729,
      "minFilter": 9987,
      "wrapS": 10497,
      "wrapT": 10497
    }
  ],
  "scene": 0,
  "scenes": [
    {
      "name": "Sketchfab_Scene",
      "nodes": [
        0
      ]
    }
  ],
  "textures": [
    {
      "sampler": 0,
      "source": 0
    },
    {
      "sampler": 0,
      "source": 1
    },
    {
      "sampler": 0,
      "source": 2
    }
  ]
}
