{
  "accessors": [
    {
      "bufferView": 2,
      "componentType": 5126,
      "count": 8355,
      "max": [
        1.0,
        0.24737800657749176,
        1.0
      ],
      "min": [
        -1.0,
        -0.24737800657749176,
        -1.0
      ],
      "type": "VEC3"
    },
    {
      "bufferView": 2,
      "byteOffset": 100260,
      "componentType": 5126,
      "count": 8355,
      "max": [
        0.9734995365142822,
        0.9999868869781494,
        0.936481237411499
      ],
      "min": [
        -0.9696874618530273,
        0.10033803433179855,
        -0.9776115417480469
      ],
      "type": "VEC3"
    },
    {
      "bufferView": 3,
      "componentType": 5126,
      "count": 8355,
      "max": [
        0.9999989867210388,
        0.9749079942703247,
        0.9969149827957153,
        1.0
      ],
      "min": [
        -0.8189190030097961,
        -0.974120020866394,
        -0.9954659938812256,
        -1.0
      ],
      "type": "VEC4"
    },
    {
      "bufferView": 1,
      "componentType": 5126,
      "count": 8355,
      "max": [
        1.0,
        1.0
      ],
      "min": [
        0.0,
        0.0
      ],
      "type": "VEC2"
    },
    {
      "bufferView": 0,
      "componentType": 5125,
      "count": 49269,
      "type": "SCALAR"
    }
  ],
  "asset": {
    "extras": {
      "author": "Tarik Takasu (https://sketchfab.com/tarik_takasu)",
      "license": "CC-BY-NC-4.0 (http://creativecommons.org/licenses/by-nc/4.0/)",
      "source": "https://sketchfab.com/3d-models/snowy-mountain-fcc2b660776b42e882b46316854f6e80",
      "title": "Snowy Mountain"
    },
    "generator": "Sketchfab-12.65.0",
    "version": "2.0"
  },
  "bufferViews": [
    {
      "buffer": 0,
      "byteLength": 197076,
      "name": "floatBufferViews",
      "target": 34963
    },
    {
      "buffer": 0,
      "byteLength": 66840,
      "byteOffset": 197076,
      "byteStride": 8,
      "name": "floatBufferViews",
      "target": 34962
    },
    {
      "buffer": 0,
      "byteLength": 200520,
      "byteOffset": 263916,
      "byteStride": 12,
      "name": "floatBufferViews",
      "target": 34962
    },
    {
      "buffer": 0,
      "byteLength": 133680,
      "byteOffset": 464436,
      "byteStride": 16,
      "name": "floatBufferViews",
      "target": 34962
    }
  ],
  "buffers": [
    {
      "byteLength": 598116,
      "uri": "scene.bin"
    }
  ],
  "images": [
    {
      "uri": "textures/LowPolyUV_initialShadingGroup_baseColor.jpeg"
    },
    {
      "uri": "textures/LowPolyUV_initialShadingGroup_metallicRoughness.png"
    },
    {
      "uri": "textures/LowPolyUV_initialShadingGroup_normal.png"
    }
  ],
  "materials": [
    {
      "doubleSided": true,
      "name": "LowPolyUV_initialShadingGroup",
      "normalTexture": {
        "index": 2
      },
      "occlusionTexture": {
        "index": 1
      },
      "pbrMetallicRoughness": {
        "baseColorTexture": {
          "index": 0
        },
        "metallicRoughnessTexture": {
          "index": 1
        }
      }
    }
  ],
  "meshes": [
    {
      "name": "defaultMaterial",
      "primitives": [
        {
          "attributes": {
            "NORMAL": 1,
            "POSITION": 0,
            "TANGENT": 2,
            "TEXCOORD_0": 3
          },
          "indices": 4,
          "material": 0,
          "mode": 4
        }
      ]
    }
  ],
  "nodes": [
    {
      "children": [
        1
      ],
      "matrix": [
        1.1273695230484009,
        0.0,
        0.0,
        0.0,
        0.0,
        2.5032632034980315e-16,
        -1.1273695230484009,
        0.0,
        0.0,
        1.1273695230484009,
        2.5032632034980315e-16,
        0.0,
        0.0,
        0.0,
        0.0,
        1.0
      ],
      "name": "Sketchfab_model"
    },
    {
      "children": [
        2
      ],
      "matrix": [
        1.0,
        0.0,
        0.0,
        0.0,
        0.0,
        -4.371139006309477e-08,
        0.999999999999999,
        0.0,
        0.0,
        -0.999999999999999,
        -4.371139006309477e-08,
        0.0,
        0.0,
        0.0,
        0.0,
        1.0
      ],
      "name": "Collada visual scene group"
    },
    {
      "children": [
        3
      ],
      "name": "g"
    },
    {
      "mesh": 0,
      "name": "defaultMaterial"
    }
  ],
  "samplers": [
    {
      "magFilter": 9729,
      "minFilter": 9987,
      "wrapS": 10497,
      "wrapT": 10497
    }
  ],
  "scene": 0,
  "scenes": [
    {
      "name": "Sketchfab_Scene",
      "nodes": [
        0
      ]
    }
  ],
  "textures": [
    {
      "sampler": 0,
      "source": 0
    },
    {
      "sampler": 0,
      "source": 1
    },
    {
      "sampler": 0,
      "source": 2
    }
  ]
}
