{
  "accessors": [
    {
      "bufferView": 2,
      "componentType": 5126,
      "count": 1080,
      "max": [
        1.4051555395126343,
        1.0190448760986328,
        0.7318791747093201
      ],
      "min": [
        -1.5423699617385864,
        -1.0191224813461304,
        0.7212927341461182
      ],
      "type": "VEC3"
    },
    {
      "bufferView": 2,
      "byteOffset": 12960,
      "componentType": 5126,
      "count": 1080,
      "max": [
        1.0,
        1.0,
        0.0
      ],
      "min": [
        -1.0,
        -1.0,
        -1.0
      ],
      "type": "VEC3"
    },
    {
      "bufferView": 3,
      "componentType": 5126,
      "count": 1080,
      "max": [
        1.0,
        1.0,
        0.0,
        1.0
      ],
      "min": [
        -1.0,
        -1.0,
        0.0,
        1.0
      ],
      "type": "VEC4"
    },
    {
      "bufferView": 1,
      "componentType": 5126,
      "count": 1080,
      "max": [
        0.9606984257698059,
        1.0
      ],
      "min": [
        -1.3877787807814457e-17,
        0.0
      ],
      "type": "VEC2"
    },
    {
      "bufferView": 0,
      "componentType": 5125,
      "count": 2268,
      "type": "SCALAR"
    },
    {
      "bufferView": 2,
      "byteOffset": 25920,
      "componentType": 5126,
      "count": 9098,
      "max": [
        1.3718982934951782,
        1.1790449619293213,
        0.7212927341461182
      ],
      "min": [
        -0.5121167302131653,
        -1.1791224479675293,
        -0.32311922311782837
      ],
      "type": "VEC3"
    },
    {
      "bufferView": 2,
      "byteOffset": 135096,
      "componentType": 5126,
      "count": 9098,
      "max": [
        1.0,
        1.0,
        1.0
      ],
      "min": [
        -1.0,
        -1.0,
        -0.9517737627029419
      ],
      "type": "VEC3"
    },
    {
      "bufferView": 3,
      "byteOffset": 17280,
      "componentType": 5126,
      "count": 9098,
      "max": [
        1.0,
        1.0,
        1.0,
        1.0
      ],
      "min": [
        -1.0,
        -1.0,
        -1.0,
        -1.0
      ],
      "type": "VEC4"
    },
    {
      "bufferView": 1,
      "byteOffset": 8640,
      "componentType": 5126,
      "count": 9098,
      "max": [
        0.9498265981674194,
        1.0
      ],
      "min": [
        -2.0816681711721685e-17,
        -1.3877787807814457e-17
      ],
      "type": "VEC2"
    },
    {
      "bufferView": 0,
      "byteOffset": 9072,
      "componentType": 5125,
      "count": 23532,
      "type": "SCALAR"
    },
    {
      "bufferView": 2,
      "byteOffset": 244272,
      "componentType": 5126,
      "count": 8906,
      "max": [
        1.4051555395126343,
        1.1790449619293213,
        0.7212927341461182
      ],
      "min": [
        -1.5224844217300415,
        -1.1791224479675293,
        -0.32311922311782837
      ],
      "type": "VEC3"
    },
    {
      "bufferView": 2,
      "byteOffset": 351144,
      "componentType": 5126,
      "count": 8906,
      "max": [
        1.0,
        1.0,
        1.0
      ],
      "min": [
        -1.0,
        -1.0,
        -0.9517737627029419
      ],
      "type": "VEC3"
    },
    {
      "bufferView": 3,
      "byteOffset": 162848,
      "componentType": 5126,
      "count": 8906,
      "max": [
        1.0,
        1.0,
        1.0,
        1.0
      ],
      "min": [
        -1.0,
        -1.0,
        -1.0,
        -1.0
      ],
      "type": "VEC4"
    },
    {
      "bufferView": 1,
      "byteOffset": 81424,
      "componentType": 5126,
      "count": 8906,
      "max": [
        0.9498265981674194,
        1.0
      ],
      "min": [
        -2.0816681711721685e-17,
        -1.3877787807814457e-17
      ],
      "type": "VEC2"
    },
    {
      "bufferView": 0,
      "byteOffset": 103200,
      "componentType": 5125,
      "count": 23010,
      "type": "SCALAR"
    },
    {
      "bufferView": 2,
      "byteOffset": 458016,
      "componentType": 5126,
      "count": 3836,
      "max": [
        -0.6553509831428528,
        1.1790449619293213,
        0.7212927341461182
      ],
      "min": [
        -1.5423699617385864,
        -1.1791224479675293,
        -0.32311922311782837
      ],
      "type": "VEC3"
    },
    {
      "bufferView": 2,
      "byteOffset": 504048,
      "componentType": 5126,
      "count": 3836,
      "max": [
        1.0,
        1.0,
        1.0
      ],
      "min": [
        -1.0,
        -1.0,
        -0.9517737627029419
      ],
      "type": "VEC3"
    },
    {
      "bufferView": 3,
      "byteOffset": 305344,
      "componentType": 5126,
      "count": 3836,
      "max": [
        1.0,
        1.0,
        0.7071068286895752,
        1.0
      ],
      "min": [
        -1.0,
        -1.0,
        -0.7071068286895752,
        -1.0
      ],
      "type": "VEC4"
    },
    {
      "bufferView": 1,
      "byteOffset": 152672,
      "componentType": 5126,
      "count": 3836,
      "max": [
        0.9498265981674194,
        1.0
      ],
      "min": [
        -2.0816681711721685e-17,
        -1.3877787807814457e-17
      ],
      "type": "VEC2"
    },
    {
      "bufferView": 0,
      "byteOffset": 195240,
      "componentType": 5125,
      "count": 12354,
      "type": "SCALAR"
    },
    {
      "bufferView": 2,
      "byteOffset": 550080,
      "componentType": 5126,
      "count": 5172,
      "max": [
        1.54839026927948,
        1.2189042568206787,
        0.7414602041244507
      ],
      "min": [
        -1.5423699617385864,
        -1.2189817428588867,
        -0.32629168033599854
      ],
      "type": "VEC3"
    },
    {
      "bufferView": 2,
      "byteOffset": 612144,
      "componentType": 5126,
      "count": 5172,
      "max": [
        1.0,
        1.0,
        1.0
      ],
      "min": [
        -1.0,
        -1.0,
        -1.0
      ],
      "type": "VEC3"
    },
    {
      "bufferView": 3,
      "byteOffset": 366720,
      "componentType": 5126,
      "count": 5172,
      "max": [
        1.0,
        1.0,
        0.2949296236038208,
        1.0
      ],
      "min": [
        -1.0,
        -1.0,
        -0.2949296236038208,
        1.0
      ],
      "type": "VEC4"
    },
    {
      "bufferView": 1,
      "byteOffset": 183360,
      "componentType": 5126,
      "count": 5172,
      "max": [
        1.0,
        0.9946264624595642
      ],
      "min": [
        -2.7755575615628914e-17,
        -1.3877787807814457e-17
      ],
      "type": "VEC2"
    },
    {
      "bufferView": 0,
      "byteOffset": 244656,
      "componentType": 5125,
      "count": 12888,
      "type": "SCALAR"
    }
  ],
  "asset": {
    "extras": {
      "author": "Simon T Griffiths (https://sketchfab.com/RubberMan)",
      "license": "SKETCHFAB Editorial (https://sketchfab.com/licenses)",
      "source": "https://sketchfab.com/3d-models/scifi-corridor-7c9e83d962674b029f3cac69ddddba71",
      "title": "Scifi Corridor"
    },
    "generator": "Sketchfab-12.66.0",
    "version": "2.0"
  },
  "bufferViews": [
    {
      "buffer": 0,
      "byteLength": 296208,
      "name": "floatBufferViews",
      "target": 34963
    },
    {
      "buffer": 0,
      "byteLength": 224736,
      "byteOffset": 296208,
      "byteStride": 8,
      "name": "floatBufferViews",
      "target": 34962
    },
    {
      "buffer": 0,
      "byteLength": 674208,
      "byteOffset": 520944,
      "byteStride": 12,
      "name": "floatBufferViews",
      "target": 34962
    },
    {
      "buffer": 0,
      "byteLength": 449472,
      "byteOffset": 1195152,
      "byteStride": 16,
      "name": "floatBufferViews",
      "target": 34962
    }
  ],
  "buffers": [
    {
      "byteLength": 1644624,
      "uri": "scene.bin"
    }
  ],
  "images": [
    {
      "uri": "textures/Ceiling_baseColor.png"
    },
    {
      "uri": "textures/Ceiling_metallicRoughness.png"
    },
    {
      "uri": "textures/Ceiling_normal.png"
    },
    {
      "uri": "textures/Floor_baseColor.png"
    },
    {
      "uri": "textures/Floor_metallicRoughness.png"
    },
    {
      "uri": "textures/Floor_normal.png"
    },
    {
      "uri": "textures/Supports_baseColor.png"
    },
    {
      "uri": "textures/Supports_metallicRoughness.png"
    },
    {
      "uri": "textures/Supports_normal.png"
    }
  ],
  "materials": [
    {
      "doubleSided": true,
      "name": "Ceiling",
      "normalTexture": {
        "index": 2
      },
      "pbrMetallicRoughness": {
        "baseColorTexture": {
          "index": 0
        },
        "metallicRoughnessTexture": {
          "index": 1
        }
      }
    },
    {
      "doubleSided": true,
      "name": "Floor",
      "normalTexture": {
        "index": 5
      },
      "pbrMetallicRoughness": {
        "baseColorTexture": {
          "index": 3
        },
        "metallicRoughnessTexture": {
          "index": 4
        },
        "roughnessFactor": 0.8158295281582952
      }
    },
    {
      "doubleSided": true,
      "name": "Supports",
      "normalTexture": {
        "index": 8
      },
      "pbrMetallicRoughness": {
        "baseColorTexture": {
          "index": 6
        },
        "metallicRoughnessTexture": {
          "index": 7
        },
        "roughnessFactor": 0.6149162861491628
      }
    }
  ],
  "meshes": [
    {
      "name": "Object_0",
      "primitives": [
        {
          "attributes": {
            "NORMAL": 1,
            "POSITION": 0,
            "TANGENT": 2,
            "TEXCOORD_0": 3
          },
          "indices": 4,
          "material": 0,
          "mode": 4
        }
      ]
    },
    {
      "name": "Object_1",
      "primitives": [
        {
          "attributes": {
            "NORMAL": 6,
            "POSITION": 5,
            "TANGENT": 7,
            "TEXCOORD_0": 8
          },
          "indices": 9,
          "material": 1,
          "mode": 4
        }
      ]
    },
    {
      "name": "Object_2",
      "primitives": [
        {
          "attributes": {
            "NORMAL": 11,
            "POSITION": 10,
            "TANGENT": 12,
            "TEXCOORD_0": 13
          },
          "indices": 14,
          "material": 1,
          "mode": 4
        }
      ]
    },
    {
      "name": "Object_3",
      "primitives": [
        {
          "attributes": {
            "NORMAL": 16,
            "POSITION": 15,
            "TANGENT": 17,
            "TEXCOORD_0": 18
          },
          "indices": 19,
          "material": 1,
          "mode": 4
        }
      ]
    },
    {
      "name": "Object_4",
      "primitives": [
        {
          "attributes": {
            "NORMAL": 21,
            "POSITION": 20,
            "TANGENT": 22,
            "TEXCOORD_0": 23
          },
          "indices": 24,
          "material": 2,
          "mode": 4
        }
      ]
    }
  ],
  "nodes": [
    {
      "children": [
        1
      ],
      "matrix": [
        5.673812610095896e-16,
        -5.673812610095896e-16,
        2.55525803565979,
        0.0,
        2.55525803565979,
        1.259839479427404e-31,
        -5.673812610095896e-16,
        0.0,
        0.0,
        2.55525803565979,
        5.673812610095896e-16,
        0.0,
        0.00304257869720459,
        6.643120586637867e-19,
        -0.002991795539855957,
        1.0
      ],
      "name": "Sketchfab_model"
    },
    {
      "children": [
        2,
        3,
        4,
        5,
        6
      ],
      "name": "Corridor.obj.cleaner.materialmerger.gles"
    },
    {
      "mesh": 0,
      "name": "Object_2"
    },
    {
      "mesh": 1,
      "name": "Object_3"
    },
    {
      "mesh": 2,
      "name": "Object_4"
    },
    {
      "mesh": 3,
      "name": "Object_5"
    },
    {
      "mesh": 4,
      "name": "Object_6"
    }
  ],
  "samplers": [
    {
      "magFilter": 9729,
      "minFilter": 9987,
      "wrapS": 10497,
      "wrapT": 10497
    }
  ],
  "scene": 0,
  "scenes": [
    {
      "name": "Sketchfab_Scene",
      "nodes": [
        0
      ]
    }
  ],
  "textures": [
    {
      "sampler": 0,
      "source": 0
    },
    {
      "sampler": 0,
      "source": 1
    },
    {
      "sampler": 0,
      "source": 2
    },
    {
      "sampler": 0,
      "source": 3
    },
    {
      "sampler": 0,
      "source": 4
    },
    {
      "sampler": 0,
      "source": 5
    },
    {
      "sampler": 0,
      "source": 6
    },
    {
      "sampler": 0,
      "source": 7
    },
    {
      "sampler": 0,
      "source": 8
    }
  ]
}
