{
  "accessors": [
    {
      "bufferView": 2,
      "componentType": 5126,
      "count": 36781,
      "max": [
        2.51646089553833,
        1.970033884048462,
        -1.325243592262268
      ],
      "min": [
        -1.7700797319412231,
        -2.937958002090454,
        -4.954375743865967
      ],
      "type": "VEC3"
    },
    {
      "bufferView": 2,
      "byteOffset": 441372,
      "componentType": 5126,
      "count": 36781,
      "max": [
        0.9998517036437988,
        0.9999791383743286,
        1.0
      ],
      "min": [
        -0.9984541535377502,
        -0.993541419506073,
        -0.9960078597068787
      ],
      "type": "VEC3"
    },
    {
      "bufferView": 1,
      "componentType": 5126,
      "count": 36781,
      "max": [
        0.9957625865936279,
        0.9999746680259705
      ],
      "min": [
        1.7307698726654053e-05,
        1.0495074093341827e-05
      ],
      "type": "VEC2"
    },
    {
      "bufferView": 1,
      "byteOffset": 294248,
      "componentType": 5126,
      "count": 36781,
      "max": [
        0.9957625865936279,
        0.9999746680259705
      ],
      "min": [
        1.7307698726654053e-05,
        1.0495074093341827e-05
      ],
      "type": "VEC2"
    },
    {
      "bufferView": 0,
      "componentType": 5125,
      "count": 212481,
      "type": "SCALAR"
    },
    {
      "bufferView": 2,
      "byteOffset": 882744,
      "componentType": 5126,
      "count": 31698,
      "max": [
        2.161742687225342,
        1.8989779949188232,
        -1.179133653640747
      ],
      "min": [
        -2.831665515899658,
        -3.333685874938965,
        -4.913303375244141
      ],
      "type": "VEC3"
    },
    {
      "bufferView": 2,
      "byteOffset": 1263120,
      "componentType": 5126,
      "count": 31698,
      "max": [
        0.9990602135658264,
        0.9999962449073792,
        0.9999620914459229
      ],
      "min": [
        -0.9968271255493164,
        -0.9817925095558167,
        -0.991640031337738
      ],
      "type": "VEC3"
    },
    {
      "bufferView": 1,
      "byteOffset": 588496,
      "componentType": 5126,
      "count": 31698,
      "max": [
        0.9825837016105652,
        0.9999854564666748
      ],
      "min": [
        9.171664714813232e-06,
        8.497519843331247e-07
      ],
      "type": "VEC2"
    },
    {
      "bufferView": 1,
      "byteOffset": 842080,
      "componentType": 5126,
      "count": 31698,
      "max": [
        0.9825837016105652,
        0.9999854564666748
      ],
      "min": [
        9.171664714813232e-06,
        8.497519843331247e-07
      ],
      "type": "VEC2"
    },
    {
      "bufferView": 0,
      "byteOffset": 849924,
      "componentType": 5125,
      "count": 179985,
      "type": "SCALAR"
    },
    {
      "bufferView": 2,
      "byteOffset": 1643496,
      "componentType": 5126,
      "count": 25939,
      "max": [
        1.9000638723373413,
        2.370197296142578,
        -1.4826420545578003
      ],
      "min": [
        -1.375512957572937,
        -2.7374987602233887,
        -5.199482440948486
      ],
      "type": "VEC3"
    },
    {
      "bufferView": 2,
      "byteOffset": 1954764,
      "componentType": 5126,
      "count": 25939,
      "max": [
        0.9868009686470032,
        0.9998613595962524,
        1.0
      ],
      "min": [
        -0.9990846514701843,
        -0.993541419506073,
        -0.991640031337738
      ],
      "type": "VEC3"
    },
    {
      "bufferView": 1,
      "byteOffset": 1095664,
      "componentType": 5126,
      "count": 25939,
      "max": [
        0.999968409538269,
        0.9727485179901123
      ],
      "min": [
        3.976303560193628e-06,
        8.113682270050049e-06
      ],
      "type": "VEC2"
    },
    {
      "bufferView": 1,
      "byteOffset": 1303176,
      "componentType": 5126,
      "count": 25939,
      "max": [
        0.999968409538269,
        0.9727485179901123
      ],
      "min": [
        3.976303560193628e-06,
        8.113682270050049e-06
      ],
      "type": "VEC2"
    },
    {
      "bufferView": 0,
      "byteOffset": 1569864,
      "componentType": 5125,
      "count": 147531,
      "type": "SCALAR"
    }
  ],
  "asset": {
    "extras": {
      "author": "matousekfoto (https://sketchfab.com/matousekfoto)",
      "license": "SKETCHFAB Standard (https://sketchfab.com/licenses)",
      "source": "https://sketchfab.com/3d-models/forest-ground-soil-spruce-9efd530afddf471b804db74750a8173b",
      "title": "Forest ground soil spruce"
    },
    "generator": "Sketchfab-12.67.0",
    "version": "2.0"
  },
  "bufferViews": [
    {
      "buffer": 0,
      "byteLength": 2159988,
      "name": "floatBufferViews",
      "target": 34963
    },
    {
      "buffer": 0,
      "byteLength": 1510688,
      "byteOffset": 2159988,
      "byteStride": 8,
      "name": "floatBufferViews",
      "target": 34962
    },
    {
      "buffer": 0,
      "byteLength": 2266032,
      "byteOffset": 3670676,
      "byteStride": 12,
      "name": "floatBufferViews",
      "target": 34962
    }
  ],
  "buffers": [
    {
      "byteLength": 5936708,
      "uri": "scene.bin"
    }
  ],
  "extensionsUsed": [
    "KHR_materials_unlit"
  ],
  "images": [
    {
      "uri": "textures/material0_baseColor.jpeg"
    },
    {
      "uri": "textures/material1_baseColor.jpeg"
    },
    {
      "uri": "textures/material2_baseColor.jpeg"
    }
  ],
  "materials": [
    {
      "doubleSided": true,
      "extensions": {
        "KHR_materials_unlit": {}
      },
      "name": "material0",
      "pbrMetallicRoughness": {
        "baseColorTexture": {
          "index": 0
        },
        "metallicFactor": 0.0
      }
    },
    {
      "doubleSided": true,
      "extensions": {
        "KHR_materials_unlit": {}
      },
      "name": "material1",
      "pbrMetallicRoughness": {
        "baseColorTexture": {
          "index": 1
        },
        "metallicFactor": 0.0
      }
    },
    {
      "doubleSided": true,
      "extensions": {
        "KHR_materials_unlit": {}
      },
      "name": "material2",
      "pbrMetallicRoughness": {
        "baseColorTexture": {
          "index": 2
        },
        "metallicFactor": 0.0
      }
    }
  ],
  "meshes": [
    {
      "name": "Model_material0_0",
      "primitives": [
        {
          "attributes": {
            "NORMAL": 1,
            "POSITION": 0,
            "TEXCOORD_0": 2,
            "TEXCOORD_1": 3
          },
          "indices": 4,
          "material": 0,
          "mode": 4
        }
      ]
    },
    {
      "name": "Model_material1_0",
      "primitives": [
        {
          "attributes": {
            "NORMAL": 6,
            "POSITION": 5,
            "TEXCOORD_0": 7,
            "TEXCOORD_1": 8
          },
          "indices": 9,
          "material": 1,
          "mode": 4
        }
      ]
    },
    {
      "name": "Model_material2_0",
      "primitives": [
        {
          "attributes": {
            "NORMAL": 11,
            "POSITION": 10,
            "TEXCOORD_0": 12,
            "TEXCOORD_1": 13
          },
          "indices": 14,
          "material": 2,
          "mode": 4
        }
      ]
    }
  ],
  "nodes": [
    {
      "children": [
        1
      ],
      "matrix": [
        -0.11425404574928333,
        -0.014802811845807543,
        0.4114502510218081,
        0.0,
        -0.31162272683633674,
        -0.27595450074784544,
        -0.09646138123781706,
        0.0,
        0.2690756232982032,
        -0.3258748334835655,
        0.06299453065685993,
        0.0,
        -1.8568875789642334,
        5.927392482757568,
        -0.6914019584655748,
        1.0
      ],
      "name": "Sketchfab_model"
    },
    {
      "children": [
        2
      ],
      "matrix": [
        1.0,
        0.0,
        0.0,
        0.0,
        0.0,
        -1.0,
        0.0,
        0.0,
        0.0,
        0.0,
        -1.0,
        0.0,
        0.0,
        0.0,
        0.0,
        1.0
      ],
      "name": "forest-ground-spruce2.fbx"
    },
    {
      "children": [
        3
      ],
      "name": "RootNode"
    },
    {
      "children": [
        4,
        5,
        6
      ],
      "name": "Model"
    },
    {
      "mesh": 0,
      "name": "Model_material0_0"
    },
    {
      "mesh": 1,
      "name": "Model_material1_0"
    },
    {
      "mesh": 2,
      "name": "Model_material2_0"
    }
  ],
  "samplers": [
    {
      "magFilter": 9729,
      "minFilter": 9987,
      "wrapS": 10497,
      "wrapT": 10497
    }
  ],
  "scene": 0,
  "scenes": [
    {
      "name": "Sketchfab_Scene",
      "nodes": [
        0
      ]
    }
  ],
  "textures": [
    {
      "sampler": 0,
      "source": 0
    },
    {
      "sampler": 0,
      "source": 1
    },
    {
      "sampler": 0,
      "source": 2
    }
  ]
}
