{
  "accessors": [
    {
      "bufferView": 1,
      "componentType": 5126,
      "count": 147,
      "max": [
        26.336933135986328,
        16.348289489746094,
        18.974729537963867
      ],
      "min": [
        -12.930768013000488,
        -15.112556457519531,
        -13.613490104675293
      ],
      "type": "VEC3"
    },
    {
      "bufferView": 1,
      "byteOffset": 1764,
      "componentType": 5126,
      "count": 147,
      "max": [
        0.980476438999176,
        0.9805176258087158,
        0.9474250674247742
      ],
      "min": [
        -0.9882446527481079,
        -0.8830128908157349,
        -0.9866957068443298
      ],
      "type": "VEC3"
    },
    {
      "bufferView": 1,
      "byteOffset": 3528,
      "componentType": 5126,
      "count": 147,
      "max": [
        13.010766983032227,
        15.360543251037598,
        13.021347999572754
      ],
      "min": [
        -25.14260482788086,
        -15.519868850708008,
        -18.146272659301758
      ],
      "type": "VEC3"
    },
    {
      "bufferView": 1,
      "byteOffset": 5292,
      "componentType": 5126,
      "count": 147,
      "max": [
        1.7658833265304565,
        1.6389905214309692,
        1.6620261669158936
      ],
      "min": [
        -1.806337594985962,
        -1.8942341804504395,
        -1.5158884525299072
      ],
      "type": "VEC3"
    },
    {
      "bufferView": 1,
      "byteOffset": 7056,
      "componentType": 5126,
      "count": 147,
      "max": [
        13.014995574951172,
        15.365592956542969,
        13.022857666015625
      ],
      "min": [
        -25.18246078491211,
        -15.391695976257324,
        -18.15525245666504
      ],
      "type": "VEC3"
    },
    {
      "bufferView": 1,
      "byteOffset": 8820,
      "componentType": 5126,
      "count": 147,
      "max": [
        1.6800864934921265,
        1.5820969343185425,
        1.7034649848937988
      ],
      "min": [
        -1.8767846822738647,
        -1.860249400138855,
        -1.47450852394104
      ],
      "type": "VEC3"
    },
    {
      "bufferView": 1,
      "byteOffset": 10584,
      "componentType": 5126,
      "count": 147,
      "max": [
        13.019289016723633,
        15.37121868133545,
        13.024922370910645
      ],
      "min": [
        -25.259065628051758,
        -15.23952579498291,
        -18.164594650268555
      ],
      "type": "VEC3"
    },
    {
      "bufferView": 1,
      "byteOffset": 12348,
      "componentType": 5126,
      "count": 147,
      "max": [
        1.7012618780136108,
        1.744644045829773,
        1.6834077835083008
      ],
      "min": [
        -1.9109811782836914,
        -1.7910388708114624,
        -1.585597038269043
      ],
      "type": "VEC3"
    },
    {
      "bufferView": 1,
      "byteOffset": 14112,
      "componentType": 5126,
      "count": 147,
      "max": [
        13.022651672363281,
        15.377708435058594,
        13.027979850769043
      ],
      "min": [
        -25.39058494567871,
        -15.135828971862793,
        -18.17517852783203
      ],
      "type": "VEC3"
    },
    {
      "bufferView": 1,
      "byteOffset": 15876,
      "componentType": 5126,
      "count": 147,
      "max": [
        1.733389139175415,
        1.8252861499786377,
        1.579088807106018
      ],
      "min": [
        -1.8883893489837646,
        -1.7242356538772583,
        -1.6378257274627686
      ],
      "type": "VEC3"
    },
    {
      "bufferView": 1,
      "byteOffset": 17640,
      "componentType": 5126,
      "count": 147,
      "max": [
        13.025547981262207,
        15.383702278137207,
        13.031234741210938
      ],
      "min": [
        -25.531150817871094,
        -15.058637619018555,
        -18.185958862304688
      ],
      "type": "VEC3"
    },
    {
      "bufferView": 1,
      "byteOffset": 19404,
      "componentType": 5126,
      "count": 147,
      "max": [
        1.7196639776229858,
        1.814711570739746,
        1.443188190460205
      ],
      "min": [
        -1.8042852878570557,
        -1.7302659749984741,
        -1.6353135108947754
      ],
      "type": "VEC3"
    },
    {
      "bufferView": 1,
      "byteOffset": 21168,
      "componentType": 5126,
      "count": 147,
      "max": [
        13.027658462524414,
        15.389060020446777,
        13.034856796264648
      ],
      "min": [
        -25.688304901123047,
        -15.02721118927002,
        -18.19716453552246
      ],
      "type": "VEC3"
    },
    {
      "bufferView": 1,
      "byteOffset": 22932,
      "componentType": 5126,
      "count": 147,
      "max": [
        1.6620268821716309,
        1.7477219104766846,
        1.5234912633895874
      ],
      "min": [
        -1.683172345161438,
        -1.709289312362671,
        -1.581172227859497
      ],
      "type": "VEC3"
    },
    {
      "bufferView": 1,
      "byteOffset": 24696,
      "componentType": 5126,
      "count": 147,
      "max": [
        13.028769493103027,
        15.394007682800293,
        13.038919448852539
      ],
      "min": [
        -25.851722717285156,
        -15.043925285339355,
        -18.207820892333984
      ],
      "type": "VEC3"
    },
    {
      "bufferView": 1,
      "byteOffset": 26460,
      "componentType": 5126,
      "count": 147,
      "max": [
        1.5702098608016968,
        1.6685221195220947,
        1.5523618459701538
      ],
      "min": [
        -1.539783000946045,
        -1.6534688472747803,
        -1.4797735214233398
      ],
      "type": "VEC3"
    },
    {
      "bufferView": 1,
      "byteOffset": 28224,
      "componentType": 5126,
      "count": 147,
      "max": [
        13.029411315917969,
        15.39860725402832,
        13.043163299560547
      ],
      "min": [
        -26.017045974731445,
        -15.078954696655273,
        -18.218128204345703
      ],
      "type": "VEC3"
    },
    {
      "bufferView": 1,
      "byteOffset": 29988,
      "componentType": 5126,
      "count": 147,
      "max": [
        1.4463775157928467,
        1.6635044813156128,
        1.5164413452148438
      ],
      "min": [
        -1.4323132038116455,
        -1.558353304862976,
        -1.662151575088501
      ],
      "type": "VEC3"
    },
    {
      "bufferView": 1,
      "byteOffset": 31752,
      "componentType": 5126,
      "count": 147,
      "max": [
        13.028790473937988,
        15.402687072753906,
        13.047698974609375
      ],
      "min": [
        -26.183107376098633,
        -15.096087455749512,
        -18.22736167907715
      ],
      "type": "VEC3"
    },
    {
      "bufferView": 1,
      "byteOffset": 33516,
      "componentType": 5126,
      "count": 147,
      "max": [
        1.384888768196106,
        1.6533126831054688,
        1.4628283977508545
      ],
      "min": [
        -1.483293056488037,
        -1.5911061763763428,
        -1.752081036567688
      ],
      "type": "VEC3"
    },
    {
      "bufferView": 1,
      "byteOffset": 35280,
      "componentType": 5126,
      "count": 147,
      "max": [
        13.027859687805176,
        15.40646743774414,
        13.052236557006836
      ],
      "min": [
        -26.309682846069336,
        -15.117156028747559,
        -18.23687171936035
      ],
      "type": "VEC3"
    },
    {
      "bufferView": 1,
      "byteOffset": 37044,
      "componentType": 5126,
      "count": 147,
      "max": [
        1.458621859550476,
        1.6024401187896729,
        1.3692669868469238
      ],
      "min": [
        -1.635424256324768,
        -1.6681771278381348,
        -1.8017830848693848
      ],
      "type": "VEC3"
    },
    {
      "bufferView": 1,
      "byteOffset": 38808,
      "componentType": 5126,
      "count": 147,
      "max": [
        13.026429176330566,
        15.409934997558594,
        13.05676555633545
      ],
      "min": [
        -26.37685203552246,
        -15.14229965209961,
        -18.246917724609375
      ],
      "type": "VEC3"
    },
    {
      "bufferView": 1,
      "byteOffset": 40572,
      "componentType": 5126,
      "count": 147,
      "max": [
        1.5569241046905518,
        1.6145544052124023,
        1.387871503829956
      ],
      "min": [
        -1.7415845394134521,
        -1.6714441776275635,
        -1.81394624710083
      ],
      "type": "VEC3"
    },
    {
      "bufferView": 1,
      "byteOffset": 42336,
      "componentType": 5126,
      "count": 147,
      "max": [
        13.024457931518555,
        15.413240432739258,
        13.06158447265625
      ],
      "min": [
        -26.433334350585938,
        -15.219677925109863,
        -18.25726890563965
      ],
      "type": "VEC3"
    },
    {
      "bufferView": 1,
      "byteOffset": 44100,
      "componentType": 5126,
      "count": 147,
      "max": [
        1.6774734258651733,
        1.614544153213501,
        1.503875732421875
      ],
      "min": [
        -1.8228037357330322,
        -1.6100859642028809,
        -1.7947611808776855
      ],
      "type": "VEC3"
    },
    {
      "bufferView": 1,
      "byteOffset": 45864,
      "componentType": 5126,
      "count": 147,
      "max": [
        13.022313117980957,
        15.416373252868652,
        13.066558837890625
      ],
      "min": [
        -26.47846794128418,
        -15.313133239746094,
        -18.267623901367188
      ],
      "type": "VEC3"
    },
    {
      "bufferView": 1,
      "byteOffset": 47628,
      "componentType": 5126,
      "count": 147,
      "max": [
        1.7895787954330444,
        1.6181855201721191,
        1.538330078125
      ],
      "min": [
        -1.866661548614502,
        -1.5766783952713013,
        -1.751941204071045
      ],
      "type": "VEC3"
    },
    {
      "bufferView": 1,
      "byteOffset": 49392,
      "componentType": 5126,
      "count": 147,
      "max": [
        13.019827842712402,
        15.419859886169434,
        13.072186470031738
      ],
      "min": [
        -26.427629470825195,
        -15.402831077575684,
        -18.278278350830078
      ],
      "type": "VEC3"
    },
    {
      "bufferView": 1,
      "byteOffset": 51156,
      "componentType": 5126,
      "count": 147,
      "max": [
        1.8610104322433472,
        1.6099827289581299,
        1.5604864358901978
      ],
      "min": [
        -1.869055986404419,
        -1.7012808322906494,
        -1.6575266122817993
      ],
      "type": "VEC3"
    },
    {
      "bufferView": 1,
      "byteOffset": 52920,
      "componentType": 5126,
      "count": 147,
      "max": [
        13.017364501953125,
        15.423285484313965,
        13.078261375427246
      ],
      "min": [
        -26.351770401000977,
        -15.511850357055664,
        -18.28887939453125
      ],
      "type": "VEC3"
    },
    {
      "bufferView": 1,
      "byteOffset": 54684,
      "componentType": 5126,
      "count": 147,
      "max": [
        1.917453408241272,
        1.5917184352874756,
        1.5417907238006592
      ],
      "min": [
        -1.8174444437026978,
        -1.8311336040496826,
        -1.599928617477417
      ],
      "type": "VEC3"
    },
    {
      "bufferView": 1,
      "byteOffset": 56448,
      "componentType": 5126,
      "count": 147,
      "max": [
        13.014904975891113,
        15.426678657531738,
        13.084877014160156
      ],
      "min": [
        -26.242300033569336,
        -15.642094612121582,
        -18.299549102783203
      ],
      "type": "VEC3"
    },
    {
      "bufferView": 1,
      "byteOffset": 58212,
      "componentType": 5126,
      "count": 147,
      "max": [
        1.9551713466644287,
        1.5689617395401,
        1.485088586807251
      ],
      "min": [
        -1.7047542333602905,
        -1.810721516609192,
        -1.529784917831421
      ],
      "type": "VEC3"
    },
    {
      "bufferView": 1,
      "byteOffset": 59976,
      "componentType": 5126,
      "count": 147,
      "max": [
        13.012784004211426,
        15.42946720123291,
        13.092464447021484
      ],
      "min": [
        -26.1788387298584,
        -15.83477783203125,
        -18.31032371520996
      ],
      "type": "VEC3"
    },
    {
      "bufferView": 1,
      "byteOffset": 61740,
      "componentType": 5126,
      "count": 147,
      "max": [
        1.9717504978179932,
        1.530476450920105,
        1.628283143043518
      ],
      "min": [
        -1.593444585800171,
        -1.7636830806732178,
        -1.6387159824371338
      ],
      "type": "VEC3"
    },
    {
      "bufferView": 1,
      "byteOffset": 63504,
      "componentType": 5126,
      "count": 147,
      "max": [
        13.010857582092285,
        15.431748390197754,
        13.100360870361328
      ],
      "min": [
        -26.140525817871094,
        -16.0434627532959,
        -18.320877075195313
      ],
      "type": "VEC3"
    },
    {
      "bufferView": 1,
      "byteOffset": 65268,
      "componentType": 5126,
      "count": 147,
      "max": [
        1.969246506690979,
        1.6022075414657593,
        1.7345781326293945
      ],
      "min": [
        -1.5880041122436523,
        -1.8442472219467163,
        -1.7219700813293457
      ],
      "type": "VEC3"
    },
    {
      "bufferView": 1,
      "byteOffset": 67032,
      "componentType": 5126,
      "count": 147,
      "max": [
        13.009178161621094,
        15.432624816894531,
        13.10876750946045
      ],
      "min": [
        -26.182598114013672,
        -16.239999771118164,
        -18.33087158203125
      ],
      "type": "VEC3"
    },
    {
      "bufferView": 1,
      "byteOffset": 68796,
      "componentType": 5126,
      "count": 147,
      "max": [
        1.9411869049072266,
        1.6443748474121094,
        1.7897109985351563
      ],
      "min": [
        -1.7162266969680786,
        -1.8862882852554321,
        -1.7530492544174194
      ],
      "type": "VEC3"
    },
    {
      "bufferView": 1,
      "byteOffset": 70560,
      "componentType": 5126,
      "count": 147,
      "max": [
        13.007733345031738,
        15.432876586914063,
        13.117509841918945
      ],
      "min": [
        -26.219091415405273,
        -16.400514602661133,
        -18.34062385559082
      ],
      "type": "VEC3"
    },
    {
      "bufferView": 1,
      "byteOffset": 72324,
      "componentType": 5126,
      "count": 147,
      "max": [
        1.8876453638076782,
        1.6526827812194824,
        1.7984808683395386
      ],
      "min": [
        -1.7818565368652344,
        -1.8930633068084717,
        -1.678458333015442
      ],
      "type": "VEC3"
    },
    {
      "bufferView": 1,
      "byteOffset": 74088,
      "componentType": 5126,
      "count": 147,
      "max": [
        13.006545066833496,
        15.432327270507813,
        13.12662410736084
      ],
      "min": [
        -26.25234031677246,
        -16.522653579711914,
        -18.350149154663086
      ],
      "type": "VEC3"
    },
    {
      "bufferView": 1,
      "byteOffset": 75852,
      "componentType": 5126,
      "count": 147,
      "max": [
        1.8117650747299194,
        1.6272525787353516,
        1.777709722518921
      ],
      "min": [
        -1.7438957691192627,
        -1.858615517616272,
        -1.7904905080795288
      ],
      "type": "VEC3"
    },
    {
      "bufferView": 1,
      "byteOffset": 77616,
      "componentType": 5126,
      "count": 147,
      "max": [
        13.005960464477539,
        15.430948257446289,
        13.135623931884766
      ],
      "min": [
        -26.27857780456543,
        -16.563817977905273,
        -18.35899543762207
      ],
      "type": "VEC3"
    },
    {
      "bufferView": 1,
      "byteOffset": 79380,
      "componentType": 5126,
      "count": 147,
      "max": [
        1.7742838859558105,
        1.5631554126739502,
        1.7380626201629639
      ],
      "min": [
        -1.6520302295684814,
        -1.7612559795379639,
        -1.830275058746338
      ],
      "type": "VEC3"
    },
    {
      "bufferView": 1,
      "byteOffset": 81144,
      "componentType": 5126,
      "count": 147,
      "max": [
        13.005682945251465,
        15.428953170776367,
        13.144474983215332
      ],
      "min": [
        -26.294281005859375,
        -16.576839447021484,
        -18.367307662963867
      ],
      "type": "VEC3"
    },
    {
      "bufferView": 1,
      "byteOffset": 82908,
      "componentType": 5126,
      "count": 147,
      "max": [
        1.7729450464248657,
        1.5150458812713623,
        1.6679383516311646
      ],
      "min": [
        -1.6928586959838867,
        -1.6305279731750488,
        -1.7858892679214478
      ],
      "type": "VEC3"
    },
    {
      "bufferView": 1,
      "byteOffset": 84672,
      "componentType": 5126,
      "count": 147,
      "max": [
        13.006048202514648,
        15.425025939941406,
        13.15285873413086
      ],
      "min": [
        -26.271638870239258,
        -16.533266067504883,
        -18.374393463134766
      ],
      "type": "VEC3"
    },
    {
      "bufferView": 1,
      "byteOffset": 86436,
      "componentType": 5126,
      "count": 147,
      "max": [
        1.7486306428909302,
        1.5563493967056274,
        1.5988847017288208
      ],
      "min": [
        -1.6655478477478027,
        -1.4820078611373901,
        -1.6244056224822998
      ],
      "type": "VEC3"
    },
    {
      "bufferView": 1,
      "byteOffset": 88200,
      "componentType": 5126,
      "count": 147,
      "max": [
        13.006715774536133,
        15.421388626098633,
        13.160825729370117
      ],
      "min": [
        -26.238094329833984,
        -16.45188331604004,
        -18.38117218017578
      ],
      "type": "VEC3"
    },
    {
      "bufferView": 1,
      "byteOffset": 89964,
      "componentType": 5126,
      "count": 147,
      "max": [
        1.6894031763076782,
        1.5650635957717896,
        1.5381277799606323
      ],
      "min": [
        -1.6531460285186768,
        -1.4996204376220703,
        -1.5504844188690186
      ],
      "type": "VEC3"
    },
    {
      "bufferView": 1,
      "byteOffset": 91728,
      "componentType": 5126,
      "count": 147,
      "max": [
        13.00770092010498,
        15.417975425720215,
        13.168342590332031
      ],
      "min": [
        -26.198381423950195,
        -16.32901954650879,
        -18.3876953125
      ],
      "type": "VEC3"
    },
    {
      "bufferView": 1,
      "byteOffset": 93492,
      "componentType": 5126,
      "count": 147,
      "max": [
        1.5802912712097168,
        1.5371191501617432,
        1.6062310934066772
      ],
      "min": [
        -1.6443363428115845,
        -1.5351624488830566,
        -1.6488993167877197
      ],
      "type": "VEC3"
    },
    {
      "bufferView": 1,
      "byteOffset": 95256,
      "componentType": 5126,
      "count": 147,
      "max": [
        13.009486198425293,
        15.415033340454102,
        13.174775123596191
      ],
      "min": [
        -26.106056213378906,
        -16.194738388061523,
        -18.39444351196289
      ],
      "type": "VEC3"
    },
    {
      "bufferView": 1,
      "byteOffset": 97020,
      "componentType": 5126,
      "count": 147,
      "max": [
        1.5272990465164185,
        1.5078476667404175,
        1.7680187225341797
      ],
      "min": [
        -1.632439136505127,
        -1.6444158554077148,
        -1.7638580799102783
      ],
      "type": "VEC3"
    },
    {
      "bufferView": 1,
      "byteOffset": 98784,
      "componentType": 5126,
      "count": 147,
      "max": [
        13.011445999145508,
        15.412460327148438,
        13.180755615234375
      ],
      "min": [
        -25.994503021240234,
        -16.06505012512207,
        -18.400949478149414
      ],
      "type": "VEC3"
    },
    {
      "bufferView": 1,
      "byteOffset": 100548,
      "componentType": 5126,
      "count": 147,
      "max": [
        1.5792505741119385,
        1.577152967453003,
        1.914745569229126
      ],
      "min": [
        -1.6264554262161255,
        -1.703948736190796,
        -1.7671666145324707
      ],
      "type": "VEC3"
    },
    {
      "bufferView": 1,
      "byteOffset": 102312,
      "componentType": 5126,
      "count": 147,
      "max": [
        13.013680458068848,
        15.411190032958984,
        13.185786247253418
      ],
      "min": [
        -25.85244369506836,
        -15.94461441040039,
        -18.407188415527344
      ],
      "type": "VEC3"
    },
    {
      "bufferView": 1,
      "byteOffset": 104076,
      "componentType": 5126,
      "count": 147,
      "max": [
        1.6064460277557373,
        1.5489376783370972,
        1.919655442237854
      ],
      "min": [
        -1.6169739961624146,
        -1.7115845680236816,
        -1.6576632261276245
      ],
      "type": "VEC3"
    },
    {
      "bufferView": 1,
      "byteOffset": 105840,
      "componentType": 5126,
      "count": 147,
      "max": [
        13.016585350036621,
        15.409465789794922,
        13.189798355102539
      ],
      "min": [
        -25.729013442993164,
        -15.809956550598145,
        -18.412992477416992
      ],
      "type": "VEC3"
    },
    {
      "bufferView": 1,
      "byteOffset": 107604,
      "componentType": 5126,
      "count": 147,
      "max": [
        1.592613697052002,
        1.6288478374481201,
        1.8238301277160645
      ],
      "min": [
        -1.6060607433319092,
        -1.6653780937194824,
        -1.477215051651001
      ],
      "type": "VEC3"
    },
    {
      "bufferView": 1,
      "byteOffset": 109368,
      "componentType": 5126,
      "count": 147,
      "max": [
        13.020116806030273,
        15.4072904586792,
        13.19301700592041
      ],
      "min": [
        -25.62461280822754,
        -15.663599014282227,
        -18.4184513092041
      ],
      "type": "VEC3"
    },
    {
      "bufferView": 1,
      "byteOffset": 111132,
      "componentType": 5126,
      "count": 147,
      "max": [
        1.5561292171478271,
        1.672598958015442,
        1.6591434478759766
      ],
      "min": [
        -1.5961148738861084,
        -1.5661885738372803,
        -1.451054573059082
      ],
      "type": "VEC3"
    },
    {
      "bufferView": 1,
      "byteOffset": 112896,
      "componentType": 5126,
      "count": 147,
      "max": [
        13.02367115020752,
        15.403563499450684,
        13.194897651672363
      ],
      "min": [
        -25.549659729003906,
        -15.551288604736328,
        -18.42310905456543
      ],
      "type": "VEC3"
    },
    {
      "bufferView": 1,
      "byteOffset": 114660,
      "componentType": 5126,
      "count": 147,
      "max": [
        1.611014723777771,
        1.6667120456695557,
        1.48036789894104
      ],
      "min": [
        -1.6100691556930542,
        -1.4307564496994019,
        -1.4953241348266602
      ],
      "type": "VEC3"
    },
    {
      "bufferView": 1,
      "byteOffset": 116424,
      "componentType": 5126,
      "count": 147,
      "max": [
        13.02711009979248,
        15.399173736572266,
        13.196343421936035
      ],
      "min": [
        -25.48957633972168,
        -15.44863224029541,
        -18.427244186401367
      ],
      "type": "VEC3"
    },
    {
      "bufferView": 1,
      "byteOffset": 118188,
      "componentType": 5126,
      "count": 147,
      "max": [
        1.664375901222229,
        1.6176304817199707,
        1.493349552154541
      ],
      "min": [
        -1.638902187347412,
        -1.597096562385559,
        -1.5152978897094727
      ],
      "type": "VEC3"
    },
    {
      "bufferView": 1,
      "byteOffset": 119952,
      "componentType": 5126,
      "count": 147,
      "max": [
        13.030475616455078,
        15.393512725830078,
        13.197073936462402
      ],
      "min": [
        -25.46525001525879,
        -15.384743690490723,
        -18.43052101135254
      ],
      "type": "VEC3"
    },
    {
      "bufferView": 1,
      "byteOffset": 121716,
      "componentType": 5126,
      "count": 147,
      "max": [
        1.6869802474975586,
        1.5318272113800049,
        1.574458360671997
      ],
      "min": [
        -1.6709848642349243,
        -1.610573172569275,
        -1.469258189201355
      ],
      "type": "VEC3"
    },
    {
      "bufferView": 1,
      "byteOffset": 123480,
      "componentType": 5126,
      "count": 147,
      "max": [
        13.033644676208496,
        15.386900901794434,
        13.197884559631348
      ],
      "min": [
        -25.4537296295166,
        -15.356006622314453,
        -18.432790756225586
      ],
      "type": "VEC3"
    },
    {
      "bufferView": 1,
      "byteOffset": 125244,
      "componentType": 5126,
      "count": 147,
      "max": [
        1.6668105125427246,
        1.5191118717193604,
        1.6391277313232422
      ],
      "min": [
        -1.7066543102264404,
        -1.544368863105774,
        -1.460231065750122
      ],
      "type": "VEC3"
    },
    {
      "bufferView": 1,
      "byteOffset": 127008,
      "componentType": 5126,
      "count": 147,
      "max": [
        13.036686897277832,
        15.379615783691406,
        13.198858261108398
      ],
      "min": [
        -25.450902938842773,
        -15.354494094848633,
        -18.43450927734375
      ],
      "type": "VEC3"
    },
    {
      "bufferView": 1,
      "byteOffset": 128772,
      "componentType": 5126,
      "count": 147,
      "max": [
        1.5728219747543335,
        1.662410020828247,
        1.6654164791107178
      ],
      "min": [
        -1.726729393005371,
        -1.4653756618499756,
        -1.5409822463989258
      ],
      "type": "VEC3"
    },
    {
      "bufferView": 1,
      "byteOffset": 130536,
      "componentType": 5126,
      "count": 147,
      "max": [
        13.038528442382813,
        15.370686531066895,
        13.200151443481445
      ],
      "min": [
        -25.422555923461914,
        -15.396424293518066,
        -18.436004638671875
      ],
      "type": "VEC3"
    },
    {
      "bufferView": 1,
      "byteOffset": 132300,
      "componentType": 5126,
      "count": 147,
      "max": [
        1.5221571922302246,
        1.7877230644226074,
        1.6498491764068604
      ],
      "min": [
        -1.7099215984344482,
        -1.7109613418579102,
        -1.599020004272461
      ],
      "type": "VEC3"
    },
    {
      "bufferView": 1,
      "byteOffset": 134064,
      "componentType": 5126,
      "count": 147,
      "max": [
        13.03984260559082,
        15.361183166503906,
        13.201339721679688
      ],
      "min": [
        -25.384824752807617,
        -15.447513580322266,
        -18.437116622924805
      ],
      "type": "VEC3"
    },
    {
      "bufferView": 1,
      "byteOffset": 135828,
      "componentType": 5126,
      "count": 147,
      "max": [
        1.7278631925582886,
        1.7502363920211792,
        1.5542078018188477
      ],
      "min": [
        -1.5662604570388794,
        -1.8720489740371704,
        -1.6297235488891602
      ],
      "type": "VEC3"
    },
    {
      "bufferView": 1,
      "byteOffset": 137592,
      "componentType": 5126,
      "count": 147,
      "max": [
        13.040253639221191,
        15.35059642791748,
        13.202713012695313
      ],
      "min": [
        -25.306655883789063,
        -15.523846626281738,
        -18.437915802001953
      ],
      "type": "VEC3"
    },
    {
      "bufferView": 1,
      "byteOffset": 139356,
      "componentType": 5126,
      "count": 147,
      "max": [
        1.8307784795761108,
        1.674889326095581,
        1.7335761785507202
      ],
      "min": [
        -1.6945947408676147,
        -1.907305121421814,
        -1.5865604877471924
      ],
      "type": "VEC3"
    },
    {
      "bufferView": 1,
      "byteOffset": 141120,
      "componentType": 5126,
      "count": 147,
      "max": [
        13.04000186920166,
        15.339510917663574,
        13.203886032104492
      ],
      "min": [
        -25.27891731262207,
        -15.603589057922363,
        -18.43802261352539
      ],
      "type": "VEC3"
    },
    {
      "bufferView": 1,
      "byteOffset": 142884,
      "componentType": 5126,
      "count": 147,
      "max": [
        1.8014516830444336,
        1.6814664602279663,
        1.8388210535049438
      ],
      "min": [
        -1.7816267013549805,
        -1.8902626037597656,
        -1.5763825178146362
      ],
      "type": "VEC3"
    },
    {
      "bufferView": 1,
      "byteOffset": 144648,
      "componentType": 5126,
      "count": 147,
      "max": [
        13.039351463317871,
        15.328033447265625,
        13.205016136169434
      ],
      "min": [
        -25.277435302734375,
        -15.684971809387207,
        -18.43771743774414
      ],
      "type": "VEC3"
    },
    {
      "bufferView": 1,
      "byteOffset": 146412,
      "componentType": 5126,
      "count": 147,
      "max": [
        1.6140923500061035,
        1.6271367073059082,
        1.8777574300765991
      ],
      "min": [
        -1.8175703287124634,
        -1.838908314704895,
        -1.6250790357589722
      ],
      "type": "VEC3"
    },
    {
      "bufferView": 1,
      "byteOffset": 148176,
      "componentType": 5126,
      "count": 147,
      "max": [
        13.037826538085938,
        15.314785957336426,
        13.206253051757813
      ],
      "min": [
        -25.348365783691406,
        -15.759995460510254,
        -18.436721801757813
      ],
      "type": "VEC3"
    },
    {
      "bufferView": 1,
      "byteOffset": 149940,
      "componentType": 5126,
      "count": 147,
      "max": [
        1.6520689725875854,
        1.5153568983078003,
        1.8824905157089233
      ],
      "min": [
        -1.810147762298584,
        -1.768623948097229,
        -1.7506049871444702
      ],
      "type": "VEC3"
    },
    {
      "bufferView": 1,
      "byteOffset": 151704,
      "componentType": 5126,
      "count": 147,
      "max": [
        13.036110877990723,
        15.301158905029297,
        13.20711898803711
      ],
      "min": [
        -25.445594787597656,
        -15.832032203674316,
        -18.435131072998047
      ],
      "type": "VEC3"
    },
    {
      "bufferView": 1,
      "byteOffset": 153468,
      "componentType": 5126,
      "count": 147,
      "max": [
        1.6596529483795166,
        1.4574267864227295,
        1.87447988986969
      ],
      "min": [
        -1.7764537334442139,
        -1.7122533321380615,
        -1.826246738433838
      ],
      "type": "VEC3"
    },
    {
      "bufferView": 1,
      "byteOffset": 155232,
      "componentType": 5126,
      "count": 147,
      "max": [
        13.034055709838867,
        15.28660774230957,
        13.207598686218262
      ],
      "min": [
        -25.586210250854492,
        -15.881124496459961,
        -18.43291664123535
      ],
      "type": "VEC3"
    },
    {
      "bufferView": 1,
      "byteOffset": 156996,
      "componentType": 5126,
      "count": 147,
      "max": [
        1.6439958810806274,
        1.6288310289382935,
        1.8364067077636719
      ],
      "min": [
        -1.6937973499298096,
        -1.641141653060913,
        -1.8631532192230225
      ],
      "type": "VEC3"
    },
    {
      "bufferView": 1,
      "byteOffset": 158760,
      "componentType": 5126,
      "count": 147,
      "max": [
        13.032116889953613,
        15.27153205871582,
        13.207344055175781
      ],
      "min": [
        -25.738187789916992,
        -15.928644180297852,
        -18.430797576904297
      ],
      "type": "VEC3"
    },
    {
      "bufferView": 1,
      "byteOffset": 160524,
      "componentType": 5126,
      "count": 147,
      "max": [
        1.639097809791565,
        1.4494882822036743,
        1.7981233596801758
      ],
      "min": [
        -1.59039306640625,
        -1.5611668825149536,
        -1.8598363399505615
      ],
      "type": "VEC3"
    },
    {
      "bufferView": 1,
      "byteOffset": 162288,
      "componentType": 5126,
      "count": 147,
      "max": [
        13.030195236206055,
        15.25631332397461,
        13.206759452819824
      ],
      "min": [
        -25.90056037902832,
        -15.96532917022705,
        -18.428508758544922
      ],
      "type": "VEC3"
    },
    {
      "bufferView": 1,
      "byteOffset": 164052,
      "componentType": 5126,
      "count": 147,
      "max": [
        1.6226214170455933,
        1.473899483680725,
        1.7707886695861816
      ],
      "min": [
        -1.507181167602539,
        -1.4853193759918213,
        -1.917928695678711
      ],
      "type": "VEC3"
    },
    {
      "bufferView": 1,
      "byteOffset": 165816,
      "componentType": 5126,
      "count": 147,
      "max": [
        13.028178215026855,
        15.240612983703613,
        13.205431938171387
      ],
      "min": [
        -26.048765182495117,
        -15.95517635345459,
        -18.427051544189453
      ],
      "type": "VEC3"
    },
    {
      "bufferView": 1,
      "byteOffset": 167580,
      "componentType": 5126,
      "count": 147,
      "max": [
        1.8375816345214844,
        1.5088202953338623,
        1.6973962783813477
      ],
      "min": [
        -1.4206938743591309,
        -1.4525291919708252,
        -1.9387423992156982
      ],
      "type": "VEC3"
    },
    {
      "bufferView": 1,
      "byteOffset": 169344,
      "componentType": 5126,
      "count": 147,
      "max": [
        13.026015281677246,
        15.22563648223877,
        13.204050064086914
      ],
      "min": [
        -26.175006866455078,
        -15.939081192016602,
        -18.42577362060547
      ],
      "type": "VEC3"
    },
    {
      "bufferView": 1,
      "byteOffset": 171108,
      "componentType": 5126,
      "count": 147,
      "max": [
        1.8855056762695313,
        1.6725772619247437,
        1.6608378887176514
      ],
      "min": [
        -1.3528013229370117,
        -1.4800362586975098,
        -1.908029317855835
      ],
      "type": "VEC3"
    },
    {
      "bufferView": 1,
      "byteOffset": 172872,
      "componentType": 5126,
      "count": 147,
      "max": [
        13.023489952087402,
        15.211334228515625,
        13.202326774597168
      ],
      "min": [
        -26.257978439331055,
        -15.89709186553955,
        -18.424638748168945
      ],
      "type": "VEC3"
    },
    {
      "bufferView": 1,
      "byteOffset": 174636,
      "componentType": 5126,
      "count": 147,
      "max": [
        1.9115289449691772,
        1.4689252376556396,
        1.5667595863342285
      ],
      "min": [
        -1.2799822092056274,
        -1.437408685684204,
        -1.8248554468154907
      ],
      "type": "VEC3"
    },
    {
      "bufferView": 1,
      "byteOffset": 176400,
      "componentType": 5126,
      "count": 147,
      "max": [
        13.020633697509766,
        15.198545455932617,
        13.200637817382813
      ],
      "min": [
        -26.290973663330078,
        -15.87428092956543,
        -18.423341751098633
      ],
      "type": "VEC3"
    },
    {
      "bufferView": 1,
      "byteOffset": 178164,
      "componentType": 5126,
      "count": 147,
      "max": [
        1.943341612815857,
        1.4558954238891602,
        1.6025385856628418
      ],
      "min": [
        -1.444331169128418,
        -1.7647323608398438,
        -1.7199212312698364
      ],
      "type": "VEC3"
    },
    {
      "bufferView": 1,
      "byteOffset": 179928,
      "componentType": 5126,
      "count": 147,
      "max": [
        13.017643928527832,
        15.186714172363281,
        13.198920249938965
      ],
      "min": [
        -26.294546127319336,
        -15.856462478637695,
        -18.42182731628418
      ],
      "type": "VEC3"
    },
    {
      "bufferView": 1,
      "byteOffset": 181692,
      "componentType": 5126,
      "count": 147,
      "max": [
        1.9577765464782715,
        1.419936180114746,
        1.6743783950805664
      ],
      "min": [
        -1.3847455978393555,
        -1.72749662399292,
        -1.7480610609054565
      ],
      "type": "VEC3"
    },
    {
      "bufferView": 1,
      "byteOffset": 183456,
      "componentType": 5126,
      "count": 147,
      "max": [
        13.014293670654297,
        15.17689323425293,
        13.19786262512207
      ],
      "min": [
        -26.230775833129883,
        -15.858087539672852,
        -18.420982360839844
      ],
      "type": "VEC3"
    },
    {
      "bufferView": 1,
      "byteOffset": 185220,
      "componentType": 5126,
      "count": 147,
      "max": [
        1.9445377588272095,
        1.3484454154968262,
        1.710806131362915
      ],
      "min": [
        -1.4962077140808105,
        -1.6242024898529053,
        -1.4697215557098389
      ],
      "type": "VEC3"
    },
    {
      "bufferView": 1,
      "byteOffset": 186984,
      "componentType": 5126,
      "count": 147,
      "max": [
        13.011378288269043,
        15.167669296264648,
        13.197190284729004
      ],
      "min": [
        -26.140268325805664,
        -15.870197296142578,
        -18.420040130615234
      ],
      "type": "VEC3"
    },
    {
      "bufferView": 1,
      "byteOffset": 188748,
      "componentType": 5126,
      "count": 147,
      "max": [
        1.9708764553070068,
        1.722381353378296,
        1.7138481140136719
      ],
      "min": [
        -1.5723994970321655,
        -1.545682430267334,
        -1.4206161499023438
      ],
      "type": "VEC3"
    },
    {
      "bufferView": 1,
      "byteOffset": 190512,
      "componentType": 5126,
      "count": 147,
      "max": [
        13.008805274963379,
        15.159478187561035,
        13.197235107421875
      ],
      "min": [
        -26.033266067504883,
        -15.898455619812012,
        -18.418758392333984
      ],
      "type": "VEC3"
    },
    {
      "bufferView": 1,
      "byteOffset": 192276,
      "componentType": 5126,
      "count": 147,
      "max": [
        1.9595738649368286,
        1.7586479187011719,
        1.696423053741455
      ],
      "min": [
        -1.6208305358886719,
        -1.462501049041748,
        -1.4133577346801758
      ],
      "type": "VEC3"
    },
    {
      "bufferView": 1,
      "byteOffset": 194040,
      "componentType": 5126,
      "count": 147,
      "max": [
        13.006585121154785,
        15.151676177978516,
        13.198043823242188
      ],
      "min": [
        -25.971769332885742,
        -15.926765441894531,
        -18.41680908203125
      ],
      "type": "VEC3"
    },
    {
      "bufferView": 1,
      "byteOffset": 195804,
      "componentType": 5126,
      "count": 147,
      "max": [
        1.8782883882522583,
        1.7110968828201294,
        1.584010124206543
      ],
      "min": [
        -1.573318362236023,
        -1.4749702215194702,
        -1.4883613586425781
      ],
      "type": "VEC3"
    },
    {
      "bufferView": 1,
      "byteOffset": 197568,
      "componentType": 5126,
      "count": 147,
      "max": [
        13.004598617553711,
        15.14452838897705,
        13.199251174926758
      ],
      "min": [
        -25.924808502197266,
        -15.953625679016113,
        -18.414342880249023
      ],
      "type": "VEC3"
    },
    {
      "bufferView": 1,
      "byteOffset": 199332,
      "componentType": 5126,
      "count": 147,
      "max": [
        1.7754706144332886,
        1.7069870233535767,
        1.5173966884613037
      ],
      "min": [
        -1.4870502948760986,
        -1.590761423110962,
        -1.5201184749603271
      ],
      "type": "VEC3"
    },
    {
      "bufferView": 1,
      "byteOffset": 201096,
      "componentType": 5126,
      "count": 147,
      "max": [
        13.003162384033203,
        15.138689041137695,
        13.201915740966797
      ],
      "min": [
        -25.90704345703125,
        -16.003887176513672,
        -18.41092300415039
      ],
      "type": "VEC3"
    },
    {
      "bufferView": 1,
      "byteOffset": 202860,
      "componentType": 5126,
      "count": 147,
      "max": [
        1.761494517326355,
        1.6210416555404663,
        1.4043327569961548
      ],
      "min": [
        -1.4549872875213623,
        -1.7406251430511475,
        -1.4253050088882446
      ],
      "type": "VEC3"
    },
    {
      "bufferView": 1,
      "byteOffset": 204624,
      "componentType": 5126,
      "count": 147,
      "max": [
        13.002121925354004,
        15.133710861206055,
        13.205256462097168
      ],
      "min": [
        -25.874963760375977,
        -16.051721572875977,
        -18.407258987426758
      ],
      "type": "VEC3"
    },
    {
      "bufferView": 1,
      "byteOffset": 206388,
      "componentType": 5126,
      "count": 147,
      "max": [
        1.7790603637695313,
        1.6244302988052368,
        1.2948784828186035
      ],
      "min": [
        -1.5108685493469238,
        -1.7360645532608032,
        -1.5077275037765503
      ],
      "type": "VEC3"
    },
    {
      "bufferView": 1,
      "byteOffset": 208152,
      "componentType": 5126,
      "count": 147,
      "max": [
        13.001476287841797,
        15.129644393920898,
        13.209389686584473
      ],
      "min": [
        -25.848323822021484,
        -16.1163330078125,
        -18.40302848815918
      ],
      "type": "VEC3"
    },
    {
      "bufferView": 1,
      "byteOffset": 209916,
      "componentType": 5126,
      "count": 147,
      "max": [
        1.7431379556655884,
        1.5981591939926147,
        1.321284294128418
      ],
      "min": [
        -1.5547142028808594,
        -1.6195497512817383,
        -1.8414205312728882
      ],
      "type": "VEC3"
    },
    {
      "bufferView": 1,
      "byteOffset": 211680,
      "componentType": 5126,
      "count": 147,
      "max": [
        13.001407623291016,
        15.127163887023926,
        13.21445083618164
      ],
      "min": [
        -25.870634078979492,
        -16.16531753540039,
        -18.39822006225586
      ],
      "type": "VEC3"
    },
    {
      "bufferView": 1,
      "byteOffset": 213444,
      "componentType": 5126,
      "count": 147,
      "max": [
        1.8152029514312744,
        1.5344252586364746,
        1.2685894966125488
      ],
      "min": [
        -1.586362361907959,
        -1.6135693788528442,
        -1.904854416847229
      ],
      "type": "VEC3"
    },
    {
      "bufferView": 1,
      "byteOffset": 215208,
      "componentType": 5126,
      "count": 147,
      "max": [
        13.001482009887695,
        15.125594139099121,
        13.219593048095703
      ],
      "min": [
        -25.874168395996094,
        -16.207130432128906,
        -18.39325714111328
      ],
      "type": "VEC3"
    },
    {
      "bufferView": 1,
      "byteOffset": 216972,
      "componentType": 5126,
      "count": 147,
      "max": [
        1.8611277341842651,
        1.5701910257339478,
        1.3430589437484741
      ],
      "min": [
        -1.6063988208770752,
        -1.626695156097412,
        -1.850014090538025
      ],
      "type": "VEC3"
    },
    {
      "bufferView": 1,
      "byteOffset": 218736,
      "componentType": 5126,
      "count": 147,
      "max": [
        13.001568794250488,
        15.125163078308105,
        13.2254638671875
      ],
      "min": [
        -25.855289459228516,
        -16.241539001464844,
        -18.38778305053711
      ],
      "type": "VEC3"
    },
    {
      "bufferView": 1,
      "byteOffset": 220500,
      "componentType": 5126,
      "count": 147,
      "max": [
        1.893956184387207,
        1.5563760995864868,
        1.3552677631378174
      ],
      "min": [
        -1.6578439474105835,
        -1.5494792461395264,
        -1.7621129751205444
      ],
      "type": "VEC3"
    },
    {
      "bufferView": 1,
      "byteOffset": 222264,
      "componentType": 5126,
      "count": 147,
      "max": [
        13.001626014709473,
        15.125078201293945,
        13.231241226196289
      ],
      "min": [
        -25.895904541015625,
        -16.254758834838867,
        -18.38156509399414
      ],
      "type": "VEC3"
    },
    {
      "bufferView": 1,
      "byteOffset": 224028,
      "componentType": 5126,
      "count": 147,
      "max": [
        1.914554476737976,
        1.46418035030365,
        1.41032874584198
      ],
      "min": [
        -1.6546066999435425,
        -1.4553101062774658,
        -1.6839289665222168
      ],
      "type": "VEC3"
    },
    {
      "bufferView": 1,
      "byteOffset": 225792,
      "componentType": 5126,
      "count": 147,
      "max": [
        13.001723289489746,
        15.125090599060059,
        13.236885070800781
      ],
      "min": [
        -25.95069694519043,
        -16.25469207763672,
        -18.3748779296875
      ],
      "type": "VEC3"
    },
    {
      "bufferView": 1,
      "byteOffset": 227556,
      "componentType": 5126,
      "count": 147,
      "max": [
        1.9361509084701538,
        1.4377086162567139,
        1.4224491119384766
      ],
      "min": [
        -1.5944381952285767,
        -1.5290544033050537,
        -1.719802737236023
      ],
      "type": "VEC3"
    },
    {
      "bufferView": 1,
      "byteOffset": 229320,
      "componentType": 5126,
      "count": 147,
      "max": [
        13.00169849395752,
        15.126055717468262,
        13.241828918457031
      ],
      "min": [
        -25.95399284362793,
        -16.209213256835938,
        -18.3673095703125
      ],
      "type": "VEC3"
    },
    {
      "bufferView": 1,
      "byteOffset": 231084,
      "componentType": 5126,
      "count": 147,
      "max": [
        1.921971321105957,
        1.628904938697815,
        1.3863095045089722
      ],
      "min": [
        -1.5357632637023926,
        -1.565035343170166,
        -1.588838815689087
      ],
      "type": "VEC3"
    },
    {
      "bufferView": 1,
      "byteOffset": 232848,
      "componentType": 5126,
      "count": 147,
      "max": [
        13.001618385314941,
        15.127850532531738,
        13.245887756347656
      ],
      "min": [
        -25.953828811645508,
        -16.1446533203125,
        -18.359615325927734
      ],
      "type": "VEC3"
    },
    {
      "bufferView": 1,
      "byteOffset": 234612,
      "componentType": 5126,
      "count": 147,
      "max": [
        1.924221396446228,
        1.6128807067871094,
        1.3364284038543701
      ],
      "min": [
        -1.4255479574203491,
        -1.5407295227050781,
        -1.599403977394104
      ],
      "type": "VEC3"
    },
    {
      "bufferView": 1,
      "byteOffset": 236376,
      "componentType": 5126,
      "count": 147,
      "max": [
        13.001527786254883,
        15.131065368652344,
        13.24902057647705
      ],
      "min": [
        -25.94396209716797,
        -16.032981872558594,
        -18.351871490478516
      ],
      "type": "VEC3"
    },
    {
      "bufferView": 1,
      "byteOffset": 238140,
      "componentType": 5126,
      "count": 147,
      "max": [
        1.8875614404678345,
        1.6346795558929443,
        1.2888767719268799
      ],
      "min": [
        -1.273693323135376,
        -1.5190030336380005,
        -1.5616583824157715
      ],
      "type": "VEC3"
    },
    {
      "bufferView": 1,
      "byteOffset": 239904,
      "componentType": 5126,
      "count": 147,
      "max": [
        13.001282691955566,
        15.134739875793457,
        13.25082015991211
      ],
      "min": [
        -25.90863800048828,
        -15.943503379821777,
        -18.343645095825195
      ],
      "type": "VEC3"
    },
    {
      "bufferView": 1,
      "byteOffset": 241668,
      "componentType": 5126,
      "count": 147,
      "max": [
        1.8125163316726685,
        1.5818222761154175,
        1.2674574851989746
      ],
      "min": [
        -1.1158668994903564,
        -1.4587733745574951,
        -1.676395058631897
      ],
      "type": "VEC3"
    },
    {
      "bufferView": 1,
      "byteOffset": 243432,
      "componentType": 5126,
      "count": 147,
      "max": [
        13.000943183898926,
        15.138825416564941,
        13.251749992370605
      ],
      "min": [
        -25.882614135742188,
        -15.8367280960083,
        -18.33531379699707
      ],
      "type": "VEC3"
    },
    {
      "bufferView": 1,
      "byteOffset": 245196,
      "componentType": 5126,
      "count": 147,
      "max": [
        1.716801643371582,
        1.5238653421401978,
        1.2681330442428589
      ],
      "min": [
        -1.0435349941253662,
        -1.4326988458633423,
        -1.6775568723678589
      ],
      "type": "VEC3"
    },
    {
      "bufferView": 1,
      "byteOffset": 246960,
      "componentType": 5126,
      "count": 147,
      "max": [
        12.999510765075684,
        15.144490242004395,
        13.250924110412598
      ],
      "min": [
        -25.906492233276367,
        -15.654509544372559,
        -18.327388763427734
      ],
      "type": "VEC3"
    },
    {
      "bufferView": 1,
      "byteOffset": 248724,
      "componentType": 5126,
      "count": 147,
      "max": [
        1.6314584016799927,
        1.4610264301300049,
        1.2623043060302734
      ],
      "min": [
        -1.1857270002365112,
        -1.5131943225860596,
        -1.5880603790283203
      ],
      "type": "VEC3"
    },
    {
      "bufferView": 1,
      "byteOffset": 250488,
      "componentType": 5126,
      "count": 147,
      "max": [
        12.997593879699707,
        15.151654243469238,
        13.248636245727539
      ],
      "min": [
        -25.8795223236084,
        -15.538115501403809,
        -18.31951904296875
      ],
      "type": "VEC3"
    },
    {
      "bufferView": 1,
      "byteOffset": 252252,
      "componentType": 5126,
      "count": 147,
      "max": [
        1.5282773971557617,
        1.3527262210845947,
        1.441003680229187
      ],
      "min": [
        -1.3372576236724854,
        -1.5708669424057007,
        -1.5823564529418945
      ],
      "type": "VEC3"
    },
    {
      "bufferView": 1,
      "byteOffset": 254016,
      "componentType": 5126,
      "count": 147,
      "max": [
        12.994929313659668,
        15.160443305969238,
        13.244604110717773
      ],
      "min": [
        -25.784767150878906,
        -15.4943265914917,
        -18.311946868896484
      ],
      "type": "VEC3"
    },
    {
      "bufferView": 1,
      "byteOffset": 255780,
      "componentType": 5126,
      "count": 147,
      "max": [
        1.502982258796692,
        1.289344072341919,
        1.5333833694458008
      ],
      "min": [
        -1.4264459609985352,
        -1.6145843267440796,
        -1.6457539796829224
      ],
      "type": "VEC3"
    },
    {
      "bufferView": 1,
      "byteOffset": 257544,
      "componentType": 5126,
      "count": 147,
      "max": [
        12.991846084594727,
        15.169992446899414,
        13.240154266357422
      ],
      "min": [
        -25.731220245361328,
        -15.426898956298828,
        -18.304439544677734
      ],
      "type": "VEC3"
    },
    {
      "bufferView": 1,
      "byteOffset": 259308,
      "componentType": 5126,
      "count": 147,
      "max": [
        1.5612375736236572,
        1.2137072086334229,
        1.445098876953125
      ],
      "min": [
        -1.5198915004730225,
        -1.62643301486969,
        -1.7099436521530151
      ],
      "type": "VEC3"
    },
    {
      "bufferView": 1,
      "byteOffset": 261072,
      "componentType": 5126,
      "count": 147,
      "max": [
        12.988387107849121,
        15.179963111877441,
        13.23526382446289
      ],
      "min": [
        -25.686147689819336,
        -15.34599494934082,
        -18.296966552734375
      ],
      "type": "VEC3"
    },
    {
      "bufferView": 1,
      "byteOffset": 262836,
      "componentType": 5126,
      "count": 147,
      "max": [
        1.6257017850875854,
        1.2552382946014404,
        1.3057209253311157
      ],
      "min": [
        -1.6396621465682983,
        -1.639908790588379,
        -1.7712677717208862
      ],
      "type": "VEC3"
    },
    {
      "bufferView": 1,
      "byteOffset": 264600,
      "componentType": 5126,
      "count": 147,
      "max": [
        12.983908653259277,
        15.191059112548828,
        13.230596542358398
      ],
      "min": [
        -25.68726348876953,
        -15.245214462280273,
        -18.290172576904297
      ],
      "type": "VEC3"
    },
    {
      "bufferView": 1,
      "byteOffset": 266364,
      "componentType": 5126,
      "count": 147,
      "max": [
        1.635289192199707,
        1.3336248397827148,
        1.3417022228240967
      ],
      "min": [
        -1.6943236589431763,
        -1.7080023288726807,
        -1.8161373138427734
      ],
      "type": "VEC3"
    },
    {
      "bufferView": 1,
      "byteOffset": 268128,
      "componentType": 5126,
      "count": 147,
      "max": [
        12.979304313659668,
        15.201885223388672,
        13.225197792053223
      ],
      "min": [
        -25.65874671936035,
        -15.234153747558594,
        -18.28377342224121
      ],
      "type": "VEC3"
    },
    {
      "bufferView": 1,
      "byteOffset": 269892,
      "componentType": 5126,
      "count": 147,
      "max": [
        1.7002978324890137,
        1.4093151092529297,
        1.3839293718338013
      ],
      "min": [
        -1.7018359899520874,
        -1.719332218170166,
        -1.836365818977356
      ],
      "type": "VEC3"
    },
    {
      "bufferView": 1,
      "byteOffset": 271656,
      "componentType": 5126,
      "count": 147,
      "max": [
        12.974393844604492,
        15.21265983581543,
        13.219223976135254
      ],
      "min": [
        -25.584285736083984,
        -15.323509216308594,
        -18.277748107910156
      ],
      "type": "VEC3"
    },
    {
      "bufferView": 1,
      "byteOffset": 273420,
      "componentType": 5126,
      "count": 147,
      "max": [
        1.7784252166748047,
        1.4660892486572266,
        1.3454651832580566
      ],
      "min": [
        -1.6615731716156006,
        -1.6625032424926758,
        -1.8257759809494019
      ],
      "type": "VEC3"
    },
    {
      "bufferView": 1,
      "byteOffset": 275184,
      "componentType": 5126,
      "count": 147,
      "max": [
        12.969816207885742,
        15.222891807556152,
        13.212272644042969
      ],
      "min": [
        -25.569875717163086,
        -15.454113006591797,
        -18.27165412902832
      ],
      "type": "VEC3"
    },
    {
      "bufferView": 1,
      "byteOffset": 276948,
      "componentType": 5126,
      "count": 147,
      "max": [
        1.8105674982070923,
        1.526637315750122,
        1.3952672481536865
      ],
      "min": [
        -1.6252715587615967,
        -1.5385642051696777,
        -1.7772496938705444
      ],
      "type": "VEC3"
    },
    {
      "bufferView": 1,
      "byteOffset": 278712,
      "componentType": 5126,
      "count": 147,
      "max": [
        12.965400695800781,
        15.233250617980957,
        13.205044746398926
      ],
      "min": [
        -25.577850341796875,
        -15.581807136535645,
        -18.26554298400879
      ],
      "type": "VEC3"
    },
    {
      "bufferView": 1,
      "byteOffset": 280476,
      "componentType": 5126,
      "count": 147,
      "max": [
        1.8193784952163696,
        1.5712668895721436,
        1.4632294178009033
      ],
      "min": [
        -1.567185401916504,
        -1.3694013357162476,
        -1.699951410293579
      ],
      "type": "VEC3"
    },
    {
      "bufferView": 1,
      "byteOffset": 282240,
      "componentType": 5126,
      "count": 147,
      "max": [
        12.961166381835938,
        15.24327278137207,
        13.198403358459473
      ],
      "min": [
        -25.647869110107422,
        -15.637106895446777,
        -18.259349822998047
      ],
      "type": "VEC3"
    },
    {
      "bufferView": 1,
      "byteOffset": 284004,
      "componentType": 5126,
      "count": 147,
      "max": [
        1.8056892156600952,
        1.6200510263442993,
        1.7140865325927734
      ],
      "min": [
        -1.5733479261398315,
        -1.3320977687835693,
        -1.6067259311676025
      ],
      "type": "VEC3"
    },
    {
      "bufferView": 1,
      "byteOffset": 285768,
      "componentType": 5126,
      "count": 147,
      "max": [
        12.957353591918945,
        15.253091812133789,
        13.191170692443848
      ],
      "min": [
        -25.739917755126953,
        -15.693686485290527,
        -18.253217697143555
      ],
      "type": "VEC3"
    },
    {
      "bufferView": 1,
      "byteOffset": 287532,
      "componentType": 5126,
      "count": 147,
      "max": [
        1.7748080492019653,
        1.6962133646011353,
        1.845063328742981
      ],
      "min": [
        -1.6248189210891724,
        -1.3877098560333252,
        -1.485798954963684
      ],
      "type": "VEC3"
    },
    {
      "bufferView": 1,
      "byteOffset": 289296,
      "componentType": 5126,
      "count": 147,
      "max": [
        12.953864097595215,
        15.262474060058594,
        13.183464050292969
      ],
      "min": [
        -25.8579158782959,
        -15.75810432434082,
        -18.24676513671875
      ],
      "type": "VEC3"
    },
    {
      "bufferView": 1,
      "byteOffset": 291060,
      "componentType": 5126,
      "count": 147,
      "max": [
        1.7226704359054565,
        1.7309805154800415,
        1.8896781206130981
      ],
      "min": [
        -1.6835136413574219,
        -1.4070665836334229,
        -1.3367185592651367
      ],
      "type": "VEC3"
    },
    {
      "bufferView": 1,
      "byteOffset": 292824,
      "componentType": 5126,
      "count": 147,
      "max": [
        12.951455116271973,
        15.270870208740234,
        13.175968170166016
      ],
      "min": [
        -25.9595947265625,
        -15.879058837890625,
        -18.23877716064453
      ],
      "type": "VEC3"
    },
    {
      "bufferView": 1,
      "byteOffset": 294588,
      "componentType": 5126,
      "count": 147,
      "max": [
        1.7364364862442017,
        1.7331080436706543,
        1.7949737310409546
      ],
      "min": [
        -1.7840512990951538,
        -1.388147234916687,
        -1.4941625595092773
      ],
      "type": "VEC3"
    },
    {
      "bufferView": 1,
      "byteOffset": 296352,
      "componentType": 5126,
      "count": 147,
      "max": [
        12.949495315551758,
        15.278847694396973,
        13.168256759643555
      ],
      "min": [
        -26.072092056274414,
        -15.999259948730469,
        -18.230392456054688
      ],
      "type": "VEC3"
    },
    {
      "bufferView": 1,
      "byteOffset": 298116,
      "componentType": 5126,
      "count": 147,
      "max": [
        1.7574726343154907,
        1.699609398841858,
        1.723144769668579
      ],
      "min": [
        -1.8469663858413696,
        -1.3919339179992676,
        -1.6880028247833252
      ],
      "type": "VEC3"
    },
    {
      "bufferView": 1,
      "byteOffset": 299880,
      "componentType": 5126,
      "count": 147,
      "max": [
        12.94805908203125,
        15.285707473754883,
        13.1608304977417
      ],
      "min": [
        -26.21502685546875,
        -16.075231552124023,
        -18.221752166748047
      ],
      "type": "VEC3"
    },
    {
      "bufferView": 1,
      "byteOffset": 301644,
      "componentType": 5126,
      "count": 147,
      "max": [
        1.7226295471191406,
        1.666841983795166,
        1.7245664596557617
      ],
      "min": [
        -1.8652050495147705,
        -1.4541654586791992,
        -1.7759778499603271
      ],
      "type": "VEC3"
    },
    {
      "bufferView": 1,
      "byteOffset": 303408,
      "componentType": 5126,
      "count": 147,
      "max": [
        12.947381973266602,
        15.292168617248535,
        13.153470993041992
      ],
      "min": [
        -26.329416275024414,
        -16.1551513671875,
        -18.213245391845703
      ],
      "type": "VEC3"
    },
    {
      "bufferView": 1,
      "byteOffset": 305172,
      "componentType": 5126,
      "count": 147,
      "max": [
        1.6321133375167847,
        1.6605515480041504,
        1.6970934867858887
      ],
      "min": [
        -1.8422573804855347,
        -1.5791778564453125,
        -1.7569634914398193
      ],
      "type": "VEC3"
    },
    {
      "bufferView": 1,
      "byteOffset": 306936,
      "componentType": 5126,
      "count": 147,
      "max": [
        12.947391510009766,
        15.298254013061523,
        13.145970344543457
      ],
      "min": [
        -26.428997039794922,
        -16.230016708374023,
        -18.204931259155273
      ],
      "type": "VEC3"
    },
    {
      "bufferView": 1,
      "byteOffset": 308700,
      "componentType": 5126,
      "count": 147,
      "max": [
        1.5156549215316772,
        1.6463432312011719,
        1.6380383968353271
      ],
      "min": [
        -1.7792813777923584,
        -1.693975806236267,
        -1.709679126739502
      ],
      "type": "VEC3"
    },
    {
      "bufferView": 1,
      "byteOffset": 310464,
      "componentType": 5126,
      "count": 147,
      "max": [
        12.94832992553711,
        15.303180694580078,
        13.139002799987793
      ],
      "min": [
        -26.4596004486084,
        -16.293277740478516,
        -18.196901321411133
      ],
      "type": "VEC3"
    },
    {
      "bufferView": 1,
      "byteOffset": 312228,
      "componentType": 5126,
      "count": 147,
      "max": [
        1.5318256616592407,
        1.6217811107635498,
        1.5324974060058594
      ],
      "min": [
        -1.7785742282867432,
        -1.752015471458435,
        -1.7118644714355469
      ],
      "type": "VEC3"
    },
    {
      "bufferView": 1,
      "byteOffset": 313992,
      "componentType": 5126,
      "count": 147,
      "max": [
        12.949771881103516,
        15.307942390441895,
        13.131772994995117
      ],
      "min": [
        -26.47193717956543,
        -16.34148406982422,
        -18.18909454345703
      ],
      "type": "VEC3"
    },
    {
      "bufferView": 1,
      "byteOffset": 315756,
      "componentType": 5126,
      "count": 147,
      "max": [
        1.582814335823059,
        1.591613531112671,
        1.4931716918945313
      ],
      "min": [
        -1.8332575559616089,
        -1.7919296026229858,
        -1.6448003053665161
      ],
      "type": "VEC3"
    },
    {
      "bufferView": 1,
      "byteOffset": 317520,
      "componentType": 5126,
      "count": 147,
      "max": [
        12.95190143585205,
        15.312054634094238,
        13.124415397644043
      ],
      "min": [
        -26.453388214111328,
        -16.36260414123535,
        -18.181806564331055
      ],
      "type": "VEC3"
    },
    {
      "bufferView": 1,
      "byteOffset": 319284,
      "componentType": 5126,
      "count": 147,
      "max": [
        1.6299916505813599,
        1.5531229972839355,
        1.546130657196045
      ],
      "min": [
        -1.814511775970459,
        -1.8150842189788818,
        -1.5260531902313232
      ],
      "type": "VEC3"
    },
    {
      "bufferView": 1,
      "byteOffset": 321048,
      "componentType": 5126,
      "count": 147,
      "max": [
        12.954582214355469,
        15.315936088562012,
        13.116662979125977
      ],
      "min": [
        -26.389171600341797,
        -16.3678035736084,
        -18.17525291442871
      ],
      "type": "VEC3"
    },
    {
      "bufferView": 1,
      "byteOffset": 322812,
      "componentType": 5126,
      "count": 147,
      "max": [
        1.7102338075637817,
        1.530261754989624,
        1.5821940898895264
      ],
      "min": [
        -1.7365128993988037,
        -1.8313246965408325,
        -1.5237581729888916
      ],
      "type": "VEC3"
    },
    {
      "bufferView": 1,
      "byteOffset": 324576,
      "componentType": 5126,
      "count": 147,
      "max": [
        12.95775318145752,
        15.319768905639648,
        13.108633041381836
      ],
      "min": [
        -26.289838790893555,
        -16.362751007080078,
        -18.169254302978516
      ],
      "type": "VEC3"
    },
    {
      "bufferView": 1,
      "byteOffset": 326340,
      "componentType": 5126,
      "count": 147,
      "max": [
        1.8008009195327759,
        1.4651151895523071,
        1.570549726486206
      ],
      "min": [
        -1.619389295578003,
        -1.845207691192627,
        -1.6338685750961304
      ],
      "type": "VEC3"
    },
    {
      "bufferView": 1,
      "byteOffset": 328104,
      "componentType": 5126,
      "count": 147,
      "max": [
        12.961709022521973,
        15.323270797729492,
        13.099753379821777
      ],
      "min": [
        -26.149471282958984,
        -16.223129272460938,
        -18.16450309753418
      ],
      "type": "VEC3"
    },
    {
      "bufferView": 1,
      "byteOffset": 329868,
      "componentType": 5126,
      "count": 147,
      "max": [
        1.8903131484985352,
        1.5261452198028564,
        1.5600066184997559
      ],
      "min": [
        -1.4879791736602783,
        -1.8460909128189087,
        -1.7329437732696533
      ],
      "type": "VEC3"
    },
    {
      "bufferView": 1,
      "byteOffset": 331632,
      "componentType": 5126,
      "count": 147,
      "max": [
        12.966243743896484,
        15.32685661315918,
        13.090103149414063
      ],
      "min": [
        -25.99552345275879,
        -16.07509994506836,
        -18.16010856628418
      ],
      "type": "VEC3"
    },
    {
      "bufferView": 1,
      "byteOffset": 333396,
      "componentType": 5126,
      "count": 147,
      "max": [
        1.9459888935089111,
        1.5595886707305908,
        1.4725770950317383
      ],
      "min": [
        -1.3509342670440674,
        -1.8310998678207397,
        -1.7978030443191528
      ],
      "type": "VEC3"
    },
    {
      "bufferView": 1,
      "byteOffset": 335160,
      "componentType": 5126,
      "count": 147,
      "max": [
        12.971538543701172,
        15.330485343933105,
        13.079292297363281
      ],
      "min": [
        -25.821462631225586,
        -15.9246244430542,
        -18.156404495239258
      ],
      "type": "VEC3"
    },
    {
      "bufferView": 1,
      "byteOffset": 336924,
      "componentType": 5126,
      "count": 147,
      "max": [
        1.9687107801437378,
        1.6220494508743286,
        1.4797061681747437
      ],
      "min": [
        -1.3023014068603516,
        -1.8073441982269287,
        -1.8255141973495483
      ],
      "type": "VEC3"
    },
    {
      "bufferView": 1,
      "byteOffset": 338688,
      "componentType": 5126,
      "count": 147,
      "max": [
        12.97822380065918,
        15.334647178649902,
        13.067562103271484
      ],
      "min": [
        -25.644027709960938,
        -15.806983947753906,
        -18.153488159179688
      ],
      "type": "VEC3"
    },
    {
      "bufferView": 1,
      "byteOffset": 340452,
      "componentType": 5126,
      "count": 147,
      "max": [
        1.9675252437591553,
        1.5820260047912598,
        1.555951476097107
      ],
      "min": [
        -1.3818504810333252,
        -1.7637470960617065,
        -1.8188279867172241
      ],
      "type": "VEC3"
    },
    {
      "bufferView": 1,
      "byteOffset": 342216,
      "componentType": 5126,
      "count": 147,
      "max": [
        12.985905647277832,
        15.339204788208008,
        13.055038452148438
      ],
      "min": [
        -25.461898803710938,
        -15.708189010620117,
        -18.151052474975586
      ],
      "type": "VEC3"
    },
    {
      "bufferView": 1,
      "byteOffset": 343980,
      "componentType": 5126,
      "count": 147,
      "max": [
        1.941271424293518,
        1.6590805053710938,
        1.5841877460479736
      ],
      "min": [
        -1.4740538597106934,
        -1.7264461517333984,
        -1.7810636758804321
      ],
      "type": "VEC3"
    },
    {
      "bufferView": 1,
      "byteOffset": 345744,
      "componentType": 5126,
      "count": 147,
      "max": [
        12.993880271911621,
        15.344881057739258,
        13.043316841125488
      ],
      "min": [
        -25.30946159362793,
        -15.659505844116211,
        -18.149030685424805
      ],
      "type": "VEC3"
    },
    {
      "bufferView": 1,
      "byteOffset": 347508,
      "componentType": 5126,
      "count": 147,
      "max": [
        1.9006626605987549,
        1.7024810314178467,
        1.5253645181655884
      ],
      "min": [
        -1.5877959728240967,
        -1.8220630884170532,
        -1.7114174365997314
      ],
      "type": "VEC3"
    },
    {
      "bufferView": 1,
      "byteOffset": 349272,
      "componentType": 5126,
      "count": 147,
      "max": [
        13.00220775604248,
        15.351693153381348,
        13.03182601928711
      ],
      "min": [
        -25.190900802612305,
        -15.600903511047363,
        -18.147335052490234
      ],
      "type": "VEC3"
    },
    {
      "bufferView": 1,
      "byteOffset": 351036,
      "componentType": 5126,
      "count": 147,
      "max": [
        1.844322681427002,
        1.7043391466140747,
        1.5528168678283691
      ],
      "min": [
        -1.700636863708496,
        -1.8819962739944458,
        -1.6228106021881104
      ],
      "type": "VEC3"
    },
    {
      "bufferView": 1,
      "byteOffset": 352800,
      "componentType": 5126,
      "count": 147,
      "max": [
        13.010766983032227,
        15.360543251037598,
        13.021347999572754
      ],
      "min": [
        -25.14260482788086,
        -15.519868850708008,
        -18.146272659301758
      ],
      "type": "VEC3"
    },
    {
      "bufferView": 1,
      "byteOffset": 354564,
      "componentType": 5126,
      "count": 147,
      "max": [
        1.7658833265304565,
        1.6389905214309692,
        1.6620261669158936
      ],
      "min": [
        -1.806337594985962,
        -1.8942341804504395,
        -1.5158884525299072
      ],
      "type": "VEC3"
    },
    {
      "bufferView": 0,
      "componentType": 5125,
      "count": 147,
      "type": "SCALAR"
    },
    {
      "bufferView": 2,
      "componentType": 5126,
      "count": 298,
      "max": [
        12.416666984558105
      ],
      "min": [
        0.0416666679084301
      ],
      "type": "SCALAR"
    },
    {
      "bufferView": 2,
      "byteOffset": 1192,
      "componentType": 5126,
      "count": 29800,
      "max": [
        1.0
      ],
      "min": [
        0.0
      ],
      "type": "SCALAR"
    }
  ],
  "animations": [
    {
      "channels": [
        {
          "sampler": 0,
          "target": {
            "node": 4,
            "path": "weights"
          }
        }
      ],
      "name": "KeyAction.004",
      "samplers": [
        {
          "input": 203,
          "interpolation": "LINEAR",
          "output": 204
        }
      ]
    }
  ],
  "asset": {
    "extras": {
      "author": "narratify (https://sketchfab.com/narratify)",
      "license": "CC-BY-4.0 (http://creativecommons.org/licenses/by/4.0/)",
      "source": "https://sketchfab.com/3d-models/dust-particles-glb-db10b96319124df1b70f69625399bb27",
      "title": "Dust particles glb"
    },
    "generator": "Sketchfab-12.66.0",
    "version": "2.0"
  },
  "bufferViews": [
    {
      "buffer": 0,
      "byteLength": 588,
      "name": "floatBufferViews",
      "target": 34963
    },
    {
      "buffer": 0,
      "byteLength": 356328,
      "byteOffset": 588,
      "byteStride": 12,
      "name": "floatBufferViews",
      "target": 34962
    },
    {
      "buffer": 0,
      "byteLength": 120392,
      "byteOffset": 356916,
      "name": "floatBufferViews"
    }
  ],
  "buffers": [
    {
      "byteLength": 477308,
      "uri": "scene.bin"
    }
  ],
  "materials": [
    {
      "doubleSided": true,
      "emissiveFactor": [
        1.0,
        1.0,
        1.0
      ],
      "name": "Material.001",
      "pbrMetallicRoughness": {
        "metallicFactor": 0.0,
        "roughnessFactor": 0.5
      }
    }
  ],
  "meshes": [
    {
      "name": "mesh_0",
      "primitives": [
        {
          "attributes": {
            "NORMAL": 1,
            "POSITION": 0
          },
          "indices": 202,
          "material": 0,
          "mode": 4,
          "targets": [
            {
              "NORMAL": 3,
              "POSITION": 2
            },
            {
              "NORMAL": 5,
              "POSITION": 4
            },
            {
              "NORMAL": 7,
              "POSITION": 6
            },
            {
              "NORMAL": 9,
              "POSITION": 8
            },
            {
              "NORMAL": 11,
              "POSITION": 10
            },
            {
              "NORMAL": 13,
              "POSITION": 12
            },
            {
              "NORMAL": 15,
              "POSITION": 14
            },
            {
              "NORMAL": 17,
              "POSITION": 16
            },
            {
              "NORMAL": 19,
              "POSITION": 18
            },
            {
              "NORMAL": 21,
              "POSITION": 20
            },
            {
              "NORMAL": 23,
              "POSITION": 22
            },
            {
              "NORMAL": 25,
              "POSITION": 24
            },
            {
              "NORMAL": 27,
              "POSITION": 26
            },
            {
              "NORMAL": 29,
              "POSITION": 28
            },
            {
              "NORMAL": 31,
              "POSITION": 30
            },
            {
              "NORMAL": 33,
              "POSITION": 32
            },
            {
              "NORMAL": 35,
              "POSITION": 34
            },
            {
              "NORMAL": 37,
              "POSITION": 36
            },
            {
              "NORMAL": 39,
              "POSITION": 38
            },
            {
              "NORMAL": 41,
              "POSITION": 40
            },
            {
              "NORMAL": 43,
              "POSITION": 42
            },
            {
              "NORMAL": 45,
              "POSITION": 44
            },
            {
              "NORMAL": 47,
              "POSITION": 46
            },
            {
              "NORMAL": 49,
              "POSITION": 48
            },
            {
              "NORMAL": 51,
              "POSITION": 50
            },
            {
              "NORMAL": 53,
              "POSITION": 52
            },
            {
              "NORMAL": 55,
              "POSITION": 54
            },
            {
              "NORMAL": 57,
              "POSITION": 56
            },
            {
              "NORMAL": 59,
              "POSITION": 58
            },
            {
              "NORMAL": 61,
              "POSITION": 60
            },
            {
              "NORMAL": 63,
              "POSITION": 62
            },
            {
              "NORMAL": 65,
              "POSITION": 64
            },
            {
              "NORMAL": 67,
              "POSITION": 66
            },
            {
              "NORMAL": 69,
              "POSITION": 68
            },
            {
              "NORMAL": 71,
              "POSITION": 70
            },
            {
              "NORMAL": 73,
              "POSITION": 72
            },
            {
              "NORMAL": 75,
              "POSITION": 74
            },
            {
              "NORMAL": 77,
              "POSITION": 76
            },
            {
              "NORMAL": 79,
              "POSITION": 78
            },
            {
              "NORMAL": 81,
              "POSITION": 80
            },
            {
              "NORMAL": 83,
              "POSITION": 82
            },
            {
              "NORMAL": 85,
              "POSITION": 84
            },
            {
              "NORMAL": 87,
              "POSITION": 86
            },
            {
              "NORMAL": 89,
              "POSITION": 88
            },
            {
              "NORMAL": 91,
              "POSITION": 90
            },
            {
              "NORMAL": 93,
              "POSITION": 92
            },
            {
              "NORMAL": 95,
              "POSITION": 94
            },
            {
              "NORMAL": 97,
              "POSITION": 96
            },
            {
              "NORMAL": 99,
              "POSITION": 98
            },
            {
              "NORMAL": 101,
              "POSITION": 100
            },
            {
              "NORMAL": 103,
              "POSITION": 102
            },
            {
              "NORMAL": 105,
              "POSITION": 104
            },
            {
              "NORMAL": 107,
              "POSITION": 106
            },
            {
              "NORMAL": 109,
              "POSITION": 108
            },
            {
              "NORMAL": 111,
              "POSITION": 110
            },
            {
              "NORMAL": 113,
              "POSITION": 112
            },
            {
              "NORMAL": 115,
              "POSITION": 114
            },
            {
              "NORMAL": 117,
              "POSITION": 116
            },
            {
              "NORMAL": 119,
              "POSITION": 118
            },
            {
              "NORMAL": 121,
              "POSITION": 120
            },
            {
              "NORMAL": 123,
              "POSITION": 122
            },
            {
              "NORMAL": 125,
              "POSITION": 124
            },
            {
              "NORMAL": 127,
              "POSITION": 126
            },
            {
              "NORMAL": 129,
              "POSITION": 128
            },
            {
              "NORMAL": 131,
              "POSITION": 130
            },
            {
              "NORMAL": 133,
              "POSITION": 132
            },
            {
              "NORMAL": 135,
              "POSITION": 134
            },
            {
              "NORMAL": 137,
              "POSITION": 136
            },
            {
              "NORMAL": 139,
              "POSITION": 138
            },
            {
              "NORMAL": 141,
              "POSITION": 140
            },
            {
              "NORMAL": 143,
              "POSITION": 142
            },
            {
              "NORMAL": 145,
              "POSITION": 144
            },
            {
              "NORMAL": 147,
              "POSITION": 146
            },
            {
              "NORMAL": 149,
              "POSITION": 148
            },
            {
              "NORMAL": 151,
              "POSITION": 150
            },
            {
              "NORMAL": 153,
              "POSITION": 152
            },
            {
              "NORMAL": 155,
              "POSITION": 154
            },
            {
              "NORMAL": 157,
              "POSITION": 156
            },
            {
              "NORMAL": 159,
              "POSITION": 158
            },
            {
              "NORMAL": 161,
              "POSITION": 160
            },
            {
              "NORMAL": 163,
              "POSITION": 162
            },
            {
              "NORMAL": 165,
              "POSITION": 164
            },
            {
              "NORMAL": 167,
              "POSITION": 166
            },
            {
              "NORMAL": 169,
              "POSITION": 168
            },
            {
              "NORMAL": 171,
              "POSITION": 170
            },
            {
              "NORMAL": 173,
              "POSITION": 172
            },
            {
              "NORMAL": 175,
              "POSITION": 174
            },
            {
              "NORMAL": 177,
              "POSITION": 176
            },
            {
              "NORMAL": 179,
              "POSITION": 178
            },
            {
              "NORMAL": 181,
              "POSITION": 180
            },
            {
              "NORMAL": 183,
              "POSITION": 182
            },
            {
              "NORMAL": 185,
              "POSITION": 184
            },
            {
              "NORMAL": 187,
              "POSITION": 186
            },
            {
              "NORMAL": 189,
              "POSITION": 188
            },
            {
              "NORMAL": 191,
              "POSITION": 190
            },
            {
              "NORMAL": 193,
              "POSITION": 192
            },
            {
              "NORMAL": 195,
              "POSITION": 194
            },
            {
              "NORMAL": 197,
              "POSITION": 196
            },
            {
              "NORMAL": 199,
              "POSITION": 198
            },
            {
              "NORMAL": 201,
              "POSITION": 200
            }
          ]
        }
      ],
      "weights": [
        0.0,
        0.0,
        0.0,
        0.0,
        0.0,
        0.0,
        0.0,
        0.0,
        0.0,
        0.0,
        0.0,
        0.0,
        0.0,
        0.0,
        0.0,
        0.0,
        0.0,
        0.0,
        0.0,
        0.0,
        0.0,
        0.0,
        0.0,
        0.0,
        0.0,
        0.0,
        0.0,
        0.0,
        0.0,
        0.0,
        0.0,
        0.0,
        0.0,
        0.0,
        0.0,
        0.0,
        0.0,
        0.0,
        0.0,
        0.0,
        0.0,
        0.0,
        0.0,
        0.0,
        0.0,
        0.0,
        0.0,
        0.0,
        0.0,
        0.0,
        0.0,
        0.0,
        0.0,
        0.0,
        0.0,
        0.0,
        0.0,
        0.0,
        0.0,
        0.0,
        0.0,
        0.0,
        0.0,
        0.0,
        0.0,
        0.0,
        0.0,
        0.0,
        0.0,
        0.0,
        0.0,
        0.0,
        0.0,
        0.0,
        0.0,
        0.0,
        0.0,
        0.0,
        0.0,
        0.0,
        0.0,
        0.0,
        0.0,
        0.0,
        0.0,
        0.0,
        0.0,
        0.0,
        0.0,
        0.0,
        0.0,
        0.0,
        0.0,
        0.0,
        0.0,
        0.0,
        0.0,
        0.0,
        0.0,
        0.0
      ]
    }
  ],
  "nodes": [
    {
      "children": [
        1
      ],
      "matrix": [
        1.0,
        0.0,
        0.0,
        0.0,
        0.0,
        2.220446049250313e-16,
        -1.0,
        0.0,
        0.0,
        1.0,
        2.220446049250313e-16,
        0.0,
        0.0,
        0.0,
        0.0,
        1.0
      ],
      "name": "Sketchfab_model"
    },
    {
      "children": [
        2
      ],
      "name": "root"
    },
    {
      "children": [
        3
      ],
      "matrix": [
        1.0,
        0.0,
        0.0,
        0.0,
        0.0,
        2.220446049250313e-16,
        1.0,
        0.0,
        0.0,
        -1.0,
        2.220446049250313e-16,
        0.0,
        0.0,
        0.0,
        0.0,
        1.0
      ],
      "name": "GLTF_SceneRootNode"
    },
    {
      "children": [
        4
      ],
      "name": "Plane_002_0",
      "scale": [
        1.6014469861984253,
        1.6014469861984253,
        1.6014469861984253
      ]
    },
    {
      "mesh": 0,
      "name": "mesh_0"
    }
  ],
  "scene": 0,
  "scenes": [
    {
      "name": "Sketchfab_Scene",
      "nodes": [
        0
      ]
    }
  ]
}
