{
  "accessors": [
    {
      "bufferView": 2,
      "componentType": 5126,
      "count": 1094,
      "max": [
        0.9444230198860168,
        -7.128732204437256,
        0.8941069841384888
      ],
      "min": [
        -0.7172750234603882,
        -10.4724760055542,
        -1.1234359741210938
      ],
      "type": "VEC3"
    },
    {
      "bufferView": 2,
      "byteOffset": 13128,
      "componentType": 5126,
      "count": 1094,
      "max": [
        0.9977532625198364,
        0.9992226362228394,
        0.9957776665687561
      ],
      "min": [
        -0.9992240071296692,
        -0.9970123171806335,
        -0.9982160925865173
      ],
      "type": "VEC3"
    },
    {
      "bufferView": 3,
      "componentType": 5126,
      "count": 1094,
      "max": [
        0.9990358352661133,
        0.9963309168815613,
        0.9919934868812561,
        1.0
      ],
      "min": [
        -0.9978164434432983,
        -0.9964048862457275,
        -0.990199863910675,
        1.0
      ],
      "type": "VEC4"
    },
    {
      "bufferView": 1,
      "componentType": 5126,
      "count": 1094,
      "max": [
        0.9911810159683228,
        0.9971619844436646
      ],
      "min": [
        0.00010699999984353781,
        0.0039059999398887157
      ],
      "type": "VEC2"
    },
    {
      "bufferView": 0,
      "componentType": 5125,
      "count": 2508,
      "type": "SCALAR"
    }
  ],
  "asset": {
    "extras": {
      "author": "BozhidarKN (https://sketchfab.com/bojidarkn)",
      "license": "CC-BY-4.0 (http://creativecommons.org/licenses/by/4.0/)",
      "source": "https://sketchfab.com/3d-models/low-poly-tree-scan-ae5aaa5915334edcab690fd6e8b64880",
      "title": "Low poly tree scan"
    },
    "generator": "Sketchfab-12.65.0",
    "version": "2.0"
  },
  "bufferViews": [
    {
      "buffer": 0,
      "byteLength": 10032,
      "name": "floatBufferViews",
      "target": 34963
    },
    {
      "buffer": 0,
      "byteLength": 8752,
      "byteOffset": 10032,
      "byteStride": 8,
      "name": "floatBufferViews",
      "target": 34962
    },
    {
      "buffer": 0,
      "byteLength": 26256,
      "byteOffset": 18784,
      "byteStride": 12,
      "name": "floatBufferViews",
      "target": 34962
    },
    {
      "buffer": 0,
      "byteLength": 17504,
      "byteOffset": 45040,
      "byteStride": 16,
      "name": "floatBufferViews",
      "target": 34962
    }
  ],
  "buffers": [
    {
      "byteLength": 62544,
      "uri": "scene.bin"
    }
  ],
  "images": [
    {
      "uri": "textures/fallen_tree_final_baseColor.jpeg"
    },
    {
      "uri": "textures/fallen_tree_final_metallicRoughness.png"
    },
    {
      "uri": "textures/fallen_tree_final_normal.png"
    }
  ],
  "materials": [
    {
      "doubleSided": true,
      "name": "fallen_tree_final",
      "normalTexture": {
        "index": 2
      },
      "occlusionTexture": {
        "index": 1
      },
      "pbrMetallicRoughness": {
        "baseColorTexture": {
          "index": 0
        },
        "metallicFactor": 0.0,
        "metallicRoughnessTexture": {
          "index": 1
        }
      }
    }
  ],
  "meshes": [
    {
      "name": "Object_0",
      "primitives": [
        {
          "attributes": {
            "NORMAL": 1,
            "POSITION": 0,
            "TANGENT": 2,
            "TEXCOORD_0": 3
          },
          "indices": 4,
          "material": 0,
          "mode": 4
        }
      ]
    }
  ],
  "nodes": [
    {
      "children": [
        1
      ],
      "matrix": [
        0.09357520937919617,
        -0.0009044737671504145,
        0.9956117868423462,
        0.0,
        -0.9097763299942017,
        0.4061184525489807,
        0.0858766809105874,
        0.0,
        -0.40441399812698364,
        -0.9138199687004089,
        0.03717974945902804,
        0.0,
        -7.9500322341918945,
        3.3547456264495827,
        9.447587013244629,
        1.0
      ],
      "name": "Sketchfab_model"
    },
    {
      "children": [
        2
      ],
      "name": "fallen_tree_final.obj.cleaner.materialmerger.gles"
    },
    {
      "mesh": 0,
      "name": "Object_2"
    }
  ],
  "samplers": [
    {
      "magFilter": 9729,
      "minFilter": 9987,
      "wrapS": 10497,
      "wrapT": 10497
    }
  ],
  "scene": 0,
  "scenes": [
    {
      "name": "Sketchfab_Scene",
      "nodes": [
        0
      ]
    }
  ],
  "textures": [
    {
      "sampler": 0,
      "source": 0
    },
    {
      "sampler": 0,
      "source": 1
    },
    {
      "sampler": 0,
      "source": 2
    }
  ]
}
