{
  "accessors": [
    {
      "bufferView": 2,
      "componentType": 5126,
      "count": 65532,
      "max": [
        0.49999868869781494,
        0.5003114938735962,
        0.07450658082962036
      ],
      "min": [
        -0.5000013113021851,
        -0.4996885061264038,
        -0.15068942308425903
      ],
      "type": "VEC3"
    },
    {
      "bufferView": 2,
      "byteOffset": 786384,
      "componentType": 5126,
      "count": 65532,
      "max": [
        0.9894260168075562,
        0.9812572002410889,
        -0.11588064581155777
      ],
      "min": [
        -0.9836075901985168,
        -0.9869710206985474,
        -0.9999998807907104
      ],
      "type": "VEC3"
    },
    {
      "bufferView": 3,
      "componentType": 5126,
      "count": 65532,
      "max": [
        1.0,
        0.34660521149635315,
        0.9932120442390442,
        1.0
      ],
      "min": [
        0.11631785333156586,
        -0.3039906919002533,
        -0.9836371541023254,
        1.0
      ],
      "type": "VEC4"
    },
    {
      "bufferView": 1,
      "componentType": 5126,
      "count": 65532,
      "max": [
        1.0,
        1.0
      ],
      "min": [
        0.0,
        0.0
      ],
      "type": "VEC2"
    },
    {
      "bufferView": 1,
      "byteOffset": 524256,
      "componentType": 5126,
      "count": 65532,
      "max": [
        1.0,
        1.0
      ],
      "min": [
        0.0,
        0.0
      ],
      "type": "VEC2"
    },
    {
      "bufferView": 1,
      "byteOffset": 1048512,
      "componentType": 5126,
      "count": 65532,
      "max": [
        1.0,
        1.0
      ],
      "min": [
        0.0,
        0.0
      ],
      "type": "VEC2"
    },
    {
      "bufferView": 1,
      "byteOffset": 1572768,
      "componentType": 5126,
      "count": 65532,
      "max": [
        1.0,
        1.0
      ],
      "min": [
        0.0,
        0.0
      ],
      "type": "VEC2"
    },
    {
      "bufferView": 0,
      "componentType": 5125,
      "count": 320172,
      "type": "SCALAR"
    },
    {
      "bufferView": 2,
      "byteOffset": 1572768,
      "componentType": 5126,
      "count": 65532,
      "max": [
        0.49999868869781494,
        0.5003114938735962,
        0.07234058529138565
      ],
      "min": [
        -0.49804532527923584,
        -0.12395447492599487,
        -0.16878440976142883
      ],
      "type": "VEC3"
    },
    {
      "bufferView": 2,
      "byteOffset": 2359152,
      "componentType": 5126,
      "count": 65532,
      "max": [
        0.9843189120292664,
        0.9722475409507751,
        -0.11688904464244843
      ],
      "min": [
        -0.9800934195518494,
        -0.9839126467704773,
        -0.9999978542327881
      ],
      "type": "VEC3"
    },
    {
      "bufferView": 3,
      "byteOffset": 1048512,
      "componentType": 5126,
      "count": 65532,
      "max": [
        1.0,
        0.2985941469669342,
        0.9919126629829407,
        1.0
      ],
      "min": [
        0.1269230842590332,
        -0.38351327180862427,
        -0.9824469089508057,
        1.0
      ],
      "type": "VEC4"
    },
    {
      "bufferView": 1,
      "byteOffset": 2097024,
      "componentType": 5126,
      "count": 65532,
      "max": [
        1.0,
        0.6242660284042358
      ],
      "min": [
        0.0019570000004023314,
        0.0
      ],
      "type": "VEC2"
    },
    {
      "bufferView": 1,
      "byteOffset": 2621280,
      "componentType": 5126,
      "count": 65532,
      "max": [
        1.0,
        0.6242660284042358
      ],
      "min": [
        0.0019570000004023314,
        0.0
      ],
      "type": "VEC2"
    },
    {
      "bufferView": 1,
      "byteOffset": 3145536,
      "componentType": 5126,
      "count": 65532,
      "max": [
        1.0,
        0.6242660284042358
      ],
      "min": [
        0.0019570000004023314,
        0.0
      ],
      "type": "VEC2"
    },
    {
      "bufferView": 1,
      "byteOffset": 3669792,
      "componentType": 5126,
      "count": 65532,
      "max": [
        1.0,
        0.6242660284042358
      ],
      "min": [
        0.0019570000004023314,
        0.0
      ],
      "type": "VEC2"
    },
    {
      "bufferView": 0,
      "byteOffset": 1280688,
      "componentType": 5125,
      "count": 328428,
      "type": "SCALAR"
    },
    {
      "bufferView": 2,
      "byteOffset": 3145536,
      "componentType": 5126,
      "count": 65532,
      "max": [
        0.49999868869781494,
        0.5003114938735962,
        0.06098458543419838
      ],
      "min": [
        -0.49608832597732544,
        0.15784651041030884,
        -0.16561540961265564
      ],
      "type": "VEC3"
    },
    {
      "bufferView": 2,
      "byteOffset": 3931920,
      "componentType": 5126,
      "count": 65532,
      "max": [
        0.9770869016647339,
        0.9751873016357422,
        -0.15207722783088684
      ],
      "min": [
        -0.9800934195518494,
        -0.9800816774368286,
        -0.9999997615814209
      ],
      "type": "VEC3"
    },
    {
      "bufferView": 3,
      "byteOffset": 2097024,
      "componentType": 5126,
      "count": 65532,
      "max": [
        1.0,
        0.35925525426864624,
        0.9816597104072571,
        1.0
      ],
      "min": [
        0.18283039331436157,
        -0.2755267918109894,
        -0.9831445217132568,
        1.0
      ],
      "type": "VEC4"
    },
    {
      "bufferView": 1,
      "byteOffset": 4194048,
      "componentType": 5126,
      "count": 65532,
      "max": [
        1.0,
        0.34246599674224854
      ],
      "min": [
        0.003914000000804663,
        0.0
      ],
      "type": "VEC2"
    },
    {
      "bufferView": 1,
      "byteOffset": 4718304,
      "componentType": 5126,
      "count": 65532,
      "max": [
        1.0,
        0.34246599674224854
      ],
      "min": [
        0.003914000000804663,
        0.0
      ],
      "type": "VEC2"
    },
    {
      "bufferView": 1,
      "byteOffset": 5242560,
      "componentType": 5126,
      "count": 65532,
      "max": [
        1.0,
        0.34246599674224854
      ],
      "min": [
        0.003914000000804663,
        0.0
      ],
      "type": "VEC2"
    },
    {
      "bufferView": 1,
      "byteOffset": 5766816,
      "componentType": 5126,
      "count": 65532,
      "max": [
        1.0,
        0.34246599674224854
      ],
      "min": [
        0.003914000000804663,
        0.0
      ],
      "type": "VEC2"
    },
    {
      "bufferView": 0,
      "byteOffset": 2594400,
      "componentType": 5125,
      "count": 341469,
      "type": "SCALAR"
    },
    {
      "bufferView": 2,
      "byteOffset": 4718304,
      "componentType": 5126,
      "count": 65532,
      "max": [
        0.49999868869781494,
        0.3417994976043701,
        0.07451458275318146
      ],
      "min": [
        -0.49804532527923584,
        -0.30986452102661133,
        -0.15232142806053162
      ],
      "type": "VEC3"
    },
    {
      "bufferView": 2,
      "byteOffset": 5504688,
      "componentType": 5126,
      "count": 65532,
      "max": [
        0.9835860133171082,
        0.9751873016357422,
        -0.14429689943790436
      ],
      "min": [
        -0.9809768795967102,
        -0.9679554104804993,
        -0.9999998807907104
      ],
      "type": "VEC3"
    },
    {
      "bufferView": 3,
      "byteOffset": 3145536,
      "componentType": 5126,
      "count": 65532,
      "max": [
        1.0,
        0.3562258183956146,
        0.9840137362480164,
        1.0
      ],
      "min": [
        0.17267073690891266,
        -0.3176952004432678,
        -0.9849796891212463,
        1.0
      ],
      "type": "VEC4"
    },
    {
      "bufferView": 1,
      "byteOffset": 6291072,
      "componentType": 5126,
      "count": 65532,
      "max": [
        1.0,
        0.8101760149002075
      ],
      "min": [
        0.0019570000004023314,
        0.15851299464702606
      ],
      "type": "VEC2"
    },
    {
      "bufferView": 1,
      "byteOffset": 6815328,
      "componentType": 5126,
      "count": 65532,
      "max": [
        1.0,
        0.8101760149002075
      ],
      "min": [
        0.0019570000004023314,
        0.15851299464702606
      ],
      "type": "VEC2"
    },
    {
      "bufferView": 1,
      "byteOffset": 7339584,
      "componentType": 5126,
      "count": 65532,
      "max": [
        1.0,
        0.8101760149002075
      ],
      "min": [
        0.0019570000004023314,
        0.15851299464702606
      ],
      "type": "VEC2"
    },
    {
      "bufferView": 1,
      "byteOffset": 7863840,
      "componentType": 5126,
      "count": 65532,
      "max": [
        1.0,
        0.8101760149002075
      ],
      "min": [
        0.0019570000004023314,
        0.15851299464702606
      ],
      "type": "VEC2"
    },
    {
      "bufferView": 0,
      "byteOffset": 3960276,
      "componentType": 5125,
      "count": 345900,
      "type": "SCALAR"
    },
    {
      "bufferView": 2,
      "byteOffset": 6291072,
      "componentType": 5126,
      "count": 47522,
      "max": [
        0.49999868869781494,
        -0.1983184814453125,
        0.07450458407402039
      ],
      "min": [
        -0.49804532527923584,
        -0.495774507522583,
        -0.1477724015712738
      ],
      "type": "VEC3"
    },
    {
      "bufferView": 2,
      "byteOffset": 6861336,
      "componentType": 5126,
      "count": 47522,
      "max": [
        0.9795041680335999,
        0.9853001236915588,
        -0.11435432732105255
      ],
      "min": [
        -0.9855647683143616,
        -0.9719960689544678,
        -0.9999994039535522
      ],
      "type": "VEC3"
    },
    {
      "bufferView": 3,
      "byteOffset": 4194048,
      "componentType": 5126,
      "count": 47522,
      "max": [
        1.0,
        0.3618288040161133,
        0.9856109619140625,
        1.0
      ],
      "min": [
        0.1689654141664505,
        -0.3116964101791382,
        -0.985621988773346,
        1.0
      ],
      "type": "VEC4"
    },
    {
      "bufferView": 1,
      "byteOffset": 8388096,
      "componentType": 5126,
      "count": 47522,
      "max": [
        1.0,
        0.9960860013961792
      ],
      "min": [
        0.0019570000004023314,
        0.6986299753189087
      ],
      "type": "VEC2"
    },
    {
      "bufferView": 1,
      "byteOffset": 8768272,
      "componentType": 5126,
      "count": 47522,
      "max": [
        1.0,
        0.9960860013961792
      ],
      "min": [
        0.0019570000004023314,
        0.6986299753189087
      ],
      "type": "VEC2"
    },
    {
      "bufferView": 1,
      "byteOffset": 9148448,
      "componentType": 5126,
      "count": 47522,
      "max": [
        1.0,
        0.9960860013961792
      ],
      "min": [
        0.0019570000004023314,
        0.6986299753189087
      ],
      "type": "VEC2"
    },
    {
      "bufferView": 1,
      "byteOffset": 9528624,
      "componentType": 5126,
      "count": 47522,
      "max": [
        1.0,
        0.9960860013961792
      ],
      "min": [
        0.0019570000004023314,
        0.6986299753189087
      ],
      "type": "VEC2"
    },
    {
      "bufferView": 0,
      "byteOffset": 5343876,
      "componentType": 5125,
      "count": 230757,
      "type": "SCALAR"
    }
  ],
  "asset": {
    "extras": {
      "author": "Nicholas-3D (https://sketchfab.com/Nicholas01)",
      "license": "SKETCHFAB Standard (https://sketchfab.com/licenses)",
      "source": "https://sketchfab.com/3d-models/valley-mountain-landscape-b54cb3a478dc483a870847aa58daf136",
      "title": "Valley Mountain Landscape"
    },
    "generator": "Sketchfab-13.42.0",
    "version": "2.0"
  },
  "bufferViews": [
    {
      "buffer": 0,
      "byteLength": 6266904,
      "name": "floatBufferViews",
      "target": 34963
    },
    {
      "buffer": 0,
      "byteLength": 9908800,
      "byteOffset": 6266904,
      "byteStride": 8,
      "name": "floatBufferViews",
      "target": 34962
    },
    {
      "buffer": 0,
      "byteLength": 7431600,
      "byteOffset": 16175704,
      "byteStride": 12,
      "name": "floatBufferViews",
      "target": 34962
    },
    {
      "buffer": 0,
      "byteLength": 4954400,
      "byteOffset": 23607304,
      "byteStride": 16,
      "name": "floatBufferViews",
      "target": 34962
    }
  ],
  "buffers": [
    {
      "byteLength": 28561704,
      "uri": "scene.bin"
    }
  ],
  "images": [
    {
      "uri": "textures/Default_OBJ.002_baseColor.png"
    },
    {
      "uri": "textures/Default_OBJ.002_metallicRoughness.png"
    },
    {
      "uri": "textures/Default_OBJ.002_normal.png"
    }
  ],
  "materials": [
    {
      "doubleSided": true,
      "name": "Default_OBJ.002",
      "normalTexture": {
        "index": 2,
        "texCoord": 2
      },
      "pbrMetallicRoughness": {
        "baseColorTexture": {
          "index": 0
        },
        "metallicFactor": 0.0,
        "metallicRoughnessTexture": {
          "index": 1,
          "texCoord": 1
        }
      }
    }
  ],
  "meshes": [
    {
      "name": "Object_0",
      "primitives": [
        {
          "attributes": {
            "NORMAL": 1,
            "POSITION": 0,
            "TANGENT": 2,
            "TEXCOORD_0": 3,
            "TEXCOORD_1": 4,
            "TEXCOORD_2": 5,
            "TEXCOORD_3": 6
          },
          "indices": 7,
          "material": 0,
          "mode": 4
        }
      ]
    },
    {
      "name": "Object_1",
      "primitives": [
        {
          "attributes": {
            "NORMAL": 9,
            "POSITION": 8,
            "TANGENT": 10,
            "TEXCOORD_0": 11,
            "TEXCOORD_1": 12,
            "TEXCOORD_2": 13,
            "TEXCOORD_3": 14
          },
          "indices": 15,
          "material": 0,
          "mode": 4
        }
      ]
    },
    {
      "name": "Object_2",
      "primitives": [
        {
          "attributes": {
            "NORMAL": 17,
            "POSITION": 16,
            "TANGENT": 18,
            "TEXCOORD_0": 19,
            "TEXCOORD_1": 20,
            "TEXCOORD_2": 21,
            "TEXCOORD_3": 22
          },
          "indices": 23,
          "material": 0,
          "mode": 4
        }
      ]
    },
    {
      "name": "Object_3",
      "primitives": [
        {
          "attributes": {
            "NORMAL": 25,
            "POSITION": 24,
            "TANGENT": 26,
            "TEXCOORD_0": 27,
            "TEXCOORD_1": 28,
            "TEXCOORD_2": 29,
            "TEXCOORD_3": 30
          },
          "indices": 31,
          "material": 0,
          "mode": 4
        }
      ]
    },
    {
      "name": "Object_4",
      "primitives": [
        {
          "attributes": {
            "NORMAL": 33,
            "POSITION": 32,
            "TANGENT": 34,
            "TEXCOORD_0": 35,
            "TEXCOORD_1": 36,
            "TEXCOORD_2": 37,
            "TEXCOORD_3": 38
          },
          "indices": 39,
          "material": 0,
          "mode": 4
        }
      ]
    }
  ],
  "nodes": [
    {
      "children": [
        1
      ],
      "matrix": [
        1.0,
        0.0,
        0.0,
        0.0,
        0.0,
        2.220446049250313e-16,
        -1.0,
        0.0,
        0.0,
        1.0,
        2.220446049250313e-16,
        0.0,
        0.0,
        0.0,
        0.0,
        1.0
      ],
      "name": "Sketchfab_model"
    },
    {
      "children": [
        2
      ],
      "name": "root"
    },
    {
      "children": [
        3
      ],
      "matrix": [
        1.0,
        0.0,
        0.0,
        0.0,
        0.0,
        2.220446049250313e-16,
        1.0,
        0.0,
        0.0,
        -1.0,
        2.220446049250313e-16,
        0.0,
        0.0,
        0.0,
        0.0,
        1.0
      ],
      "name": "GLTF_SceneRootNode"
    },
    {
      "children": [
        4,
        5,
        6,
        7,
        8
      ],
      "matrix": [
        8.0,
        0.0,
        0.0,
        0.0,
        0.0,
        -1.348699175451884e-06,
        7.999999999999886,
        0.0,
        0.0,
        -7.999999999999886,
        -1.348699175451884e-06,
        0.0,
        0.0,
        0.6000000238418579,
        0.0,
        1.0
      ],
      "name": "Vally Landscape_Mesh_0"
    },
    {
      "mesh": 0,
      "name": "Object_4"
    },
    {
      "mesh": 1,
      "name": "Object_5"
    },
    {
      "mesh": 2,
      "name": "Object_6"
    },
    {
      "mesh": 3,
      "name": "Object_7"
    },
    {
      "mesh": 4,
      "name": "Object_8"
    }
  ],
  "samplers": [
    {
      "magFilter": 9729,
      "minFilter": 9987,
      "wrapS": 10497,
      "wrapT": 10497
    }
  ],
  "scene": 0,
  "scenes": [
    {
      "name": "Sketchfab_Scene",
      "nodes": [
        0
      ]
    }
  ],
  "textures": [
    {
      "sampler": 0,
      "source": 0
    },
    {
      "sampler": 0,
      "source": 1
    },
    {
      "sampler": 0,
      "source": 2
    }
  ]
}
