{
  "accessors": [
    {
      "bufferView": 2,
      "componentType": 5126,
      "count": 845,
      "max": [
        2.501168966293335,
        3.174669027328491,
        1.880046010017395
      ],
      "min": [
        -3.175348997116089,
        -2.572314977645874,
        -1.4449950456619263
      ],
      "type": "VEC3"
    },
    {
      "bufferView": 2,
      "byteOffset": 10140,
      "componentType": 5126,
      "count": 845,
      "max": [
        0.9979858994483948,
        0.9965733289718628,
        0.9995411038398743
      ],
      "min": [
        -0.9976969957351685,
        -0.9911078810691833,
        -0.9998471736907959
      ],
      "type": "VEC3"
    },
    {
      "bufferView": 3,
      "componentType": 5126,
      "count": 845,
      "max": [
        0.9736852645874023,
        0.9802316427230835,
        0.9875391721725464,
        1.0
      ],
      "min": [
        -0.9562472701072693,
        -0.673920750617981,
        -0.9867144823074341,
        1.0
      ],
      "type": "VEC4"
    },
    {
      "bufferView": 1,
      "componentType": 5126,
      "count": 845,
      "max": [
        0.9704830050468445,
        0.9260936975479126
      ],
      "min": [
        0.04319905862212181,
        0.03140527009963989
      ],
      "type": "VEC2"
    },
    {
      "bufferView": 0,
      "componentType": 5125,
      "count": 4464,
      "type": "SCALAR"
    }
  ],
  "asset": {
    "extras": {
      "author": "Rispat Momit (https://sketchfab.com/rispatmomit)",
      "license": "CC-BY-4.0 (http://creativecommons.org/licenses/by/4.0/)",
      "source": "https://sketchfab.com/3d-models/low-poly-rock-a76fdb5ce2494a07ad3d0f5d3274042f",
      "title": "Low Poly Rock"
    },
    "generator": "Sketchfab-12.65.0",
    "version": "2.0"
  },
  "bufferViews": [
    {
      "buffer": 0,
      "byteLength": 17856,
      "name": "floatBufferViews",
      "target": 34963
    },
    {
      "buffer": 0,
      "byteLength": 6760,
      "byteOffset": 17856,
      "byteStride": 8,
      "name": "floatBufferViews",
      "target": 34962
    },
    {
      "buffer": 0,
      "byteLength": 20280,
      "byteOffset": 24616,
      "byteStride": 12,
      "name": "floatBufferViews",
      "target": 34962
    },
    {
      "buffer": 0,
      "byteLength": 13520,
      "byteOffset": 44896,
      "byteStride": 16,
      "name": "floatBufferViews",
      "target": 34962
    }
  ],
  "buffers": [
    {
      "byteLength": 58416,
      "uri": "scene.bin"
    }
  ],
  "images": [
    {
      "uri": "textures/Scene_-_Root_baseColor.png"
    },
    {
      "uri": "textures/Scene_-_Root_metallicRoughness.png"
    },
    {
      "uri": "textures/Scene_-_Root_normal.png"
    }
  ],
  "materials": [
    {
      "doubleSided": true,
      "name": "Scene_-_Root",
      "normalTexture": {
        "index": 2
      },
      "occlusionTexture": {
        "index": 1,
        "strength": 0.6785442073170732
      },
      "pbrMetallicRoughness": {
        "baseColorFactor": [
          0.5687881097560976,
          0.5687881097560976,
          0.5687881097560976,
          1.0
        ],
        "baseColorTexture": {
          "index": 0
        },
        "metallicFactor": 0.0626905487804878,
        "metallicRoughnessTexture": {
          "index": 1
        }
      }
    }
  ],
  "meshes": [
    {
      "name": "Object_0",
      "primitives": [
        {
          "attributes": {
            "NORMAL": 1,
            "POSITION": 0,
            "TANGENT": 2,
            "TEXCOORD_0": 3
          },
          "indices": 4,
          "material": 0,
          "mode": 4
        }
      ]
    }
  ],
  "nodes": [
    {
      "children": [
        1
      ],
      "matrix": [
        0.9999892711639404,
        -0.0046266657300293446,
        -1.0273261641445474e-18,
        0.0,
        0.0,
        2.220446049250313e-16,
        -1.0,
        0.0,
        0.0046266657300293446,
        0.9999892711639404,
        2.2204222264486716e-16,
        0.0,
        -0.0010100104846060276,
        -0.0015572856646031141,
        -3.457868801522133e-19,
        1.0
      ],
      "name": "Sketchfab_model"
    },
    {
      "children": [
        2
      ],
      "name": "Collada visual scene group"
    },
    {
      "children": [
        3
      ],
      "name": "Icosphere_001"
    },
    {
      "mesh": 0,
      "name": "Object_3"
    }
  ],
  "samplers": [
    {
      "magFilter": 9729,
      "minFilter": 9987,
      "wrapS": 10497,
      "wrapT": 10497
    }
  ],
  "scene": 0,
  "scenes": [
    {
      "name": "Sketchfab_Scene",
      "nodes": [
        0
      ]
    }
  ],
  "textures": [
    {
      "sampler": 0,
      "source": 0
    },
    {
      "sampler": 0,
      "source": 1
    },
    {
      "sampler": 0,
      "source": 2
    }
  ]
}
