{
  "accessors": [
    {
      "bufferView": 2,
      "componentType": 5126,
      "count": 906,
      "max": [
        112.31260681152344,
        87.3814697265625,
        111.09529113769531
      ],
      "min": [
        -109.66228485107422,
        -2.6362175941467285,
        -110.08790588378906
      ],
      "type": "VEC3"
    },
    {
      "bufferView": 2,
      "byteOffset": 10872,
      "componentType": 5126,
      "count": 906,
      "max": [
        0.9414481520652771,
        0.89805233478546143,
        0.9589531421661377
      ],
      "min": [
        -0.94982391595840454,
        0.14809362590312958,
        -0.97790813446044922
      ],
      "type": "VEC3"
    },
    {
      "bufferView": 1,
      "componentType": 5126,
      "count": 906,
      "max": [
        1.0045106410980225,
        0.96756500005722046
      ],
      "min": [
        0.010704696178436279,
        0.000919342041015625
      ],
      "type": "VEC2"
    },
    {
      "bufferView": 1,
      "byteOffset": 7248,
      "componentType": 5126,
      "count": 906,
      "max": [
        1.0045106410980225,
        0.96756500005722046
      ],
      "min": [
        0.010704696178436279,
        0.000919342041015625
      ],
      "type": "VEC2"
    },
    {
      "bufferView": 0,
      "componentType": 5125,
      "count": 1890,
      "max": [
        905
      ],
      "min": [
        0
      ],
      "type": "SCALAR"
    }
  ],
  "asset": {
    "extras": {
      "author": "Talaei (https://sketchfab.com/Talaei)",
      "license": "CC-BY-4.0 (http://creativecommons.org/licenses/by/4.0/)",
      "source": "https://sketchfab.com/3d-models/low-poly-grass-3ab12df56ac04d63a096562ce3fc0763",
      "title": "Low-Poly Grass"
    },
    "generator": "Sketchfab-9.50.0",
    "version": "2.0"
  },
  "bufferViews": [
    {
      "buffer": 0,
      "byteLength": 7560,
      "byteOffset": 0,
      "name": "floatBufferViews",
      "target": 34963
    },
    {
      "buffer": 0,
      "byteLength": 14496,
      "byteOffset": 7560,
      "byteStride": 8,
      "name": "floatBufferViews",
      "target": 34962
    },
    {
      "buffer": 0,
      "byteLength": 21744,
      "byteOffset": 22056,
      "byteStride": 12,
      "name": "floatBufferViews",
      "target": 34962
    }
  ],
  "buffers": [
    {
      "byteLength": 43800,
      "uri": "scene.bin"
    }
  ],
  "images": [
    {
      "uri": "textures/Grass_Mat_baseColor.png"
    }
  ],
  "materials": [
    {
      "alphaMode": "BLEND",
      "doubleSided": true,
      "emissiveFactor": [
        0,
        0,
        0
      ],
      "name": "Grass_Mat",
      "pbrMetallicRoughness": {
        "baseColorFactor": [
          1,
          1,
          1,
          1
        ],
        "baseColorTexture": {
          "index": 0,
          "texCoord": 0
        },
        "metallicFactor": 0,
        "roughnessFactor": 0.59999999999999998
      }
    }
  ],
  "meshes": [
    {
      "name": "LowPoly_Grass_Grass_Mat_0",
      "primitives": [
        {
          "attributes": {
            "NORMAL": 1,
            "POSITION": 0,
            "TEXCOORD_0": 2,
            "TEXCOORD_1": 3
          },
          "indices": 4,
          "material": 0,
          "mode": 4
        }
      ]
    }
  ],
  "nodes": [
    {
      "children": [
        1
      ],
      "name": "RootNode (gltf orientation matrix)",
      "rotation": [
        -0.70710678118654746,
        -0,
        -0,
        0.70710678118654757
      ]
    },
    {
      "children": [
        2
      ],
      "matrix": [
        0.0044531160965561867,
        0,
        0,
        0,
        0,
        0.0044531160965561867,
        0,
        0,
        0,
        0,
        0.0044531160965561867,
        0,
        0,
        0,
        0,
        1
      ],
      "name": "RootNode (model correction matrix)"
    },
    {
      "children": [
        3
      ],
      "matrix": [
        1,
        0,
        0,
        0,
        0,
        0,
        1,
        0,
        0,
        -1,
        0,
        0,
        0,
        0,
        0,
        1
      ],
      "name": "LowPoly Grass.fbx"
    },
    {
      "children": [
        4
      ],
      "name": "RootNode"
    },
    {
      "children": [
        5
      ],
      "name": "LowPoly_Grass"
    },
    {
      "mesh": 0,
      "name": "LowPoly_Grass_Grass_Mat_0"
    }
  ],
  "samplers": [
    {
      "magFilter": 9729,
      "minFilter": 9987,
      "wrapS": 10497,
      "wrapT": 10497
    }
  ],
  "scene": 0,
  "scenes": [
    {
      "name": "OSG_Scene",
      "nodes": [
        0
      ]
    }
  ],
  "textures": [
    {
      "sampler": 0,
      "source": 0
    }
  ]
}

