{
  "accessors": [
    {
      "bufferView": 2,
      "componentType": 5126,
      "count": 830,
      "max": [
        3.8435392379760742,
        4.5898122787475586,
        6.7432212829589844
      ],
      "min": [
        -3.8641977310180664,
        -4.5898122787475586,
        -0.16693973541259766
      ],
      "type": "VEC3"
    },
    {
      "bufferView": 2,
      "byteOffset": 9960,
      "componentType": 5126,
      "count": 830,
      "max": [
        1,
        1,
        1
      ],
      "min": [
        -1,
        -1,
        -1
      ],
      "type": "VEC3"
    },
    {
      "bufferView": 3,
      "componentType": 5126,
      "count": 830,
      "max": [
        1,
        1,
        1,
        1
      ],
      "min": [
        -1,
        -1,
        -1,
        1
      ],
      "type": "VEC4"
    },
    {
      "bufferView": 1,
      "componentType": 5126,
      "count": 830,
      "max": [
        1.3193173408508301,
        0.99556100368499756
      ],
      "min": [
        0.00029905291739851236,
        0.0032951643224805593
      ],
      "type": "VEC2"
    },
    {
      "bufferView": 1,
      "byteOffset": 6640,
      "componentType": 5126,
      "count": 830,
      "max": [
        1.3193173408508301,
        0.99556100368499756
      ],
      "min": [
        0.00029905291739851236,
        0.0032951643224805593
      ],
      "type": "VEC2"
    },
    {
      "bufferView": 1,
      "byteOffset": 13280,
      "componentType": 5126,
      "count": 830,
      "max": [
        1.3193173408508301,
        0.99556100368499756
      ],
      "min": [
        0.00029905291739851236,
        0.0032951643224805593
      ],
      "type": "VEC2"
    },
    {
      "bufferView": 0,
      "componentType": 5125,
      "count": 1662,
      "max": [
        829
      ],
      "min": [
        0
      ],
      "type": "SCALAR"
    },
    {
      "bufferView": 2,
      "byteOffset": 19920,
      "componentType": 5126,
      "count": 24,
      "max": [
        6.1413488388061523,
        6.1413488388061523,
        0
      ],
      "min": [
        -6.1413488388061523,
        -6.1413488388061523,
        -0.14936652779579163
      ],
      "type": "VEC3"
    },
    {
      "bufferView": 2,
      "byteOffset": 20208,
      "componentType": 5126,
      "count": 24,
      "max": [
        1,
        1,
        1
      ],
      "min": [
        -1,
        -1,
        -1
      ],
      "type": "VEC3"
    },
    {
      "bufferView": 3,
      "byteOffset": 13280,
      "componentType": 5126,
      "count": 24,
      "max": [
        8.153991075232625e-06,
        0,
        1,
        1
      ],
      "min": [
        -0.012158064171671867,
        -1,
        -1,
        -1
      ],
      "type": "VEC4"
    },
    {
      "bufferView": 1,
      "byteOffset": 19920,
      "componentType": 5126,
      "count": 24,
      "max": [
        0.9653705358505249,
        0.94289994239807129
      ],
      "min": [
        0.041785202920436859,
        0.019314542412757874
      ],
      "type": "VEC2"
    },
    {
      "bufferView": 1,
      "byteOffset": 20112,
      "componentType": 5126,
      "count": 24,
      "max": [
        0.9653705358505249,
        0.94289994239807129
      ],
      "min": [
        0.041785202920436859,
        0.019314542412757874
      ],
      "type": "VEC2"
    },
    {
      "bufferView": 1,
      "byteOffset": 20304,
      "componentType": 5126,
      "count": 24,
      "max": [
        0.9653705358505249,
        0.94289994239807129
      ],
      "min": [
        0.041785202920436859,
        0.019314542412757874
      ],
      "type": "VEC2"
    },
    {
      "bufferView": 0,
      "byteOffset": 6648,
      "componentType": 5125,
      "count": 36,
      "max": [
        23
      ],
      "min": [
        0
      ],
      "type": "SCALAR"
    },
    {
      "bufferView": 4,
      "componentType": 5126,
      "count": 767,
      "max": [
        15
      ],
      "min": [
        0
      ],
      "type": "SCALAR"
    },
    {
      "bufferView": 5,
      "componentType": 5126,
      "count": 767,
      "max": [
        0.49991479516029358,
        0.70710563659667969,
        0.70710569620132446,
        0.70710486173629761
      ],
      "min": [
        -0.70710492134094238,
        -0.49745744466781616,
        -0.49745747447013855,
        -0.49991476535797119
      ],
      "type": "VEC4"
    }
  ],
  "animations": [
    {
      "channels": [
        {
          "sampler": 0,
          "target": {
            "node": 5,
            "path": "rotation"
          }
        }
      ],
      "name": "Cube.002|Cube.002Action.001",
      "samplers": [
        {
          "input": 14,
          "interpolation": "LINEAR",
          "output": 15
        }
      ]
    }
  ],
  "asset": {
    "extras": {
      "author": "Ahmad Azizi (https://sketchfab.com/azizi16)",
      "license": "CC-BY-4.0 (http://creativecommons.org/licenses/by/4.0/)",
      "source": "https://sketchfab.com/models/5e7b91c4ba1e444f9480e7d97c6b6ac1",
      "title": "Concrete Hut"
    },
    "generator": "Sketchfab-3.53.2",
    "version": "2.0"
  },
  "bufferViews": [
    {
      "buffer": 0,
      "byteLength": 6792,
      "byteOffset": 0,
      "name": "floatBufferViews",
      "target": 34963
    },
    {
      "buffer": 0,
      "byteLength": 20496,
      "byteOffset": 6792,
      "byteStride": 8,
      "name": "floatBufferViews",
      "target": 34962
    },
    {
      "buffer": 0,
      "byteLength": 20496,
      "byteOffset": 27288,
      "byteStride": 12,
      "name": "floatBufferViews",
      "target": 34962
    },
    {
      "buffer": 0,
      "byteLength": 13664,
      "byteOffset": 47784,
      "byteStride": 16,
      "name": "floatBufferViews",
      "target": 34962
    },
    {
      "buffer": 0,
      "byteLength": 3068,
      "byteOffset": 61448,
      "name": "floatBufferViews"
    },
    {
      "buffer": 0,
      "byteLength": 12272,
      "byteOffset": 64516,
      "byteStride": 16,
      "name": "floatBufferViews"
    }
  ],
  "buffers": [
    {
      "byteLength": 76788,
      "uri": "scene.bin"
    }
  ],
  "images": [
    {
      "uri": "textures/main_metallicRoughness.png"
    },
    {
      "uri": "textures/main_normal.png"
    },
    {
      "uri": "textures/main_baseColor.png"
    },
    {
      "uri": "textures/ground_metallicRoughness.png"
    },
    {
      "uri": "textures/ground_normal.png"
    },
    {
      "uri": "textures/ground_baseColor.jpeg"
    }
  ],
  "materials": [
    {
      "doubleSided": true,
      "emissiveFactor": [
        0,
        0,
        0
      ],
      "name": "main",
      "normalTexture": {
        "index": 1,
        "scale": 1,
        "texCoord": 0
      },
      "occlusionTexture": {
        "index": 0,
        "strength": 1,
        "texCoord": 0
      },
      "pbrMetallicRoughness": {
        "baseColorFactor": [
          1,
          1,
          1,
          1
        ],
        "baseColorTexture": {
          "index": 2,
          "texCoord": 0
        },
        "metallicFactor": 1,
        "metallicRoughnessTexture": {
          "index": 0,
          "texCoord": 0
        },
        "roughnessFactor": 1
      }
    },
    {
      "doubleSided": true,
      "emissiveFactor": [
        0,
        0,
        0
      ],
      "name": "ground",
      "normalTexture": {
        "index": 4,
        "scale": 1,
        "texCoord": 0
      },
      "occlusionTexture": {
        "index": 3,
        "strength": 1,
        "texCoord": 0
      },
      "pbrMetallicRoughness": {
        "baseColorFactor": [
          1,
          1,
          1,
          1
        ],
        "baseColorTexture": {
          "index": 5,
          "texCoord": 0
        },
        "metallicFactor": 0,
        "metallicRoughnessTexture": {
          "index": 3,
          "texCoord": 0
        },
        "roughnessFactor": 1
      }
    }
  ],
  "meshes": [
    {
      "name": "Cube.002_main_0",
      "primitives": [
        {
          "attributes": {
            "NORMAL": 1,
            "POSITION": 0,
            "TANGENT": 2,
            "TEXCOORD_0": 3,
            "TEXCOORD_1": 4,
            "TEXCOORD_2": 5
          },
          "indices": 6,
          "material": 0,
          "mode": 4
        }
      ]
    },
    {
      "name": "Cube.002_ground_0",
      "primitives": [
        {
          "attributes": {
            "NORMAL": 8,
            "POSITION": 7,
            "TANGENT": 9,
            "TEXCOORD_0": 10,
            "TEXCOORD_1": 11,
            "TEXCOORD_2": 12
          },
          "indices": 13,
          "material": 1,
          "mode": 4
        }
      ]
    }
  ],
  "nodes": [
    {
      "children": [
        1
      ],
      "name": "RootNode (gltf orientation matrix)",
      "rotation": [
        -0.70710678118654746,
        -0,
        -0,
        0.70710678118654757
      ]
    },
    {
      "children": [
        2
      ],
      "name": "RootNode (model correction matrix)"
    },
    {
      "children": [
        3
      ],
      "matrix": [
        1,
        0,
        0,
        0,
        0,
        0,
        1,
        0,
        0,
        -1,
        0,
        0,
        0,
        0,
        0,
        1
      ],
      "name": "5848fc004e5b4556aa02ef9fa0c64840.fbx"
    },
    {
      "children": [
        4
      ],
      "name": ""
    },
    {
      "children": [
        5
      ],
      "name": "RootNode"
    },
    {
      "children": [
        6,
        7
      ],
      "name": "Cube.002",
      "rotation": [
        -0.70012080669403076,
        0.099150769412517548,
        0.099150776863098145,
        0.70012080669403076
      ],
      "scale": [
        100,
        100,
        100
      ]
    },
    {
      "mesh": 0,
      "name": "Cube.002_main_0"
    },
    {
      "mesh": 1,
      "name": "Cube.002_ground_0"
    }
  ],
  "samplers": [
    {
      "magFilter": 9729,
      "minFilter": 9987,
      "wrapS": 10497,
      "wrapT": 10497
    }
  ],
  "scene": 0,
  "scenes": [
    {
      "name": "OSG_Scene",
      "nodes": [
        0
      ]
    }
  ],
  "textures": [
    {
      "sampler": 0,
      "source": 0
    },
    {
      "sampler": 0,
      "source": 1
    },
    {
      "sampler": 0,
      "source": 2
    },
    {
      "sampler": 0,
      "source": 3
    },
    {
      "sampler": 0,
      "source": 4
    },
    {
      "sampler": 0,
      "source": 5
    }
  ]
}

