{
	"asset":{
		"generator":"Khronos glTF Blender I/O v4.0.44",
		"version":"2.0"
	},
	"scene":0,
	"scenes":[
		{
			"name":"Scene",
			"nodes":[
				6,
				10
			]
		}
	],
	"nodes":[
		{
			"mesh":0,
			"name":"0",
			"scale":[
				11.477375030517578,
				11.477376937866211,
				11.477376937866211
			],
			"translation":[
				0.02279376983642578,
				0.04819846153259277,
				10.623567581176758
			]
		},
		{
			"children":[
				0
			],
			"name":"Leafs",
			"rotation":[
				-0.70710688829422,
				0,
				0,
				0.7071066498756409
			],
			"scale":[
				45.43827438354492,
				45.438255310058594,
				45.438255310058594
			],
			"translation":[
				-3.0517578125e-05,
				0,
				-7.62939453125e-06
			]
		},
		{
			"name":"pot",
			"rotation":[
				-0.7071069478988647,
				0,
				0,
				0.7071065902709961
			],
			"scale":[
				63.2199821472168,
				63.219974517822266,
				63.219974517822266
			],
			"translation":[
				-3.0517578125e-05,
				0,
				-7.62939453125e-06
			]
		},
		{
			"children":[
				1,
				2
			],
			"name":"RootNode"
		},
		{
			"children":[
				3
			],
			"name":"Object_2",
			"translation":[
				-3.0517578125e-05,
				0,
				0
			]
		},
		{
			"children":[
				4
			],
			"name":"c02695b0fd714f83afa5bab2faadfd1f.fbx",
			"rotation":[
				0.70710688829422,
				0,
				0,
				0.7071066498756409
			],
			"translation":[
				-3.0517578125e-05,
				7.62939453125e-06,
				0
			]
		},
		{
			"children":[
				5
			],
			"name":"Sketchfab_model",
			"rotation":[
				-0.7071069478988647,
				0,
				0,
				0.7071066498756409
			],
			"scale":[
				0.0006423136219382286,
				0.0006423135637305677,
				0.0006423135637305677
			],
			"translation":[
				-0.21854852139949799,
				0,
				0.05042266845703125
			]
		},
		{
			"name":"Tree_0"
		},
		{
			"children":[
				7
			],
			"name":"RootNode.001",
			"translation":[
				0,
				0,
				0.0009765625
			]
		},
		{
			"children":[
				8
			],
			"name":"fern.fbx",
			"rotation":[
				0.70710688829422,
				0,
				0,
				0.7071066498756409
			],
			"scale":[
				0.009999999776482582,
				0.009999999776482582,
				0.009999999776482582
			]
		},
		{
			"children":[
				9
			],
			"name":"Sketchfab_model.001",
			"rotation":[
				-0.70710688829422,
				0,
				0,
				0.7071066498756409
			],
			"scale":[
				0.08030851185321808,
				0.08030849695205688,
				0.08030849695205688
			],
			"translation":[
				-0.21854852139949799,
				0,
				10.326370239257812
			]
		}
	],
	"animations":[
		{
			"channels":[
				{
					"sampler":0,
					"target":{
						"node":0,
						"path":"weights"
					}
				}
			],
			"name":"Scene",
			"samplers":[
				{
					"input":10,
					"interpolation":"LINEAR",
					"output":11
				}
			]
		}
	],
	"materials":[
		{
			"alphaCutoff":0.5,
			"alphaMode":"MASK",
			"doubleSided":true,
			"name":"Material.001",
			"pbrMetallicRoughness":{
				"baseColorTexture":{
					"index":0
				},
				"metallicFactor":0
			}
		}
	],
	"meshes":[
		{
			"extras":{
				"targetNames":[
					"target_0",
					"target_1",
					"target_2"
				]
			},
			"name":"0",
			"primitives":[
				{
					"attributes":{
						"POSITION":0,
						"NORMAL":1,
						"TEXCOORD_0":2
					},
					"indices":3,
					"material":0,
					"targets":[
						{
							"POSITION":4,
							"NORMAL":5
						},
						{
							"POSITION":6,
							"NORMAL":7
						},
						{
							"POSITION":8,
							"NORMAL":9
						}
					]
				}
			],
			"weights":[
				0.48186370730400085,
				0.45222172141075134,
				0.40306219458580017
			]
		}
	],
	"textures":[
		{
			"sampler":0,
			"source":0
		}
	],
	"images":[
		{
			"mimeType":"image/png",
			"name":"PBR_Plant_leafs_diffuse-darker-min",
			"uri":"PBR_Plant_leafs_diffuse-darker-min.png"
		}
	],
	"accessors":[
		{
			"bufferView":0,
			"componentType":5126,
			"count":1272,
			"max":[
				2.8311805725097656,
				2.5542502403259277,
				2.1896183490753174
			],
			"min":[
				-2.484849452972412,
				-2.785900592803955,
				-1.5696420669555664
			],
			"type":"VEC3"
		},
		{
			"bufferView":1,
			"componentType":5126,
			"count":1272,
			"type":"VEC3"
		},
		{
			"bufferView":2,
			"componentType":5126,
			"count":1272,
			"type":"VEC2"
		},
		{
			"bufferView":3,
			"componentType":5123,
			"count":7200,
			"type":"SCALAR"
		},
		{
			"componentType":5126,
			"count":1272,
			"max":[
				0.4355545938014984,
				0.20172107219696045,
				0.24991106986999512
			],
			"min":[
				-0.14582645893096924,
				-0.18216419219970703,
				-0.18069934844970703
			],
			"sparse":{
				"count":149,
				"indices":{
					"bufferView":4,
					"componentType":5123
				},
				"values":{
					"bufferView":5
				}
			},
			"type":"VEC3"
		},
		{
			"bufferView":6,
			"componentType":5126,
			"count":1272,
			"type":"VEC3"
		},
		{
			"componentType":5126,
			"count":1272,
			"max":[
				0.1176987886428833,
				0.2217731475830078,
				0.2515747547149658
			],
			"min":[
				-0.1757817268371582,
				-0.19645363092422485,
				-0.022078275680541992
			],
			"sparse":{
				"count":136,
				"indices":{
					"bufferView":7,
					"componentType":5123
				},
				"values":{
					"bufferView":8
				}
			},
			"type":"VEC3"
		},
		{
			"bufferView":9,
			"componentType":5126,
			"count":1272,
			"type":"VEC3"
		},
		{
			"componentType":5126,
			"count":1272,
			"max":[
				0.1297513246536255,
				0.1720268726348877,
				0.29345107078552246
			],
			"min":[
				-0.6278243064880371,
				-0.37242332100868225,
				-0.09401655197143555
			],
			"sparse":{
				"count":144,
				"indices":{
					"bufferView":10,
					"componentType":5123
				},
				"values":{
					"bufferView":11
				}
			},
			"type":"VEC3"
		},
		{
			"bufferView":12,
			"componentType":5126,
			"count":1272,
			"type":"VEC3"
		},
		{
			"bufferView":13,
			"componentType":5126,
			"count":360,
			"max":[
				15
			],
			"min":[
				0.041666666666666664
			],
			"type":"SCALAR"
		},
		{
			"bufferView":14,
			"componentType":5126,
			"count":1080,
			"type":"SCALAR"
		}
	],
	"bufferViews":[
		{
			"buffer":0,
			"byteLength":15264,
			"byteOffset":0,
			"target":34962
		},
		{
			"buffer":0,
			"byteLength":15264,
			"byteOffset":15264,
			"target":34962
		},
		{
			"buffer":0,
			"byteLength":10176,
			"byteOffset":30528,
			"target":34962
		},
		{
			"buffer":0,
			"byteLength":14400,
			"byteOffset":40704,
			"target":34963
		},
		{
			"buffer":0,
			"byteLength":298,
			"byteOffset":55104
		},
		{
			"buffer":0,
			"byteLength":1788,
			"byteOffset":55404
		},
		{
			"buffer":0,
			"byteLength":15264,
			"byteOffset":57192,
			"target":34962
		},
		{
			"buffer":0,
			"byteLength":272,
			"byteOffset":72456
		},
		{
			"buffer":0,
			"byteLength":1632,
			"byteOffset":72728
		},
		{
			"buffer":0,
			"byteLength":15264,
			"byteOffset":74360,
			"target":34962
		},
		{
			"buffer":0,
			"byteLength":288,
			"byteOffset":89624
		},
		{
			"buffer":0,
			"byteLength":1728,
			"byteOffset":89912
		},
		{
			"buffer":0,
			"byteLength":15264,
			"byteOffset":91640,
			"target":34962
		},
		{
			"buffer":0,
			"byteLength":1440,
			"byteOffset":106904
		},
		{
			"buffer":0,
			"byteLength":4320,
			"byteOffset":108344
		}
	],
	"samplers":[
		{
			"magFilter":9729,
			"minFilter":9987
		}
	],
	"buffers":[
		{
			"byteLength":112664,
			"uri":"untitled.bin"
		}
	]
}
