{
  "accessors": [
    {
      "bufferView": 2,
      "componentType": 5126,
      "count": 5517,
      "max": [
        0.51005101203918457,
        0.51913458108901978,
        2.0098638534545898
      ],
      "min": [
        -0.50826066732406616,
        -0.49847880005836487,
        -0.072937794029712677
      ],
      "type": "VEC3"
    },
    {
      "bufferView": 2,
      "byteOffset": 66204,
      "componentType": 5126,
      "count": 5517,
      "max": [
        0.9999396800994873,
        0.99998307228088379,
        0.99999821186065674
      ],
      "min": [
        -0.99997252225875854,
        -0.99998694658279419,
        -0.99994069337844849
      ],
      "type": "VEC3"
    },
    {
      "bufferView": 3,
      "componentType": 5126,
      "count": 5517,
      "max": [
        0.99999845027923584,
        0.99996280670166016,
        0.9931674599647522,
        1
      ],
      "min": [
        -0.99995583295822144,
        -0.99999481439590454,
        -0.90403944253921509,
        1
      ],
      "type": "VEC4"
    },
    {
      "bufferView": 1,
      "componentType": 5126,
      "count": 5517,
      "max": [
        0.99986374378204346,
        0.98590898513793945
      ],
      "min": [
        0.00013631582260131836,
        0.0024827122688293457
      ],
      "type": "VEC2"
    },
    {
      "bufferView": 0,
      "componentType": 5125,
      "count": 31554,
      "max": [
        5516
      ],
      "min": [
        0
      ],
      "type": "SCALAR"
    }
  ],
  "asset": {
    "extras": {
      "author": "plasmaernst (https://sketchfab.com/plasmaernst)",
      "license": "CC-BY-4.0 (http://creativecommons.org/licenses/by/4.0/)",
      "source": "https://sketchfab.com/3d-models/rock02-b87a85f760d94295a592f5ae4f8f9f96",
      "title": "Rock02"
    },
    "generator": "Sketchfab-10.3.0",
    "version": "2.0"
  },
  "bufferViews": [
    {
      "buffer": 0,
      "byteLength": 126216,
      "byteOffset": 0,
      "name": "floatBufferViews",
      "target": 34963
    },
    {
      "buffer": 0,
      "byteLength": 44136,
      "byteOffset": 126216,
      "byteStride": 8,
      "name": "floatBufferViews",
      "target": 34962
    },
    {
      "buffer": 0,
      "byteLength": 132408,
      "byteOffset": 170352,
      "byteStride": 12,
      "name": "floatBufferViews",
      "target": 34962
    },
    {
      "buffer": 0,
      "byteLength": 88272,
      "byteOffset": 302760,
      "byteStride": 16,
      "name": "floatBufferViews",
      "target": 34962
    }
  ],
  "buffers": [
    {
      "byteLength": 391032,
      "uri": "scene.bin"
    }
  ],
  "images": [
    {
      "uri": "textures/M_Rock02_baseColor.png"
    },
    {
      "uri": "textures/M_Rock02_metallicRoughness.png"
    },
    {
      "uri": "textures/M_Rock02_normal.png"
    }
  ],
  "materials": [
    {
      "doubleSided": true,
      "emissiveFactor": [
        0,
        0,
        0
      ],
      "name": "M_Rock02",
      "normalTexture": {
        "index": 2,
        "scale": 1,
        "texCoord": 0
      },
      "occlusionTexture": {
        "index": 1,
        "strength": 1,
        "texCoord": 0
      },
      "pbrMetallicRoughness": {
        "baseColorFactor": [
          1,
          1,
          1,
          1
        ],
        "baseColorTexture": {
          "index": 0,
          "texCoord": 0
        },
        "metallicFactor": 0,
        "metallicRoughnessTexture": {
          "index": 1,
          "texCoord": 0
        },
        "roughnessFactor": 1
      }
    }
  ],
  "meshes": [
    {
      "name": "SM_Rock02_M_Rock02_0",
      "primitives": [
        {
          "attributes": {
            "NORMAL": 1,
            "POSITION": 0,
            "TANGENT": 2,
            "TEXCOORD_0": 3
          },
          "indices": 4,
          "material": 0,
          "mode": 4
        }
      ]
    }
  ],
  "nodes": [
    {
      "children": [
        1
      ],
      "name": "RootNode (gltf orientation matrix)",
      "rotation": [
        -0.70710678118654746,
        -0,
        -0,
        0.70710678118654757
      ]
    },
    {
      "children": [
        2
      ],
      "name": "RootNode (model correction matrix)"
    },
    {
      "children": [
        3
      ],
      "matrix": [
        1,
        0,
        0,
        0,
        0,
        0,
        1,
        0,
        0,
        -1,
        0,
        0,
        0,
        0,
        0,
        1
      ],
      "name": "cc3ffd1d187e47d49af42eabada61a14.fbx"
    },
    {
      "children": [
        4
      ],
      "name": "RootNode"
    },
    {
      "children": [
        5
      ],
      "matrix": [
        100,
        0,
        0,
        0,
        0,
        -1.6292067939183141e-05,
        -99.999999999998678,
        0,
        0,
        99.999999999998678,
        -1.6292067939183141e-05,
        0,
        0,
        0,
        0,
        1
      ],
      "name": "SM_Rock02"
    },
    {
      "mesh": 0,
      "name": "SM_Rock02_M_Rock02_0"
    }
  ],
  "samplers": [
    {
      "magFilter": 9729,
      "minFilter": 9987,
      "wrapS": 10497,
      "wrapT": 10497
    }
  ],
  "scene": 0,
  "scenes": [
    {
      "name": "OSG_Scene",
      "nodes": [
        0
      ]
    }
  ],
  "textures": [
    {
      "sampler": 0,
      "source": 0
    },
    {
      "sampler": 0,
      "source": 1
    },
    {
      "sampler": 0,
      "source": 2
    }
  ]
}

