{
  "accessors": [
    {
      "bufferView": 2,
      "componentType": 5126,
      "count": 13509,
      "max": [
        10.0,
        1.725000023841858,
        1.5
      ],
      "min": [
        -10.0,
        -1.9053699970245361,
        -2.0315399169921875
      ],
      "type": "VEC3"
    },
    {
      "bufferView": 2,
      "byteOffset": 162108,
      "componentType": 5126,
      "count": 13509,
      "max": [
        1.0,
        1.0,
        1.0
      ],
      "min": [
        -1.0,
        -1.0,
        -1.0
      ],
      "type": "VEC3"
    },
    {
      "bufferView": 3,
      "componentType": 5126,
      "count": 13509,
      "max": [
        1.0,
        1.0,
        1.0,
        1.0
      ],
      "min": [
        -1.0,
        -1.0,
        -1.0,
        1.0
      ],
      "type": "VEC4"
    },
    {
      "bufferView": 1,
      "componentType": 5126,
      "count": 13509,
      "max": [
        1.0,
        1.0
      ],
      "min": [
        0.0,
        0.0
      ],
      "type": "VEC2"
    },
    {
      "bufferView": 0,
      "componentType": 5125,
      "count": 35763,
      "type": "SCALAR"
    },
    {
      "bufferView": 2,
      "byteOffset": 324216,
      "componentType": 5126,
      "count": 1290,
      "max": [
        10.0,
        1.600000023841858,
        1.4500000476837158
      ],
      "min": [
        -10.0,
        -1.8136999607086182,
        -1.9785900115966797
      ],
      "type": "VEC3"
    },
    {
      "bufferView": 2,
      "byteOffset": 339696,
      "componentType": 5126,
      "count": 1290,
      "max": [
        0.0,
        1.0,
        1.0
      ],
      "min": [
        0.0,
        -1.0,
        -1.0
      ],
      "type": "VEC3"
    },
    {
      "bufferView": 3,
      "byteOffset": 216144,
      "componentType": 5126,
      "count": 1290,
      "max": [
        1.0,
        1.0,
        0.857498049736023,
        1.0
      ],
      "min": [
        -1.0,
        -1.0,
        -0.9360847473144531,
        1.0
      ],
      "type": "VEC4"
    },
    {
      "bufferView": 1,
      "byteOffset": 108072,
      "componentType": 5126,
      "count": 1290,
      "max": [
        0.9964600205421448,
        1.0
      ],
      "min": [
        0.012649999931454659,
        0.0
      ],
      "type": "VEC2"
    },
    {
      "bufferView": 0,
      "byteOffset": 143052,
      "componentType": 5125,
      "count": 2220,
      "type": "SCALAR"
    },
    {
      "bufferView": 2,
      "byteOffset": 355176,
      "componentType": 5126,
      "count": 500,
      "max": [
        9.883350372314453,
        1.725000023841858,
        0.550000011920929
      ],
      "min": [
        -9.883350372314453,
        -1.6984800100326538,
        -1.5111900568008423
      ],
      "type": "VEC3"
    },
    {
      "bufferView": 2,
      "byteOffset": 361176,
      "componentType": 5126,
      "count": 500,
      "max": [
        -0.0,
        0.8574903011322021,
        1.0
      ],
      "min": [
        -0.0,
        -1.0,
        -0.0
      ],
      "type": "VEC3"
    },
    {
      "bufferView": 1,
      "byteOffset": 118392,
      "componentType": 5126,
      "count": 500,
      "max": [
        1.0,
        1.0
      ],
      "min": [
        0.0,
        0.0
      ],
      "type": "VEC2"
    },
    {
      "bufferView": 0,
      "byteOffset": 151932,
      "componentType": 5125,
      "count": 1200,
      "type": "SCALAR"
    },
    {
      "bufferView": 2,
      "byteOffset": 367176,
      "componentType": 5126,
      "count": 27980,
      "max": [
        9.92339038848877,
        1.2583800554275513,
        -0.9480299949645996
      ],
      "min": [
        -9.92339038848877,
        -1.8798600435256958,
        -2.0147299766540527
      ],
      "type": "VEC3"
    },
    {
      "bufferView": 2,
      "byteOffset": 702936,
      "componentType": 5126,
      "count": 27980,
      "max": [
        1.0,
        0.9913215637207031,
        0.9582567811012268
      ],
      "min": [
        -1.0,
        -0.9913228750228882,
        -0.9582532048225403
      ],
      "type": "VEC3"
    },
    {
      "bufferView": 1,
      "byteOffset": 122392,
      "componentType": 5126,
      "count": 27980,
      "max": [
        1.0,
        1.0
      ],
      "min": [
        0.0,
        0.0
      ],
      "type": "VEC2"
    },
    {
      "bufferView": 0,
      "byteOffset": 156732,
      "componentType": 5125,
      "count": 50400,
      "type": "SCALAR"
    },
    {
      "bufferView": 2,
      "byteOffset": 1038696,
      "componentType": 5126,
      "count": 18270,
      "max": [
        9.92119026184082,
        1.7079399824142456,
        1.470170021057129
      ],
      "min": [
        -9.903039932250977,
        -1.494230031967163,
        -0.7442499995231628
      ],
      "type": "VEC3"
    },
    {
      "bufferView": 2,
      "byteOffset": 1257936,
      "componentType": 5126,
      "count": 18270,
      "max": [
        1.0,
        0.9639230966567993,
        0.8493998646736145
      ],
      "min": [
        -1.0,
        -0.9639230966567993,
        -0.8493998646736145
      ],
      "type": "VEC3"
    },
    {
      "bufferView": 1,
      "byteOffset": 346232,
      "componentType": 5126,
      "count": 18270,
      "max": [
        1.0,
        1.0
      ],
      "min": [
        0.0,
        0.0
      ],
      "type": "VEC2"
    },
    {
      "bufferView": 0,
      "byteOffset": 358332,
      "componentType": 5125,
      "count": 32400,
      "type": "SCALAR"
    }
  ],
  "asset": {
    "extras": {
      "author": "dalien (https://sketchfab.com/Ebbombe)",
      "license": "SKETCHFAB Standard (https://sketchfab.com/licenses)",
      "source": "https://sketchfab.com/3d-models/sci-fi-spaceship-corridor-15e8037e99f24176b7a325cb115e5df0",
      "title": "Sci-fi Spaceship Corridor"
    },
    "generator": "Sketchfab-12.68.0",
    "version": "2.0"
  },
  "bufferViews": [
    {
      "buffer": 0,
      "byteLength": 487932,
      "name": "floatBufferViews",
      "target": 34963
    },
    {
      "buffer": 0,
      "byteLength": 492392,
      "byteOffset": 487932,
      "byteStride": 8,
      "name": "floatBufferViews",
      "target": 34962
    },
    {
      "buffer": 0,
      "byteLength": 1477176,
      "byteOffset": 980324,
      "byteStride": 12,
      "name": "floatBufferViews",
      "target": 34962
    },
    {
      "buffer": 0,
      "byteLength": 236784,
      "byteOffset": 2457500,
      "byteStride": 16,
      "name": "floatBufferViews",
      "target": 34962
    }
  ],
  "buffers": [
    {
      "byteLength": 2694284,
      "uri": "scene.bin"
    }
  ],
  "images": [
    {
      "uri": "textures/resto_baseColor.png"
    },
    {
      "uri": "textures/resto_metallicRoughness.png"
    },
    {
      "uri": "textures/resto_normal.png"
    },
    {
      "uri": "textures/luci_baseColor.png"
    },
    {
      "uri": "textures/luci_emissive.png"
    },
    {
      "uri": "textures/luci_normal.png"
    },
    {
      "uri": "textures/vetro_baseColor.png"
    },
    {
      "uri": "textures/vetro_metallicRoughness.png"
    },
    {
      "uri": "textures/tubone_baseColor.png"
    },
    {
      "uri": "textures/tubone_metallicRoughness.png"
    },
    {
      "uri": "textures/tubino_baseColor.png"
    },
    {
      "uri": "textures/tubino_metallicRoughness.png"
    }
  ],
  "materials": [
    {
      "doubleSided": true,
      "name": "resto",
      "normalTexture": {
        "index": 2
      },
      "pbrMetallicRoughness": {
        "baseColorFactor": [
          0.4407393293,
          0.4407393293,
          0.4407393293,
          1.0
        ],
        "baseColorTexture": {
          "index": 0
        },
        "metallicFactor": 0.6419588415,
        "metallicRoughnessTexture": {
          "index": 1
        },
        "roughnessFactor": 0.0
      }
    },
    {
      "doubleSided": true,
      "emissiveFactor": [
        1.0,
        1.0,
        1.0
      ],
      "emissiveTexture": {
        "index": 4
      },
      "name": "luci",
      "normalTexture": {
        "index": 5
      },
      "pbrMetallicRoughness": {
        "baseColorTexture": {
          "index": 3
        },
        "metallicFactor": 0.0,
        "roughnessFactor": 0.6
      }
    },
    {
      "alphaMode": "BLEND",
      "doubleSided": true,
      "name": "vetro",
      "pbrMetallicRoughness": {
        "baseColorFactor": [
          1.0,
          1.0,
          1.0,
          0.5931783537
        ],
        "baseColorTexture": {
          "index": 6
        },
        "metallicFactor": 0.7029344512,
        "metallicRoughnessTexture": {
          "index": 7
        },
        "roughnessFactor": 0.0
      }
    },
    {
      "doubleSided": true,
      "name": "tubone",
      "pbrMetallicRoughness": {
        "baseColorTexture": {
          "index": 8
        },
        "metallicFactor": 0.8065929878,
        "metallicRoughnessTexture": {
          "index": 9
        },
        "roughnessFactor": 0.0
      }
    },
    {
      "doubleSided": true,
      "name": "tubino",
      "pbrMetallicRoughness": {
        "baseColorTexture": {
          "index": 10
        },
        "metallicFactor": 0.8004954268,
        "metallicRoughnessTexture": {
          "index": 11
        },
        "roughnessFactor": 0.0
      }
    }
  ],
  "meshes": [
    {
      "name": "modulo_0",
      "primitives": [
        {
          "attributes": {
            "NORMAL": 1,
            "POSITION": 0,
            "TANGENT": 2,
            "TEXCOORD_0": 3
          },
          "indices": 4,
          "material": 0,
          "mode": 4
        }
      ]
    },
    {
      "name": "modulo_1",
      "primitives": [
        {
          "attributes": {
            "NORMAL": 6,
            "POSITION": 5,
            "TANGENT": 7,
            "TEXCOORD_0": 8
          },
          "indices": 9,
          "material": 1,
          "mode": 4
        }
      ]
    },
    {
      "name": "modulo_2",
      "primitives": [
        {
          "attributes": {
            "NORMAL": 11,
            "POSITION": 10,
            "TEXCOORD_0": 12
          },
          "indices": 13,
          "material": 2,
          "mode": 4
        }
      ]
    },
    {
      "name": "modulo_3",
      "primitives": [
        {
          "attributes": {
            "NORMAL": 15,
            "POSITION": 14,
            "TEXCOORD_0": 16
          },
          "indices": 17,
          "material": 3,
          "mode": 4
        }
      ]
    },
    {
      "name": "modulo_4",
      "primitives": [
        {
          "attributes": {
            "NORMAL": 19,
            "POSITION": 18,
            "TEXCOORD_0": 20
          },
          "indices": 21,
          "material": 4,
          "mode": 4
        }
      ]
    }
  ],
  "nodes": [
    {
      "children": [
        1
      ],
      "matrix": [
        1.0,
        0.0,
        0.0,
        0.0,
        0.0,
        2.220446049250313e-16,
        -1.0,
        0.0,
        0.0,
        1.0,
        2.220446049250313e-16,
        0.0,
        0.0,
        0.0,
        0.0,
        1.0
      ],
      "name": "Sketchfab_model"
    },
    {
      "children": [
        2,
        8
      ],
      "name": "Root"
    },
    {
      "children": [
        3,
        4,
        5,
        6,
        7
      ],
      "matrix": [
        2.0,
        0.0,
        0.0,
        0.0,
        0.0,
        2.0,
        0.0,
        0.0,
        0.0,
        0.0,
        1.33333,
        0.0,
        0.0,
        0.0,
        0.0,
        1.0
      ],
      "name": "modulo"
    },
    {
      "mesh": 0,
      "name": "modulo_0"
    },
    {
      "mesh": 1,
      "name": "modulo_1"
    },
    {
      "mesh": 2,
      "name": "modulo_2"
    },
    {
      "mesh": 3,
      "name": "modulo_3"
    },
    {
      "mesh": 4,
      "name": "modulo_4"
    },
    {
      "children": [
        9
      ],
      "name": "Point"
    },
    {
      "name": "Point"
    }
  ],
  "samplers": [
    {
      "magFilter": 9729,
      "minFilter": 9987,
      "wrapS": 10497,
      "wrapT": 10497
    }
  ],
  "scene": 0,
  "scenes": [
    {
      "name": "Sketchfab_Scene",
      "nodes": [
        0
      ]
    }
  ],
  "textures": [
    {
      "sampler": 0,
      "source": 0
    },
    {
      "sampler": 0,
      "source": 1
    },
    {
      "sampler": 0,
      "source": 2
    },
    {
      "sampler": 0,
      "source": 3
    },
    {
      "sampler": 0,
      "source": 4
    },
    {
      "sampler": 0,
      "source": 5
    },
    {
      "sampler": 0,
      "source": 6
    },
    {
      "sampler": 0,
      "source": 7
    },
    {
      "sampler": 0,
      "source": 8
    },
    {
      "sampler": 0,
      "source": 9
    },
    {
      "sampler": 0,
      "source": 10
    },
    {
      "sampler": 0,
      "source": 11
    }
  ]
}
