{
  "accessors": [
    {
      "bufferView": 2,
      "componentType": 5126,
      "count": 4272,
      "max": [
        0.6235399842262268,
        0.06893999874591827,
        0.09286999702453613
      ],
      "min": [
        -0.5906400084495544,
        -0.07993999868631363,
        -0.09357000142335892
      ],
      "type": "VEC3"
    },
    {
      "bufferView": 2,
      "byteOffset": 51264,
      "componentType": 5126,
      "count": 4272,
      "max": [
        0.9994112253189087,
        0.9999382495880127,
        0.9999107122421265
      ],
      "min": [
        -0.9938158392906189,
        -0.9999530911445618,
        -0.9998208284378052
      ],
      "type": "VEC3"
    },
    {
      "bufferView": 1,
      "componentType": 5126,
      "count": 4272,
      "max": [
        0.9985399842262268,
        0.9985100030899048
      ],
      "min": [
        0.0014600000577047467,
        0.0014900000533089042
      ],
      "type": "VEC2"
    },
    {
      "bufferView": 0,
      "componentType": 5125,
      "count": 14997,
      "type": "SCALAR"
    }
  ],
  "asset": {
    "extras": {
      "author": "marijnwillemse (https://sketchfab.com/marijnwillemse)",
      "license": "CC-BY-4.0 (http://creativecommons.org/licenses/by/4.0/)",
      "source": "https://sketchfab.com/3d-models/dune-branch-a0da75f304a74797b7df074f8956abe3",
      "title": "Dune branch"
    },
    "generator": "Sketchfab-12.68.0",
    "version": "2.0"
  },
  "bufferViews": [
    {
      "buffer": 0,
      "byteLength": 59988,
      "name": "floatBufferViews",
      "target": 34963
    },
    {
      "buffer": 0,
      "byteLength": 34176,
      "byteOffset": 59988,
      "byteStride": 8,
      "name": "floatBufferViews",
      "target": 34962
    },
    {
      "buffer": 0,
      "byteLength": 102528,
      "byteOffset": 94164,
      "byteStride": 12,
      "name": "floatBufferViews",
      "target": 34962
    }
  ],
  "buffers": [
    {
      "byteLength": 196692,
      "uri": "scene.bin"
    }
  ],
  "images": [
    {
      "uri": "textures/Branch_material_baseColor.jpeg"
    }
  ],
  "materials": [
    {
      "doubleSided": true,
      "name": "Branch_material",
      "pbrMetallicRoughness": {
        "baseColorTexture": {
          "index": 0
        },
        "metallicFactor": 0.0,
        "roughnessFactor": 0.6
      }
    }
  ],
  "meshes": [
    {
      "name": "Branch_0",
      "primitives": [
        {
          "attributes": {
            "NORMAL": 1,
            "POSITION": 0,
            "TEXCOORD_0": 2
          },
          "indices": 3,
          "material": 0,
          "mode": 4
        }
      ]
    }
  ],
  "nodes": [
    {
      "children": [
        1
      ],
      "matrix": [
        20.0,
        0.0,
        0.0,
        0.0,
        0.0,
        4.440892098500626e-15,
        -20.0,
        0.0,
        0.0,
        20.0,
        4.440892098500626e-15,
        0.0,
        0.0,
        0.0,
        0.0,
        1.0
      ],
      "name": "Sketchfab_model"
    },
    {
      "children": [
        2
      ],
      "name": "Root"
    },
    {
      "children": [
        3
      ],
      "name": "Branch"
    },
    {
      "mesh": 0,
      "name": "Branch_0"
    }
  ],
  "samplers": [
    {
      "magFilter": 9729,
      "minFilter": 9987,
      "wrapS": 10497,
      "wrapT": 10497
    }
  ],
  "scene": 0,
  "scenes": [
    {
      "name": "Sketchfab_Scene",
      "nodes": [
        0
      ]
    }
  ],
  "textures": [
    {
      "sampler": 0,
      "source": 0
    }
  ]
}
