{
  "accessors": [
    {
      "bufferView": 2,
      "componentType": 5126,
      "count": 801,
      "max": [
        10.573800086975098,
        3.4254000186920166,
        -165.50799560546875
      ],
      "min": [
        5.382500171661377,
        -3.5536999702453613,
        -167.86099243164062
      ],
      "type": "VEC3"
    },
    {
      "bufferView": 2,
      "byteOffset": 9612,
      "componentType": 5126,
      "count": 801,
      "max": [
        0.99985527992248535,
        0.99780583381652832,
        1
      ],
      "min": [
        -0.76668006181716919,
        -0.99780595302581787,
        -1
      ],
      "type": "VEC3"
    },
    {
      "bufferView": 1,
      "componentType": 5126,
      "count": 801,
      "max": [
        1.0029000043869019,
        0.98580002784729004
      ],
      "min": [
        0.00419999985024333,
        0.0055999755859375
      ],
      "type": "VEC2"
    },
    {
      "bufferView": 0,
      "componentType": 5125,
      "count": 3966,
      "max": [
        800
      ],
      "min": [
        0
      ],
      "type": "SCALAR"
    },
    {
      "bufferView": 2,
      "byteOffset": 19224,
      "componentType": 5126,
      "count": 4220,
      "max": [
        12.598799705505371,
        8.6583995819091797,
        -133.53399658203125
      ],
      "min": [
        -13.095800399780273,
        -9.5326004028320312,
        -183.73800659179688
      ],
      "type": "VEC3"
    },
    {
      "bufferView": 2,
      "byteOffset": 69864,
      "componentType": 5126,
      "count": 4220,
      "max": [
        0.99995768070220947,
        0.99961215257644653,
        0.99986159801483154
      ],
      "min": [
        -0.99979430437088013,
        -0.99967408180236816,
        -0.99864983558654785
      ],
      "type": "VEC3"
    },
    {
      "bufferView": 1,
      "byteOffset": 6408,
      "componentType": 5126,
      "count": 4220,
      "max": [
        0.9682999849319458,
        0.97409999370574951
      ],
      "min": [
        0.032699998468160629,
        0.007499992847442627
      ],
      "type": "VEC2"
    },
    {
      "bufferView": 0,
      "byteOffset": 15864,
      "componentType": 5125,
      "count": 22011,
      "max": [
        4219
      ],
      "min": [
        0
      ],
      "type": "SCALAR"
    },
    {
      "bufferView": 2,
      "byteOffset": 120504,
      "componentType": 5126,
      "count": 7649,
      "max": [
        16.424699783325195,
        54.766399383544922,
        0.04010000079870224
      ],
      "min": [
        -13.62660026550293,
        -54.743400573730469,
        -165.04899597167969
      ],
      "type": "VEC3"
    },
    {
      "bufferView": 2,
      "byteOffset": 212292,
      "componentType": 5126,
      "count": 7649,
      "max": [
        0.99987620115280151,
        0.99998557567596436,
        0.99694985151290894
      ],
      "min": [
        -0.99995213747024536,
        -0.99998736381530762,
        -0.99317824840545654
      ],
      "type": "VEC3"
    },
    {
      "bufferView": 1,
      "byteOffset": 40168,
      "componentType": 5126,
      "count": 7649,
      "max": [
        0.99800002574920654,
        0.99559998512268066
      ],
      "min": [
        0.002199999988079071,
        0.0070000290870666504
      ],
      "type": "VEC2"
    },
    {
      "bufferView": 0,
      "byteOffset": 103908,
      "componentType": 5125,
      "count": 38958,
      "max": [
        7648
      ],
      "min": [
        0
      ],
      "type": "SCALAR"
    },
    {
      "bufferView": 2,
      "byteOffset": 304080,
      "componentType": 5126,
      "count": 152,
      "max": [
        16.204000473022461,
        0.97320002317428589,
        -140.66400146484375
      ],
      "min": [
        14.753199577331543,
        -0.9034000039100647,
        -143.48899841308594
      ],
      "type": "VEC3"
    },
    {
      "bufferView": 2,
      "byteOffset": 305904,
      "componentType": 5126,
      "count": 152,
      "max": [
        0.97638541460037231,
        0.99999988079071045,
        0.91900336742401123
      ],
      "min": [
        -0.97622847557067871,
        -1,
        -0.96120774745941162
      ],
      "type": "VEC3"
    },
    {
      "bufferView": 1,
      "byteOffset": 101360,
      "componentType": 5126,
      "count": 152,
      "max": [
        0.98930001258850098,
        0.41380000114440918
      ],
      "min": [
        0.93159997463226318,
        0.34960001707077026
      ],
      "type": "VEC2"
    },
    {
      "bufferView": 0,
      "byteOffset": 259740,
      "componentType": 5125,
      "count": 579,
      "max": [
        151
      ],
      "min": [
        0
      ],
      "type": "SCALAR"
    },
    {
      "bufferView": 2,
      "byteOffset": 307728,
      "componentType": 5126,
      "count": 370,
      "max": [
        10.892900466918945,
        3.3940000534057617,
        -160.46699523925781
      ],
      "min": [
        3.3031001091003418,
        -8.6478996276855469,
        -182.46400451660156
      ],
      "type": "VEC3"
    },
    {
      "bufferView": 2,
      "byteOffset": 312168,
      "componentType": 5126,
      "count": 370,
      "max": [
        0.98966050148010254,
        0.99580210447311401,
        0.98975342512130737
      ],
      "min": [
        -0.99933230876922607,
        -0.99587196111679077,
        -0.96076637506484985
      ],
      "type": "VEC3"
    },
    {
      "bufferView": 1,
      "byteOffset": 102576,
      "componentType": 5126,
      "count": 370,
      "max": [
        -0.27979999780654907,
        0.97659999132156372
      ],
      "min": [
        -3.4472999572753906,
        -0.011199951171875
      ],
      "type": "VEC2"
    },
    {
      "bufferView": 0,
      "byteOffset": 262056,
      "componentType": 5125,
      "count": 1476,
      "max": [
        369
      ],
      "min": [
        0
      ],
      "type": "SCALAR"
    },
    {
      "bufferView": 2,
      "byteOffset": 316608,
      "componentType": 5126,
      "count": 609,
      "max": [
        11.757100105285645,
        3.2111999988555908,
        -162.43400573730469
      ],
      "min": [
        5.3825998306274414,
        -8.3713998794555664,
        -182.39999389648438
      ],
      "type": "VEC3"
    },
    {
      "bufferView": 2,
      "byteOffset": 323916,
      "componentType": 5126,
      "count": 609,
      "max": [
        0.99377959966659546,
        0.99868041276931763,
        0.96398943662643433
      ],
      "min": [
        -0.99547296762466431,
        -0.98856335878372192,
        -0.97013866901397705
      ],
      "type": "VEC3"
    },
    {
      "bufferView": 1,
      "byteOffset": 105536,
      "componentType": 5126,
      "count": 609,
      "max": [
        -1.1806999444961548,
        0.96679997444152832
      ],
      "min": [
        -1.5370999574661255,
        0.001699984073638916
      ],
      "type": "VEC2"
    },
    {
      "bufferView": 0,
      "byteOffset": 267960,
      "componentType": 5125,
      "count": 3264,
      "max": [
        608
      ],
      "min": [
        0
      ],
      "type": "SCALAR"
    },
    {
      "bufferView": 2,
      "byteOffset": 331224,
      "componentType": 5126,
      "count": 363,
      "max": [
        11.39739990234375,
        2.9677999019622803,
        -162.18099975585938
      ],
      "min": [
        5.8790998458862305,
        -6.8875999450683594,
        -179.06900024414062
      ],
      "type": "VEC3"
    },
    {
      "bufferView": 2,
      "byteOffset": 335580,
      "componentType": 5126,
      "count": 363,
      "max": [
        0.99260234832763672,
        0.99163436889648438,
        0.99943339824676514
      ],
      "min": [
        -0.99150502681732178,
        -0.99810206890106201,
        -0.99777549505233765
      ],
      "type": "VEC3"
    },
    {
      "bufferView": 1,
      "byteOffset": 110408,
      "componentType": 5126,
      "count": 363,
      "max": [
        0.62209999561309814,
        0.98970001935958862
      ],
      "min": [
        -0.19979999959468842,
        0.015500009059906006
      ],
      "type": "VEC2"
    },
    {
      "bufferView": 0,
      "byteOffset": 281016,
      "componentType": 5125,
      "count": 1824,
      "max": [
        362
      ],
      "min": [
        0
      ],
      "type": "SCALAR"
    }
  ],
  "asset": {
    "extras": {
      "author": "FiftyFivePointFive (https://sketchfab.com/FiftyFivePointFive)",
      "license": "CC-BY-4.0 (http://creativecommons.org/licenses/by/4.0/)",
      "source": "https://sketchfab.com/3d-models/rogue-x-men-90s-72a930e9741d4367a5c879748cdbebd9",
      "title": "Rogue (X-Men, 90's)"
    },
    "generator": "Sketchfab-8.42.0",
    "version": "2.0"
  },
  "bufferViews": [
    {
      "buffer": 0,
      "byteLength": 288312,
      "byteOffset": 0,
      "name": "floatBufferViews",
      "target": 34963
    },
    {
      "buffer": 0,
      "byteLength": 113312,
      "byteOffset": 288312,
      "byteStride": 8,
      "name": "floatBufferViews",
      "target": 34962
    },
    {
      "buffer": 0,
      "byteLength": 339936,
      "byteOffset": 401624,
      "byteStride": 12,
      "name": "floatBufferViews",
      "target": 34962
    }
  ],
  "buffers": [
    {
      "byteLength": 741560,
      "uri": "scene.bin"
    }
  ],
  "images": [
    {
      "uri": "textures/Material2_baseColor.jpeg"
    },
    {
      "uri": "textures/Material1_baseColor.jpeg"
    }
  ],
  "materials": [
    {
      "doubleSided": true,
      "emissiveFactor": [
        0,
        0,
        0
      ],
      "name": "CHR_Rogue_Teeth_MATINST",
      "pbrMetallicRoughness": {
        "baseColorFactor": [
          0.58799999999999997,
          0.58799999999999997,
          0.58799999999999997,
          1
        ],
        "metallicFactor": 0,
        "roughnessFactor": 0.89459100000000003
      }
    },
    {
      "doubleSided": true,
      "emissiveFactor": [
        0,
        0,
        0
      ],
      "name": "Material2",
      "pbrMetallicRoughness": {
        "baseColorFactor": [
          1,
          1,
          1,
          1
        ],
        "baseColorTexture": {
          "index": 0,
          "texCoord": 0
        },
        "metallicFactor": 0,
        "roughnessFactor": 0.62435200000000002
      }
    },
    {
      "doubleSided": true,
      "emissiveFactor": [
        0,
        0,
        0
      ],
      "name": "Material1",
      "pbrMetallicRoughness": {
        "baseColorFactor": [
          1,
          1,
          1,
          1
        ],
        "baseColorTexture": {
          "index": 1,
          "texCoord": 0
        },
        "metallicFactor": 0,
        "roughnessFactor": 0.62435200000000002
      }
    },
    {
      "doubleSided": true,
      "emissiveFactor": [
        0,
        0,
        0
      ],
      "name": "material_2",
      "pbrMetallicRoughness": {
        "baseColorFactor": [
          0.58799999999999997,
          0.58799999999999997,
          0.58799999999999997,
          1
        ],
        "metallicFactor": 0,
        "roughnessFactor": 0.89459100000000003
      }
    },
    {
      "doubleSided": true,
      "emissiveFactor": [
        0,
        0,
        0
      ],
      "name": "material_3",
      "pbrMetallicRoughness": {
        "baseColorFactor": [
          0.58799999999999997,
          0.58799999999999997,
          0.58799999999999997,
          1
        ],
        "metallicFactor": 0,
        "roughnessFactor": 0.89459100000000003
      }
    },
    {
      "doubleSided": true,
      "emissiveFactor": [
        0,
        0,
        0
      ],
      "name": "CHR_BikiniGirl_Eyelashes_MAT",
      "pbrMetallicRoughness": {
        "baseColorFactor": [
          0.58799999999999997,
          0.58799999999999997,
          0.58799999999999997,
          1
        ],
        "metallicFactor": 0,
        "roughnessFactor": 0.89459100000000003
      }
    },
    {
      "doubleSided": true,
      "emissiveFactor": [
        0,
        0,
        0
      ],
      "name": "CHR_Rogue_Hair02_MATINST",
      "pbrMetallicRoughness": {
        "baseColorFactor": [
          0.58799999999999997,
          0.58799999999999997,
          0.58799999999999997,
          1
        ],
        "metallicFactor": 0,
        "roughnessFactor": 0.89459100000000003
      }
    }
  ],
  "meshes": [
    {
      "primitives": [
        {
          "attributes": {
            "NORMAL": 1,
            "POSITION": 0,
            "TEXCOORD_0": 2
          },
          "indices": 3,
          "material": 0,
          "mode": 4
        }
      ]
    },
    {
      "primitives": [
        {
          "attributes": {
            "NORMAL": 5,
            "POSITION": 4,
            "TEXCOORD_0": 6
          },
          "indices": 7,
          "material": 1,
          "mode": 4
        }
      ]
    },
    {
      "primitives": [
        {
          "attributes": {
            "NORMAL": 9,
            "POSITION": 8,
            "TEXCOORD_0": 10
          },
          "indices": 11,
          "material": 2,
          "mode": 4
        }
      ]
    },
    {
      "primitives": [
        {
          "attributes": {
            "NORMAL": 13,
            "POSITION": 12,
            "TEXCOORD_0": 14
          },
          "indices": 15,
          "material": 3,
          "mode": 4
        }
      ]
    },
    {
      "primitives": [
        {
          "attributes": {
            "NORMAL": 17,
            "POSITION": 16,
            "TEXCOORD_0": 18
          },
          "indices": 19,
          "material": 4,
          "mode": 4
        }
      ]
    },
    {
      "primitives": [
        {
          "attributes": {
            "NORMAL": 21,
            "POSITION": 20,
            "TEXCOORD_0": 22
          },
          "indices": 23,
          "material": 5,
          "mode": 4
        }
      ]
    },
    {
      "primitives": [
        {
          "attributes": {
            "NORMAL": 25,
            "POSITION": 24,
            "TEXCOORD_0": 26
          },
          "indices": 27,
          "material": 6,
          "mode": 4
        }
      ]
    }
  ],
  "nodes": [
    {
      "children": [
        1
      ],
      "name": "RootNode (gltf orientation matrix)",
      "rotation": [
        -0.70710678118654746,
        -0,
        -0,
        0.70710678118654757
      ]
    },
    {
      "children": [
        2
      ],
      "name": "RootNode (model correction matrix)"
    },
    {
      "children": [
        3
      ],
      "name": "root"
    },
    {
      "children": [
        4
      ],
      "matrix": [
        1,
        0,
        0,
        0,
        0,
        2.2204460492503131e-16,
        1,
        0,
        0,
        -1,
        2.2204460492503131e-16,
        0,
        0,
        0,
        0,
        1
      ],
      "name": "GLTF_SceneRootNode"
    },
    {
      "children": [
        5,
        6,
        7,
        8,
        9,
        10,
        11
      ],
      "matrix": [
        0.019515864551067352,
        0,
        0,
        0,
        0,
        -3.2901288035318988e-09,
        0.019515864551067075,
        0,
        0,
        -0.019515864551067075,
        -3.2901288035318988e-09,
        0,
        0,
        0,
        0,
        1
      ],
      "name": "rogue 123.obj_2"
    },
    {
      "mesh": 0,
      "name": ""
    },
    {
      "mesh": 1,
      "name": ""
    },
    {
      "mesh": 2,
      "name": ""
    },
    {
      "mesh": 3,
      "name": ""
    },
    {
      "mesh": 4,
      "name": ""
    },
    {
      "mesh": 5,
      "name": ""
    },
    {
      "mesh": 6,
      "name": ""
    }
  ],
  "samplers": [
    {
      "magFilter": 9729,
      "minFilter": 9987,
      "wrapS": 10497,
      "wrapT": 10497
    }
  ],
  "scene": 0,
  "scenes": [
    {
      "name": "OSG_Scene",
      "nodes": [
        0
      ]
    }
  ],
  "textures": [
    {
      "sampler": 0,
      "source": 0
    },
    {
      "sampler": 0,
      "source": 1
    }
  ]
}

