{
  "accessors": [
    {
      "bufferView": 2,
      "componentType": 5126,
      "count": 18452,
      "max": [
        6.863679885864258,
        11.384323120117188,
        8.26392650604248
      ],
      "min": [
        -7.713749885559082,
        -9.921406745910645,
        -0.29497337341308594
      ],
      "type": "VEC3"
    },
    {
      "bufferView": 2,
      "byteOffset": 221424,
      "componentType": 5126,
      "count": 18452,
      "max": [
        0.9999145269393921,
        0.9995547533035278,
        0.9999970197677612
      ],
      "min": [
        -0.99994957447052,
        -0.9999572038650513,
        -0.9999918937683105
      ],
      "type": "VEC3"
    },
    {
      "bufferView": 3,
      "componentType": 5126,
      "count": 18452,
      "max": [
        0.9997466206550598,
        0.9999480247497559,
        0.9999954700469971,
        1.0
      ],
      "min": [
        -0.999458909034729,
        -0.9999983310699463,
        -0.9999974966049194,
        -1.0
      ],
      "type": "VEC4"
    },
    {
      "bufferView": 1,
      "componentType": 5126,
      "count": 18452,
      "max": [
        0.9999961853027344,
        1.0
      ],
      "min": [
        0.0,
        0.0
      ],
      "type": "VEC2"
    },
    {
      "bufferView": 1,
      "byteOffset": 147616,
      "componentType": 5126,
      "count": 18452,
      "max": [
        0.9999961853027344,
        1.0
      ],
      "min": [
        0.0,
        0.0
      ],
      "type": "VEC2"
    },
    {
      "bufferView": 1,
      "byteOffset": 295232,
      "componentType": 5126,
      "count": 18452,
      "max": [
        0.9999961853027344,
        1.0
      ],
      "min": [
        0.0,
        0.0
      ],
      "type": "VEC2"
    },
    {
      "bufferView": 0,
      "componentType": 5125,
      "count": 69024,
      "type": "SCALAR"
    }
  ],
  "asset": {
    "extras": {
      "author": "WireframeArt (https://sketchfab.com/WireframeArt)",
      "license": "SKETCHFAB Standard (https://sketchfab.com/licenses)",
      "source": "https://sketchfab.com/3d-models/desert-cliff-11-42363f6d8f1d4ddab69066064404d62e",
      "title": "Desert Cliff 11"
    },
    "generator": "Sketchfab-12.67.0",
    "version": "2.0"
  },
  "bufferViews": [
    {
      "buffer": 0,
      "byteLength": 276096,
      "name": "floatBufferViews",
      "target": 34963
    },
    {
      "buffer": 0,
      "byteLength": 442848,
      "byteOffset": 276096,
      "byteStride": 8,
      "name": "floatBufferViews",
      "target": 34962
    },
    {
      "buffer": 0,
      "byteLength": 442848,
      "byteOffset": 718944,
      "byteStride": 12,
      "name": "floatBufferViews",
      "target": 34962
    },
    {
      "buffer": 0,
      "byteLength": 295232,
      "byteOffset": 1161792,
      "byteStride": 16,
      "name": "floatBufferViews",
      "target": 34962
    }
  ],
  "buffers": [
    {
      "byteLength": 1457024,
      "uri": "scene.bin"
    }
  ],
  "images": [
    {
      "uri": "textures/P11DesertCliffM_baseColor.png"
    },
    {
      "uri": "textures/P11DesertCliffM_metallicRoughness.png"
    },
    {
      "uri": "textures/P11DesertCliffM_normal.png"
    }
  ],
  "materials": [
    {
      "name": "P11DesertCliffM",
      "normalTexture": {
        "index": 2
      },
      "occlusionTexture": {
        "index": 1
      },
      "pbrMetallicRoughness": {
        "baseColorTexture": {
          "index": 0
        },
        "metallicFactor": 0.0,
        "metallicRoughnessTexture": {
          "index": 1
        }
      }
    }
  ],
  "meshes": [
    {
      "name": "P11DesertCliff-High_P11DesertCliffM_0",
      "primitives": [
        {
          "attributes": {
            "NORMAL": 1,
            "POSITION": 0,
            "TANGENT": 2,
            "TEXCOORD_0": 3,
            "TEXCOORD_1": 4,
            "TEXCOORD_2": 5
          },
          "indices": 6,
          "material": 0,
          "mode": 4
        }
      ]
    }
  ],
  "nodes": [
    {
      "children": [
        1
      ],
      "matrix": [
        1.0,
        0.0,
        0.0,
        0.0,
        0.0,
        2.220446049250313e-16,
        -1.0,
        0.0,
        0.0,
        1.0,
        2.220446049250313e-16,
        0.0,
        0.0,
        0.0,
        0.0,
        1.0
      ],
      "name": "Sketchfab_model"
    },
    {
      "children": [
        2
      ],
      "matrix": [
        1.0,
        0.0,
        0.0,
        0.0,
        0.0,
        0.0,
        1.0,
        0.0,
        0.0,
        -1.0,
        0.0,
        0.0,
        0.0,
        0.0,
        0.0,
        1.0
      ],
      "name": "P11DesertCliff-High.fbx"
    },
    {
      "children": [
        3
      ],
      "name": "RootNode"
    },
    {
      "children": [
        4
      ],
      "matrix": [
        100.0,
        0.0,
        0.0,
        0.0,
        0.0,
        -1.629206793918314e-05,
        -99.99999999999868,
        0.0,
        0.0,
        99.99999999999868,
        -1.629206793918314e-05,
        0.0,
        0.0,
        0.0,
        0.0,
        1.0
      ],
      "name": "P11DesertCliff-High"
    },
    {
      "mesh": 0,
      "name": "P11DesertCliff-High_P11DesertCliffM_0"
    }
  ],
  "samplers": [
    {
      "magFilter": 9729,
      "minFilter": 9987,
      "wrapS": 10497,
      "wrapT": 10497
    }
  ],
  "scene": 0,
  "scenes": [
    {
      "name": "Sketchfab_Scene",
      "nodes": [
        0
      ]
    }
  ],
  "textures": [
    {
      "sampler": 0,
      "source": 0
    },
    {
      "sampler": 0,
      "source": 1
    },
    {
      "sampler": 0,
      "source": 2
    }
  ]
}
