{
  "accessors": [
    {
      "bufferView": 3,
      "componentType": 5126,
      "count": 7978,
      "max": [
        2.0789499282836914,
        7.432248592376709,
        1.4229800701141357
      ],
      "min": [
        -2.0789499282836914,
        -3.2312510013580322,
        -1.5000720024108887
      ],
      "type": "VEC3"
    },
    {
      "bufferView": 3,
      "byteOffset": 95736,
      "componentType": 5126,
      "count": 7978,
      "max": [
        0.9999942183494568,
        0.9999920725822449,
        0.9999991655349731
      ],
      "min": [
        -0.9999942183494568,
        -0.9978106021881104,
        -0.999992847442627
      ],
      "type": "VEC3"
    },
    {
      "bufferView": 4,
      "componentType": 5126,
      "count": 7978,
      "max": [
        0.9992608428001404,
        0.998933732509613,
        0.9997807145118713,
        1.0
      ],
      "min": [
        -1.0,
        -0.998933732509613,
        -0.9997802376747131,
        1.0
      ],
      "type": "VEC4"
    },
    {
      "bufferView": 2,
      "componentType": 5126,
      "count": 7978,
      "max": [
        0.9353299736976624,
        0.9986199736595154
      ],
      "min": [
        0.0003000000142492354,
        0.0031799999997019768
      ],
      "type": "VEC2"
    },
    {
      "bufferView": 1,
      "componentType": 5125,
      "count": 44304,
      "type": "SCALAR"
    },
    {
      "bufferView": 3,
      "byteOffset": 191472,
      "componentType": 5126,
      "count": 988,
      "max": [
        4.344475746154785,
        -19.384349822998047,
        -4.080236911773682
      ],
      "min": [
        -4.343391418457031,
        -33.100929260253906,
        -5.43858528137207
      ],
      "type": "VEC3"
    },
    {
      "bufferView": 3,
      "byteOffset": 203328,
      "componentType": 5126,
      "count": 988,
      "max": [
        0.986909031867981,
        0.9936147332191467,
        0.9729772210121155
      ],
      "min": [
        -0.986909031867981,
        -0.5858080983161926,
        -0.03264418989419937
      ],
      "type": "VEC3"
    },
    {
      "bufferView": 4,
      "byteOffset": 127648,
      "componentType": 5126,
      "count": 988,
      "max": [
        0.999270498752594,
        0.8102184534072876,
        0.43370720744132996,
        1.0
      ],
      "min": [
        -0.999270498752594,
        -0.8529514670372009,
        -0.4368457794189453,
        -1.0
      ],
      "type": "VEC4"
    },
    {
      "bufferView": 2,
      "byteOffset": 63824,
      "componentType": 5126,
      "count": 988,
      "max": [
        0.41231998801231384,
        0.31150999665260315
      ],
      "min": [
        0.248089998960495,
        0.1653199940919876
      ],
      "type": "VEC2"
    },
    {
      "bufferView": 1,
      "byteOffset": 177216,
      "componentType": 5125,
      "count": 3900,
      "type": "SCALAR"
    },
    {
      "bufferView": 3,
      "byteOffset": 215184,
      "componentType": 5126,
      "count": 1216,
      "max": [
        4.820775508880615,
        -21.806581497192383,
        -2.139033794403076
      ],
      "min": [
        -4.8205037117004395,
        -37.47103500366211,
        -3.720489025115967
      ],
      "type": "VEC3"
    },
    {
      "bufferView": 3,
      "byteOffset": 229776,
      "componentType": 5126,
      "count": 1216,
      "max": [
        0.9870274662971497,
        0.9998692870140076,
        -0.012302466668188572
      ],
      "min": [
        -0.9870249629020691,
        -0.5797547698020935,
        -0.9461385011672974
      ],
      "type": "VEC3"
    },
    {
      "bufferView": 4,
      "byteOffset": 143456,
      "componentType": 5126,
      "count": 1216,
      "max": [
        0.9992770552635193,
        0.8281838297843933,
        0.4480050206184387,
        1.0
      ],
      "min": [
        -0.9992772340774536,
        -0.852615475654602,
        -0.38755112886428833,
        -1.0
      ],
      "type": "VEC4"
    },
    {
      "bufferView": 2,
      "byteOffset": 71728,
      "componentType": 5126,
      "count": 1216,
      "max": [
        0.41231998801231384,
        0.31150999665260315
      ],
      "min": [
        0.248089998960495,
        0.1653199940919876
      ],
      "type": "VEC2"
    },
    {
      "bufferView": 1,
      "byteOffset": 192816,
      "componentType": 5125,
      "count": 4800,
      "type": "SCALAR"
    },
    {
      "bufferView": 3,
      "byteOffset": 244368,
      "componentType": 5126,
      "count": 548,
      "max": [
        1.5406346321105957,
        -3.9018313884735107,
        -0.09711465239524841
      ],
      "min": [
        -1.5406299829483032,
        -4.323046684265137,
        -0.5183301568031311
      ],
      "type": "VEC3"
    },
    {
      "bufferView": 3,
      "byteOffset": 250944,
      "componentType": 5126,
      "count": 548,
      "max": [
        1.0,
        0.9999999403953552,
        0.9999999403953552
      ],
      "min": [
        -1.0,
        -0.9999999403953552,
        -0.9999999403953552
      ],
      "type": "VEC3"
    },
    {
      "bufferView": 4,
      "byteOffset": 162912,
      "componentType": 5126,
      "count": 548,
      "max": [
        0.9999741911888123,
        0.9628204703330994,
        0.5625498294830322,
        1.0
      ],
      "min": [
        -0.9999741911888123,
        -0.019106023013591766,
        -0.2312304973602295,
        -1.0
      ],
      "type": "VEC4"
    },
    {
      "bufferView": 2,
      "byteOffset": 81456,
      "componentType": 5126,
      "count": 548,
      "max": [
        0.3704800009727478,
        0.9690499901771545
      ],
      "min": [
        0.1734600067138672,
        0.6814299821853638
      ],
      "type": "VEC2"
    },
    {
      "bufferView": 1,
      "byteOffset": 212016,
      "componentType": 5125,
      "count": 2880,
      "type": "SCALAR"
    },
    {
      "bufferView": 5,
      "componentType": 5126,
      "count": 40,
      "max": [
        1.0,
        0.7010998725891113,
        0.2952532172203064,
        0.0,
        0.854972243309021,
        1.0,
        0.8515096306800842,
        0.0,
        0.6631079316139221,
        0.7979883551597595,
        1.0,
        0.0,
        2.8747100830078125,
        2.4547901153564453,
        5.028260231018066,
        1.0
      ],
      "min": [
        -0.7028499841690063,
        -0.7010998725891113,
        -0.2952532172203064,
        0.0,
        -0.854972243309021,
        -0.8549637198448181,
        -0.8006729483604431,
        0.0,
        -0.6630993485450745,
        -0.8486112356185913,
        0.07663971185684204,
        0.0,
        -2.8747100830078125,
        -5.297410011291504,
        -4.726099967956543,
        1.0
      ],
      "type": "MAT4"
    },
    {
      "bufferView": 0,
      "componentType": 5123,
      "count": 7978,
      "type": "VEC4"
    },
    {
      "bufferView": 4,
      "byteOffset": 171680,
      "componentType": 5126,
      "count": 7978,
      "max": [
        1.0,
        0.4999949634075165,
        0.31766200065612793,
        0.23724673688411713
      ],
      "min": [
        0.2548043429851532,
        0.0,
        0.0,
        0.0
      ],
      "type": "VEC4"
    },
    {
      "bufferView": 0,
      "byteOffset": 63824,
      "componentType": 5123,
      "count": 988,
      "type": "VEC4"
    },
    {
      "bufferView": 4,
      "byteOffset": 299328,
      "componentType": 5126,
      "count": 988,
      "max": [
        1.0,
        0.0,
        0.0,
        0.0
      ],
      "min": [
        1.0,
        0.0,
        0.0,
        0.0
      ],
      "type": "VEC4"
    },
    {
      "bufferView": 0,
      "byteOffset": 71728,
      "componentType": 5123,
      "count": 1216,
      "type": "VEC4"
    },
    {
      "bufferView": 4,
      "byteOffset": 315136,
      "componentType": 5126,
      "count": 1216,
      "max": [
        1.0,
        0.43901458382606506,
        0.0,
        0.0
      ],
      "min": [
        0.5609853863716125,
        0.0,
        0.0,
        0.0
      ],
      "type": "VEC4"
    },
    {
      "bufferView": 0,
      "byteOffset": 81456,
      "componentType": 5123,
      "count": 548,
      "type": "VEC4"
    },
    {
      "bufferView": 4,
      "byteOffset": 334592,
      "componentType": 5126,
      "count": 548,
      "max": [
        0.935531497001648,
        0.09298408776521683,
        0.0,
        0.0
      ],
      "min": [
        0.9070159196853638,
        0.06446852535009384,
        0.0,
        0.0
      ],
      "type": "VEC4"
    },
    {
      "bufferView": 6,
      "componentType": 5126,
      "count": 142,
      "max": [
        5.916669845581055
      ],
      "min": [
        0.041669998317956924
      ],
      "type": "SCALAR"
    },
    {
      "bufferView": 7,
      "componentType": 5126,
      "count": 142,
      "max": [
        3.185600007782341e-06,
        2.5353031158447266,
        1.8519272804260254
      ],
      "min": [
        -2.685599838514463e-06,
        2.4152603149414063,
        1.7779748439788818
      ],
      "type": "VEC3"
    },
    {
      "bufferView": 6,
      "byteOffset": 568,
      "componentType": 5126,
      "count": 1,
      "max": [
        0.041669998317956924
      ],
      "min": [
        0.041669998317956924
      ],
      "type": "SCALAR"
    },
    {
      "bufferView": 8,
      "componentType": 5126,
      "count": 1,
      "max": [
        -3.9931528590386733e-05,
        -0.003626336110755801,
        0.9999934434890747,
        -4.991450031077704e-10
      ],
      "min": [
        -3.9931528590386733e-05,
        -0.003626336110755801,
        0.9999934434890747,
        -4.991450031077704e-10
      ],
      "type": "VEC4"
    },
    {
      "bufferView": 6,
      "byteOffset": 572,
      "componentType": 5126,
      "count": 142,
      "max": [
        5.916669845581055
      ],
      "min": [
        0.041669998317956924
      ],
      "type": "SCALAR"
    },
    {
      "bufferView": 7,
      "byteOffset": 1704,
      "componentType": 5126,
      "count": 142,
      "max": [
        4.743790123029612e-05,
        2.0411601066589355,
        -0.6725703477859497
      ],
      "min": [
        -0.03176264092326164,
        2.0411500930786133,
        -0.6802499890327454
      ],
      "type": "VEC3"
    },
    {
      "bufferView": 6,
      "byteOffset": 1140,
      "componentType": 5126,
      "count": 142,
      "max": [
        5.916669845581055
      ],
      "min": [
        0.041669998317956924
      ],
      "type": "SCALAR"
    },
    {
      "bufferView": 8,
      "byteOffset": 16,
      "componentType": 5126,
      "count": 142,
      "max": [
        1.1640000252555183e-07,
        0.00016500130004715174,
        0.0037299999967217445,
        0.9999499917030334
      ],
      "min": [
        -1.86500006549295e-08,
        -3.4999698982574046e-05,
        -0.023280000314116478,
        0.9997400045394897
      ],
      "type": "VEC4"
    },
    {
      "bufferView": 6,
      "byteOffset": 1708,
      "componentType": 5126,
      "count": 1,
      "max": [
        0.041669998317956924
      ],
      "min": [
        0.041669998317956924
      ],
      "type": "SCALAR"
    },
    {
      "bufferView": 7,
      "byteOffset": 3408,
      "componentType": 5126,
      "count": 1,
      "max": [
        1.2181099653244019,
        1.2181099653244019,
        1.2181099653244019
      ],
      "min": [
        1.2181099653244019,
        1.2181099653244019,
        1.2181099653244019
      ],
      "type": "VEC3"
    },
    {
      "bufferView": 6,
      "byteOffset": 1712,
      "componentType": 5126,
      "count": 142,
      "max": [
        5.916669845581055
      ],
      "min": [
        0.041669998317956924
      ],
      "type": "SCALAR"
    },
    {
      "bufferView": 8,
      "byteOffset": 2288,
      "componentType": 5126,
      "count": 142,
      "max": [
        0.000498547509778291,
        0.05443413183093071,
        0.9984673261642456,
        0.008903794921934605
      ],
      "min": [
        -0.0007350853411480784,
        0.05443286523222923,
        0.9984573125839233,
        -0.011531793512403965
      ],
      "type": "VEC4"
    },
    {
      "bufferView": 6,
      "byteOffset": 2280,
      "componentType": 5126,
      "count": 142,
      "max": [
        5.916669845581055
      ],
      "min": [
        0.041669998317956924
      ],
      "type": "SCALAR"
    },
    {
      "bufferView": 8,
      "byteOffset": 4560,
      "componentType": 5126,
      "count": 142,
      "max": [
        -0.007568364962935448,
        0.0016004819190129638,
        0.014588302001357079,
        0.999971330165863
      ],
      "min": [
        -0.0075701819732785225,
        -0.002406555460765958,
        -0.021992411464452744,
        0.9997313618659973
      ],
      "type": "VEC4"
    },
    {
      "bufferView": 6,
      "byteOffset": 2848,
      "componentType": 5126,
      "count": 142,
      "max": [
        5.916669845581055
      ],
      "min": [
        0.041669998317956924
      ],
      "type": "SCALAR"
    },
    {
      "bufferView": 8,
      "byteOffset": 6832,
      "componentType": 5126,
      "count": 142,
      "max": [
        -0.06796864420175552,
        0.0008623474859632552,
        0.024129917845129967,
        0.9976661801338196
      ],
      "min": [
        -0.06798631697893143,
        -0.0001987133000511676,
        -0.00394833879545331,
        0.9974067807197571
      ],
      "type": "VEC4"
    },
    {
      "bufferView": 6,
      "byteOffset": 3416,
      "componentType": 5126,
      "count": 142,
      "max": [
        5.916669845581055
      ],
      "min": [
        0.041669998317956924
      ],
      "type": "SCALAR"
    },
    {
      "bufferView": 8,
      "byteOffset": 9104,
      "componentType": 5126,
      "count": 142,
      "max": [
        -0.06214640289545059,
        0.0044258288107812405,
        0.03791476786136627,
        0.9980530738830566
      ],
      "min": [
        -0.06220985949039459,
        -0.003718506544828415,
        -0.04505259916186333,
        0.997035026550293
      ],
      "type": "VEC4"
    },
    {
      "bufferView": 6,
      "byteOffset": 3984,
      "componentType": 5126,
      "count": 142,
      "max": [
        5.916669845581055
      ],
      "min": [
        0.041669998317956924
      ],
      "type": "SCALAR"
    },
    {
      "bufferView": 8,
      "byteOffset": 11376,
      "componentType": 5126,
      "count": 142,
      "max": [
        0.01373133435845375,
        0.006120700389146805,
        0.046390485018491745,
        0.9999057054519653
      ],
      "min": [
        0.013716230168938637,
        -0.006837647873908281,
        -0.04151986911892891,
        0.998805820941925
      ],
      "type": "VEC4"
    },
    {
      "bufferView": 6,
      "byteOffset": 4552,
      "componentType": 5126,
      "count": 142,
      "max": [
        5.916669845581055
      ],
      "min": [
        0.041669998317956924
      ],
      "type": "SCALAR"
    },
    {
      "bufferView": 8,
      "byteOffset": 13648,
      "componentType": 5126,
      "count": 142,
      "max": [
        0.06208978220820427,
        0.0035023826640099287,
        0.04776526615023613,
        0.9980705976486206
      ],
      "min": [
        0.06201092526316643,
        -0.0033321641385555267,
        -0.050180599093437195,
        0.9968030452728271
      ],
      "type": "VEC4"
    },
    {
      "bufferView": 6,
      "byteOffset": 5120,
      "componentType": 5126,
      "count": 1,
      "max": [
        0.041669998317956924
      ],
      "min": [
        0.041669998317956924
      ],
      "type": "SCALAR"
    },
    {
      "bufferView": 8,
      "byteOffset": 15920,
      "componentType": 5126,
      "count": 1,
      "max": [
        0.03987172618508339,
        0.0,
        0.0,
        0.9992048144340515
      ],
      "min": [
        0.03987172618508339,
        0.0,
        0.0,
        0.9992048144340515
      ],
      "type": "VEC4"
    },
    {
      "bufferView": 6,
      "byteOffset": 5124,
      "componentType": 5126,
      "count": 1,
      "max": [
        0.041669998317956924
      ],
      "min": [
        0.041669998317956924
      ],
      "type": "SCALAR"
    },
    {
      "bufferView": 8,
      "byteOffset": 15936,
      "componentType": 5126,
      "count": 1,
      "max": [
        0.3433160185813904,
        0.0,
        0.0,
        0.9392199516296387
      ],
      "min": [
        0.3433160185813904,
        0.0,
        0.0,
        0.9392199516296387
      ],
      "type": "VEC4"
    },
    {
      "bufferView": 6,
      "byteOffset": 5128,
      "componentType": 5126,
      "count": 1,
      "max": [
        0.041669998317956924
      ],
      "min": [
        0.041669998317956924
      ],
      "type": "SCALAR"
    },
    {
      "bufferView": 8,
      "byteOffset": 15952,
      "componentType": 5126,
      "count": 1,
      "max": [
        0.2022760808467865,
        0.0,
        0.0,
        0.9793285131454468
      ],
      "min": [
        0.2022760808467865,
        0.0,
        0.0,
        0.9793285131454468
      ],
      "type": "VEC4"
    },
    {
      "bufferView": 6,
      "byteOffset": 5132,
      "componentType": 5126,
      "count": 1,
      "max": [
        0.041669998317956924
      ],
      "min": [
        0.041669998317956924
      ],
      "type": "SCALAR"
    },
    {
      "bufferView": 8,
      "byteOffset": 15968,
      "componentType": 5126,
      "count": 1,
      "max": [
        -0.09292702376842499,
        0.0,
        0.0,
        0.9956729412078857
      ],
      "min": [
        -0.09292702376842499,
        0.0,
        0.0,
        0.9956729412078857
      ],
      "type": "VEC4"
    },
    {
      "bufferView": 6,
      "byteOffset": 5136,
      "componentType": 5126,
      "count": 1,
      "max": [
        0.041669998317956924
      ],
      "min": [
        0.041669998317956924
      ],
      "type": "SCALAR"
    },
    {
      "bufferView": 8,
      "byteOffset": 15984,
      "componentType": 5126,
      "count": 1,
      "max": [
        -0.2624392509460449,
        0.0,
        0.0,
        0.9649485349655151
      ],
      "min": [
        -0.2624392509460449,
        0.0,
        0.0,
        0.9649485349655151
      ],
      "type": "VEC4"
    },
    {
      "bufferView": 6,
      "byteOffset": 5140,
      "componentType": 5126,
      "count": 1,
      "max": [
        0.041669998317956924
      ],
      "min": [
        0.041669998317956924
      ],
      "type": "SCALAR"
    },
    {
      "bufferView": 8,
      "byteOffset": 16000,
      "componentType": 5126,
      "count": 1,
      "max": [
        -0.2425478994846344,
        0.0,
        0.0,
        0.9701394438743591
      ],
      "min": [
        -0.2425478994846344,
        0.0,
        0.0,
        0.9701394438743591
      ],
      "type": "VEC4"
    },
    {
      "bufferView": 6,
      "byteOffset": 5144,
      "componentType": 5126,
      "count": 1,
      "max": [
        0.041669998317956924
      ],
      "min": [
        0.041669998317956924
      ],
      "type": "SCALAR"
    },
    {
      "bufferView": 8,
      "byteOffset": 16016,
      "componentType": 5126,
      "count": 1,
      "max": [
        0.04143542796373367,
        0.0,
        0.0,
        0.9991411566734314
      ],
      "min": [
        0.04143542796373367,
        0.0,
        0.0,
        0.9991411566734314
      ],
      "type": "VEC4"
    },
    {
      "bufferView": 6,
      "byteOffset": 5148,
      "componentType": 5126,
      "count": 142,
      "max": [
        5.916669845581055
      ],
      "min": [
        0.041669998317956924
      ],
      "type": "SCALAR"
    },
    {
      "bufferView": 8,
      "byteOffset": 16032,
      "componentType": 5126,
      "count": 142,
      "max": [
        -0.5410741567611694,
        0.02588050812482834,
        0.03125922754406929,
        0.8406072854995728
      ],
      "min": [
        -0.5416266322135925,
        -0.02178046479821205,
        -0.03713672235608101,
        0.8397498726844788
      ],
      "type": "VEC4"
    },
    {
      "bufferView": 6,
      "byteOffset": 5716,
      "componentType": 5126,
      "count": 1,
      "max": [
        0.041669998317956924
      ],
      "min": [
        0.041669998317956924
      ],
      "type": "SCALAR"
    },
    {
      "bufferView": 8,
      "byteOffset": 18304,
      "componentType": 5126,
      "count": 1,
      "max": [
        0.3720397353172302,
        0.41352254152297974,
        -0.5735507607460022,
        0.6013526916503906
      ],
      "min": [
        0.3720397353172302,
        0.41352254152297974,
        -0.5735507607460022,
        0.6013526916503906
      ],
      "type": "VEC4"
    },
    {
      "bufferView": 6,
      "byteOffset": 5720,
      "componentType": 5126,
      "count": 1,
      "max": [
        0.041669998317956924
      ],
      "min": [
        0.041669998317956924
      ],
      "type": "SCALAR"
    },
    {
      "bufferView": 8,
      "byteOffset": 18320,
      "componentType": 5126,
      "count": 1,
      "max": [
        -0.13020765781402588,
        -0.5809588432312012,
        0.40198981761932373,
        0.6956558227539063
      ],
      "min": [
        -0.13020765781402588,
        -0.5809588432312012,
        0.40198981761932373,
        0.6956558227539063
      ],
      "type": "VEC4"
    },
    {
      "bufferView": 6,
      "byteOffset": 5724,
      "componentType": 5126,
      "count": 1,
      "max": [
        0.041669998317956924
      ],
      "min": [
        0.041669998317956924
      ],
      "type": "SCALAR"
    },
    {
      "bufferView": 8,
      "byteOffset": 18336,
      "componentType": 5126,
      "count": 1,
      "max": [
        0.14754712581634521,
        0.0036120633594691753,
        0.006579947657883167,
        0.9890265464782715
      ],
      "min": [
        0.14754712581634521,
        0.0036120633594691753,
        0.006579947657883167,
        0.9890265464782715
      ],
      "type": "VEC4"
    },
    {
      "bufferView": 6,
      "byteOffset": 5728,
      "componentType": 5126,
      "count": 1,
      "max": [
        0.041669998317956924
      ],
      "min": [
        0.041669998317956924
      ],
      "type": "SCALAR"
    },
    {
      "bufferView": 8,
      "byteOffset": 18352,
      "componentType": 5126,
      "count": 1,
      "max": [
        0.3720397353172302,
        -0.41352254152297974,
        0.5735507607460022,
        0.6013526916503906
      ],
      "min": [
        0.3720397353172302,
        -0.41352254152297974,
        0.5735507607460022,
        0.6013526916503906
      ],
      "type": "VEC4"
    },
    {
      "bufferView": 6,
      "byteOffset": 5732,
      "componentType": 5126,
      "count": 1,
      "max": [
        0.041669998317956924
      ],
      "min": [
        0.041669998317956924
      ],
      "type": "SCALAR"
    },
    {
      "bufferView": 8,
      "byteOffset": 18368,
      "componentType": 5126,
      "count": 1,
      "max": [
        -0.13020765781402588,
        0.5809588432312012,
        -0.40198981761932373,
        0.6956558227539063
      ],
      "min": [
        -0.13020765781402588,
        0.5809588432312012,
        -0.40198981761932373,
        0.6956558227539063
      ],
      "type": "VEC4"
    },
    {
      "bufferView": 6,
      "byteOffset": 5736,
      "componentType": 5126,
      "count": 1,
      "max": [
        0.041669998317956924
      ],
      "min": [
        0.041669998317956924
      ],
      "type": "SCALAR"
    },
    {
      "bufferView": 8,
      "byteOffset": 18384,
      "componentType": 5126,
      "count": 1,
      "max": [
        0.14754712581634521,
        -0.0036120633594691753,
        -0.006579947657883167,
        0.9890265464782715
      ],
      "min": [
        0.14754712581634521,
        -0.0036120633594691753,
        -0.006579947657883167,
        0.9890265464782715
      ],
      "type": "VEC4"
    },
    {
      "bufferView": 6,
      "byteOffset": 5740,
      "componentType": 5126,
      "count": 1,
      "max": [
        0.041669998317956924
      ],
      "min": [
        0.041669998317956924
      ],
      "type": "SCALAR"
    },
    {
      "bufferView": 8,
      "byteOffset": 18400,
      "componentType": 5126,
      "count": 1,
      "max": [
        0.5275749564170837,
        0.0,
        0.0,
        0.84950852394104
      ],
      "min": [
        0.5275749564170837,
        0.0,
        0.0,
        0.84950852394104
      ],
      "type": "VEC4"
    },
    {
      "bufferView": 6,
      "byteOffset": 5744,
      "componentType": 5126,
      "count": 1,
      "max": [
        0.041669998317956924
      ],
      "min": [
        0.041669998317956924
      ],
      "type": "SCALAR"
    },
    {
      "bufferView": 8,
      "byteOffset": 18416,
      "componentType": 5126,
      "count": 1,
      "max": [
        -0.3079514503479004,
        0.0,
        0.0,
        0.9514020681381226
      ],
      "min": [
        -0.3079514503479004,
        0.0,
        0.0,
        0.9514020681381226
      ],
      "type": "VEC4"
    },
    {
      "bufferView": 6,
      "byteOffset": 5748,
      "componentType": 5126,
      "count": 142,
      "max": [
        5.916669845581055
      ],
      "min": [
        0.041669998317956924
      ],
      "type": "SCALAR"
    },
    {
      "bufferView": 8,
      "byteOffset": 18432,
      "componentType": 5126,
      "count": 142,
      "max": [
        0.01729508303105831,
        0.03467058390378952,
        0.01780184730887413,
        0.9998681545257568
      ],
      "min": [
        0.013500886969268322,
        -0.02552058733999729,
        -0.02371491678059101,
        0.9990696907043457
      ],
      "type": "VEC4"
    },
    {
      "bufferView": 6,
      "byteOffset": 6316,
      "componentType": 5126,
      "count": 1,
      "max": [
        0.041669998317956924
      ],
      "min": [
        0.041669998317956924
      ],
      "type": "SCALAR"
    },
    {
      "bufferView": 8,
      "byteOffset": 20704,
      "componentType": 5126,
      "count": 1,
      "max": [
        -0.5718735456466675,
        0.0,
        0.0,
        0.8203417658805847
      ],
      "min": [
        -0.5718735456466675,
        0.0,
        0.0,
        0.8203417658805847
      ],
      "type": "VEC4"
    },
    {
      "bufferView": 6,
      "byteOffset": 6320,
      "componentType": 5126,
      "count": 120,
      "max": [
        5.916669845581055
      ],
      "min": [
        0.041669998317956924
      ],
      "type": "SCALAR"
    },
    {
      "bufferView": 7,
      "byteOffset": 3420,
      "componentType": 5126,
      "count": 120,
      "max": [
        0.0011099999537691474,
        0.8449501395225525,
        -0.8286377191543579
      ],
      "min": [
        -0.0007300000288523734,
        0.8449501395225525,
        -0.8286377191543579
      ],
      "type": "VEC3"
    },
    {
      "bufferView": 6,
      "byteOffset": 6800,
      "componentType": 5126,
      "count": 142,
      "max": [
        5.916669845581055
      ],
      "min": [
        0.041669998317956924
      ],
      "type": "SCALAR"
    },
    {
      "bufferView": 8,
      "byteOffset": 20720,
      "componentType": 5126,
      "count": 142,
      "max": [
        -0.05722495913505554,
        0.0008602312882430851,
        0.014655360020697117,
        0.9983605146408081
      ],
      "min": [
        -0.05723869428038597,
        -0.0012561363400891423,
        -0.022084878757596016,
        0.998120903968811
      ],
      "type": "VEC4"
    },
    {
      "bufferView": 6,
      "byteOffset": 7368,
      "componentType": 5126,
      "count": 142,
      "max": [
        5.916669845581055
      ],
      "min": [
        0.041669998317956924
      ],
      "type": "SCALAR"
    },
    {
      "bufferView": 8,
      "byteOffset": 22992,
      "componentType": 5126,
      "count": 142,
      "max": [
        0.01955753192305565,
        -0.6769270300865173,
        0.7357580661773682,
        0.022696902975440025
      ],
      "min": [
        -0.02064889669418335,
        -0.6772446036338806,
        0.7354114651679993,
        -0.021596990525722504
      ],
      "type": "VEC4"
    },
    {
      "bufferView": 6,
      "byteOffset": 7936,
      "componentType": 5126,
      "count": 1,
      "max": [
        0.041669998317956924
      ],
      "min": [
        0.041669998317956924
      ],
      "type": "SCALAR"
    },
    {
      "bufferView": 8,
      "byteOffset": 25264,
      "componentType": 5126,
      "count": 1,
      "max": [
        0.45089367032051086,
        0.5018360018730164,
        -0.4981479048728943,
        0.5447056293487549
      ],
      "min": [
        0.45089367032051086,
        0.5018360018730164,
        -0.4981479048728943,
        0.5447056293487549
      ],
      "type": "VEC4"
    },
    {
      "bufferView": 6,
      "byteOffset": 7940,
      "componentType": 5126,
      "count": 142,
      "max": [
        5.916669845581055
      ],
      "min": [
        0.041669998317956924
      ],
      "type": "SCALAR"
    },
    {
      "bufferView": 8,
      "byteOffset": 25280,
      "componentType": 5126,
      "count": 142,
      "max": [
        -0.10285969078540802,
        -0.5572559833526611,
        0.2728481888771057,
        0.7936358451843262
      ],
      "min": [
        -0.19171220064163208,
        -0.5931532979011536,
        0.15151984989643097,
        0.7504265308380127
      ],
      "type": "VEC4"
    },
    {
      "bufferView": 6,
      "byteOffset": 8508,
      "componentType": 5126,
      "count": 138,
      "max": [
        5.916669845581055
      ],
      "min": [
        0.041669998317956924
      ],
      "type": "SCALAR"
    },
    {
      "bufferView": 8,
      "byteOffset": 27552,
      "componentType": 5126,
      "count": 138,
      "max": [
        0.2858329713344574,
        0.2489219605922699,
        0.0890897810459137,
        0.9520825147628784
      ],
      "min": [
        0.22918501496315002,
        0.18242022395133972,
        0.08021538704633713,
        0.9218375086784363
      ],
      "type": "VEC4"
    },
    {
      "bufferView": 6,
      "byteOffset": 9060,
      "componentType": 5126,
      "count": 1,
      "max": [
        0.041669998317956924
      ],
      "min": [
        0.041669998317956924
      ],
      "type": "SCALAR"
    },
    {
      "bufferView": 8,
      "byteOffset": 29760,
      "componentType": 5126,
      "count": 1,
      "max": [
        0.4497643709182739,
        -0.5028648376464844,
        0.4971088469028473,
        0.5456388592720032
      ],
      "min": [
        0.4497643709182739,
        -0.5028648376464844,
        0.4971088469028473,
        0.5456388592720032
      ],
      "type": "VEC4"
    },
    {
      "bufferView": 6,
      "byteOffset": 9064,
      "componentType": 5126,
      "count": 142,
      "max": [
        5.916669845581055
      ],
      "min": [
        0.041669998317956924
      ],
      "type": "SCALAR"
    },
    {
      "bufferView": 8,
      "byteOffset": 29776,
      "componentType": 5126,
      "count": 142,
      "max": [
        -0.09756536781787872,
        0.5948897004127502,
        -0.17332015931606293,
        0.7874459028244019
      ],
      "min": [
        -0.17383608222007751,
        0.5653939843177795,
        -0.27648797631263733,
        0.7484243512153625
      ],
      "type": "VEC4"
    },
    {
      "bufferView": 6,
      "byteOffset": 9632,
      "componentType": 5126,
      "count": 142,
      "max": [
        5.916669845581055
      ],
      "min": [
        0.041669998317956924
      ],
      "type": "SCALAR"
    },
    {
      "bufferView": 8,
      "byteOffset": 32048,
      "componentType": 5126,
      "count": 142,
      "max": [
        0.3084608018398285,
        -0.18681932985782623,
        -0.08449564874172211,
        0.9510679841041565
      ],
      "min": [
        0.2267179638147354,
        -0.2951467037200928,
        -0.09735000133514404,
        0.8991929292678833
      ],
      "type": "VEC4"
    },
    {
      "bufferView": 6,
      "byteOffset": 10200,
      "componentType": 5126,
      "count": 142,
      "max": [
        5.916669845581055
      ],
      "min": [
        0.041669998317956924
      ],
      "type": "SCALAR"
    },
    {
      "bufferView": 8,
      "byteOffset": 34320,
      "componentType": 5126,
      "count": 142,
      "max": [
        -0.05447938293218613,
        0.0018732747994363308,
        0.02907925844192505,
        0.9985134601593018
      ],
      "min": [
        -0.054506007581949234,
        -0.0018376386724412441,
        -0.030631771311163902,
        0.9980441927909851
      ],
      "type": "VEC4"
    },
    {
      "bufferView": 6,
      "byteOffset": 10768,
      "componentType": 5126,
      "count": 142,
      "max": [
        5.916669845581055
      ],
      "min": [
        0.041669998317956924
      ],
      "type": "SCALAR"
    },
    {
      "bufferView": 7,
      "byteOffset": 4860,
      "componentType": 5126,
      "count": 142,
      "max": [
        0.04455000162124634,
        0.5595899820327759,
        -0.6056697964668274
      ],
      "min": [
        -0.019540000706911087,
        0.5595899820327759,
        -0.6056704521179199
      ],
      "type": "VEC3"
    },
    {
      "bufferView": 6,
      "byteOffset": 11336,
      "componentType": 5126,
      "count": 1,
      "max": [
        0.041669998317956924
      ],
      "min": [
        0.041669998317956924
      ],
      "type": "SCALAR"
    },
    {
      "bufferView": 8,
      "byteOffset": 36592,
      "componentType": 5126,
      "count": 1,
      "max": [
        0.08706555515527725,
        4.98101098855841e-06,
        0.0,
        0.9962025880813599
      ],
      "min": [
        0.08706555515527725,
        4.98101098855841e-06,
        0.0,
        0.9962025880813599
      ],
      "type": "VEC4"
    },
    {
      "bufferView": 6,
      "byteOffset": 11340,
      "componentType": 5126,
      "count": 142,
      "max": [
        5.916669845581055
      ],
      "min": [
        0.041669998317956924
      ],
      "type": "SCALAR"
    },
    {
      "bufferView": 8,
      "byteOffset": 36608,
      "componentType": 5126,
      "count": 142,
      "max": [
        0.05630926042795181,
        0.0018140897154808044,
        0.027476336807012558,
        0.9984133839607239
      ],
      "min": [
        0.05628335475921631,
        -0.0015987937804311514,
        -0.03127804026007652,
        0.9979541301727295
      ],
      "type": "VEC4"
    },
    {
      "bufferView": 6,
      "byteOffset": 11908,
      "componentType": 5126,
      "count": 1,
      "max": [
        0.041669998317956924
      ],
      "min": [
        0.041669998317956924
      ],
      "type": "SCALAR"
    },
    {
      "bufferView": 8,
      "byteOffset": 38880,
      "componentType": 5126,
      "count": 1,
      "max": [
        -0.0022500054910779,
        4.999987140763551e-06,
        0.0,
        0.9999974966049194
      ],
      "min": [
        -0.0022500054910779,
        4.999987140763551e-06,
        0.0,
        0.9999974966049194
      ],
      "type": "VEC4"
    },
    {
      "bufferView": 6,
      "byteOffset": 11912,
      "componentType": 5126,
      "count": 81,
      "max": [
        5.916669845581055
      ],
      "min": [
        0.041669998317956924
      ],
      "type": "SCALAR"
    },
    {
      "bufferView": 7,
      "byteOffset": 6564,
      "componentType": 5126,
      "count": 81,
      "max": [
        0.0003297376970294863,
        1.2085731029510498,
        -0.32051581144332886
      ],
      "min": [
        0.0003296747163403779,
        1.2056653499603271,
        -0.3272337317466736
      ],
      "type": "VEC3"
    },
    {
      "bufferView": 6,
      "byteOffset": 12236,
      "componentType": 5126,
      "count": 142,
      "max": [
        5.916669845581055
      ],
      "min": [
        0.041669998317956924
      ],
      "type": "SCALAR"
    },
    {
      "bufferView": 8,
      "byteOffset": 38896,
      "componentType": 5126,
      "count": 142,
      "max": [
        0.10376898944377899,
        0.002847162541002035,
        0.02754351682960987,
        0.9971798658370972
      ],
      "min": [
        0.0734495148062706,
        -0.0003299384261481464,
        -0.031314827501773834,
        0.9941394329071045
      ],
      "type": "VEC4"
    },
    {
      "bufferView": 6,
      "byteOffset": 12804,
      "componentType": 5126,
      "count": 64,
      "max": [
        5.916669845581055
      ],
      "min": [
        0.041669998317956924
      ],
      "type": "SCALAR"
    },
    {
      "bufferView": 8,
      "byteOffset": 41168,
      "componentType": 5126,
      "count": 64,
      "max": [
        0.0,
        0.0,
        0.13021999597549438,
        1.0
      ],
      "min": [
        0.0,
        0.0,
        -0.09398999810218811,
        0.9914900064468384
      ],
      "type": "VEC4"
    }
  ],
  "animations": [
    {
      "channels": [
        {
          "sampler": 0,
          "target": {
            "node": 6,
            "path": "translation"
          }
        },
        {
          "sampler": 1,
          "target": {
            "node": 6,
            "path": "rotation"
          }
        },
        {
          "sampler": 2,
          "target": {
            "node": 7,
            "path": "translation"
          }
        },
        {
          "sampler": 3,
          "target": {
            "node": 7,
            "path": "rotation"
          }
        },
        {
          "sampler": 4,
          "target": {
            "node": 7,
            "path": "scale"
          }
        },
        {
          "sampler": 5,
          "target": {
            "node": 8,
            "path": "rotation"
          }
        },
        {
          "sampler": 6,
          "target": {
            "node": 9,
            "path": "rotation"
          }
        },
        {
          "sampler": 7,
          "target": {
            "node": 10,
            "path": "rotation"
          }
        },
        {
          "sampler": 8,
          "target": {
            "node": 11,
            "path": "rotation"
          }
        },
        {
          "sampler": 9,
          "target": {
            "node": 12,
            "path": "rotation"
          }
        },
        {
          "sampler": 10,
          "target": {
            "node": 13,
            "path": "rotation"
          }
        },
        {
          "sampler": 11,
          "target": {
            "node": 14,
            "path": "rotation"
          }
        },
        {
          "sampler": 12,
          "target": {
            "node": 15,
            "path": "rotation"
          }
        },
        {
          "sampler": 13,
          "target": {
            "node": 16,
            "path": "rotation"
          }
        },
        {
          "sampler": 14,
          "target": {
            "node": 17,
            "path": "rotation"
          }
        },
        {
          "sampler": 15,
          "target": {
            "node": 18,
            "path": "rotation"
          }
        },
        {
          "sampler": 16,
          "target": {
            "node": 19,
            "path": "rotation"
          }
        },
        {
          "sampler": 17,
          "target": {
            "node": 20,
            "path": "rotation"
          }
        },
        {
          "sampler": 18,
          "target": {
            "node": 21,
            "path": "rotation"
          }
        },
        {
          "sampler": 19,
          "target": {
            "node": 22,
            "path": "rotation"
          }
        },
        {
          "sampler": 20,
          "target": {
            "node": 23,
            "path": "rotation"
          }
        },
        {
          "sampler": 21,
          "target": {
            "node": 24,
            "path": "rotation"
          }
        },
        {
          "sampler": 22,
          "target": {
            "node": 25,
            "path": "rotation"
          }
        },
        {
          "sampler": 23,
          "target": {
            "node": 26,
            "path": "rotation"
          }
        },
        {
          "sampler": 24,
          "target": {
            "node": 27,
            "path": "rotation"
          }
        },
        {
          "sampler": 25,
          "target": {
            "node": 28,
            "path": "rotation"
          }
        },
        {
          "sampler": 26,
          "target": {
            "node": 29,
            "path": "rotation"
          }
        },
        {
          "sampler": 27,
          "target": {
            "node": 30,
            "path": "rotation"
          }
        },
        {
          "sampler": 28,
          "target": {
            "node": 31,
            "path": "rotation"
          }
        },
        {
          "sampler": 29,
          "target": {
            "node": 32,
            "path": "translation"
          }
        },
        {
          "sampler": 30,
          "target": {
            "node": 32,
            "path": "rotation"
          }
        },
        {
          "sampler": 31,
          "target": {
            "node": 33,
            "path": "rotation"
          }
        },
        {
          "sampler": 32,
          "target": {
            "node": 34,
            "path": "rotation"
          }
        },
        {
          "sampler": 33,
          "target": {
            "node": 35,
            "path": "rotation"
          }
        },
        {
          "sampler": 34,
          "target": {
            "node": 36,
            "path": "rotation"
          }
        },
        {
          "sampler": 35,
          "target": {
            "node": 37,
            "path": "rotation"
          }
        },
        {
          "sampler": 36,
          "target": {
            "node": 38,
            "path": "rotation"
          }
        },
        {
          "sampler": 37,
          "target": {
            "node": 39,
            "path": "rotation"
          }
        },
        {
          "sampler": 38,
          "target": {
            "node": 40,
            "path": "rotation"
          }
        },
        {
          "sampler": 39,
          "target": {
            "node": 41,
            "path": "translation"
          }
        },
        {
          "sampler": 40,
          "target": {
            "node": 41,
            "path": "rotation"
          }
        },
        {
          "sampler": 41,
          "target": {
            "node": 42,
            "path": "rotation"
          }
        },
        {
          "sampler": 42,
          "target": {
            "node": 43,
            "path": "rotation"
          }
        },
        {
          "sampler": 43,
          "target": {
            "node": 44,
            "path": "translation"
          }
        },
        {
          "sampler": 44,
          "target": {
            "node": 44,
            "path": "rotation"
          }
        },
        {
          "sampler": 45,
          "target": {
            "node": 51,
            "path": "rotation"
          }
        }
      ],
      "name": "SWIM",
      "samplers": [
        {
          "input": 29,
          "interpolation": "LINEAR",
          "output": 30
        },
        {
          "input": 31,
          "interpolation": "LINEAR",
          "output": 32
        },
        {
          "input": 33,
          "interpolation": "LINEAR",
          "output": 34
        },
        {
          "input": 35,
          "interpolation": "LINEAR",
          "output": 36
        },
        {
          "input": 37,
          "interpolation": "LINEAR",
          "output": 38
        },
        {
          "input": 39,
          "interpolation": "LINEAR",
          "output": 40
        },
        {
          "input": 41,
          "interpolation": "LINEAR",
          "output": 42
        },
        {
          "input": 43,
          "interpolation": "LINEAR",
          "output": 44
        },
        {
          "input": 45,
          "interpolation": "LINEAR",
          "output": 46
        },
        {
          "input": 47,
          "interpolation": "LINEAR",
          "output": 48
        },
        {
          "input": 49,
          "interpolation": "LINEAR",
          "output": 50
        },
        {
          "input": 51,
          "interpolation": "LINEAR",
          "output": 52
        },
        {
          "input": 53,
          "interpolation": "LINEAR",
          "output": 54
        },
        {
          "input": 55,
          "interpolation": "LINEAR",
          "output": 56
        },
        {
          "input": 57,
          "interpolation": "LINEAR",
          "output": 58
        },
        {
          "input": 59,
          "interpolation": "LINEAR",
          "output": 60
        },
        {
          "input": 61,
          "interpolation": "LINEAR",
          "output": 62
        },
        {
          "input": 63,
          "interpolation": "LINEAR",
          "output": 64
        },
        {
          "input": 65,
          "interpolation": "LINEAR",
          "output": 66
        },
        {
          "input": 67,
          "interpolation": "LINEAR",
          "output": 68
        },
        {
          "input": 69,
          "interpolation": "LINEAR",
          "output": 70
        },
        {
          "input": 71,
          "interpolation": "LINEAR",
          "output": 72
        },
        {
          "input": 73,
          "interpolation": "LINEAR",
          "output": 74
        },
        {
          "input": 75,
          "interpolation": "LINEAR",
          "output": 76
        },
        {
          "input": 77,
          "interpolation": "LINEAR",
          "output": 78
        },
        {
          "input": 79,
          "interpolation": "LINEAR",
          "output": 80
        },
        {
          "input": 81,
          "interpolation": "LINEAR",
          "output": 82
        },
        {
          "input": 83,
          "interpolation": "LINEAR",
          "output": 84
        },
        {
          "input": 85,
          "interpolation": "LINEAR",
          "output": 86
        },
        {
          "input": 87,
          "interpolation": "LINEAR",
          "output": 88
        },
        {
          "input": 89,
          "interpolation": "LINEAR",
          "output": 90
        },
        {
          "input": 91,
          "interpolation": "LINEAR",
          "output": 92
        },
        {
          "input": 93,
          "interpolation": "LINEAR",
          "output": 94
        },
        {
          "input": 95,
          "interpolation": "LINEAR",
          "output": 96
        },
        {
          "input": 97,
          "interpolation": "LINEAR",
          "output": 98
        },
        {
          "input": 99,
          "interpolation": "LINEAR",
          "output": 100
        },
        {
          "input": 101,
          "interpolation": "LINEAR",
          "output": 102
        },
        {
          "input": 103,
          "interpolation": "LINEAR",
          "output": 104
        },
        {
          "input": 105,
          "interpolation": "LINEAR",
          "output": 106
        },
        {
          "input": 107,
          "interpolation": "LINEAR",
          "output": 108
        },
        {
          "input": 109,
          "interpolation": "LINEAR",
          "output": 110
        },
        {
          "input": 111,
          "interpolation": "LINEAR",
          "output": 112
        },
        {
          "input": 113,
          "interpolation": "LINEAR",
          "output": 114
        },
        {
          "input": 115,
          "interpolation": "LINEAR",
          "output": 116
        },
        {
          "input": 117,
          "interpolation": "LINEAR",
          "output": 118
        },
        {
          "input": 119,
          "interpolation": "LINEAR",
          "output": 120
        }
      ]
    }
  ],
  "asset": {
    "extras": {
      "author": "BlueMesh (https://sketchfab.com/VapTor)",
      "license": "SKETCHFAB Editorial (https://sketchfab.com/licenses)",
      "source": "https://sketchfab.com/3d-models/ichthyosaurs-ba69c853ba5b418f8e9d15f74f1aaf79",
      "title": "Ichthyosaurs"
    },
    "generator": "Sketchfab-12.67.0",
    "version": "2.0"
  },
  "bufferViews": [
    {
      "buffer": 0,
      "byteLength": 85840,
      "byteStride": 8,
      "name": "shortBufferViews",
      "target": 34962
    },
    {
      "buffer": 0,
      "byteLength": 223536,
      "byteOffset": 85840,
      "name": "floatBufferViews",
      "target": 34963
    },
    {
      "buffer": 0,
      "byteLength": 85840,
      "byteOffset": 309376,
      "byteStride": 8,
      "name": "floatBufferViews",
      "target": 34962
    },
    {
      "buffer": 0,
      "byteLength": 257520,
      "byteOffset": 395216,
      "byteStride": 12,
      "name": "floatBufferViews",
      "target": 34962
    },
    {
      "buffer": 0,
      "byteLength": 343360,
      "byteOffset": 652736,
      "byteStride": 16,
      "name": "floatBufferViews",
      "target": 34962
    },
    {
      "buffer": 0,
      "byteLength": 2560,
      "byteOffset": 996096,
      "name": "floatBufferViews"
    },
    {
      "buffer": 0,
      "byteLength": 13060,
      "byteOffset": 998656,
      "name": "floatBufferViews"
    },
    {
      "buffer": 0,
      "byteLength": 7536,
      "byteOffset": 1011716,
      "byteStride": 12,
      "name": "floatBufferViews"
    },
    {
      "buffer": 0,
      "byteLength": 42192,
      "byteOffset": 1019252,
      "byteStride": 16,
      "name": "floatBufferViews"
    }
  ],
  "buffers": [
    {
      "byteLength": 1061444,
      "uri": "scene.bin"
    }
  ],
  "images": [
    {
      "uri": "textures/ichthyosaurs_baseColor.png"
    },
    {
      "uri": "textures/ichthyosaurs_metallicRoughness.png"
    },
    {
      "uri": "textures/ichthyosaurs_normal.png"
    }
  ],
  "materials": [
    {
      "doubleSided": true,
      "name": "ichthyosaurs",
      "normalTexture": {
        "index": 2
      },
      "occlusionTexture": {
        "index": 1
      },
      "pbrMetallicRoughness": {
        "baseColorTexture": {
          "index": 0
        },
        "metallicRoughnessTexture": {
          "index": 1
        }
      }
    }
  ],
  "meshes": [
    {
      "name": "BODY",
      "primitives": [
        {
          "attributes": {
            "JOINTS_0": 21,
            "NORMAL": 1,
            "POSITION": 0,
            "TANGENT": 2,
            "TEXCOORD_0": 3,
            "WEIGHTS_0": 22
          },
          "indices": 4,
          "material": 0,
          "mode": 4
        }
      ]
    },
    {
      "name": "TEETH DOWN",
      "primitives": [
        {
          "attributes": {
            "JOINTS_0": 23,
            "NORMAL": 6,
            "POSITION": 5,
            "TANGENT": 7,
            "TEXCOORD_0": 8,
            "WEIGHTS_0": 24
          },
          "indices": 9,
          "material": 0,
          "mode": 4
        }
      ]
    },
    {
      "name": "TEETH UP",
      "primitives": [
        {
          "attributes": {
            "JOINTS_0": 25,
            "NORMAL": 11,
            "POSITION": 10,
            "TANGENT": 12,
            "TEXCOORD_0": 13,
            "WEIGHTS_0": 26
          },
          "indices": 14,
          "material": 0,
          "mode": 4
        }
      ]
    },
    {
      "name": "EYES",
      "primitives": [
        {
          "attributes": {
            "JOINTS_0": 27,
            "NORMAL": 16,
            "POSITION": 15,
            "TANGENT": 17,
            "TEXCOORD_0": 18,
            "WEIGHTS_0": 28
          },
          "indices": 19,
          "material": 0,
          "mode": 4
        }
      ]
    }
  ],
  "nodes": [
    {
      "children": [
        1
      ],
      "matrix": [
        0.307771772146225,
        0.0,
        0.0,
        0.0,
        0.0,
        6.833906155328528e-17,
        -0.307771772146225,
        0.0,
        0.0,
        0.307771772146225,
        6.833906155328528e-17,
        0.0,
        0.0,
        0.0,
        0.0,
        1.0
      ],
      "name": "Sketchfab_model"
    },
    {
      "children": [
        2,
        4
      ],
      "name": "Root"
    },
    {
      "children": [
        3
      ],
      "matrix": [
        -0.29086000000000006,
        0.9551700000000001,
        -0.05519000000000001,
        0.0,
        -0.7711,
        -0.19988000000000003,
        0.6045200000000001,
        0.0,
        0.5663900000000001,
        0.21839000000000003,
        0.7946700000000001,
        0.0,
        4.076250000000001,
        1.00545,
        5.903860000000001,
        1.0
      ],
      "name": "Lamp"
    },
    {
      "name": "Lamp"
    },
    {
      "children": [
        5,
        46,
        48,
        50,
        52,
        45,
        47,
        49,
        51
      ],
      "matrix": [
        1.0,
        0.0,
        0.0,
        0.0,
        0.0,
        1.0,
        0.0,
        0.0,
        0.0,
        0.0,
        1.0,
        0.0,
        -0.0,
        -1.66459,
        0.7138900000000001,
        1.0
      ],
      "name": "Armature"
    },
    {
      "children": [
        6
      ],
      "name": "Armature_rootJoint"
    },
    {
      "children": [
        7
      ],
      "name": "Bone.038_Armature",
      "rotation": [
        -3.9931528590386733e-05,
        -0.003626336110755801,
        0.9999934434890747,
        -4.991450031077704e-10
      ],
      "scale": [
        1.0,
        0.9999961256980896,
        1.0034165382385254
      ],
      "translation": [
        0.0,
        2.441649913787842,
        1.8177399635314941
      ]
    },
    {
      "children": [
        8,
        33,
        40
      ],
      "name": "Bone.037_Armature",
      "rotation": [
        0.0,
        -4.999999873689376e-06,
        0.0,
        1.0
      ],
      "scale": [
        1.0,
        1.0,
        1.0
      ],
      "translation": [
        7.000000186963007e-05,
        2.238300085067749,
        -0.936460018157959
      ]
    },
    {
      "children": [
        9,
        32
      ],
      "name": "Bone_Armature",
      "rotation": [
        -3.5084609407931566e-05,
        0.05443645268678665,
        0.9985173344612122,
        2.4962976112874458e-06
      ],
      "scale": [
        1.0000003576278687,
        0.9999961853027344,
        0.9999765753746033
      ],
      "translation": [
        5.999999848427251e-05,
        0.2164900004863739,
        -0.8574299812316895
      ]
    },
    {
      "children": [
        10,
        28
      ],
      "name": "Bone.001_Armature",
      "rotation": [
        -0.007570182904601097,
        0.0,
        0.0,
        0.9999714493751526
      ],
      "scale": [
        1.0,
        1.0000046491622925,
        1.0000046491622925
      ],
      "translation": [
        0.0,
        0.8898199796676636,
        0.0
      ]
    },
    {
      "children": [
        11,
        21
      ],
      "name": "Bone.002_Armature",
      "rotation": [
        -0.06798768043518066,
        0.0,
        0.0,
        0.9976861476898193
      ],
      "scale": [
        1.0,
        0.9999945759773254,
        0.9999945759773254
      ],
      "translation": [
        0.0,
        0.7541400194168091,
        0.0
      ]
    },
    {
      "children": [
        12
      ],
      "name": "Bone.003_Armature",
      "rotation": [
        -0.06221048906445503,
        0.0,
        0.0,
        0.9980631470680237
      ],
      "scale": [
        1.0,
        1.000000238418579,
        1.000000238418579
      ],
      "translation": [
        0.0,
        0.9034500122070313,
        0.0
      ]
    },
    {
      "children": [
        13
      ],
      "name": "Bone.004_Armature",
      "rotation": [
        0.0137313362210989,
        0.0,
        0.0,
        0.9999058246612549
      ],
      "scale": [
        1.0,
        0.999997079372406,
        0.999997079372406
      ],
      "translation": [
        0.0,
        1.036870002746582,
        0.0
      ]
    },
    {
      "children": [
        14,
        15,
        18
      ],
      "name": "Bone.005_Armature",
      "rotation": [
        0.06208978220820427,
        0.0,
        0.0,
        0.9980705976486206
      ],
      "scale": [
        1.0,
        1.000000238418579,
        1.000000238418579
      ],
      "translation": [
        0.0,
        0.9621400237083435,
        0.0
      ]
    },
    {
      "name": "Bone.006_Armature",
      "rotation": [
        0.03987172618508339,
        0.0,
        0.0,
        0.9992048144340515
      ],
      "scale": [
        1.0,
        0.9999995231628418,
        0.9999995231628418
      ],
      "translation": [
        0.0,
        0.8075399994850159,
        0.0
      ]
    },
    {
      "children": [
        16
      ],
      "name": "Bone.007_Armature",
      "rotation": [
        0.3433160185813904,
        0.0,
        0.0,
        0.9392199516296387
      ],
      "scale": [
        1.0,
        1.0000022649765015,
        1.0000022649765015
      ],
      "translation": [
        0.0,
        0.8075399994850159,
        0.0
      ]
    },
    {
      "children": [
        17
      ],
      "name": "Bone.008_Armature",
      "rotation": [
        0.2022761106491089,
        0.0,
        0.0,
        0.9793286323547363
      ],
      "scale": [
        1.0,
        1.000001311302185,
        1.000001311302185
      ],
      "translation": [
        0.0,
        0.5455300211906433,
        0.0
      ]
    },
    {
      "name": "Bone.009_Armature",
      "rotation": [
        -0.09292702376842499,
        0.0,
        0.0,
        0.9956729412078857
      ],
      "scale": [
        1.0,
        1.0000008344650269,
        1.0000008344650269
      ],
      "translation": [
        0.0,
        0.5331799983978271,
        0.0
      ]
    },
    {
      "children": [
        19
      ],
      "name": "Bone.010_Armature",
      "rotation": [
        -0.2624392509460449,
        0.0,
        0.0,
        0.9649485349655151
      ],
      "scale": [
        1.0,
        0.9999985098838806,
        0.9999985098838806
      ],
      "translation": [
        0.0,
        0.8075399994850159,
        0.0
      ]
    },
    {
      "children": [
        20
      ],
      "name": "Bone.011_Armature",
      "rotation": [
        -0.2425478994846344,
        0.0,
        0.0,
        0.9701394438743591
      ],
      "scale": [
        1.0,
        0.9999988079071045,
        0.9999988079071045
      ],
      "translation": [
        0.0,
        0.5185800194740295,
        0.0
      ]
    },
    {
      "name": "Bone.012_Armature",
      "rotation": [
        0.04143543168902397,
        0.0,
        0.0,
        0.999141275882721
      ],
      "scale": [
        1.0,
        1.0000038146972656,
        1.0000038146972656
      ],
      "translation": [
        0.0,
        0.4807699918746948,
        0.0
      ]
    },
    {
      "children": [
        22,
        25
      ],
      "name": "Bone.013_Armature",
      "rotation": [
        -0.5416320562362671,
        0.0,
        0.0,
        0.8406156897544861
      ],
      "scale": [
        1.0,
        1.000001311302185,
        1.000001311302185
      ],
      "translation": [
        0.0,
        0.9034500122070313,
        0.0
      ]
    },
    {
      "children": [
        23
      ],
      "name": "Bone.026_Armature",
      "rotation": [
        0.3720397353172302,
        0.41352254152297974,
        -0.5735507607460022,
        0.6013526916503906
      ],
      "scale": [
        0.9999961256980896,
        1.000006079673767,
        1.0000019073486328
      ],
      "translation": [
        0.0,
        0.8841800093650818,
        0.0
      ]
    },
    {
      "children": [
        24
      ],
      "name": "Bone.028_Armature",
      "rotation": [
        -0.13020765781402588,
        -0.5809588432312012,
        0.40198981761932373,
        0.6956558227539063
      ],
      "scale": [
        0.9999958276748657,
        0.999998152256012,
        1.0000051259994507
      ],
      "translation": [
        0.0,
        0.3247399926185608,
        0.0
      ]
    },
    {
      "name": "Bone.030_Armature",
      "rotation": [
        0.14754712581634521,
        0.0036120633594691753,
        0.006579947657883167,
        0.9890265464782715
      ],
      "scale": [
        1.000004529953003,
        0.999997615814209,
        0.9999935030937195
      ],
      "translation": [
        0.0,
        0.4266200065612793,
        0.0
      ]
    },
    {
      "children": [
        26
      ],
      "name": "Bone.027_Armature",
      "rotation": [
        0.3720397353172302,
        -0.41352254152297974,
        0.5735507607460022,
        0.6013526916503906
      ],
      "scale": [
        0.9999961256980896,
        1.000006079673767,
        1.0000019073486328
      ],
      "translation": [
        0.0,
        0.8841800093650818,
        0.0
      ]
    },
    {
      "children": [
        27
      ],
      "name": "Bone.029_Armature",
      "rotation": [
        -0.13020765781402588,
        0.5809588432312012,
        -0.40198981761932373,
        0.6956558227539063
      ],
      "scale": [
        0.9999958276748657,
        0.999998152256012,
        1.0000051259994507
      ],
      "translation": [
        0.0,
        0.3247399926185608,
        0.0
      ]
    },
    {
      "name": "Bone.031_Armature",
      "rotation": [
        0.14754712581634521,
        -0.0036120633594691753,
        -0.006579947657883167,
        0.9890265464782715
      ],
      "scale": [
        1.000004529953003,
        0.999997615814209,
        0.9999935030937195
      ],
      "translation": [
        0.0,
        0.4266200065612793,
        0.0
      ]
    },
    {
      "children": [
        29
      ],
      "name": "Bone.032_Armature",
      "rotation": [
        0.5275749564170837,
        0.0,
        0.0,
        0.84950852394104
      ],
      "scale": [
        1.0,
        1.000001311302185,
        1.000001311302185
      ],
      "translation": [
        0.0,
        0.7541400194168091,
        0.0
      ]
    },
    {
      "children": [
        30,
        31
      ],
      "name": "Bone.033_Armature",
      "rotation": [
        -0.3079514503479004,
        0.0,
        0.0,
        0.9514020681381226
      ],
      "scale": [
        1.0,
        0.9999977946281433,
        0.9999977946281433
      ],
      "translation": [
        0.0,
        0.5247300267219543,
        0.0
      ]
    },
    {
      "name": "Bone.034_Armature",
      "rotation": [
        0.011730862781405449,
        0.0,
        0.0,
        0.9999312162399292
      ],
      "scale": [
        1.0,
        0.999995231628418,
        0.999995231628418
      ],
      "translation": [
        0.0,
        0.4771299958229065,
        0.0
      ]
    },
    {
      "name": "Bone.035_Armature",
      "rotation": [
        -0.5718735456466675,
        0.0,
        0.0,
        0.8203417658805847
      ],
      "scale": [
        1.0,
        0.9999962449073792,
        0.9999962449073792
      ],
      "translation": [
        0.0,
        0.4771299958229065,
        0.0
      ]
    },
    {
      "name": "Bone.036_Armature",
      "rotation": [
        -0.05723869428038597,
        0.0,
        0.0,
        0.9983605146408081
      ],
      "scale": [
        1.0,
        1.0000025033950806,
        1.0000025033950806
      ],
      "translation": [
        0.0,
        0.8449699878692627,
        -0.8286399841308594
      ]
    },
    {
      "children": [
        34,
        37
      ],
      "name": "Bone.014_Armature",
      "rotation": [
        -2.65668877545977e-05,
        -0.6772445440292358,
        0.7357580065727234,
        -2.3034388505038805e-05
      ],
      "scale": [
        0.9999990463256836,
        1.0000038146972656,
        1.000004768371582
      ],
      "translation": [
        5.999999848427251e-05,
        0.2164900004863739,
        -0.8574299812316895
      ]
    },
    {
      "children": [
        35
      ],
      "name": "Bone.020_Armature",
      "rotation": [
        0.45089367032051086,
        0.5018360018730164,
        -0.4981479048728943,
        0.5447056293487549
      ],
      "scale": [
        0.9999988675117493,
        1.0000027418136597,
        1.0000061988830566
      ],
      "translation": [
        0.0,
        0.6362500190734863,
        0.0
      ]
    },
    {
      "children": [
        36
      ],
      "name": "Bone.022_Armature",
      "rotation": [
        -0.17575496435165405,
        -0.5649036169052124,
        0.17409126460552216,
        0.7872015833854675
      ],
      "scale": [
        0.9999969601631165,
        1.0000054836273193,
        1.0000011920928955
      ],
      "translation": [
        0.0,
        0.3761799931526184,
        0.0
      ]
    },
    {
      "name": "Bone.024_Armature",
      "rotation": [
        0.269615113735199,
        0.23467519879341125,
        0.0875844731926918,
        0.9298194646835327
      ],
      "scale": [
        0.9999978542327881,
        0.9999930262565613,
        1.0000007152557373
      ],
      "translation": [
        0.0,
        0.47756001353263855,
        0.0
      ]
    },
    {
      "children": [
        38
      ],
      "name": "Bone.021_Armature",
      "rotation": [
        0.4497643709182739,
        -0.5028648376464844,
        0.4971088469028473,
        0.5456388592720032
      ],
      "scale": [
        1.0000019073486328,
        0.9999951720237732,
        0.9999937415122986
      ],
      "translation": [
        0.0,
        0.6362500190734863,
        0.0
      ]
    },
    {
      "children": [
        39
      ],
      "name": "Bone.023_Armature",
      "rotation": [
        -0.1741243451833725,
        0.5652626156806946,
        -0.17291976511478424,
        0.7875643968582153
      ],
      "scale": [
        0.9999940395355225,
        1.0000020265579224,
        1.0000016689300537
      ],
      "translation": [
        0.0,
        0.3609200119972229,
        0.0
      ]
    },
    {
      "name": "Bone.025_Armature",
      "rotation": [
        0.269615113735199,
        -0.23467519879341125,
        -0.0875844731926918,
        0.9298194646835327
      ],
      "scale": [
        0.9999978542327881,
        0.9999930262565613,
        1.0000007152557373
      ],
      "translation": [
        0.0,
        0.47756001353263855,
        0.0
      ]
    },
    {
      "children": [
        41,
        42,
        44
      ],
      "name": "Bone.015_Armature",
      "rotation": [
        -0.054505929350852966,
        -3.00916417472763e-05,
        -2.4962814677564893e-06,
        0.9985134601593018
      ],
      "scale": [
        0.999998927116394,
        1.0000028610229492,
        1.0000017881393433
      ],
      "translation": [
        5.999999848427251e-05,
        0.2164900004863739,
        -0.8574299812316895
      ]
    },
    {
      "name": "Bone.019_Armature",
      "rotation": [
        0.08706555515527725,
        4.98101098855841e-06,
        0.0,
        0.9962025880813599
      ],
      "scale": [
        0.999999463558197,
        1.0000014305114746,
        1.0000008344650269
      ],
      "translation": [
        0.0,
        0.5595899820327759,
        -0.6056699752807617
      ]
    },
    {
      "children": [
        43
      ],
      "name": "Bone.016_Armature",
      "rotation": [
        0.05630926042795181,
        0.0,
        0.0,
        0.9984133839607239
      ],
      "scale": [
        1.0,
        1.0000014305114746,
        1.0000014305114746
      ],
      "translation": [
        0.0,
        1.0316499471664429,
        0.0
      ]
    },
    {
      "name": "Bone.017_Armature",
      "rotation": [
        -0.0022500054910779,
        4.999987140763551e-06,
        0.0,
        0.9999974966049194
      ],
      "scale": [
        1.0,
        1.0000001192092896,
        1.0000001192092896
      ],
      "translation": [
        0.0,
        0.7078199982643127,
        0.0
      ]
    },
    {
      "name": "Bone.018_Armature",
      "rotation": [
        0.06324166059494019,
        -4.98999361298047e-06,
        0.0,
        0.9979982376098633
      ],
      "scale": [
        1.0000003576278687,
        0.9999986886978149,
        0.9999989867210388
      ],
      "translation": [
        0.0,
        1.173799991607666,
        -0.3577300012111664
      ]
    },
    {
      "matrix": [
        0.7028500000000001,
        0.0,
        -0.0,
        0.0,
        0.0,
        -0.004570000000000001,
        0.85496,
        0.0,
        0.0,
        -0.85496,
        -0.004570000000000001,
        0.0,
        0.0,
        1.4634599999999998,
        -0.19582000000000002,
        1.0
      ],
      "name": "BODY"
    },
    {
      "mesh": 0,
      "name": "BODY_0",
      "skin": 0
    },
    {
      "matrix": [
        -0.012920000000000001,
        0.0,
        0.0,
        0.0,
        0.0,
        0.012860000000000002,
        0.0012500000000000002,
        0.0,
        0.0,
        0.0012500000000000002,
        -0.012860000000000002,
        0.0,
        0.13845000000000002,
        -1.8098899999999998,
        -0.41042000000000006,
        1.0
      ],
      "name": "TEETH DOWN"
    },
    {
      "mesh": 1,
      "name": "TEETH DOWN_0",
      "skin": 0
    },
    {
      "matrix": [
        0.011470000000000003,
        0.0,
        0.0,
        0.0,
        0.0,
        0.011470000000000003,
        0.0,
        0.0,
        0.0,
        0.0,
        0.011470000000000003,
        0.0,
        0.024760000000000004,
        -2.71126,
        -0.16516000000000003,
        1.0
      ],
      "name": "TEETH UP"
    },
    {
      "mesh": 2,
      "name": "TEETH UP_0",
      "skin": 0
    },
    {
      "name": "EYES",
      "scale": [
        0.06558000296354294,
        0.06558000296354294,
        0.06558000296354294
      ],
      "translation": [
        0.21296000480651855,
        -1.2805500030517578,
        -0.09582000225782394
      ]
    },
    {
      "mesh": 3,
      "name": "EYES_0",
      "skin": 0
    }
  ],
  "samplers": [
    {
      "magFilter": 9729,
      "minFilter": 9987,
      "wrapS": 10497,
      "wrapT": 10497
    }
  ],
  "scene": 0,
  "scenes": [
    {
      "name": "Sketchfab_Scene",
      "nodes": [
        0
      ]
    }
  ],
  "skins": [
    {
      "inverseBindMatrices": 20,
      "joints": [
        5,
        6,
        7,
        8,
        9,
        10,
        11,
        12,
        13,
        14,
        15,
        16,
        17,
        18,
        19,
        20,
        21,
        22,
        23,
        24,
        25,
        26,
        27,
        28,
        29,
        30,
        31,
        32,
        33,
        34,
        35,
        36,
        37,
        38,
        39,
        40,
        41,
        42,
        43,
        44
      ],
      "skeleton": 5
    }
  ],
  "textures": [
    {
      "sampler": 0,
      "source": 0
    },
    {
      "sampler": 0,
      "source": 1
    },
    {
      "sampler": 0,
      "source": 2
    }
  ]
}
