{
  "accessors": [
    {
      "bufferView": 2,
      "componentType": 5126,
      "count": 32,
      "max": [
        79.41712951660156,
        353.7935791015625,
        448.9488525390625
      ],
      "min": [
        -62.46418762207031,
        298.8266296386719,
        89.47317504882813
      ],
      "type": "VEC3"
    },
    {
      "bufferView": 2,
      "byteOffset": 384,
      "componentType": 5126,
      "count": 32,
      "max": [
        1.0,
        1.0,
        1.0
      ],
      "min": [
        -1.0,
        -1.0,
        -1.0
      ],
      "type": "VEC3"
    },
    {
      "bufferView": 1,
      "componentType": 5126,
      "count": 32,
      "max": [
        0.8266245722770691,
        0.9799999594688416
      ],
      "min": [
        0.019999999552965164,
        0.019999999552965164
      ],
      "type": "VEC2"
    },
    {
      "bufferView": 0,
      "componentType": 5125,
      "count": 48,
      "type": "SCALAR"
    },
    {
      "bufferView": 2,
      "byteOffset": 768,
      "componentType": 5126,
      "count": 25,
      "max": [
        389.3474426269531,
        988.720703125,
        420.91326904296875
      ],
      "min": [
        -223.36660766601563,
        988.720703125,
        -68.69969177246094
      ],
      "type": "VEC3"
    },
    {
      "bufferView": 2,
      "byteOffset": 1068,
      "componentType": 5126,
      "count": 25,
      "max": [
        0.0,
        -1.0,
        0.0
      ],
      "min": [
        0.0,
        -1.0,
        0.0
      ],
      "type": "VEC3"
    },
    {
      "bufferView": 1,
      "byteOffset": 256,
      "componentType": 5126,
      "count": 25,
      "max": [
        0.8899091482162476,
        0.9585691094398499
      ],
      "min": [
        0.6588023900985718,
        0.7022584676742554
      ],
      "type": "VEC2"
    },
    {
      "bufferView": 0,
      "byteOffset": 192,
      "componentType": 5125,
      "count": 96,
      "type": "SCALAR"
    },
    {
      "bufferView": 2,
      "byteOffset": 1368,
      "componentType": 5126,
      "count": 50,
      "max": [
        276.0804748535156,
        310.1937255859375,
        178.6156463623047
      ],
      "min": [
        162.99972534179688,
        292.2816162109375,
        52.30097961425781
      ],
      "type": "VEC3"
    },
    {
      "bufferView": 2,
      "byteOffset": 1968,
      "componentType": 5126,
      "count": 50,
      "max": [
        0.6220816373825073,
        -0.7825382351875305,
        0.23890261352062225
      ],
      "min": [
        -0.40695440769195557,
        -1.0,
        -0.12193407863378525
      ],
      "type": "VEC3"
    },
    {
      "bufferView": 1,
      "byteOffset": 456,
      "componentType": 5126,
      "count": 50,
      "max": [
        0.3568514883518219,
        0.9567326903343201
      ],
      "min": [
        0.03738237917423248,
        0.6196920871734619
      ],
      "type": "VEC2"
    },
    {
      "bufferView": 0,
      "byteOffset": 576,
      "componentType": 5125,
      "count": 192,
      "type": "SCALAR"
    },
    {
      "bufferView": 2,
      "byteOffset": 2568,
      "componentType": 5126,
      "count": 50,
      "max": [
        387.9061279296875,
        309.92034912109375,
        179.2884063720703
      ],
      "min": [
        272.50567626953125,
        293.5745849609375,
        52.30097961425781
      ],
      "type": "VEC3"
    },
    {
      "bufferView": 2,
      "byteOffset": 3168,
      "componentType": 5126,
      "count": 50,
      "max": [
        0.39011847972869873,
        -0.5560941696166992,
        0.21271619200706482
      ],
      "min": [
        -0.8311164379119873,
        -0.9998074769973755,
        -0.12492435425519943
      ],
      "type": "VEC3"
    },
    {
      "bufferView": 1,
      "byteOffset": 856,
      "componentType": 5126,
      "count": 50,
      "max": [
        0.830521285533905,
        0.35704049468040466
      ],
      "min": [
        0.524088978767395,
        0.019999999552965164
      ],
      "type": "VEC2"
    },
    {
      "bufferView": 0,
      "byteOffset": 1344,
      "componentType": 5125,
      "count": 192,
      "type": "SCALAR"
    },
    {
      "bufferView": 2,
      "byteOffset": 3768,
      "componentType": 5126,
      "count": 124,
      "max": [
        290.56170654296875,
        -27.603275299072266,
        30.340530395507813
      ],
      "min": [
        221.7683563232422,
        -51.614688873291016,
        -18.583839416503906
      ],
      "type": "VEC3"
    },
    {
      "bufferView": 2,
      "byteOffset": 5256,
      "componentType": 5126,
      "count": 124,
      "max": [
        1.0,
        1.0,
        1.0
      ],
      "min": [
        -1.0,
        -1.0,
        -1.0
      ],
      "type": "VEC3"
    },
    {
      "bufferView": 1,
      "byteOffset": 1256,
      "componentType": 5126,
      "count": 124,
      "max": [
        0.8633296489715576,
        0.9799999594688416
      ],
      "min": [
        0.10656136274337769,
        0.020000001415610313
      ],
      "type": "VEC2"
    },
    {
      "bufferView": 0,
      "byteOffset": 2112,
      "componentType": 5125,
      "count": 222,
      "type": "SCALAR"
    },
    {
      "bufferView": 2,
      "byteOffset": 6744,
      "componentType": 5126,
      "count": 124,
      "max": [
        290.56170654296875,
        -27.603275299072266,
        30.340530395507813
      ],
      "min": [
        221.7683563232422,
        -51.614688873291016,
        -18.583839416503906
      ],
      "type": "VEC3"
    },
    {
      "bufferView": 2,
      "byteOffset": 8232,
      "componentType": 5126,
      "count": 124,
      "max": [
        1.0,
        1.0,
        1.0
      ],
      "min": [
        -1.0,
        -1.0,
        -1.0
      ],
      "type": "VEC3"
    },
    {
      "bufferView": 1,
      "byteOffset": 2248,
      "componentType": 5126,
      "count": 124,
      "max": [
        0.8633296489715576,
        0.9799999594688416
      ],
      "min": [
        0.10656136274337769,
        0.020000001415610313
      ],
      "type": "VEC2"
    },
    {
      "bufferView": 0,
      "byteOffset": 3000,
      "componentType": 5125,
      "count": 222,
      "type": "SCALAR"
    },
    {
      "bufferView": 2,
      "byteOffset": 9720,
      "componentType": 5126,
      "count": 124,
      "max": [
        290.56170654296875,
        -27.603275299072266,
        30.340530395507813
      ],
      "min": [
        221.7683563232422,
        -51.614688873291016,
        -18.583839416503906
      ],
      "type": "VEC3"
    },
    {
      "bufferView": 2,
      "byteOffset": 11208,
      "componentType": 5126,
      "count": 124,
      "max": [
        1.0,
        1.0,
        1.0
      ],
      "min": [
        -1.0,
        -1.0,
        -1.0
      ],
      "type": "VEC3"
    },
    {
      "bufferView": 1,
      "byteOffset": 3240,
      "componentType": 5126,
      "count": 124,
      "max": [
        0.8633296489715576,
        0.9799999594688416
      ],
      "min": [
        0.10656136274337769,
        0.020000001415610313
      ],
      "type": "VEC2"
    },
    {
      "bufferView": 0,
      "byteOffset": 3888,
      "componentType": 5125,
      "count": 222,
      "type": "SCALAR"
    },
    {
      "bufferView": 2,
      "byteOffset": 12696,
      "componentType": 5126,
      "count": 25,
      "max": [
        318.30963134765625,
        333.1240234375,
        0.0
      ],
      "min": [
        -318.30963134765625,
        -281.3598327636719,
        0.0
      ],
      "type": "VEC3"
    },
    {
      "bufferView": 2,
      "byteOffset": 12996,
      "componentType": 5126,
      "count": 25,
      "max": [
        0.0,
        0.0,
        1.0
      ],
      "min": [
        0.0,
        0.0,
        1.0
      ],
      "type": "VEC3"
    },
    {
      "bufferView": 1,
      "byteOffset": 4232,
      "componentType": 5126,
      "count": 25,
      "max": [
        1.0,
        1.0
      ],
      "min": [
        0.0,
        0.0
      ],
      "type": "VEC2"
    },
    {
      "bufferView": 0,
      "byteOffset": 4776,
      "componentType": 5125,
      "count": 96,
      "type": "SCALAR"
    },
    {
      "bufferView": 2,
      "byteOffset": 13296,
      "componentType": 5126,
      "count": 45,
      "max": [
        224.69696044921875,
        36.892112731933594,
        7.036406517028809
      ],
      "min": [
        134.796630859375,
        14.687660217285156,
        -113.4764404296875
      ],
      "type": "VEC3"
    },
    {
      "bufferView": 2,
      "byteOffset": 13836,
      "componentType": 5126,
      "count": 45,
      "max": [
        1.0,
        0.0,
        1.0
      ],
      "min": [
        -1.0,
        -1.0,
        -1.0
      ],
      "type": "VEC3"
    },
    {
      "bufferView": 1,
      "byteOffset": 4432,
      "componentType": 5126,
      "count": 45,
      "max": [
        0.7746450901031494,
        0.9569810628890991
      ],
      "min": [
        0.39372119307518005,
        0.38068437576293945
      ],
      "type": "VEC2"
    },
    {
      "bufferView": 0,
      "byteOffset": 5160,
      "componentType": 5125,
      "count": 126,
      "type": "SCALAR"
    },
    {
      "bufferView": 2,
      "byteOffset": 14376,
      "componentType": 5126,
      "count": 45,
      "max": [
        224.69696044921875,
        36.892112731933594,
        7.036406517028809
      ],
      "min": [
        134.796630859375,
        14.687660217285156,
        -113.4764404296875
      ],
      "type": "VEC3"
    },
    {
      "bufferView": 2,
      "byteOffset": 14916,
      "componentType": 5126,
      "count": 45,
      "max": [
        1.0,
        0.0,
        1.0
      ],
      "min": [
        -1.0,
        -1.0,
        -1.0
      ],
      "type": "VEC3"
    },
    {
      "bufferView": 1,
      "byteOffset": 4792,
      "componentType": 5126,
      "count": 45,
      "max": [
        0.7746450901031494,
        0.9569810628890991
      ],
      "min": [
        0.39372119307518005,
        0.38068437576293945
      ],
      "type": "VEC2"
    },
    {
      "bufferView": 0,
      "byteOffset": 5664,
      "componentType": 5125,
      "count": 126,
      "type": "SCALAR"
    },
    {
      "bufferView": 2,
      "byteOffset": 15456,
      "componentType": 5126,
      "count": 45,
      "max": [
        224.69696044921875,
        36.892112731933594,
        7.036406517028809
      ],
      "min": [
        134.796630859375,
        14.687660217285156,
        -113.4764404296875
      ],
      "type": "VEC3"
    },
    {
      "bufferView": 2,
      "byteOffset": 15996,
      "componentType": 5126,
      "count": 45,
      "max": [
        1.0,
        0.0,
        1.0
      ],
      "min": [
        -1.0,
        -1.0,
        -1.0
      ],
      "type": "VEC3"
    },
    {
      "bufferView": 1,
      "byteOffset": 5152,
      "componentType": 5126,
      "count": 45,
      "max": [
        0.7746450901031494,
        0.9569810628890991
      ],
      "min": [
        0.39372119307518005,
        0.38068437576293945
      ],
      "type": "VEC2"
    },
    {
      "bufferView": 0,
      "byteOffset": 6168,
      "componentType": 5125,
      "count": 126,
      "type": "SCALAR"
    },
    {
      "bufferView": 2,
      "byteOffset": 16536,
      "componentType": 5126,
      "count": 1324,
      "max": [
        360.6763610839844,
        423.1518859863281,
        457.37689208984375
      ],
      "min": [
        -434.15545654296875,
        -278.49603271484375,
        -76.67904663085938
      ],
      "type": "VEC3"
    },
    {
      "bufferView": 2,
      "byteOffset": 32424,
      "componentType": 5126,
      "count": 1324,
      "max": [
        1.0,
        1.0,
        1.0
      ],
      "min": [
        -1.0,
        -1.0,
        -1.0
      ],
      "type": "VEC3"
    },
    {
      "bufferView": 1,
      "byteOffset": 5512,
      "componentType": 5126,
      "count": 1324,
      "max": [
        14.053509712219238,
        97.70948028564453
      ],
      "min": [
        -9.691033363342285,
        -9.387392044067383
      ],
      "type": "VEC2"
    },
    {
      "bufferView": 0,
      "byteOffset": 6672,
      "componentType": 5125,
      "count": 2046,
      "type": "SCALAR"
    },
    {
      "bufferView": 2,
      "byteOffset": 48312,
      "componentType": 5126,
      "count": 28,
      "max": [
        187.54598999023438,
        319.94183349609375,
        27.385108947753906
      ],
      "min": [
        -182.177001953125,
        -12.421417236328125,
        -73.77735137939453
      ],
      "type": "VEC3"
    },
    {
      "bufferView": 2,
      "byteOffset": 48648,
      "componentType": 5126,
      "count": 28,
      "max": [
        1.0,
        1.0,
        1.0
      ],
      "min": [
        -1.0,
        -1.0,
        0.0
      ],
      "type": "VEC3"
    },
    {
      "bufferView": 1,
      "byteOffset": 16104,
      "componentType": 5126,
      "count": 28,
      "max": [
        1.3600236177444458,
        3.6314244270324707
      ],
      "min": [
        -0.4574587345123291,
        1.8737257719039917
      ],
      "type": "VEC2"
    },
    {
      "bufferView": 0,
      "byteOffset": 14856,
      "componentType": 5125,
      "count": 54,
      "type": "SCALAR"
    },
    {
      "bufferView": 2,
      "byteOffset": 48984,
      "componentType": 5126,
      "count": 4,
      "max": [
        -167.73916625976563,
        303.5228271484375,
        118.35031127929688
      ],
      "min": [
        -167.73916625976563,
        166.0655517578125,
        -74.0107192993164
      ],
      "type": "VEC3"
    },
    {
      "bufferView": 2,
      "byteOffset": 49032,
      "componentType": 5126,
      "count": 4,
      "max": [
        1.0,
        0.0,
        0.0
      ],
      "min": [
        1.0,
        0.0,
        0.0
      ],
      "type": "VEC3"
    },
    {
      "bufferView": 1,
      "byteOffset": 16328,
      "componentType": 5126,
      "count": 4,
      "max": [
        1.0,
        1.0
      ],
      "min": [
        0.0,
        0.0
      ],
      "type": "VEC2"
    },
    {
      "bufferView": 0,
      "byteOffset": 15072,
      "componentType": 5125,
      "count": 6,
      "type": "SCALAR"
    },
    {
      "bufferView": 2,
      "byteOffset": 49080,
      "componentType": 5126,
      "count": 117,
      "max": [
        359.4316101074219,
        420.1419372558594,
        529.6812744140625
      ],
      "min": [
        -289.1329345703125,
        -260.5636291503906,
        -76.37310791015625
      ],
      "type": "VEC3"
    },
    {
      "bufferView": 2,
      "byteOffset": 50484,
      "componentType": 5126,
      "count": 117,
      "max": [
        1.0,
        1.0,
        1.0
      ],
      "min": [
        -1.0,
        -1.0,
        -7.768797445351083e-07
      ],
      "type": "VEC3"
    },
    {
      "bufferView": 1,
      "byteOffset": 16360,
      "componentType": 5126,
      "count": 117,
      "max": [
        13.524471282958984,
        10.190153121948242
      ],
      "min": [
        -1.7532955098431557e-05,
        0.0
      ],
      "type": "VEC2"
    },
    {
      "bufferView": 0,
      "byteOffset": 15096,
      "componentType": 5125,
      "count": 300,
      "type": "SCALAR"
    },
    {
      "bufferView": 2,
      "byteOffset": 51888,
      "componentType": 5126,
      "count": 112,
      "max": [
        386.6473083496094,
        462.875244140625,
        542.3345947265625
      ],
      "min": [
        -462.1275939941406,
        -319.8443603515625,
        118.50955200195313
      ],
      "type": "VEC3"
    },
    {
      "bufferView": 2,
      "byteOffset": 53232,
      "componentType": 5126,
      "count": 112,
      "max": [
        1.0,
        1.0,
        1.0
      ],
      "min": [
        -1.0,
        -1.0,
        -1.0
      ],
      "type": "VEC3"
    },
    {
      "bufferView": 1,
      "byteOffset": 17296,
      "componentType": 5126,
      "count": 112,
      "max": [
        2.561711072921753,
        2.831325054168701
      ],
      "min": [
        -6.398617744445801,
        -1.2050849199295044
      ],
      "type": "VEC2"
    },
    {
      "bufferView": 0,
      "byteOffset": 16296,
      "componentType": 5125,
      "count": 192,
      "type": "SCALAR"
    },
    {
      "bufferView": 2,
      "byteOffset": 54576,
      "componentType": 5126,
      "count": 24,
      "max": [
        350.0346374511719,
        331.273193359375,
        375.0579528808594
      ],
      "min": [
        -152.48980712890625,
        -259.6358642578125,
        -75.94346618652344
      ],
      "type": "VEC3"
    },
    {
      "bufferView": 2,
      "byteOffset": 54864,
      "componentType": 5126,
      "count": 24,
      "max": [
        1.0,
        0.004350059665739536,
        2.4835762246766535e-07
      ],
      "min": [
        -0.0004206477024126798,
        -1.0,
        -5.33277500380791e-07
      ],
      "type": "VEC3"
    },
    {
      "bufferView": 1,
      "byteOffset": 18192,
      "componentType": 5126,
      "count": 24,
      "max": [
        1.1999964714050293,
        1.0
      ],
      "min": [
        0.0,
        -0.17482949793338776
      ],
      "type": "VEC2"
    },
    {
      "bufferView": 0,
      "byteOffset": 17064,
      "componentType": 5125,
      "count": 36,
      "type": "SCALAR"
    },
    {
      "bufferView": 2,
      "byteOffset": 55152,
      "componentType": 5126,
      "count": 159,
      "max": [
        383.2078552246094,
        -120.90899658203125,
        428.31060791015625
      ],
      "min": [
        -339.011962890625,
        -289.7406005859375,
        -71.33013916015625
      ],
      "type": "VEC3"
    },
    {
      "bufferView": 2,
      "byteOffset": 57060,
      "componentType": 5126,
      "count": 159,
      "max": [
        1.0,
        1.0,
        1.0
      ],
      "min": [
        -1.0,
        -1.0,
        -1.0
      ],
      "type": "VEC3"
    },
    {
      "bufferView": 1,
      "byteOffset": 18384,
      "componentType": 5126,
      "count": 159,
      "max": [
        1.0,
        1.0
      ],
      "min": [
        -1.4211634397506714,
        -2.0689902305603027
      ],
      "type": "VEC2"
    },
    {
      "bufferView": 0,
      "byteOffset": 17208,
      "componentType": 5125,
      "count": 480,
      "type": "SCALAR"
    },
    {
      "bufferView": 2,
      "byteOffset": 58968,
      "componentType": 5126,
      "count": 4,
      "max": [
        347.9553527832031,
        -134.43173217773438,
        139.09169006347656
      ],
      "min": [
        225.42855834960938,
        -139.884521484375,
        -69.14420318603516
      ],
      "type": "VEC3"
    },
    {
      "bufferView": 2,
      "byteOffset": 59016,
      "componentType": 5126,
      "count": 4,
      "max": [
        5.978398665007489e-09,
        -0.9996573328971863,
        -0.026176664978265762
      ],
      "min": [
        5.9783982209182795e-09,
        -0.999657392501831,
        -0.02617666684091091
      ],
      "type": "VEC3"
    },
    {
      "bufferView": 1,
      "byteOffset": 19656,
      "componentType": 5126,
      "count": 4,
      "max": [
        1.0,
        1.0
      ],
      "min": [
        0.0,
        0.0
      ],
      "type": "VEC2"
    },
    {
      "bufferView": 0,
      "byteOffset": 19128,
      "componentType": 5125,
      "count": 6,
      "type": "SCALAR"
    },
    {
      "bufferView": 2,
      "byteOffset": 59064,
      "componentType": 5126,
      "count": 15,
      "max": [
        49.33647155761719,
        -62.38843536376953,
        214.2174072265625
      ],
      "min": [
        15.162681579589844,
        -114.69762420654297,
        214.2174072265625
      ],
      "type": "VEC3"
    },
    {
      "bufferView": 2,
      "byteOffset": 59244,
      "componentType": 5126,
      "count": 15,
      "max": [
        0.0,
        0.0,
        1.0
      ],
      "min": [
        0.0,
        0.0,
        1.0
      ],
      "type": "VEC3"
    },
    {
      "bufferView": 1,
      "byteOffset": 19688,
      "componentType": 5126,
      "count": 15,
      "max": [
        0.16484521329402924,
        0.9799999594688416
      ],
      "min": [
        0.019999999552965164,
        0.7582879662513733
      ],
      "type": "VEC2"
    },
    {
      "bufferView": 1,
      "byteOffset": 19808,
      "componentType": 5126,
      "count": 15,
      "max": [
        0.16484521329402924,
        0.9799999594688416
      ],
      "min": [
        0.019999999552965164,
        0.7582879662513733
      ],
      "type": "VEC2"
    },
    {
      "bufferView": 0,
      "byteOffset": 19152,
      "componentType": 5125,
      "count": 48,
      "type": "SCALAR"
    },
    {
      "bufferView": 2,
      "byteOffset": 59424,
      "componentType": 5126,
      "count": 25,
      "max": [
        159.70260620117188,
        -180.98629760742188,
        216.8275146484375
      ],
      "min": [
        91.35501861572266,
        -233.29550170898438,
        216.8275146484375
      ],
      "type": "VEC3"
    },
    {
      "bufferView": 2,
      "byteOffset": 59724,
      "componentType": 5126,
      "count": 25,
      "max": [
        0.0,
        0.0,
        1.0
      ],
      "min": [
        0.0,
        0.0,
        1.0
      ],
      "type": "VEC3"
    },
    {
      "bufferView": 1,
      "byteOffset": 19928,
      "componentType": 5126,
      "count": 25,
      "max": [
        0.958058774471283,
        0.4878079891204834
      ],
      "min": [
        0.6683682203292847,
        0.26609599590301514
      ],
      "type": "VEC2"
    },
    {
      "bufferView": 1,
      "byteOffset": 20128,
      "componentType": 5126,
      "count": 25,
      "max": [
        0.958058774471283,
        0.4878079891204834
      ],
      "min": [
        0.6683682203292847,
        0.26609599590301514
      ],
      "type": "VEC2"
    },
    {
      "bufferView": 0,
      "byteOffset": 19344,
      "componentType": 5125,
      "count": 96,
      "type": "SCALAR"
    },
    {
      "bufferView": 2,
      "byteOffset": 60024,
      "componentType": 5126,
      "count": 25,
      "max": [
        83.51026153564453,
        -62.38843536376953,
        214.2174072265625
      ],
      "min": [
        15.162681579589844,
        -114.69762420654297,
        214.2174072265625
      ],
      "type": "VEC3"
    },
    {
      "bufferView": 2,
      "byteOffset": 60324,
      "componentType": 5126,
      "count": 25,
      "max": [
        0.0,
        0.0,
        1.0
      ],
      "min": [
        0.0,
        0.0,
        1.0
      ],
      "type": "VEC3"
    },
    {
      "bufferView": 1,
      "byteOffset": 20328,
      "componentType": 5126,
      "count": 25,
      "max": [
        0.3096904456615448,
        0.9799999594688416
      ],
      "min": [
        0.019999999552965164,
        0.7582879662513733
      ],
      "type": "VEC2"
    },
    {
      "bufferView": 1,
      "byteOffset": 20528,
      "componentType": 5126,
      "count": 25,
      "max": [
        0.3096904456615448,
        0.9799999594688416
      ],
      "min": [
        0.019999999552965164,
        0.7582879662513733
      ],
      "type": "VEC2"
    },
    {
      "bufferView": 0,
      "byteOffset": 19728,
      "componentType": 5125,
      "count": 96,
      "type": "SCALAR"
    },
    {
      "bufferView": 2,
      "byteOffset": 60624,
      "componentType": 5126,
      "count": 15,
      "max": [
        83.51026153564453,
        -62.38843536376953,
        214.21742248535156
      ],
      "min": [
        49.33647155761719,
        -114.6976318359375,
        214.2174072265625
      ],
      "type": "VEC3"
    },
    {
      "bufferView": 2,
      "byteOffset": 60804,
      "componentType": 5126,
      "count": 15,
      "max": [
        9.177028346130101e-07,
        5.913631753173831e-07,
        1.0
      ],
      "min": [
        0.0,
        0.0,
        1.0
      ],
      "type": "VEC3"
    },
    {
      "bufferView": 1,
      "byteOffset": 20728,
      "componentType": 5126,
      "count": 15,
      "max": [
        0.3096904456615448,
        0.9799999594688416
      ],
      "min": [
        0.16484521329402924,
        0.7582879662513733
      ],
      "type": "VEC2"
    },
    {
      "bufferView": 1,
      "byteOffset": 20848,
      "componentType": 5126,
      "count": 15,
      "max": [
        0.3096904456615448,
        0.9799999594688416
      ],
      "min": [
        0.16484521329402924,
        0.7582879662513733
      ],
      "type": "VEC2"
    },
    {
      "bufferView": 0,
      "byteOffset": 20112,
      "componentType": 5125,
      "count": 48,
      "type": "SCALAR"
    },
    {
      "bufferView": 2,
      "byteOffset": 60984,
      "componentType": 5126,
      "count": 9,
      "max": [
        125.52880859375,
        -207.14089965820313,
        216.8275146484375
      ],
      "min": [
        91.35501861572266,
        -233.29550170898438,
        216.8275146484375
      ],
      "type": "VEC3"
    },
    {
      "bufferView": 2,
      "byteOffset": 61092,
      "componentType": 5126,
      "count": 9,
      "max": [
        0.0,
        0.0,
        1.0
      ],
      "min": [
        0.0,
        0.0,
        1.0
      ],
      "type": "VEC3"
    },
    {
      "bufferView": 1,
      "byteOffset": 20968,
      "componentType": 5126,
      "count": 9,
      "max": [
        0.8132135272026062,
        0.37695199251174927
      ],
      "min": [
        0.6683682203292847,
        0.26609599590301514
      ],
      "type": "VEC2"
    },
    {
      "bufferView": 1,
      "byteOffset": 21040,
      "componentType": 5126,
      "count": 9,
      "max": [
        0.8132135272026062,
        0.37695199251174927
      ],
      "min": [
        0.6683682203292847,
        0.26609599590301514
      ],
      "type": "VEC2"
    },
    {
      "bufferView": 0,
      "byteOffset": 20304,
      "componentType": 5125,
      "count": 24,
      "type": "SCALAR"
    }
  ],
  "asset": {
    "extras": {
      "author": "Mikail Karaca (https://sketchfab.com/Xavaltir)",
      "license": "CC-BY-4.0 (http://creativecommons.org/licenses/by/4.0/)",
      "source": "https://sketchfab.com/3d-models/kyoto-cityscene-restaurant-219daec3b3bc443cba6fd350eba5cbf4",
      "title": "Kyoto Cityscene: Restaurant"
    },
    "generator": "Sketchfab-12.67.0",
    "version": "2.0"
  },
  "bufferViews": [
    {
      "buffer": 0,
      "byteLength": 20400,
      "name": "floatBufferViews",
      "target": 34963
    },
    {
      "buffer": 0,
      "byteLength": 21112,
      "byteOffset": 20400,
      "byteStride": 8,
      "name": "floatBufferViews",
      "target": 34962
    },
    {
      "buffer": 0,
      "byteLength": 61200,
      "byteOffset": 41512,
      "byteStride": 12,
      "name": "floatBufferViews",
      "target": 34962
    }
  ],
  "buffers": [
    {
      "byteLength": 102712,
      "uri": "scene.bin"
    }
  ],
  "images": [
    {
      "uri": "textures/Material_184_baseColor.jpeg"
    },
    {
      "uri": "textures/Material_0_baseColor.jpeg"
    },
    {
      "uri": "textures/Material_63_baseColor.png"
    },
    {
      "uri": "textures/Material_179_baseColor.png"
    },
    {
      "uri": "textures/Material_187_baseColor.jpeg"
    },
    {
      "uri": "textures/Material_188_baseColor.png"
    },
    {
      "uri": "textures/Material_181_baseColor.png"
    },
    {
      "uri": "textures/Material_180_baseColor.png"
    },
    {
      "uri": "textures/Material_178_baseColor.jpeg"
    },
    {
      "uri": "textures/Material_185_baseColor.png"
    },
    {
      "uri": "textures/Material_186_baseColor.png"
    },
    {
      "uri": "textures/Material_189_baseColor.png"
    }
  ],
  "materials": [
    {
      "doubleSided": true,
      "name": "Plane001__0",
      "pbrMetallicRoughness": {
        "metallicFactor": 0.0,
        "roughnessFactor": 0.6
      }
    },
    {
      "doubleSided": true,
      "name": "Material_184",
      "pbrMetallicRoughness": {
        "baseColorTexture": {
          "index": 0
        },
        "metallicFactor": 0.0,
        "roughnessFactor": 0.6
      }
    },
    {
      "doubleSided": true,
      "name": "Material_0",
      "pbrMetallicRoughness": {
        "baseColorTexture": {
          "index": 1
        },
        "metallicFactor": 0.0,
        "roughnessFactor": 0.6
      }
    },
    {
      "doubleSided": true,
      "name": "Material_63",
      "pbrMetallicRoughness": {
        "baseColorTexture": {
          "index": 2
        },
        "metallicFactor": 0.0,
        "roughnessFactor": 0.6
      }
    },
    {
      "doubleSided": true,
      "name": "Material_179",
      "pbrMetallicRoughness": {
        "baseColorTexture": {
          "index": 3
        },
        "metallicFactor": 0.0,
        "roughnessFactor": 0.6
      }
    },
    {
      "doubleSided": true,
      "name": "Material_187",
      "pbrMetallicRoughness": {
        "baseColorTexture": {
          "index": 4
        },
        "metallicFactor": 0.0,
        "roughnessFactor": 0.6
      }
    },
    {
      "doubleSided": true,
      "name": "Material_188",
      "pbrMetallicRoughness": {
        "baseColorTexture": {
          "index": 5
        },
        "metallicFactor": 0.0,
        "roughnessFactor": 0.6
      }
    },
    {
      "doubleSided": true,
      "name": "Material_181",
      "pbrMetallicRoughness": {
        "baseColorTexture": {
          "index": 6
        },
        "metallicFactor": 0.0,
        "roughnessFactor": 0.6
      }
    },
    {
      "doubleSided": true,
      "name": "Material_180",
      "pbrMetallicRoughness": {
        "baseColorTexture": {
          "index": 7
        },
        "metallicFactor": 0.0,
        "roughnessFactor": 0.6
      }
    },
    {
      "alphaMode": "BLEND",
      "doubleSided": true,
      "name": "Material_178",
      "pbrMetallicRoughness": {
        "baseColorFactor": [
          1.0,
          1.0,
          1.0,
          0.32882604059183373
        ],
        "baseColorTexture": {
          "index": 8
        },
        "metallicFactor": 0.0,
        "roughnessFactor": 0.6
      }
    },
    {
      "doubleSided": true,
      "name": "Material_185",
      "pbrMetallicRoughness": {
        "baseColorTexture": {
          "index": 9
        },
        "metallicFactor": 0.0,
        "roughnessFactor": 0.6
      }
    },
    {
      "doubleSided": true,
      "name": "Material_186",
      "pbrMetallicRoughness": {
        "baseColorTexture": {
          "index": 10
        },
        "metallicFactor": 0.0,
        "roughnessFactor": 0.6
      }
    },
    {
      "alphaMode": "BLEND",
      "doubleSided": true,
      "name": "Material_189",
      "pbrMetallicRoughness": {
        "baseColorTexture": {
          "index": 11
        },
        "metallicFactor": 0.0,
        "roughnessFactor": 0.6
      }
    }
  ],
  "meshes": [
    {
      "name": "Crate_Material #184_0",
      "primitives": [
        {
          "attributes": {
            "NORMAL": 1,
            "POSITION": 0,
            "TEXCOORD_0": 2
          },
          "indices": 3,
          "material": 1,
          "mode": 4
        }
      ]
    },
    {
      "name": "Box015_Material #0_0",
      "primitives": [
        {
          "attributes": {
            "NORMAL": 5,
            "POSITION": 4,
            "TEXCOORD_0": 6
          },
          "indices": 7,
          "material": 2,
          "mode": 4
        }
      ]
    },
    {
      "name": "blinds_Material #0_0",
      "primitives": [
        {
          "attributes": {
            "NORMAL": 9,
            "POSITION": 8,
            "TEXCOORD_0": 10
          },
          "indices": 11,
          "material": 2,
          "mode": 4
        }
      ]
    },
    {
      "name": "folds2_Material #0_0",
      "primitives": [
        {
          "attributes": {
            "NORMAL": 13,
            "POSITION": 12,
            "TEXCOORD_0": 14
          },
          "indices": 15,
          "material": 2,
          "mode": 4
        }
      ]
    },
    {
      "name": "airco001_Material #63_0",
      "primitives": [
        {
          "attributes": {
            "NORMAL": 17,
            "POSITION": 16,
            "TEXCOORD_0": 18
          },
          "indices": 19,
          "material": 3,
          "mode": 4
        }
      ]
    },
    {
      "name": "airco002_Material #63_0",
      "primitives": [
        {
          "attributes": {
            "NORMAL": 21,
            "POSITION": 20,
            "TEXCOORD_0": 22
          },
          "indices": 23,
          "material": 3,
          "mode": 4
        }
      ]
    },
    {
      "name": "airco003_Material #63_0",
      "primitives": [
        {
          "attributes": {
            "NORMAL": 25,
            "POSITION": 24,
            "TEXCOORD_0": 26
          },
          "indices": 27,
          "material": 3,
          "mode": 4
        }
      ]
    },
    {
      "name": "Plane001__0",
      "primitives": [
        {
          "attributes": {
            "NORMAL": 29,
            "POSITION": 28,
            "TEXCOORD_0": 30
          },
          "indices": 31,
          "material": 0,
          "mode": 4
        }
      ]
    },
    {
      "name": "folds_Material #0_0",
      "primitives": [
        {
          "attributes": {
            "NORMAL": 33,
            "POSITION": 32,
            "TEXCOORD_0": 34
          },
          "indices": 35,
          "material": 2,
          "mode": 4
        }
      ]
    },
    {
      "name": "folds003_Material #0_0",
      "primitives": [
        {
          "attributes": {
            "NORMAL": 37,
            "POSITION": 36,
            "TEXCOORD_0": 38
          },
          "indices": 39,
          "material": 2,
          "mode": 4
        }
      ]
    },
    {
      "name": "folds004_Material #0_0",
      "primitives": [
        {
          "attributes": {
            "NORMAL": 41,
            "POSITION": 40,
            "TEXCOORD_0": 42
          },
          "indices": 43,
          "material": 2,
          "mode": 4
        }
      ]
    },
    {
      "name": "Box017_Material #179_0",
      "primitives": [
        {
          "attributes": {
            "NORMAL": 45,
            "POSITION": 44,
            "TEXCOORD_0": 46
          },
          "indices": 47,
          "material": 4,
          "mode": 4
        }
      ]
    },
    {
      "name": "Box017_Material #187_0",
      "primitives": [
        {
          "attributes": {
            "NORMAL": 49,
            "POSITION": 48,
            "TEXCOORD_0": 50
          },
          "indices": 51,
          "material": 5,
          "mode": 4
        }
      ]
    },
    {
      "name": "Box017_Material #188_0",
      "primitives": [
        {
          "attributes": {
            "NORMAL": 53,
            "POSITION": 52,
            "TEXCOORD_0": 54
          },
          "indices": 55,
          "material": 6,
          "mode": 4
        }
      ]
    },
    {
      "name": "Box017_Material #181_0",
      "primitives": [
        {
          "attributes": {
            "NORMAL": 57,
            "POSITION": 56,
            "TEXCOORD_0": 58
          },
          "indices": 59,
          "material": 7,
          "mode": 4
        }
      ]
    },
    {
      "name": "Box017_Material #180_0",
      "primitives": [
        {
          "attributes": {
            "NORMAL": 61,
            "POSITION": 60,
            "TEXCOORD_0": 62
          },
          "indices": 63,
          "material": 8,
          "mode": 4
        }
      ]
    },
    {
      "name": "Box017_Material #178_0",
      "primitives": [
        {
          "attributes": {
            "NORMAL": 65,
            "POSITION": 64,
            "TEXCOORD_0": 66
          },
          "indices": 67,
          "material": 9,
          "mode": 4
        }
      ]
    },
    {
      "name": "Box017_Material #185_0",
      "primitives": [
        {
          "attributes": {
            "NORMAL": 69,
            "POSITION": 68,
            "TEXCOORD_0": 70
          },
          "indices": 71,
          "material": 10,
          "mode": 4
        }
      ]
    },
    {
      "name": "Box017_Material #186_0",
      "primitives": [
        {
          "attributes": {
            "NORMAL": 73,
            "POSITION": 72,
            "TEXCOORD_0": 74
          },
          "indices": 75,
          "material": 11,
          "mode": 4
        }
      ]
    },
    {
      "name": "Object002_Material #189_0",
      "primitives": [
        {
          "attributes": {
            "NORMAL": 77,
            "POSITION": 76,
            "TEXCOORD_0": 78,
            "TEXCOORD_1": 79
          },
          "indices": 80,
          "material": 12,
          "mode": 4
        }
      ]
    },
    {
      "name": "Object004_Material #189_0",
      "primitives": [
        {
          "attributes": {
            "NORMAL": 82,
            "POSITION": 81,
            "TEXCOORD_0": 83,
            "TEXCOORD_1": 84
          },
          "indices": 85,
          "material": 12,
          "mode": 4
        }
      ]
    },
    {
      "name": "Object009_Material #189_0",
      "primitives": [
        {
          "attributes": {
            "NORMAL": 87,
            "POSITION": 86,
            "TEXCOORD_0": 88,
            "TEXCOORD_1": 89
          },
          "indices": 90,
          "material": 12,
          "mode": 4
        }
      ]
    },
    {
      "name": "Object010_Material #189_0",
      "primitives": [
        {
          "attributes": {
            "NORMAL": 92,
            "POSITION": 91,
            "TEXCOORD_0": 93,
            "TEXCOORD_1": 94
          },
          "indices": 95,
          "material": 12,
          "mode": 4
        }
      ]
    },
    {
      "name": "Object011_Material #189_0",
      "primitives": [
        {
          "attributes": {
            "NORMAL": 97,
            "POSITION": 96,
            "TEXCOORD_0": 98,
            "TEXCOORD_1": 99
          },
          "indices": 100,
          "material": 12,
          "mode": 4
        }
      ]
    }
  ],
  "nodes": [
    {
      "children": [
        1
      ],
      "matrix": [
        1.0,
        0.0,
        0.0,
        0.0,
        0.0,
        2.220446049250313e-16,
        -1.0,
        0.0,
        0.0,
        1.0,
        2.220446049250313e-16,
        0.0,
        0.0,
        0.0,
        0.0,
        1.0
      ],
      "name": "Sketchfab_model"
    },
    {
      "children": [
        2
      ],
      "matrix": [
        1.0,
        0.0,
        0.0,
        0.0,
        0.0,
        0.0,
        1.0,
        0.0,
        0.0,
        -1.0,
        0.0,
        0.0,
        0.0,
        0.0,
        0.0,
        1.0
      ],
      "name": "0a660b61ff8f4a599d8b721d3e3d3c1c.fbx"
    },
    {
      "children": [
        3,
        6,
        8,
        11,
        14,
        17,
        20,
        23,
        25,
        28,
        31,
        34,
        43,
        46,
        49,
        52,
        55
      ],
      "name": "RootNode"
    },
    {
      "children": [
        4
      ],
      "matrix": [
        1.2983440160751343,
        0.0,
        0.0,
        0.0,
        0.0,
        2.365918663985319e-16,
        -1.0655150413513184,
        0.0,
        0.0,
        1.0,
        2.220446049250313e-16,
        0.0,
        -85.71888732910156,
        -2.5994644165039063,
        319.10113525390625,
        1.0
      ],
      "name": "Crate"
    },
    {
      "children": [
        5
      ],
      "matrix": [
        1.0,
        0.0,
        -0.0,
        0.0,
        0.0,
        1.0,
        0.0,
        0.0,
        0.0,
        0.0,
        1.0,
        0.0,
        0.0,
        0.0,
        2.5994644165039063,
        1.0
      ],
      "name": "Object_4"
    },
    {
      "mesh": 0,
      "name": "Crate_Material #184_0"
    },
    {
      "children": [
        7
      ],
      "matrix": [
        1.0,
        0.0,
        0.0,
        0.0,
        0.0,
        2.220446049250313e-16,
        -1.0,
        0.0,
        0.0,
        1.0,
        2.220446049250313e-16,
        0.0,
        58.654457092285156,
        64.79937744140625,
        319.12677001953125,
        1.0
      ],
      "name": "Box015"
    },
    {
      "mesh": 1,
      "name": "Box015_Material #0_0"
    },
    {
      "children": [
        9
      ],
      "matrix": [
        1.3482999801635742,
        0.0,
        0.0,
        0.0,
        0.0,
        2.993827364158484e-16,
        -1.3482999801635742,
        0.0,
        0.0,
        1.3482999801635742,
        2.993827364158484e-16,
        0.0,
        467.8136901855469,
        156.09518432617188,
        49.00604248046875,
        1.0
      ],
      "name": "blinds"
    },
    {
      "children": [
        10
      ],
      "matrix": [
        1.0,
        0.0,
        -0.0,
        0.0,
        0.0,
        1.0,
        0.0,
        0.0,
        0.0,
        0.0,
        1.0,
        0.0,
        -276.67333984375,
        -300.13177490234375,
        -115.45831298828125,
        1.0
      ],
      "name": "Object_9"
    },
    {
      "mesh": 2,
      "name": "blinds_Material #0_0"
    },
    {
      "children": [
        12
      ],
      "matrix": [
        5.89360632114742e-08,
        7.48456841039621e-17,
        -1.348299980163573,
        0.0,
        -1.348299980163573,
        1.496913682079242e-16,
        -5.893606328631988e-08,
        0.0,
        2.245370523118863e-16,
        1.3482999801635742,
        0.0,
        0.0,
        471.3727111816406,
        156.09518432617188,
        36.2891960144043,
        1.0
      ],
      "name": "folds2"
    },
    {
      "children": [
        13
      ],
      "matrix": [
        1.0,
        0.0,
        -0.0,
        0.0,
        0.0,
        1.0,
        0.0,
        0.0,
        0.0,
        0.0,
        1.0,
        0.0,
        -276.67333984375,
        -300.13177490234375,
        -115.45831298828125,
        1.0
      ],
      "name": "Object_12"
    },
    {
      "mesh": 3,
      "name": "folds2_Material #0_0"
    },
    {
      "children": [
        15
      ],
      "matrix": [
        3.0283892192716373e-07,
        -3.0955437788506596e-16,
        1.8588119745254268,
        0.0,
        1.8588119745254268,
        4.1273917051342127e-16,
        -3.0283892203034854e-07,
        0.0,
        -5.159239631417766e-16,
        1.8588119745254517,
        2.0636958525671064e-16,
        0.0,
        -199.71908569335938,
        391.6546936035156,
        -201.97454833984375,
        1.0
      ],
      "name": "airco001"
    },
    {
      "children": [
        16
      ],
      "matrix": [
        1.0,
        0.0,
        -0.0,
        0.0,
        0.0,
        1.0,
        0.0,
        0.0,
        0.0,
        0.0,
        1.0,
        0.0,
        -256.1650390625,
        39.60898208618164,
        -5.878345489501953,
        1.0
      ],
      "name": "Object_15"
    },
    {
      "mesh": 4,
      "name": "airco001_Material #63_0"
    },
    {
      "children": [
        18
      ],
      "matrix": [
        -1.858811974525353,
        2.2763877421267827e-16,
        -6.056778444946947e-07,
        0.0,
        -6.056778444946947e-07,
        0.0,
        1.858811974525353,
        0.0,
        2.2763877421267827e-16,
        1.8588119745254517,
        0.0,
        0.0,
        -63.57774353027344,
        391.6546936035156,
        -693.90966796875,
        1.0
      ],
      "name": "airco002"
    },
    {
      "children": [
        19
      ],
      "matrix": [
        1.0,
        0.0,
        -0.0,
        0.0,
        0.0,
        1.0,
        0.0,
        0.0,
        0.0,
        0.0,
        1.0,
        0.0,
        -256.1650390625,
        39.60898208618164,
        -5.878345489501953,
        1.0
      ],
      "name": "Object_18"
    },
    {
      "mesh": 5,
      "name": "airco002_Material #63_0"
    },
    {
      "children": [
        21
      ],
      "matrix": [
        -1.858811974525353,
        2.2763877421267827e-16,
        -6.056778444946947e-07,
        0.0,
        -6.056778444946947e-07,
        0.0,
        1.858811974525353,
        0.0,
        2.2763877421267827e-16,
        1.8588119745254517,
        0.0,
        0.0,
        325.390625,
        391.6546936035156,
        -693.90966796875,
        1.0
      ],
      "name": "airco003"
    },
    {
      "children": [
        22
      ],
      "matrix": [
        1.0,
        0.0,
        -0.0,
        0.0,
        0.0,
        1.0,
        0.0,
        0.0,
        0.0,
        0.0,
        1.0,
        0.0,
        -256.1650390625,
        39.60898208618164,
        -5.878345489501953,
        1.0
      ],
      "name": "Object_21"
    },
    {
      "mesh": 6,
      "name": "airco003_Material #63_0"
    },
    {
      "children": [
        24
      ],
      "matrix": [
        -0.999999999999996,
        8.742277669594042e-08,
        -1.2246467202362698e-16,
        0.0,
        1.2246468525851679e-16,
        2.220446049250313e-16,
        -1.0,
        0.0,
        -8.742277669594042e-08,
        -0.9999999999999962,
        -2.220446049250313e-16,
        0.0,
        141.82522583007813,
        285.1422119140625,
        -337.91363525390625,
        1.0
      ],
      "name": "Plane001"
    },
    {
      "mesh": 7,
      "name": "Plane001__0"
    },
    {
      "children": [
        26
      ],
      "matrix": [
        1.8795419931411743,
        0.0,
        0.0,
        0.0,
        0.0,
        2.220446049250313e-16,
        -1.0,
        0.0,
        0.0,
        1.0,
        2.220446049250313e-16,
        0.0,
        114.5374526977539,
        396.718994140625,
        -46.175445556640625,
        1.0
      ],
      "name": "folds"
    },
    {
      "children": [
        27
      ],
      "matrix": [
        1.0,
        0.0,
        -0.0,
        0.0,
        0.0,
        1.0,
        0.0,
        0.0,
        0.0,
        0.0,
        1.0,
        0.0,
        -179.74679565429688,
        -25.789886474609375,
        53.22001647949219,
        1.0
      ],
      "name": "Object_26"
    },
    {
      "mesh": 8,
      "name": "folds_Material #0_0"
    },
    {
      "children": [
        29
      ],
      "matrix": [
        1.8795419931411743,
        0.0,
        0.0,
        0.0,
        0.0,
        2.220446049250313e-16,
        -1.0,
        0.0,
        0.0,
        1.0,
        2.220446049250313e-16,
        0.0,
        286.0669860839844,
        396.718994140625,
        -46.175445556640625,
        1.0
      ],
      "name": "folds003"
    },
    {
      "children": [
        30
      ],
      "matrix": [
        1.0,
        0.0,
        -0.0,
        0.0,
        0.0,
        1.0,
        0.0,
        0.0,
        0.0,
        0.0,
        1.0,
        0.0,
        -179.74679565429688,
        -25.789886474609375,
        53.22001647949219,
        1.0
      ],
      "name": "Object_29"
    },
    {
      "mesh": 9,
      "name": "folds003_Material #0_0"
    },
    {
      "children": [
        32
      ],
      "matrix": [
        9.737105683991533e-08,
        1.2365609003838916e-16,
        -2.227590084075926,
        0.0,
        -0.9999999999999991,
        1.1102230246251565e-16,
        -4.37113891194052e-08,
        0.0,
        1.9130779758986738e-16,
        1.148764967918396,
        0.0,
        0.0,
        463.3977355957031,
        392.17230224609375,
        -492.4513244628906,
        1.0
      ],
      "name": "folds004"
    },
    {
      "children": [
        33
      ],
      "matrix": [
        1.0,
        0.0,
        -0.0,
        0.0,
        0.0,
        1.0,
        0.0,
        0.0,
        0.0,
        0.0,
        1.0,
        0.0,
        -179.74679565429688,
        -25.789886474609375,
        53.22001647949219,
        1.0
      ],
      "name": "Object_32"
    },
    {
      "mesh": 10,
      "name": "folds004_Material #0_0"
    },
    {
      "children": [
        35,
        36,
        37,
        38,
        39,
        40,
        41,
        42
      ],
      "matrix": [
        1.0,
        0.0,
        0.0,
        0.0,
        0.0,
        2.220446049250313e-16,
        -1.0,
        0.0,
        0.0,
        1.0,
        2.220446049250313e-16,
        0.0,
        107.32117462158203,
        75.524658203125,
        -262.4383544921875,
        1.0
      ],
      "name": "Box017"
    },
    {
      "mesh": 11,
      "name": "Box017_Material #179_0"
    },
    {
      "mesh": 12,
      "name": "Box017_Material #187_0"
    },
    {
      "mesh": 13,
      "name": "Box017_Material #188_0"
    },
    {
      "mesh": 14,
      "name": "Box017_Material #181_0"
    },
    {
      "mesh": 15,
      "name": "Box017_Material #180_0"
    },
    {
      "mesh": 16,
      "name": "Box017_Material #178_0"
    },
    {
      "mesh": 17,
      "name": "Box017_Material #185_0"
    },
    {
      "mesh": 18,
      "name": "Box017_Material #186_0"
    },
    {
      "children": [
        44
      ],
      "matrix": [
        8.769378779294877e-08,
        -2.0062000751495344,
        0.0,
        0.0,
        0.0,
        0.0,
        -2.006200075149536,
        0.0,
        2.0062000751495344,
        8.769378779294877e-08,
        0.0,
        0.0,
        463.04376220703125,
        392.6129150390625,
        -631.807373046875,
        1.0
      ],
      "name": "Object002"
    },
    {
      "children": [
        45
      ],
      "matrix": [
        1.0,
        0.0,
        -0.0,
        0.0,
        0.0,
        1.0,
        0.0,
        0.0,
        0.0,
        0.0,
        1.0,
        0.0,
        -49.33647155761719,
        88.54302978515625,
        -214.21746826171875,
        1.0
      ],
      "name": "Object_44"
    },
    {
      "mesh": 19,
      "name": "Object002_Material #189_0"
    },
    {
      "children": [
        47
      ],
      "matrix": [
        3.9024999141693115,
        0.0,
        0.0,
        0.0,
        0.0,
        -3.902499914169308,
        1.7058368951513457e-07,
        0.0,
        0.0,
        -1.7058368951513457e-07,
        -3.902499914169308,
        0.0,
        259.54156494140625,
        132.57403564453125,
        -677.667724609375,
        1.0
      ],
      "name": "Object004"
    },
    {
      "children": [
        48
      ],
      "matrix": [
        1.0,
        0.0,
        -0.0,
        0.0,
        0.0,
        1.0,
        0.0,
        0.0,
        0.0,
        0.0,
        1.0,
        0.0,
        -125.52880859375,
        207.14089965820313,
        -216.82757568359375,
        1.0
      ],
      "name": "Object_47"
    },
    {
      "mesh": 20,
      "name": "Object004_Material #189_0"
    },
    {
      "children": [
        50
      ],
      "matrix": [
        8.769378779294877e-08,
        -2.0062000751495344,
        -3.3409942731536015e-16,
        0.0,
        1.75387575697264e-07,
        7.350187400937923e-15,
        2.0062000751495286,
        0.0,
        -2.006200075149527,
        -8.769378779294877e-08,
        1.7538757558589754e-07,
        0.0,
        -183.190673828125,
        211.52023315429688,
        -407.338134765625,
        1.0
      ],
      "name": "Object009"
    },
    {
      "children": [
        51
      ],
      "matrix": [
        1.0,
        0.0,
        -0.0,
        0.0,
        0.0,
        1.0,
        0.0,
        0.0,
        0.0,
        0.0,
        1.0,
        0.0,
        -49.33647155761719,
        88.54302978515625,
        -214.21746826171875,
        1.0
      ],
      "name": "Object_50"
    },
    {
      "mesh": 21,
      "name": "Object009_Material #189_0"
    },
    {
      "children": [
        53
      ],
      "matrix": [
        1.5047815407943568e-07,
        -3.442538976669309,
        -3.821986035067794e-16,
        0.0,
        3.821986035067794e-16,
        0.0,
        -3.4425389766693115,
        0.0,
        3.442538976669309,
        1.504781544616343e-07,
        0.0,
        0.0,
        463.04376220703125,
        458.88494873046875,
        -137.0406494140625,
        1.0
      ],
      "name": "Object010"
    },
    {
      "children": [
        54
      ],
      "matrix": [
        1.0,
        0.0,
        -0.0,
        0.0,
        0.0,
        1.0,
        0.0,
        0.0,
        0.0,
        0.0,
        1.0,
        0.0,
        -49.33647155761719,
        88.54302978515625,
        -214.21746826171875,
        1.0
      ],
      "name": "Object_53"
    },
    {
      "mesh": 22,
      "name": "Object010_Material #189_0"
    },
    {
      "children": [
        56
      ],
      "matrix": [
        -6.318927764892556,
        5.524182137541496e-07,
        -7.738454323060373e-16,
        0.0,
        5.524182137541491e-07,
        6.318927764892548,
        2.762091086670816e-07,
        0.0,
        2.4920812783354544e-14,
        2.7620910866708054e-07,
        -6.318927764892574,
        0.0,
        -207.74859619140625,
        202.49111938476563,
        -677.667724609375,
        1.0
      ],
      "name": "Object011"
    },
    {
      "children": [
        57
      ],
      "matrix": [
        1.0,
        0.0,
        -0.0,
        0.0,
        0.0,
        1.0,
        0.0,
        0.0,
        0.0,
        0.0,
        1.0,
        0.0,
        -125.52880859375,
        207.14089965820313,
        -216.82757568359375,
        1.0
      ],
      "name": "Object_56"
    },
    {
      "mesh": 23,
      "name": "Object011_Material #189_0"
    }
  ],
  "samplers": [
    {
      "magFilter": 9729,
      "minFilter": 9987,
      "wrapS": 10497,
      "wrapT": 10497
    }
  ],
  "scene": 0,
  "scenes": [
    {
      "name": "Sketchfab_Scene",
      "nodes": [
        0
      ]
    }
  ],
  "textures": [
    {
      "sampler": 0,
      "source": 0
    },
    {
      "sampler": 0,
      "source": 1
    },
    {
      "sampler": 0,
      "source": 2
    },
    {
      "sampler": 0,
      "source": 3
    },
    {
      "sampler": 0,
      "source": 4
    },
    {
      "sampler": 0,
      "source": 5
    },
    {
      "sampler": 0,
      "source": 6
    },
    {
      "sampler": 0,
      "source": 7
    },
    {
      "sampler": 0,
      "source": 8
    },
    {
      "sampler": 0,
      "source": 9
    },
    {
      "sampler": 0,
      "source": 10
    },
    {
      "sampler": 0,
      "source": 11
    }
  ]
}
