{
  "accessors": [
    {
      "bufferView": 2,
      "componentType": 5126,
      "count": 454,
      "max": [
        11.500000953674316,
        104.58736419677734,
        66.78702545166016
      ],
      "min": [
        -11.500000953674316,
        0.0,
        -66.0189437866211
      ],
      "type": "VEC3"
    },
    {
      "bufferView": 2,
      "byteOffset": 5448,
      "componentType": 5126,
      "count": 454,
      "max": [
        1.0,
        1.0,
        1.0
      ],
      "min": [
        -1.0,
        -1.0,
        -1.0
      ],
      "type": "VEC3"
    },
    {
      "bufferView": 3,
      "componentType": 5126,
      "count": 454,
      "max": [
        1.0,
        1.0,
        1.0,
        1.0
      ],
      "min": [
        -1.0,
        -1.0,
        -1.0,
        1.0
      ],
      "type": "VEC4"
    },
    {
      "bufferView": 1,
      "componentType": 5126,
      "count": 454,
      "max": [
        0.9878542423248291,
        0.9888060092926025
      ],
      "min": [
        0.012145744636654854,
        0.01119403075426817
      ],
      "type": "VEC2"
    },
    {
      "bufferView": 0,
      "componentType": 5125,
      "count": 930,
      "type": "SCALAR"
    },
    {
      "bufferView": 2,
      "byteOffset": 10896,
      "componentType": 5126,
      "count": 560,
      "max": [
        570.8082275390625,
        1725.146484375,
        498.82861328125
      ],
      "min": [
        -300.741943359375,
        4.76837158203125e-05,
        -498.82879638671875
      ],
      "type": "VEC3"
    },
    {
      "bufferView": 2,
      "byteOffset": 17616,
      "componentType": 5126,
      "count": 560,
      "max": [
        1.0,
        0.992715060710907,
        1.0
      ],
      "min": [
        -1.0,
        -0.992715060710907,
        -1.0
      ],
      "type": "VEC3"
    },
    {
      "bufferView": 3,
      "byteOffset": 7264,
      "componentType": 5126,
      "count": 560,
      "max": [
        0.9999731183052063,
        0.7529658675193787,
        0.9999800324440002,
        1.0
      ],
      "min": [
        -0.9976456165313721,
        -0.7438133358955383,
        -0.9999105930328369,
        1.0
      ],
      "type": "VEC4"
    },
    {
      "bufferView": 1,
      "byteOffset": 3632,
      "componentType": 5126,
      "count": 560,
      "max": [
        0.9970006942749023,
        0.9981325268745422
      ],
      "min": [
        0.0029992996715009212,
        0.0018674877937883139
      ],
      "type": "VEC2"
    },
    {
      "bufferView": 0,
      "byteOffset": 3720,
      "componentType": 5125,
      "count": 1722,
      "type": "SCALAR"
    },
    {
      "bufferView": 2,
      "byteOffset": 24336,
      "componentType": 5126,
      "count": 914,
      "max": [
        151.42774963378906,
        2338.63427734375,
        2382.13525390625
      ],
      "min": [
        -150.5509796142578,
        -1355.238525390625,
        -2392.567138671875
      ],
      "type": "VEC3"
    },
    {
      "bufferView": 2,
      "byteOffset": 35304,
      "componentType": 5126,
      "count": 914,
      "max": [
        1.0,
        0.8946369886398315,
        1.0
      ],
      "min": [
        -1.0,
        -0.7306583523750305,
        -1.0
      ],
      "type": "VEC3"
    },
    {
      "bufferView": 3,
      "byteOffset": 16224,
      "componentType": 5126,
      "count": 914,
      "max": [
        1.0,
        0.9970542788505554,
        0.9999516010284424,
        1.0
      ],
      "min": [
        -1.0,
        -0.9970542788505554,
        -1.0,
        1.0
      ],
      "type": "VEC4"
    },
    {
      "bufferView": 1,
      "byteOffset": 8112,
      "componentType": 5126,
      "count": 914,
      "max": [
        0.9991186857223511,
        0.9993329644203186
      ],
      "min": [
        0.000881316140294075,
        0.0006670943694189191
      ],
      "type": "VEC2"
    },
    {
      "bufferView": 0,
      "byteOffset": 10608,
      "componentType": 5125,
      "count": 2964,
      "type": "SCALAR"
    }
  ],
  "asset": {
    "extras": {
      "author": "Gunnar Correa (https://sketchfab.com/gunnarcorrea)",
      "license": "CC-BY-4.0 (http://creativecommons.org/licenses/by/4.0/)",
      "source": "https://sketchfab.com/3d-models/subway-turnstile-eed7f05ffcff4251a3f1cbef98342093",
      "title": "Subway Turnstile"
    },
    "generator": "Sketchfab-12.68.0",
    "version": "2.0"
  },
  "bufferViews": [
    {
      "buffer": 0,
      "byteLength": 22464,
      "name": "floatBufferViews",
      "target": 34963
    },
    {
      "buffer": 0,
      "byteLength": 15424,
      "byteOffset": 22464,
      "byteStride": 8,
      "name": "floatBufferViews",
      "target": 34962
    },
    {
      "buffer": 0,
      "byteLength": 46272,
      "byteOffset": 37888,
      "byteStride": 12,
      "name": "floatBufferViews",
      "target": 34962
    },
    {
      "buffer": 0,
      "byteLength": 30848,
      "byteOffset": 84160,
      "byteStride": 16,
      "name": "floatBufferViews",
      "target": 34962
    }
  ],
  "buffers": [
    {
      "byteLength": 115008,
      "uri": "scene.bin"
    }
  ],
  "images": [
    {
      "uri": "textures/Catraca_baseColor.png"
    },
    {
      "uri": "textures/Catraca_metallicRoughness.png"
    },
    {
      "uri": "textures/Catraca_emissive.png"
    },
    {
      "uri": "textures/Catraca_normal.png"
    },
    {
      "uri": "textures/BaseGiratoria_baseColor.png"
    },
    {
      "uri": "textures/BaseGiratoria_metallicRoughness.png"
    },
    {
      "uri": "textures/BaseGiratoria_normal.png"
    },
    {
      "uri": "textures/Protecao_baseColor.png"
    },
    {
      "uri": "textures/Protecao_metallicRoughness.png"
    },
    {
      "uri": "textures/Protecao_normal.png"
    }
  ],
  "materials": [
    {
      "doubleSided": true,
      "emissiveFactor": [
        1.0,
        1.0,
        1.0
      ],
      "emissiveTexture": {
        "index": 2
      },
      "name": "Catraca",
      "normalTexture": {
        "index": 3
      },
      "pbrMetallicRoughness": {
        "baseColorTexture": {
          "index": 0
        },
        "metallicRoughnessTexture": {
          "index": 1
        }
      }
    },
    {
      "doubleSided": true,
      "name": "BaseGiratoria",
      "normalTexture": {
        "index": 6
      },
      "pbrMetallicRoughness": {
        "baseColorTexture": {
          "index": 4
        },
        "metallicRoughnessTexture": {
          "index": 5
        }
      }
    },
    {
      "doubleSided": true,
      "name": "Protecao",
      "normalTexture": {
        "index": 9
      },
      "pbrMetallicRoughness": {
        "baseColorTexture": {
          "index": 7
        },
        "metallicRoughnessTexture": {
          "index": 8
        }
      }
    }
  ],
  "meshes": [
    {
      "name": "Catraca_Catraca_0",
      "primitives": [
        {
          "attributes": {
            "NORMAL": 1,
            "POSITION": 0,
            "TANGENT": 2,
            "TEXCOORD_0": 3
          },
          "indices": 4,
          "material": 0,
          "mode": 4
        }
      ]
    },
    {
      "name": "BaseGiratoria_BaseGiratoria_0",
      "primitives": [
        {
          "attributes": {
            "NORMAL": 6,
            "POSITION": 5,
            "TANGENT": 7,
            "TEXCOORD_0": 8
          },
          "indices": 9,
          "material": 1,
          "mode": 4
        }
      ]
    },
    {
      "name": "Protecao_Protecao_0",
      "primitives": [
        {
          "attributes": {
            "NORMAL": 11,
            "POSITION": 10,
            "TANGENT": 12,
            "TEXCOORD_0": 13
          },
          "indices": 14,
          "material": 2,
          "mode": 4
        }
      ]
    }
  ],
  "nodes": [
    {
      "children": [
        1
      ],
      "matrix": [
        1.0,
        0.0,
        0.0,
        0.0,
        0.0,
        2.220446049250313e-16,
        -1.0,
        0.0,
        0.0,
        1.0,
        2.220446049250313e-16,
        0.0,
        0.0,
        0.0,
        0.0,
        1.0
      ],
      "name": "Sketchfab_model"
    },
    {
      "children": [
        2
      ],
      "matrix": [
        1.0,
        0.0,
        0.0,
        0.0,
        0.0,
        0.0,
        1.0,
        0.0,
        0.0,
        -1.0,
        0.0,
        0.0,
        0.0,
        0.0,
        0.0,
        1.0
      ],
      "name": "2dc1d2823622439d8ac9eaf9d67038be.fbx"
    },
    {
      "children": [
        3,
        5,
        7
      ],
      "name": "RootNode"
    },
    {
      "children": [
        4
      ],
      "matrix": [
        1.0,
        0.0,
        0.0,
        0.0,
        0.0,
        1.0,
        0.0,
        0.0,
        0.0,
        0.0,
        1.0,
        0.0,
        88.5,
        -100.0,
        -34.999996185302734,
        1.0
      ],
      "name": "Catraca"
    },
    {
      "mesh": 0,
      "name": "Catraca_Catraca_0"
    },
    {
      "children": [
        6
      ],
      "matrix": [
        0.016427185172237367,
        -0.020756143970511336,
        0.04584769922830552,
        0.0,
        -0.017461993211141613,
        -0.013820079313660034,
        -3.4889959680540864e-09,
        0.0,
        0.02845274418800439,
        -0.03595070058707087,
        -0.026470170479381154,
        0.0,
        82.46153259277344,
        -16.274911880493164,
        -34.99999237060547,
        1.0
      ],
      "name": "BaseGiratoria"
    },
    {
      "mesh": 1,
      "name": "BaseGiratoria_BaseGiratoria_0"
    },
    {
      "children": [
        8
      ],
      "matrix": [
        0.028085192665457726,
        0.0,
        0.0,
        0.0,
        0.0,
        0.028085192665457726,
        0.0,
        0.0,
        0.0,
        0.0,
        0.028085192665457726,
        0.0,
        22.906415939331055,
        -62.985877990722656,
        -34.04920196533203,
        1.0
      ],
      "name": "Protecao"
    },
    {
      "mesh": 2,
      "name": "Protecao_Protecao_0"
    }
  ],
  "samplers": [
    {
      "magFilter": 9729,
      "minFilter": 9987,
      "wrapS": 10497,
      "wrapT": 10497
    }
  ],
  "scene": 0,
  "scenes": [
    {
      "name": "Sketchfab_Scene",
      "nodes": [
        0
      ]
    }
  ],
  "textures": [
    {
      "sampler": 0,
      "source": 0
    },
    {
      "sampler": 0,
      "source": 1
    },
    {
      "sampler": 0,
      "source": 2
    },
    {
      "sampler": 0,
      "source": 3
    },
    {
      "sampler": 0,
      "source": 4
    },
    {
      "sampler": 0,
      "source": 5
    },
    {
      "sampler": 0,
      "source": 6
    },
    {
      "sampler": 0,
      "source": 7
    },
    {
      "sampler": 0,
      "source": 8
    },
    {
      "sampler": 0,
      "source": 9
    }
  ]
}
